<svg width="19" height="21" viewBox="0 0 19 21" fill="none" xmlns="http://www.w3.org/2000/svg">
<path opacity="0.6" d="M8.63713 20.7265C10.2012 20.7265 11.5096 19.6115 11.81 18.1357H5.46423C5.76484 19.6115 7.07321 20.7265 8.63713 20.7265Z" fill="#42526E"/>
<path opacity="0.6" d="M14.6921 10.3625C14.6887 10.3625 14.6852 10.3633 14.6817 10.3633C11.3491 10.3633 8.63653 7.6515 8.63653 4.31811C8.63653 3.40174 8.84732 2.5355 9.21434 1.75655C9.02427 1.73852 8.83166 1.72729 8.63653 1.72729C5.29792 1.72729 2.59135 4.4337 2.59135 7.77247V10.1802C2.59135 11.8892 1.8426 13.5025 0.52901 14.613C0.0911466 14.987 -0.103196 15.5829 0.0539859 16.1642C0.237101 16.8403 0.90552 17.2722 1.60683 17.2722H15.662C16.3977 17.2722 17.0913 16.7954 17.2406 16.0743C17.3563 15.5164 17.1577 14.9594 16.7251 14.5958C15.4694 13.5431 14.7431 11.9963 14.6921 10.3625Z" fill="#42526E"/>
<path d="M18.9993 4.31808C18.9993 6.70284 17.0661 8.63599 14.6812 8.63599C12.2964 8.63599 10.3633 6.70284 10.3633 4.31808C10.3633 1.93331 12.2964 0 14.6812 0C17.0661 0 18.9993 1.93331 18.9993 4.31808Z" fill="#25BA70"/>
</svg>
