<svg width="22" height="21" viewBox="0 0 22 21" fill="none" xmlns="http://www.w3.org/2000/svg">
<path d="M18.2187 9.24451C17.0766 9.24451 16.1421 8.35715 16.1421 7.27265C16.1421 6.18814 17.0766 5.30078 18.2187 5.30078C19.3608 5.30078 20.2953 6.18814 20.2953 7.27265C20.2956 8.35715 19.3611 9.24451 18.2187 9.24451ZM18.2187 5.69485C17.3102 5.69485 16.5833 6.40978 16.5833 7.24775C16.5833 8.08595 17.3362 8.80066 18.2187 8.80066C19.1272 8.80066 19.8541 8.08595 19.8541 7.24775C19.8541 6.38506 19.1014 5.69485 18.2187 5.69485Z" fill="#363C90"/>
<path d="M19.3614 7.27228C19.3614 7.66657 19.1538 7.98721 18.8161 8.20903C18.6345 8.3076 18.4267 8.38147 18.193 8.38147C17.7778 8.38147 17.4401 8.18433 17.2065 7.88839C17.1027 7.69125 17.0249 7.4941 17.0249 7.29672C17.0249 6.82834 17.3623 6.40936 17.7778 6.26137C17.9076 6.21198 18.0375 6.1875 18.1673 6.1875C18.5047 6.1875 18.7904 6.31077 18.998 6.50791C19.2574 6.70528 19.3614 6.95182 19.3614 7.27223L19.3614 7.27228Z" fill="#363C90"/>
<path d="M11.1837 20.2379C5.317 20.2379 0.540527 15.7025 0.540527 10.1316C0.540527 4.5609 5.31688 0.0253906 11.1837 0.0253906C17.0504 0.0253906 21.8269 4.56078 21.8269 10.1316C21.8269 15.7022 17.0505 20.2379 11.1837 20.2379ZM11.1837 0.518684C5.60267 0.518684 1.06003 4.83227 1.06003 10.1322C1.06003 15.4317 5.60279 19.7452 11.1837 19.7452C16.7647 19.7452 21.3074 15.4316 21.3074 10.1322C21.3076 4.8325 16.7649 0.518684 11.1837 0.518684Z" fill="#363C90"/>
<path d="M15.0517 5.91638C13.9096 5.91638 12.9751 5.02903 12.9751 3.94452C12.9751 2.86002 13.9096 1.97266 15.0517 1.97266C16.1938 1.97266 17.1283 2.86002 17.1283 3.94452C17.1286 5.02903 16.168 5.91638 15.0517 5.91638ZM15.0517 2.36695C14.1432 2.36695 13.4163 3.08188 13.4163 3.91986C13.4163 4.75806 14.1692 5.47276 15.0517 5.47276C15.9602 5.47276 16.6871 4.75783 16.6871 3.91986C16.6871 3.05716 15.9345 2.36695 15.0517 2.36695Z" fill="#363C90"/>
<path d="M16.1939 3.94415C16.1939 4.33844 15.9863 4.65909 15.6486 4.8809C15.467 4.97947 15.2592 5.05334 15.0255 5.05334C14.6103 5.05334 14.2726 4.8562 14.039 4.56026C13.9352 4.36312 13.8574 4.16598 13.8574 3.9686C13.8574 3.50021 14.1949 3.08124 14.6103 2.93325C14.7402 2.88385 14.87 2.85938 14.9998 2.85938C15.3372 2.85938 15.6229 2.98265 15.8305 3.17979C16.0902 3.37715 16.194 3.62369 16.194 3.94411L16.1939 3.94415Z" fill="#363C90"/>
<path d="M13.1825 15.2338L12.9228 14.9628C12.6632 14.6916 6.43325 8.03619 5.70619 5.57143L5.68018 5.47286L5.7322 5.39898C5.78422 5.30041 6.32927 4.41302 8.53571 5.07857L8.58773 5.10327C9.78186 5.7196 15.7264 8.92396 15.0515 10.5014C14.9995 10.7479 14.6881 12.3255 13.3641 14.9382L13.1825 15.2338ZM6.25137 5.54681C7.00429 7.71582 11.8584 13.0647 13.0529 14.3463C14.2731 11.8567 14.5324 10.3779 14.5324 10.3532L14.5585 10.2793C14.9479 9.51521 11.6511 7.22271 8.35443 5.49738C6.95267 5.10287 6.40738 5.39858 6.25177 5.54655L6.25137 5.54681Z" fill="#363C90"/>
<path d="M13.9357 15.9984L12.9234 14.9631L13.3128 14.6426L14.1436 15.5053C16.4538 15.2588 18.5307 13.9771 19.1017 13.3608C19.2056 13.2622 19.2316 13.1637 19.2056 13.0651C19.1535 12.7692 18.7903 12.4981 18.6345 12.3749C15.7009 11.118 12.5336 6.04011 12.0669 5.27625C11.9371 5.25155 11.6517 5.20237 11.3921 5.35012C11.1064 5.52256 10.9248 5.94179 10.8728 6.53323L10.3535 6.50853C10.4055 5.74444 10.6652 5.20216 11.1064 4.93096C11.6775 4.58585 12.3006 4.83239 12.3266 4.83239L12.4046 4.85708L12.4567 4.93096C12.4827 4.98036 15.8833 10.6739 18.8424 11.9066L18.8685 11.9313C18.9463 11.9807 19.6214 12.3996 19.6992 12.9666C19.7252 13.2131 19.6472 13.4597 19.4656 13.6568C18.8425 14.3718 16.61 15.752 14.0661 15.9985L13.9357 15.9984Z" fill="#363C90"/>
<path d="M14.2472 12.5723L14.1694 12.0792C17.3884 11.5616 18.7642 11.882 18.816 11.9067L18.6862 12.3751C18.6601 12.3749 17.3624 12.0545 14.2472 12.5723V12.5723Z" fill="#363C90"/>
<path d="M11.833 18.7836C10.8985 18.7836 9.83416 18.6111 8.71801 18.1428L8.66599 18.1181L8.63998 18.0687C8.63998 18.0687 8.43237 17.8468 8.0947 17.477C6.40752 15.6284 2.40981 10.9947 1.86488 8.03663L1.83887 7.83949L2.04648 7.76561C2.15029 7.71622 4.87603 6.80438 9.57446 10.6989L9.60047 10.7236C9.80808 10.9702 11.6514 13.2872 11.0542 14.6182C10.8466 15.1113 10.3274 15.407 9.57467 15.5056C9.39307 15.5794 8.14688 16.0231 8.38054 17.0091C8.43256 17.0585 8.45834 17.1077 8.51036 17.1571C8.77 17.4283 8.95161 17.6254 9.00363 17.6993C12.0148 18.981 14.6885 17.7487 15.1555 17.5269C15.2593 17.3297 15.2075 17.2065 15.1815 17.1818L13.8835 15.9246L14.2469 15.5795L15.5189 16.8366C15.6747 16.9599 15.8563 17.305 15.5709 17.8473L15.5449 17.9211L15.4671 17.9458C15.3631 17.9703 13.8833 18.7838 11.8326 18.7838L11.833 18.7836ZM2.40997 8.18461C3.03307 10.7234 6.17402 14.5689 7.8354 16.4419C8.01701 15.653 8.87375 15.1847 9.39301 15.0369H9.44503C10.0421 14.9631 10.3795 14.7904 10.5354 14.4453C10.9506 13.5332 9.70466 11.7093 9.18564 11.0438C5.44715 7.98717 3.08479 8.06105 2.40992 8.18432L2.40997 8.18461Z" fill="#363C90"/>
<path d="M6.04369 8.60363L5.52441 8.57894C5.60221 7.46971 6.38111 7.02603 6.77038 6.95215L6.87419 7.44523L6.82217 7.19869L6.87419 7.44523C6.87442 7.42053 6.12175 7.59297 6.0437 8.60361L6.04369 8.60363Z" fill="#363C90"/>
<path d="M2.25443 8.18371L1.91699 7.78942C1.943 7.76472 3.96764 6.23651 6.09628 7.5184L5.81063 7.93739C4.01967 6.85266 2.28042 8.15901 2.25445 8.18371H2.25443Z" fill="#363C90"/>
<path d="M14.9739 16.9596C14.9479 16.9596 11.5733 16.1464 9.96393 16.8363L9.88613 16.861C9.52268 16.9349 8.74401 16.7378 8.48438 15.6533L9.00365 15.5547C9.18525 16.3682 9.65249 16.3929 9.7823 16.3682C11.5475 15.6041 14.9481 16.442 15.104 16.4667L14.9739 16.9596Z" fill="#363C90"/>
</svg>
