<svg width="18" height="24" viewBox="0 0 18 24" fill="none" xmlns="http://www.w3.org/2000/svg">
<path d="M15.75 0C16.9922 0 18 1.00734 18 2.25V21.75C18 22.9922 16.9922 24 15.75 24H11.25V20.25C11.25 19.0078 10.2422 18 9 18C7.75781 18 6.75 19.0078 6.75 20.25V24H2.25C1.00734 24 0 22.9922 0 21.75V2.25C0 1.00734 1.00734 0 2.25 0H15.75ZM3 12.75C3 13.1625 3.33562 13.5 3.75 13.5H5.25C5.6625 13.5 6 13.1625 6 12.75V11.25C6 10.8375 5.6625 10.5 5.25 10.5H3.75C3.33562 10.5 3 10.8375 3 11.25V12.75ZM8.25 10.5C7.8375 10.5 7.5 10.8375 7.5 11.25V12.75C7.5 13.1625 7.8375 13.5 8.25 13.5H9.75C10.1625 13.5 10.5 13.1625 10.5 12.75V11.25C10.5 10.8375 10.1625 10.5 9.75 10.5H8.25ZM12 12.75C12 13.1625 12.3375 13.5 12.75 13.5H14.25C14.6625 13.5 15 13.1625 15 12.75V11.25C15 10.8375 14.6625 10.5 14.25 10.5H12.75C12.3375 10.5 12 10.8375 12 11.25V12.75ZM3.75 4.5C3.33562 4.5 3 4.8375 3 5.25V6.75C3 7.1625 3.33562 7.5 3.75 7.5H5.25C5.6625 7.5 6 7.1625 6 6.75V5.25C6 4.8375 5.6625 4.5 5.25 4.5H3.75ZM7.5 6.75C7.5 7.1625 7.8375 7.5 8.25 7.5H9.75C10.1625 7.5 10.5 7.1625 10.5 6.75V5.25C10.5 4.8375 10.1625 4.5 9.75 4.5H8.25C7.8375 4.5 7.5 4.8375 7.5 5.25V6.75ZM12.75 4.5C12.3375 4.5 12 4.8375 12 5.25V6.75C12 7.1625 12.3375 7.5 12.75 7.5H14.25C14.6625 7.5 15 7.1625 15 6.75V5.25C15 4.8375 14.6625 4.5 14.25 4.5H12.75Z" fill="#363C90"/>
</svg>
