<svg width="40" height="41" viewBox="0 0 40 41" fill="none" xmlns="http://www.w3.org/2000/svg">
<rect y="0.609833" width="40" height="40" rx="8" fill="#363C90"/>
<path d="M14.9337 15.5396L14.9337 15.5396C14.4607 16.0127 13.6864 16.0163 13.2097 15.5396C12.4527 14.7825 12.9777 13.4593 14.0721 13.4593C15.1576 13.4593 15.6941 14.7793 14.9337 15.5396ZM25.868 27.7547L25.8678 27.7547C24.8182 27.7005 24.3264 26.42 25.0703 25.6762L25.0704 25.6761C25.5393 25.2059 26.3126 25.1944 26.7943 25.6762C27.5736 26.4556 26.9898 27.815 25.868 27.7547ZM16.0578 12.0494C14.768 11.0737 12.9184 11.1732 11.7429 12.3488C10.5673 13.5244 10.4678 15.3739 11.4435 16.6638C8.57056 22.8682 13.1264 30.0318 20.002 30.0318C21.4095 30.0318 22.7463 29.7219 23.9469 29.1658C25.2395 30.1439 27.0886 30.0397 28.2612 28.8671C29.4368 27.6915 29.5362 25.8419 28.5606 24.5521C29.116 23.3516 29.426 22.0149 29.426 20.6079C29.4259 13.7298 22.2596 9.17776 16.0578 12.0494ZM26.8144 23.3652C24.3487 22.6794 22.0727 24.9522 22.7593 27.4202C16.7545 29.8662 10.7599 23.8173 13.1897 17.8506C15.6598 18.5393 17.9293 16.2572 17.2447 13.7955C23.2088 11.3669 29.2613 17.3582 26.8144 23.3652Z" fill="white" stroke="white" stroke-width="0.2"/>
<path d="M20.0019 4.50983C15.7021 4.50983 11.659 6.18456 8.61869 9.22482C2.3272 15.5164 2.32701 25.6995 8.61869 31.9911C11.659 35.0314 15.7021 36.7061 20.0019 36.7061C28.8993 36.7061 36.1 29.5062 36.1 20.608C36.1 11.7104 28.9 4.50983 20.0019 4.50983ZM20.0019 34.6314C12.2692 34.6314 5.97846 28.3406 5.97846 20.608C5.97846 12.8753 12.2692 6.58458 20.0019 6.58458C27.7345 6.58458 34.0252 12.8753 34.0252 20.608C34.0252 28.3406 27.7344 34.6314 20.0019 34.6314Z" fill="white" stroke="white" stroke-width="0.2"/>
<path d="M16.7703 20.6081C16.7703 18.826 18.2197 17.3766 20.0018 17.3766C21.7838 17.3766 23.2333 18.826 23.2333 20.6081C23.2333 22.3901 21.7838 23.8396 20.0018 23.8396C18.2197 23.8396 16.7703 22.3901 16.7703 20.6081ZM18.4451 20.6081C18.4451 21.4663 19.1435 22.1647 20.0018 22.1647C20.86 22.1647 21.5585 21.4663 21.5585 20.6081C21.5585 19.7498 20.86 19.0514 20.0018 19.0514C19.1435 19.0514 18.4451 19.7498 18.4451 20.6081Z" fill="white" stroke="white" stroke-width="0.2"/>
</svg>
