<svg width="16" height="17" viewBox="0 0 16 17" fill="none" xmlns="http://www.w3.org/2000/svg">
<path d="M14.4167 13.8353H2.75C2.59529 13.8353 2.44692 13.7739 2.33752 13.6645C2.22812 13.5551 2.16667 13.4067 2.16667 13.252V1.58531C2.16667 1.4306 2.10521 1.28223 1.99581 1.17283C1.88642 1.06343 1.73804 1.00198 1.58333 1.00198C1.42862 1.00198 1.28025 1.06343 1.17085 1.17283C1.06146 1.28223 1 1.4306 1 1.58531L1 13.252C1 13.7161 1.18437 14.1612 1.51256 14.4894C1.84075 14.8176 2.28587 15.002 2.75 15.002H14.4167C14.5714 15.002 14.7197 14.9405 14.8291 14.8311C14.9385 14.7217 15 14.5734 15 14.4186C15 14.2639 14.9385 14.1156 14.8291 14.0062C14.7197 13.8968 14.5714 13.8353 14.4167 13.8353Z" fill="#363C90"/>
<path d="M9.75008 12.6687C9.90479 12.6687 10.0532 12.6072 10.1626 12.4978C10.272 12.3884 10.3334 12.24 10.3334 12.0853V8.002C10.3334 7.84729 10.272 7.69891 10.1626 7.58952C10.0532 7.48012 9.90479 7.41866 9.75008 7.41866C9.59537 7.41866 9.447 7.48012 9.3376 7.58952C9.22821 7.69891 9.16675 7.84729 9.16675 8.002V12.0853C9.16675 12.24 9.22821 12.3884 9.3376 12.4978C9.447 12.6072 9.59537 12.6687 9.75008 12.6687Z" fill="#363C90"/>
<path d="M5.08333 12.6687C5.23804 12.6687 5.38642 12.6072 5.49581 12.4978C5.60521 12.3884 5.66667 12.24 5.66667 12.0853V8.002C5.66667 7.84729 5.60521 7.69891 5.49581 7.58952C5.38642 7.48012 5.23804 7.41866 5.08333 7.41866C4.92862 7.41866 4.78025 7.48012 4.67085 7.58952C4.56146 7.69891 4.5 7.84729 4.5 8.002V12.0853C4.5 12.24 4.56146 12.3884 4.67085 12.4978C4.78025 12.6072 4.92862 12.6687 5.08333 12.6687Z" fill="#363C90"/>
<path d="M12.0833 12.6686C12.238 12.6686 12.3864 12.6072 12.4958 12.4978C12.6052 12.3884 12.6667 12.24 12.6667 12.0853V5.08531C12.6667 4.9306 12.6052 4.78223 12.4958 4.67283C12.3864 4.56343 12.238 4.50198 12.0833 4.50198C11.9286 4.50198 11.7803 4.56343 11.6709 4.67283C11.5615 4.78223 11.5 4.9306 11.5 5.08531V12.0853C11.5 12.24 11.5615 12.3884 11.6709 12.4978C11.7803 12.6072 11.9286 12.6686 12.0833 12.6686Z" fill="#363C90"/>
<path d="M7.41659 12.6686C7.57129 12.6686 7.71967 12.6072 7.82906 12.4978C7.93846 12.3884 7.99992 12.24 7.99992 12.0853V5.08531C7.99992 4.9306 7.93846 4.78223 7.82906 4.67283C7.71967 4.56343 7.57129 4.50198 7.41659 4.50198C7.26188 4.50198 7.1135 4.56343 7.00411 4.67283C6.89471 4.78223 6.83325 4.9306 6.83325 5.08531V12.0853C6.83325 12.24 6.89471 12.3884 7.00411 12.4978C7.1135 12.6072 7.26188 12.6686 7.41659 12.6686Z" fill="#363C90"/>
</svg>
