<svg width="16" height="17" viewBox="0 0 16 17" fill="none" xmlns="http://www.w3.org/2000/svg">
<path d="M6.25 15.0039H1.58333C1.42862 15.0039 1.28025 14.9425 1.17085 14.8331C1.06146 14.7237 1 14.5753 1 14.4206C1 14.2659 1.06146 14.1175 1.17085 14.0081C1.28025 13.8987 1.42862 13.8373 1.58333 13.8373H6.25C6.40471 13.8373 6.55308 13.8987 6.66248 14.0081C6.77188 14.1175 6.83333 14.2659 6.83333 14.4206C6.83333 14.5753 6.77188 14.7237 6.66248 14.8331C6.55308 14.9425 6.40471 15.0039 6.25 15.0039Z" fill="#667085"/>
<path d="M5.08333 12.6706H1.58333C1.42862 12.6706 1.28025 12.6091 1.17085 12.4997C1.06146 12.3903 1 12.2419 1 12.0872C1 11.9325 1.06146 11.7842 1.17085 11.6748C1.28025 11.5654 1.42862 11.5039 1.58333 11.5039H5.08333C5.23804 11.5039 5.38642 11.5654 5.49581 11.6748C5.60521 11.7842 5.66667 11.9325 5.66667 12.0872C5.66667 12.2419 5.60521 12.3903 5.49581 12.4997C5.38642 12.6091 5.23804 12.6706 5.08333 12.6706Z" fill="#667085"/>
<path d="M3.91667 10.3372H1.58333C1.42862 10.3372 1.28025 10.2757 1.17085 10.1663C1.06146 10.0569 1 9.90858 1 9.75387C1 9.59916 1.06146 9.45078 1.17085 9.34139C1.28025 9.23199 1.42862 9.17053 1.58333 9.17053H3.91667C4.07138 9.17053 4.21975 9.23199 4.32915 9.34139C4.43854 9.45078 4.5 9.59916 4.5 9.75387C4.5 9.90858 4.43854 10.0569 4.32915 10.1663C4.21975 10.2757 4.07138 10.3372 3.91667 10.3372Z" fill="#667085"/>
<path d="M8.58324 14.9777C8.42853 14.9845 8.27742 14.9297 8.16316 14.8252C8.0489 14.7206 7.98083 14.575 7.97395 14.4203C7.96707 14.2656 8.02192 14.1145 8.12645 14.0002C8.23098 13.8859 8.37662 13.8179 8.53133 13.811C9.63526 13.71 10.6876 13.2965 11.565 12.619C12.4424 11.9415 13.1086 11.028 13.4855 9.98551C13.8625 8.94302 13.9346 7.8147 13.6934 6.73272C13.4522 5.65073 12.9077 4.65987 12.1236 3.87619C11.3396 3.09251 10.3485 2.54846 9.26639 2.30776C8.18429 2.06706 7.05601 2.13968 6.0137 2.51711C4.97139 2.89455 4.0582 3.56116 3.38109 4.43889C2.70398 5.31661 2.29099 6.3691 2.19049 7.47308C2.17657 7.62717 2.102 7.76942 1.9832 7.86853C1.86439 7.96764 1.71108 8.0155 1.55699 8.00158C1.4029 7.98765 1.26065 7.91309 1.16154 7.79428C1.06243 7.67548 1.01457 7.52217 1.02849 7.36808C1.19118 5.57334 2.03976 3.91049 3.3976 2.72566C4.75544 1.54083 6.51792 0.925316 8.31815 1.00724C10.1184 1.08917 11.8177 1.86223 13.0623 3.16549C14.3069 4.46876 15.0009 6.20182 14.9999 8.00391C15.0088 9.75294 14.3591 11.4413 13.1798 12.733C12.0006 14.0248 10.3783 14.8253 8.63574 14.9753C8.61824 14.9771 8.60016 14.9777 8.58324 14.9777Z" fill="#667085"/>
<path d="M8.00008 4.50391C7.84537 4.50391 7.697 4.56536 7.5876 4.67476C7.47821 4.78416 7.41675 4.93253 7.41675 5.08724V8.00391C7.41678 8.1586 7.47826 8.30695 7.58766 8.41632L9.33766 10.1663C9.44768 10.2726 9.59503 10.3314 9.74798 10.33C9.90093 10.3287 10.0472 10.2674 10.1554 10.1592C10.2635 10.0511 10.3249 9.90476 10.3262 9.75181C10.3276 9.59886 10.2688 9.45151 10.1625 9.34149L8.58341 7.76241V5.08724C8.58341 4.93253 8.52196 4.78416 8.41256 4.67476C8.30316 4.56536 8.15479 4.50391 8.00008 4.50391Z" fill="#667085"/>
</svg>
