<svg width="14" height="14" viewBox="0 0 14 14" fill="none" xmlns="http://www.w3.org/2000/svg">
<path d="M12.5263 9.33595C12.1446 10.2388 11.5476 11.0345 10.7874 11.6533C10.0273 12.2721 9.12716 12.6952 8.16575 12.8856C7.20435 13.0761 6.21093 13.0281 5.27236 12.7458C4.33379 12.4635 3.47863 11.9556 2.78167 11.2664C2.0847 10.5772 1.56713 9.72769 1.27422 8.7922C0.981315 7.8567 0.921978 6.86367 1.1014 5.89994C1.28082 4.9362 1.69354 4.0311 2.30348 3.26376C2.91341 2.49643 3.70199 1.89022 4.60027 1.49814" stroke="#667085" stroke-width="1.5" stroke-linecap="round" stroke-linejoin="round"/>
<path d="M13 7.00139C13 6.21328 12.8448 5.43288 12.5433 4.70476C12.2417 3.97663 11.7998 3.31505 11.2426 2.75777C10.6855 2.20049 10.024 1.75843 9.29607 1.45683C8.56811 1.15523 7.78789 1 6.99995 1V7.00139H13Z" stroke="#667085" stroke-width="1.5" stroke-linecap="round" stroke-linejoin="round"/>
</svg>
