<svg width="8" height="12" viewBox="0 0 8 12" fill="none" xmlns="http://www.w3.org/2000/svg">
<path d="M6.92421 10.2057L6.93024 10.2126L6.93574 10.2201C7.15373 10.5139 7.12976 10.9304 6.86334 11.1968C6.57044 11.4897 6.09557 11.4897 5.80268 11.1968L1.13601 6.53017L1.12954 6.52369L1.12355 6.51676L1.07514 6.46068L1.06911 6.45369L1.06361 6.44628C0.845615 6.15248 0.869588 5.73593 1.13601 5.46951L5.80268 0.80284L5.80915 0.796364L5.81609 0.790379L5.87217 0.741966L5.87915 0.735935L5.88657 0.730434C6.18036 0.512444 6.59691 0.536416 6.86334 0.80284L6.86981 0.809317L6.8758 0.81625L6.92421 0.872329L6.93024 0.879315L6.93574 0.886728C7.15373 1.18052 7.12976 1.59708 6.86334 1.8635L2.72722 5.99984L6.86334 10.1362L6.86982 10.1427L6.8758 10.1496L6.92421 10.2057Z" fill="#363C90" stroke="#363C90" stroke-width="0.5"/>
</svg>
