<svg width="72" height="50" viewBox="0 0 72 50" fill="none" xmlns="http://www.w3.org/2000/svg">
<path opacity="0.6" d="M43.9038 11.7159C44.5441 9.32622 47.0003 7.9081 49.39 8.5484L67.253 13.3348C69.6426 13.9751 71.0607 16.4313 70.4204 18.821L64.2159 41.9767C63.5756 44.3664 61.1193 45.7845 58.7297 45.1442L40.8667 40.3578C38.477 39.7175 37.0589 37.2612 37.6992 34.8716L43.9038 11.7159Z" fill="#EFEFF3" stroke="#C9C9D3" stroke-width="2"/>
<path opacity="0.6" d="M2.08275 18.8211C1.44245 16.4315 2.86057 13.9752 5.2502 13.3349L23.1132 8.54852C25.5028 7.90822 27.9591 9.32634 28.5994 11.716L34.804 34.8717C35.4443 37.2614 34.0261 39.7176 31.6365 40.3579L13.7735 45.1443C11.3839 45.7846 8.92762 44.3665 8.28732 41.9768L2.08275 18.8211Z" fill="#EFEFF3" stroke="#C9C9D3" stroke-width="2"/>
<path d="M16.4521 6.16439C16.4521 3.69046 18.4576 1.68494 20.9315 1.68494H44.4899L55.548 12.743V44.5206C55.548 46.9945 53.5424 49 51.0685 49H20.9315C18.4576 49 16.4521 46.9945 16.4521 44.5206V6.16439Z" fill="#EFEFF3" stroke="#C9C9D3" stroke-width="2"/>
<path d="M54.0902 14.9481L44.232 14.9481C43.2717 14.9481 42.493 14.1701 42.4923 13.2098L42.4846 3.24365C42.4834 1.68883 44.3668 0.913407 45.4607 2.01837L55.3266 11.9844C56.414 13.0829 55.6359 14.9481 54.0902 14.9481Z" fill="#FBFBFC" stroke="#C9C9D3" stroke-width="2"/>
<rect x="35.3151" y="18.4932" width="1.36986" height="13.6986" rx="0.684931" fill="#C9C9D3"/>
<rect x="42.8493" y="24.6576" width="1.36986" height="13.6986" rx="0.684931" transform="rotate(90 42.8493 24.6576)" fill="#C9C9D3"/>
</svg>
