<svg width="17" height="21" viewBox="0 0 17 21" fill="none" xmlns="http://www.w3.org/2000/svg">
<path d="M6.39274 18.5945H14.2596C14.4569 18.5945 14.6172 18.4342 14.6172 18.2369V14.6611C14.6172 14.4637 14.4569 14.3035 14.2596 14.3035H6.39274C6.19543 14.3035 6.03516 14.4637 6.03516 14.6611V18.2369C6.03516 18.4342 6.19527 18.5945 6.39274 18.5945ZM6.75033 15.0186H13.9021V17.8793H6.75033V15.0186Z" fill="white"/>
<path d="M3.57585 6.26361H5.72137C5.91868 6.26361 6.07895 6.10333 6.07895 5.90602V3.04533C6.07895 2.84802 5.91868 2.68774 5.72137 2.68774H3.57585C3.37854 2.68774 3.21826 2.84802 3.21826 3.04533V5.90602C3.21826 6.10413 3.37854 6.26361 3.57585 6.26361ZM3.93343 3.40292H5.36378V5.54843H3.93343V3.40292Z" fill="white"/>
<path d="M3.57585 10.185H5.72137C5.91868 10.185 6.07895 10.0247 6.07895 9.82741V6.96672C6.07895 6.76941 5.91868 6.60913 5.72137 6.60913H3.57585C3.37854 6.60913 3.21826 6.76941 3.21826 6.96672V9.82741C3.21826 10.0247 3.37854 10.185 3.57585 10.185ZM3.93343 7.3243H5.36378V9.46982H3.93343V7.3243Z" fill="white"/>
<path d="M7.15153 6.26361H9.29705C9.49436 6.26361 9.65464 6.10333 9.65464 5.90602V3.04533C9.65464 2.84802 9.49436 2.68774 9.29705 2.68774H7.15153C6.95422 2.68774 6.79395 2.84802 6.79395 3.04533V5.90602C6.79395 6.10413 6.95422 6.26361 7.15153 6.26361ZM7.50912 3.40292H8.93946V5.54843H7.50912V3.40292Z" fill="white"/>
<path d="M7.15153 10.185H9.29705C9.49436 10.185 9.65464 10.0247 9.65464 9.82741V6.96672C9.65464 6.76941 9.49436 6.60913 9.29705 6.60913H7.15153C6.95422 6.60913 6.79395 6.76941 6.79395 6.96672V9.82741C6.79395 10.0247 6.95422 10.185 7.15153 10.185ZM7.50912 7.3243H8.93946V9.46982H7.50912V7.3243Z" fill="white"/>
<path d="M10.7277 6.26361H12.8732C13.0705 6.26361 13.2308 6.10333 13.2308 5.90602V3.04533C13.2308 2.84802 13.0705 2.68774 12.8732 2.68774H10.7277C10.5304 2.68774 10.3701 2.84802 10.3701 3.04533V5.90602C10.3701 6.10413 10.5304 6.26361 10.7277 6.26361ZM11.0853 3.40292H12.5156V5.54843H11.0853V3.40292Z" fill="white"/>
<path d="M10.7277 10.185H12.8732C13.0705 10.185 13.2308 10.0247 13.2308 9.82741V6.96672C13.2308 6.76941 13.0705 6.60913 12.8732 6.60913H10.7277C10.5304 6.60913 10.3701 6.76941 10.3701 6.96672V9.82741C10.3701 10.0247 10.5304 10.185 10.7277 10.185ZM11.0853 7.3243H12.5156V9.46982H11.0853V7.3243Z" fill="white"/>
<path d="M16.0914 2.14552C16.2887 2.14552 16.449 1.98524 16.449 1.78793V0.357586C16.449 0.160276 16.2887 0 16.0914 0H0.357586C0.160276 0 0 0.160276 0 0.357586V1.78793C0 1.98524 0.160276 2.14552 0.357586 2.14552H0.715172V10.7276H0.357586C0.160276 10.7276 0 10.8879 0 11.0852V12.5155C0 12.7128 0.160276 12.8731 0.357586 12.8731H0.715172V20.3824C0.715172 20.5797 0.875449 20.74 1.07276 20.74H15.3762C15.5735 20.74 15.7338 20.5797 15.7338 20.3824V12.8731H16.0914C16.2887 12.8731 16.449 12.7128 16.449 12.5155V11.0852C16.449 10.8879 16.2887 10.7276 16.0914 10.7276H15.7338V2.14552H16.0914ZM0.715172 0.715172H15.7338V1.43034H0.715172V0.715172ZM2.48954 20.0248V15.7338H4.63505V20.0248H2.48954ZM15.0185 20.0248H5.35022V15.3762C5.35022 15.1789 5.18995 15.0186 4.99264 15.0186H2.13195C1.93464 15.0186 1.77436 15.1789 1.77436 15.3762V20.0248H1.43034V12.8731H15.0186L15.0185 20.0248ZM15.7337 12.1579H0.715091V11.4428H15.7337V12.1579ZM15.0185 10.7276H1.43026V2.14552H15.0185V10.7276Z" fill="white"/>
</svg>
