<svg width="17" height="21" viewBox="0 0 17 21" fill="none" xmlns="http://www.w3.org/2000/svg">
<path d="M6.66838 18.7241H14.5353C14.7326 18.7241 14.8929 18.5639 14.8929 18.3666V14.7907C14.8929 14.5934 14.7326 14.4331 14.5353 14.4331H6.66838C6.47107 14.4331 6.31079 14.5934 6.31079 14.7907V18.3666C6.31079 18.5639 6.47091 18.7241 6.66838 18.7241ZM7.02596 15.1483H14.1777V18.009H7.02596V15.1483Z" fill="#363C90"/>
<path d="M3.85148 6.39324H5.997C6.19431 6.39324 6.35459 6.23297 6.35459 6.03566V3.17497C6.35459 2.97766 6.19431 2.81738 5.997 2.81738H3.85148C3.65417 2.81738 3.4939 2.97766 3.4939 3.17497V6.03566C3.4939 6.23377 3.65417 6.39324 3.85148 6.39324ZM4.20907 3.53256H5.63941V5.67807H4.20907V3.53256Z" fill="#363C90"/>
<path d="M3.85148 10.3151H5.997C6.19431 10.3151 6.35459 10.1548 6.35459 9.95753V7.09684C6.35459 6.89953 6.19431 6.73926 5.997 6.73926H3.85148C3.65417 6.73926 3.4939 6.89953 3.4939 7.09684V9.95753C3.4939 10.1548 3.65417 10.3151 3.85148 10.3151ZM4.20907 7.45443H5.63941V9.59995H4.20907V7.45443Z" fill="#363C90"/>
<path d="M7.42717 6.39324H9.57268C9.76999 6.39324 9.93027 6.23297 9.93027 6.03566V3.17497C9.93027 2.97766 9.76999 2.81738 9.57268 2.81738H7.42717C7.22986 2.81738 7.06958 2.97766 7.06958 3.17497V6.03566C7.06958 6.23377 7.22986 6.39324 7.42717 6.39324ZM7.78475 3.53256H9.2151V5.67807H7.78475V3.53256Z" fill="#363C90"/>
<path d="M7.42717 10.3151H9.57268C9.76999 10.3151 9.93027 10.1548 9.93027 9.95753V7.09684C9.93027 6.89953 9.76999 6.73926 9.57268 6.73926H7.42717C7.22986 6.73926 7.06958 6.89953 7.06958 7.09684V9.95753C7.06958 10.1548 7.22986 10.3151 7.42717 10.3151ZM7.78475 7.45443H9.2151V9.59995H7.78475V7.45443Z" fill="#363C90"/>
<path d="M11.0031 6.39324H13.1486C13.3459 6.39324 13.5062 6.23297 13.5062 6.03566V3.17497C13.5062 2.97766 13.3459 2.81738 13.1486 2.81738H11.0031C10.8058 2.81738 10.6455 2.97766 10.6455 3.17497V6.03566C10.6455 6.23377 10.8058 6.39324 11.0031 6.39324ZM11.3607 3.53256H12.791V5.67807H11.3607V3.53256Z" fill="#363C90"/>
<path d="M11.0031 10.3151H13.1486C13.3459 10.3151 13.5062 10.1548 13.5062 9.95753V7.09684C13.5062 6.89953 13.3459 6.73926 13.1486 6.73926H11.0031C10.8058 6.73926 10.6455 6.89953 10.6455 7.09684V9.95753C10.6455 10.1548 10.8058 10.3151 11.0031 10.3151ZM11.3607 7.45443H12.791V9.59995H11.3607V7.45443Z" fill="#363C90"/>
<path d="M16.3669 2.2754C16.5642 2.2754 16.7245 2.11512 16.7245 1.91781V0.487469C16.7245 0.290159 16.5642 0.129883 16.3669 0.129883H0.633099C0.435789 0.129883 0.275513 0.290159 0.275513 0.487469V1.91781C0.275513 2.11512 0.435789 2.2754 0.633099 2.2754H0.990685V10.8575H0.633099C0.435789 10.8575 0.275513 11.0177 0.275513 11.2151V12.6454C0.275513 12.8427 0.435789 13.003 0.633099 13.003H0.990685V20.5123C0.990685 20.7096 1.15096 20.8699 1.34827 20.8699H15.6517C15.849 20.8699 16.0093 20.7096 16.0093 20.5123V13.003H16.3669C16.5642 13.003 16.7245 12.8427 16.7245 12.6454V11.2151C16.7245 11.0177 16.5642 10.8575 16.3669 10.8575H16.0093V2.2754H16.3669ZM0.990685 0.845055H16.0093V1.56023H0.990685V0.845055ZM2.76505 20.1547V15.8637H4.91057V20.1547H2.76505ZM15.2941 20.1547H5.62574V15.5061C5.62574 15.3088 5.46546 15.1485 5.26815 15.1485H2.40746C2.21015 15.1485 2.04988 15.3088 2.04988 15.5061V20.1547H1.70586V13.003H15.2941L15.2941 20.1547ZM16.0092 12.2878H0.990603V11.5726H16.0092V12.2878ZM15.2941 10.8575H1.70578V2.2754H15.2941V10.8575Z" fill="#363C90"/>
</svg>
