<svg width="23" height="23" viewBox="0 0 23 23" fill="none" xmlns="http://www.w3.org/2000/svg">
<path d="M19.8982 1.36708C19.606 1.65953 18.5821 2.9154 17.7094 4.15519C17.401 3.84826 16.8993 3.84871 16.5915 4.15654L16.1501 4.59798L15.9387 4.38667C15.4833 3.93125 14.7217 3.90672 14.2302 4.30179C10.4175 1.95035 6.35079 1.81021 4.07795 4.07964C1.81167 6.34241 1.95208 10.409 4.30273 14.2242C4.11429 14.4514 4.01013 14.7338 4.01013 15.0341C4.01013 15.3741 4.14111 15.6972 4.38521 15.9378C4.38533 15.9379 4.38546 15.938 4.38559 15.9382L4.59614 16.1487L4.15125 16.5936C3.84349 16.9014 3.84297 17.4029 4.14972 17.7113C2.91842 18.5754 1.65963 19.6025 1.36147 19.9007C0.69267 20.5695 0.692649 21.6593 1.36149 22.328C1.69592 22.6624 2.13584 22.8294 2.57519 22.8294C3.01439 22.8294 3.45428 22.6624 3.78887 22.328L3.7889 22.328C4.08699 22.0299 5.11691 20.7714 5.97848 19.5399C6.13254 19.693 6.33487 19.7694 6.53625 19.7694C6.73859 19.7694 6.9415 19.6924 7.09575 19.5382L7.54063 19.0933L7.75194 19.3046C7.99162 19.5443 8.31417 19.6793 8.65525 19.6793C8.95234 19.6793 9.23422 19.5754 9.46089 19.3899C11.4431 20.6156 13.49 21.2377 15.3157 21.2377C17.0104 21.2377 18.5237 20.7006 19.6128 19.6116C21.8822 17.3422 21.7386 13.2792 19.3847 9.46692C19.5733 9.23892 19.6772 8.95368 19.6772 8.65395C19.6772 8.31394 19.5462 7.99083 19.3022 7.75025C19.302 7.75013 19.3019 7.75 19.3018 7.74987L19.0912 7.53932L19.5327 7.09788C19.8394 6.79111 19.8409 6.29186 19.5372 5.98321C20.7716 5.11284 22.0273 4.08587 22.3217 3.79463L22.3223 3.7941C22.9911 3.12543 22.9914 2.03581 22.3229 1.36711C22.0026 1.04321 21.5733 0.865414 21.1166 0.861822V0.861818H21.1155H21.1123C20.6549 0.861818 20.222 1.03988 19.8982 1.36708ZM19.8982 1.36708C19.8983 1.36697 19.8985 1.36686 19.8986 1.36676L19.9977 1.46585L19.898 1.36731C19.8981 1.36723 19.8982 1.36715 19.8982 1.36708ZM17.8099 4.25577L17.7107 4.15654L17.703 4.16429C17.6778 4.20013 17.6527 4.23596 17.6277 4.27174L17.8099 4.25577ZM17.8099 4.25577C17.7826 4.29468 17.7554 4.33357 17.7284 4.37241L17.8099 4.25577ZM9.91443 18.9478C13.5017 21.1096 17.1788 21.1782 19.1778 19.1792C21.1736 17.1834 21.1051 13.5095 18.9336 9.92224L11.2297 17.6261C13.9715 19.0006 16.6319 18.8985 18.1166 17.4138C18.238 17.2924 18.4303 17.2924 18.5517 17.4138C18.673 17.5351 18.673 17.7272 18.5519 17.8486C18.5518 17.8487 18.5517 17.8488 18.5517 17.8488L18.4526 17.7498L9.91443 18.9478ZM9.91443 18.9478L10.7766 18.0856L9.91443 18.9478ZM3.35348 21.8958L3.35345 21.8958C2.92431 22.3249 2.22552 22.3249 1.79638 21.8958C1.36723 21.4667 1.36723 20.7679 1.79638 20.3387C2.07711 20.058 3.35433 19.0162 4.59075 18.1556L5.53649 19.1014C4.67598 20.338 3.63434 21.6151 3.35348 21.8958ZM6.4083 19.1061L6.40824 19.106L4.58287 17.2806C4.51405 17.2118 4.51415 17.097 4.5828 17.0284L4.58287 17.0284L5.02775 16.5835L7.10267 18.6584L6.6605 19.106C6.66042 19.1061 6.66033 19.1062 6.66025 19.1063C6.59141 19.1748 6.47678 19.1746 6.4083 19.1061ZM4.50929 4.51788L4.50936 4.5178C6.50834 2.51882 10.1821 2.5874 13.7727 4.74921L4.74749 13.7744C2.58229 10.1805 2.51704 6.50714 4.50929 4.51788ZM18.8679 9.12428L18.8674 9.12482L9.12345 18.8723C8.8745 19.1212 8.43596 19.1212 8.18704 18.8723L8.09015 18.9692L8.18703 18.8723L4.82006 15.5053C4.56111 15.2464 4.56112 14.8278 4.82006 14.5689L4.72097 14.4698L4.82006 14.5689L14.5676 4.82141C14.6968 4.69218 14.8639 4.62888 15.0357 4.62888C15.2074 4.62888 15.3747 4.69233 15.5038 4.8214L15.6029 4.72232L15.5038 4.82141L15.9171 5.23475C15.9236 5.24299 15.9316 5.2513 15.9414 5.25896L18.4024 7.71999L18.4402 7.75776L18.4434 7.76104L18.4812 7.7988L18.8667 8.18429C18.8668 8.1844 18.8669 8.1845 18.867 8.18461C19.1273 8.44786 19.1255 8.86938 18.8679 9.12428ZM17.2789 4.59102L17.2789 4.59109L18.3965 5.70864L18.3969 5.70902L18.8469 6.16253L18.8473 6.1629L19.1009 6.41646L19.1009 6.41653C19.1698 6.48528 19.1698 6.59661 19.101 6.66541L18.6595 7.10686L16.5852 5.03253L17.0267 4.59109C17.0955 4.52228 17.2103 4.52237 17.2789 4.59102ZM21.8899 1.80062L21.8906 1.80131C22.3198 2.23045 22.3198 2.92924 21.8906 3.35838L21.8906 3.35841C21.6131 3.63603 20.3422 4.6747 19.0994 5.54465L18.8255 5.27074L18.8253 5.27053L18.1504 4.59275C19.0204 3.34671 20.0559 2.07568 20.3303 1.80131C20.5412 1.59035 20.8161 1.47528 21.1121 1.47528H21.1154C21.408 1.47528 21.6825 1.59029 21.8899 1.80062Z" fill="#363C90" stroke="#363C90" stroke-width="0.28027"/>
</svg>
