<svg width="17" height="17" viewBox="0 0 17 17" fill="none" xmlns="http://www.w3.org/2000/svg">
<path d="M11.8334 2.49955C12.0085 2.32445 12.2163 2.18556 12.4451 2.0908C12.6739 1.99604 12.9191 1.94727 13.1667 1.94727C13.4143 1.94727 13.6595 1.99604 13.8883 2.0908C14.1171 2.18556 14.3249 2.32445 14.5 2.49955C14.6751 2.67465 14.814 2.88252 14.9088 3.11129C15.0036 3.34006 15.0523 3.58526 15.0523 3.83288C15.0523 4.08051 15.0036 4.3257 14.9088 4.55448C14.814 4.78325 14.6751 4.99112 14.5 5.16622L5.50004 14.1662L1.83337 15.1662L2.83337 11.4995L11.8334 2.49955Z" stroke="#363C90" stroke-width="2" stroke-linecap="round" stroke-linejoin="round"/>
</svg>
