<svg width="21" height="20" viewBox="0 0 21 20" fill="none" xmlns="http://www.w3.org/2000/svg">
<path fill-rule="evenodd" clip-rule="evenodd" d="M3.09779 2.17555L3.38016 2.45658L9.24972 8.29824L9.53439 8.58156L9.24992 8.86507L6.8837 11.2234L6.60133 10.9401L6.3193 11.2237L2.81596 7.74041L2.81471 7.73917C1.35523 6.27523 1.35393 3.91359 2.81562 2.45678L3.09779 2.17555ZM6.60099 10.3757L8.40072 8.58196L3.11721 3.32357C2.24131 4.471 2.32789 6.11717 3.38066 7.17375C3.38086 7.17395 3.38106 7.17415 3.38126 7.17435L6.60099 10.3757ZM14.8873 2.06955C15.9074 1.9353 16.9191 2.18373 17.6362 2.89844C18.3576 3.61739 18.6076 4.62873 18.4715 5.64724C18.3355 6.665 17.8141 7.71275 16.959 8.56507C15.6283 9.89127 13.8023 10.4137 12.365 9.90201L11.6078 10.6568L17.076 16.1068L17.3603 16.3901L17.076 16.6734L15.8971 17.8484L15.6147 18.1298L15.3323 17.8484L9.86179 12.3961L4.38329 17.8405L4.10092 18.1211L3.81896 17.8401L2.64003 16.6651L2.35577 16.3818L2.64003 16.0984L10.6119 8.15313C10.0991 6.71922 10.6244 4.89898 11.9544 3.57344L11.9552 3.57271C12.8146 2.72058 13.8674 2.20379 14.8873 2.06955ZM12.5188 4.14038C11.2733 5.38195 10.9421 6.99824 11.4456 8.07959L11.5639 8.33379L11.3653 8.53174L3.48903 16.3818L4.10174 16.9924L9.58024 11.548L9.86261 11.2674L10.1446 11.5484L15.6147 17.0003L16.227 16.3901L10.7588 10.9401L10.4745 10.6568L10.7588 10.3734L11.9879 9.14844L12.1852 8.95173L12.4381 9.06871C13.5251 9.57144 15.1485 9.23999 16.3942 7.99844C17.136 7.25911 17.5679 6.36936 17.6785 5.54128C17.7891 4.71395 17.5792 3.97113 17.0715 3.46507C16.5678 2.96312 15.8237 2.75322 14.9917 2.86271C14.1598 2.97221 13.2647 3.4011 12.5188 4.14038Z" fill="#667085"/>
</svg>
