<svg width="32" height="32" viewBox="0 0 32 32" fill="none" xmlns="http://www.w3.org/2000/svg">
<path d="M0 6.4C0 2.86538 2.86538 0 6.4 0H25.6C29.1346 0 32 2.86538 32 6.4V25.6C32 29.1346 29.1346 32 25.6 32H6.4C2.86538 32 0 29.1346 0 25.6V6.4Z" fill="#613394"/>
<path d="M21.6163 8.85109L19.3788 11.0121C18.5927 10.1986 17.6892 9.80353 16.6172 9.80353C14.8783 9.80353 13.546 11.1058 13.546 12.8718C13.546 14.6377 14.9038 15.9149 16.6172 15.9149C17.6875 15.9149 18.5927 15.5215 19.3788 14.7063L21.6163 16.8673C20.2602 18.332 18.5927 19.0517 16.6172 19.0517C14.7609 19.0517 13.1887 18.4709 11.904 17.2858C10.6432 16.1024 10 14.6377 10 12.8718C10 11.1058 10.6432 9.64116 11.904 8.45605C13.1887 7.27094 14.7609 6.66667 16.6172 6.66667C18.5927 6.66667 20.2585 7.38811 21.6163 8.85109Z" fill="white"/>
<path d="M19.9921 23.7793C19.9921 24.7619 19.177 25.5587 18.1697 25.5587C17.1624 25.5587 16.3474 24.7619 16.3474 23.7793C16.3474 22.7968 17.1624 22 18.1697 22C19.177 22 19.9921 22.7968 19.9921 23.7793Z" fill="white"/>
<path d="M15.6447 23.7793C15.6447 24.7619 14.8296 25.5587 13.8223 25.5587C12.815 25.5587 12 24.7619 12 23.7793C12 22.7968 12.815 22 13.8223 22C14.8296 22 15.6447 22.7968 15.6447 23.7793Z" fill="white"/>
</svg>
