<svg width="18" height="18" viewBox="0 0 18 18" fill="none" xmlns="http://www.w3.org/2000/svg">
<mask id="path-1-outside-1_9748_46506" maskUnits="userSpaceOnUse" x="0.333008" y="0.333313" width="18" height="18" fill="black">
<rect fill="white" x="0.333008" y="0.333313" width="18" height="18"/>
<path fill-rule="evenodd" clip-rule="evenodd" d="M2.33301 8.99998C2.33301 5.31998 5.31967 2.33331 8.99967 2.33331C12.6797 2.33331 15.6663 5.31998 15.6663 8.99998C15.6663 12.68 12.6797 15.6666 8.99967 15.6666C5.31967 15.6666 2.33301 12.68 2.33301 8.99998ZM7.66634 10.4466L12.0597 6.05331L12.9997 6.99998L7.66634 12.3333L4.99967 9.66665L5.93967 8.72665L7.66634 10.4466Z"/>
</mask>
<path fill-rule="evenodd" clip-rule="evenodd" d="M2.33301 8.99998C2.33301 5.31998 5.31967 2.33331 8.99967 2.33331C12.6797 2.33331 15.6663 5.31998 15.6663 8.99998C15.6663 12.68 12.6797 15.6666 8.99967 15.6666C5.31967 15.6666 2.33301 12.68 2.33301 8.99998ZM7.66634 10.4466L12.0597 6.05331L12.9997 6.99998L7.66634 12.3333L4.99967 9.66665L5.93967 8.72665L7.66634 10.4466Z" fill="#9CC262"/>
<path d="M12.0597 6.05331L13.4789 4.6441L12.0647 3.21988L10.6455 4.6391L12.0597 6.05331ZM7.66634 10.4466L6.25487 11.8636L7.66907 13.2723L9.08055 11.8609L7.66634 10.4466ZM12.9997 6.99998L14.4139 8.41419L15.8231 7.00497L14.4189 5.59077L12.9997 6.99998ZM7.66634 12.3333L6.25213 13.7475L7.66634 15.1617L9.08055 13.7475L7.66634 12.3333ZM4.99967 9.66665L3.58546 8.25243L2.17125 9.66665L3.58546 11.0809L4.99967 9.66665ZM5.93967 8.72665L7.35115 7.3097L5.93694 5.90095L4.52546 7.31243L5.93967 8.72665ZM8.99967 0.333313C4.2151 0.333313 0.333008 4.21541 0.333008 8.99998H4.33301C4.33301 6.42455 6.42424 4.33331 8.99967 4.33331V0.333313ZM17.6663 8.99998C17.6663 4.21541 13.7842 0.333313 8.99967 0.333313V4.33331C11.5751 4.33331 13.6663 6.42455 13.6663 8.99998H17.6663ZM8.99967 17.6666C13.7842 17.6666 17.6663 13.7845 17.6663 8.99998H13.6663C13.6663 11.5754 11.5751 13.6666 8.99967 13.6666V17.6666ZM0.333008 8.99998C0.333008 13.7845 4.2151 17.6666 8.99967 17.6666V13.6666C6.42424 13.6666 4.33301 11.5754 4.33301 8.99998H0.333008ZM10.6455 4.6391L6.25213 9.03243L9.08055 11.8609L13.4739 7.46753L10.6455 4.6391ZM14.4189 5.59077L13.4789 4.6441L10.6405 7.46252L11.5805 8.40919L14.4189 5.59077ZM9.08055 13.7475L14.4139 8.41419L11.5855 5.58577L6.25213 10.9191L9.08055 13.7475ZM3.58546 11.0809L6.25213 13.7475L9.08055 10.9191L6.41389 8.25243L3.58546 11.0809ZM4.52546 7.31243L3.58546 8.25243L6.41389 11.0809L7.35389 10.1409L4.52546 7.31243ZM9.07782 9.0297L7.35115 7.3097L4.5282 10.1436L6.25487 11.8636L9.07782 9.0297Z" fill="white" mask="url(#path-1-outside-1_9748_46506)"/>
</svg>
