<svg width="20" height="20" viewBox="0 0 20 20" fill="none" xmlns="http://www.w3.org/2000/svg">
<rect x="0.5" y="0.5" width="19" height="19" rx="9.5" fill="#408C60" stroke="#408C60"/>
<rect width="16" height="16" transform="translate(2 2)" fill="white" fill-opacity="0.01"/>
<path d="M6.49025 10.2156C6.36988 10.0876 6.20385 10.0123 6.02825 10.006C5.85265 9.99978 5.68169 10.0631 5.55254 10.1822C5.42339 10.3014 5.34649 10.4667 5.33857 10.6422C5.33065 10.8178 5.39235 10.9893 5.51025 11.1196L7.91825 13.7323C8.27625 14.0829 8.80958 14.0829 9.14091 13.7523L9.38358 13.5129C10.2599 12.6511 11.1353 11.7882 12.0096 10.9243L12.0362 10.8976C12.8534 10.0923 13.6663 9.28274 14.4749 8.46893C14.5958 8.34239 14.662 8.17342 14.6594 7.99846C14.6568 7.8235 14.5855 7.65659 14.4609 7.53374C14.3363 7.41089 14.1684 7.34195 13.9934 7.3418C13.8184 7.34165 13.6504 7.41029 13.5256 7.53293C12.7207 8.34249 11.9118 9.14805 11.0989 9.94959L11.0722 9.97626C10.2344 10.8045 9.39554 11.6316 8.55558 12.4576L6.49025 10.2156Z" fill="white"/>
</svg>
