<svg width="20" height="20" viewBox="0 0 20 20" fill="none" xmlns="http://www.w3.org/2000/svg">
<path fill-rule="evenodd" clip-rule="evenodd" d="M18.3337 4.83337L14.5003 1.58337L13.417 2.83337L17.2503 6.08337L18.3337 4.83337ZM6.58366 2.91671L5.50033 1.66671L1.66699 4.83337L2.75033 6.08337L6.58366 2.91671ZM9.16699 6.75004H10.417V11.1667L13.7503 13.1667L13.0837 14.1667L9.16699 11.75V6.75004ZM10.0003 3.41671C5.83366 3.41671 2.50033 6.75004 2.50033 10.9167C2.50033 15.0834 5.83366 18.4167 10.0003 18.4167C14.167 18.4167 17.5003 15.0834 17.5003 10.9167C17.5003 6.75004 14.167 3.41671 10.0003 3.41671ZM4.16699 10.9167C4.16699 14.1667 6.75033 16.75 10.0003 16.75C13.2503 16.75 15.8337 14.1667 15.8337 10.9167C15.8337 7.66671 13.2503 5.08337 10.0003 5.08337C6.75033 5.08337 4.16699 7.66671 4.16699 10.9167Z" fill="#71D57B"/>
</svg>
