<svg width="20" height="20" viewBox="0 0 20 20" fill="none" xmlns="http://www.w3.org/2000/svg">
<path fill-rule="evenodd" clip-rule="evenodd" d="M18.3337 4.83331L14.5003 1.58331L13.417 2.83331L17.2503 6.08331L18.3337 4.83331ZM6.58366 2.91665L5.50033 1.66665L1.66699 4.83331L2.75033 6.08331L6.58366 2.91665ZM9.16699 6.74998H10.417V11.1666L13.7503 13.1666L13.0837 14.1666L9.16699 11.75V6.74998ZM10.0003 3.41665C5.83366 3.41665 2.50033 6.74998 2.50033 10.9166C2.50033 15.0833 5.83366 18.4166 10.0003 18.4166C14.167 18.4166 17.5003 15.0833 17.5003 10.9166C17.5003 6.74998 14.167 3.41665 10.0003 3.41665ZM4.16699 10.9166C4.16699 14.1666 6.75033 16.75 10.0003 16.75C13.2503 16.75 15.8337 14.1666 15.8337 10.9166C15.8337 7.66665 13.2503 5.08331 10.0003 5.08331C6.75033 5.08331 4.16699 7.66665 4.16699 10.9166Z" fill="#FF475C"/>
</svg>
