<svg width="21" height="20" viewBox="0 0 21 20" fill="none" xmlns="http://www.w3.org/2000/svg">
<path d="M13.6893 13.7397C13.5892 13.7397 13.4912 13.7027 13.4151 13.6249L10.6444 10.8541C10.4926 10.7023 10.4926 10.456 10.6444 10.304C10.7962 10.1522 11.0425 10.1522 11.1945 10.304L13.9653 13.0748C14.1171 13.2266 14.1171 13.4729 13.9653 13.6249C13.8893 13.7009 13.7894 13.7397 13.6893 13.7397H13.6893Z" fill="#363C90"/>
<path d="M10.3387 20C8.98856 20 7.67896 19.7352 6.44536 19.2147C5.25435 18.7109 4.18573 17.9905 3.26711 17.0716C2.34849 16.153 1.62781 15.0841 1.12406 13.8934C0.601774 12.6598 0.338745 11.3504 0.338745 10C0.338745 8.64981 0.603567 7.34022 1.12406 6.10662C1.62784 4.9156 2.34829 3.84698 3.26711 2.92836C4.18573 2.00975 5.2546 1.28907 6.44536 0.785318C7.67896 0.263029 8.98835 0 10.3387 0C11.6889 0 12.9985 0.264822 14.2321 0.785318C15.4231 1.2891 16.4918 2.00955 17.4104 2.92836C18.329 3.84698 19.0497 4.91585 19.5534 6.10662C20.0757 7.34022 20.3387 8.64961 20.3387 10C20.3387 11.3502 20.0739 12.6598 19.5534 13.8934C19.0497 15.0844 18.3292 16.153 17.4104 17.0716C16.4918 17.9903 15.4229 18.7109 14.2321 19.2147C12.9985 19.7352 11.6889 20 10.3387 20ZM10.3387 0.778085C5.2546 0.778085 1.11693 4.91397 1.11693 9.9999C1.11693 15.084 5.25282 19.2217 10.3387 19.2217C15.4229 19.2217 19.5606 15.0858 19.5606 9.9999C19.5606 4.91575 15.4247 0.778085 10.3387 0.778085Z" fill="#363C90"/>
<path d="M10.3387 18.2962C9.21817 18.2962 8.13279 18.0777 7.10853 17.6442C6.12126 17.2256 5.23229 16.6273 4.47106 15.866C3.70984 15.1048 3.11155 14.2176 2.69291 13.2286C2.25957 12.2061 2.04089 11.1189 2.04089 9.99835C2.04089 8.87778 2.25936 7.7924 2.69291 6.76814C3.11154 5.78087 3.70984 4.89189 4.47106 4.13067C5.23229 3.36944 6.11948 2.77116 7.10853 2.35252C8.13101 1.91918 9.21817 1.7005 10.3387 1.7005C11.4593 1.7005 12.5447 1.91897 13.5689 2.35252C14.5562 2.77115 15.4452 3.36944 16.2064 4.13067C16.9676 4.89189 17.5659 5.77908 17.9846 6.76814C18.4179 7.79062 18.6366 8.87778 18.6366 9.99835C18.6366 11.1189 18.4181 12.2043 17.9846 13.2286C17.5659 14.2158 16.9676 15.1048 16.2064 15.866C15.4452 16.6273 14.558 17.2255 13.5689 17.6442C12.5465 18.0757 11.4593 18.2962 10.3387 18.2962ZM10.3387 2.47828C6.19348 2.47828 2.81867 5.85116 2.81867 9.99835C2.81867 14.1455 6.19155 17.5184 10.3387 17.5184C14.4859 17.5184 17.8588 14.1455 17.8588 9.99835C17.8588 5.85116 14.4859 2.47828 10.3387 2.47828Z" fill="#363C90"/>
<path d="M10.3389 11.1952C9.67955 11.1952 9.14233 10.658 9.14233 9.99863C9.14233 9.33927 9.67955 8.80206 10.3389 8.80206C10.9983 8.80206 11.5355 9.33927 11.5355 9.99863C11.5373 10.658 11 11.1952 10.3389 11.1952ZM10.3389 9.57999C10.1073 9.57999 9.92028 9.76901 9.92028 9.99862C9.92028 10.2282 10.1093 10.4172 10.3389 10.4172C10.5685 10.4172 10.7575 10.2282 10.7575 9.99862C10.7575 9.76901 10.5703 9.57999 10.3389 9.57999Z" fill="#363C90"/>
<path d="M10.3387 9.58763C10.1238 9.58763 9.94971 9.41353 9.94971 9.19865V6.13898C9.94971 5.92409 10.1238 5.75 10.3387 5.75C10.5536 5.75 10.7277 5.9241 10.7277 6.13898V9.19886C10.7277 9.41354 10.5536 9.58764 10.3387 9.58764V9.58763Z" fill="#363C90"/>
<path d="M10.3387 3.68121C10.1238 3.68121 9.94971 3.50712 9.94971 3.29224V2.0921C9.94971 1.87722 10.1238 1.70312 10.3387 1.70312C10.5536 1.70312 10.7277 1.87722 10.7277 2.0921V3.29224C10.7277 3.50712 10.5536 3.68121 10.3387 3.68121Z" fill="#363C90"/>
<path d="M5.59518 5.64544C5.4951 5.64544 5.39701 5.60843 5.321 5.53064L4.47262 4.68226C4.32081 4.53045 4.32081 4.28413 4.47262 4.13211C4.62444 3.9803 4.87075 3.9803 5.02277 4.13211L5.87115 4.98048C6.02296 5.1323 6.02296 5.37861 5.87115 5.53064C5.79534 5.60843 5.69527 5.64544 5.59518 5.64544H5.59518Z" fill="#363C90"/>
<path d="M3.63159 10.39H2.43146C2.21657 10.39 2.04248 10.2159 2.04248 10.001C2.04248 9.7861 2.21658 9.612 2.43146 9.612H3.63159C3.84648 9.612 4.02057 9.7861 4.02057 10.001C4.02037 10.2159 3.84627 10.39 3.63159 10.39Z" fill="#363C90"/>
<path d="M4.74668 15.9814C4.6466 15.9814 4.54851 15.9444 4.4725 15.8666C4.32069 15.7148 4.32069 15.4684 4.4725 15.3164L5.32088 14.468C5.47269 14.3162 5.71901 14.3162 5.87103 14.468C6.02284 14.6199 6.02284 14.8662 5.87103 15.0182L5.02265 15.8666C4.94665 15.9444 4.84657 15.9814 4.74669 15.9814H4.74668Z" fill="#363C90"/>
<path d="M10.3387 18.2984C10.1238 18.2984 9.94971 18.1243 9.94971 17.9094V16.7093C9.94971 16.4944 10.1238 16.3203 10.3387 16.3203C10.5536 16.3203 10.7277 16.4944 10.7277 16.7093V17.9094C10.7277 18.1243 10.5536 18.2984 10.3387 18.2984Z" fill="#363C90"/>
<path d="M15.9305 15.9814C15.8304 15.9814 15.7323 15.9444 15.6563 15.8666L14.808 15.0182C14.6561 14.8664 14.6561 14.6201 14.808 14.468C14.9598 14.3162 15.2061 14.3162 15.3581 14.468L16.2065 15.3164C16.3583 15.4682 16.3583 15.7146 16.2065 15.8666C16.1305 15.9444 16.0306 15.9814 15.9305 15.9814H15.9305Z" fill="#363C90"/>
<path d="M18.2476 10.39H17.0474C16.8325 10.39 16.6584 10.2159 16.6584 10.001C16.6584 9.7861 16.8325 9.612 17.0474 9.612H18.2476C18.4624 9.612 18.6365 9.7861 18.6365 10.001C18.6363 10.2159 18.4622 10.39 18.2476 10.39Z" fill="#363C90"/>
<path d="M15.0819 5.64544C14.9818 5.64544 14.8837 5.60664 14.8077 5.53064C14.6559 5.37882 14.6559 5.13251 14.8077 4.98048L15.6561 4.13211C15.8079 3.9803 16.0542 3.9803 16.2062 4.13211C16.358 4.28392 16.358 4.53024 16.2062 4.68226L15.3579 5.53064C15.282 5.60843 15.182 5.64544 15.0819 5.64544H15.0819Z" fill="#363C90"/>
</svg>
