<svg width="24" height="24" viewBox="0 0 24 24" fill="none" xmlns="http://www.w3.org/2000/svg">
<mask id="mask0_8323_39433" style="mask-type:alpha" maskUnits="userSpaceOnUse" x="0" y="0" width="24" height="24">
<rect width="24" height="24" fill="#D9D9D9"/>
</mask>
<g mask="url(#mask0_8323_39433)">
<path d="M12.0004 13.1748L6.8752 18.3C6.7088 18.4668 6.513 18.5502 6.2878 18.5502C6.063 18.5502 5.8672 18.4668 5.7004 18.3C5.5336 18.1332 5.4502 17.9374 5.4502 17.7126C5.4502 17.4874 5.5336 17.2916 5.7004 17.1252L10.8256 12L5.7004 6.8748C5.5336 6.7084 5.4502 6.5126 5.4502 6.2874C5.4502 6.0626 5.5336 5.8668 5.7004 5.7C5.8672 5.5332 6.063 5.4498 6.2878 5.4498C6.513 5.4498 6.7088 5.5332 6.8752 5.7L12.0004 10.8252L17.1256 5.7C17.292 5.5332 17.4878 5.4498 17.713 5.4498C17.9378 5.4498 18.1336 5.5332 18.3004 5.7C18.4672 5.8668 18.5506 6.0626 18.5506 6.2874C18.5506 6.5126 18.4672 6.7084 18.3004 6.8748L13.1752 12L18.3004 17.1252C18.4672 17.2916 18.5506 17.4874 18.5506 17.7126C18.5506 17.9374 18.4672 18.1332 18.3004 18.3C18.1336 18.4668 17.9378 18.5502 17.713 18.5502C17.4878 18.5502 17.292 18.4668 17.1256 18.3L12.0004 13.1748Z" fill="#4A4A5B"/>
</g>
</svg>
