<svg width="16" height="19" viewBox="0 0 16 19" fill="none" xmlns="http://www.w3.org/2000/svg">
<path d="M14.0081 5.16878e-06H1.16725C0.525205 5.16878e-06 0 0.52521 0 1.16725V14.0081C0 14.6502 0.525205 15.1754 1.16725 15.1754H3.03502V18.94L6.79962 15.1754L14.008 15.1756C14.6501 15.1756 15.1753 14.6504 15.1753 14.0083V1.16746C15.1755 0.525205 14.6501 0 14.008 0L14.0081 5.16878e-06ZM14.5918 14.0082C14.5918 14.3293 14.3292 14.5919 14.0081 14.5919H6.56626L3.61874 17.5103V14.5919H1.16735C0.846321 14.5919 0.583729 14.3293 0.583729 14.0082V1.16736C0.583729 0.846326 0.846337 0.583734 1.16735 0.583734H14.0082C14.3293 0.583734 14.5919 0.846341 14.5919 1.16736L14.5918 14.0082Z" fill="#ADADBD"/>
<path d="M11.2358 7.32525H7.87975V3.93987C7.87975 3.7648 7.7631 3.64795 7.58783 3.64795C7.41276 3.64795 7.29591 3.7646 7.29591 3.93987V7.32525H3.93987C3.7648 7.32525 3.64795 7.44189 3.64795 7.61717C3.64795 7.79224 3.7646 7.90909 3.93987 7.90909L7.29591 7.90889V11.2943C7.29591 11.4693 7.41255 11.5862 7.58783 11.5862C7.7629 11.5862 7.87975 11.4695 7.87975 11.2943V7.90889H11.2358C11.4109 7.90889 11.5277 7.79224 11.5277 7.61697C11.5277 7.4421 11.4109 7.32525 11.2358 7.32525Z" fill="#ADADBD"/>
</svg>
