<svg width="18" height="18" viewBox="0 0 18 18" fill="none" xmlns="http://www.w3.org/2000/svg">
<circle cx="9" cy="9" r="9" fill="#FF475C"/>
<path fill-rule="evenodd" clip-rule="evenodd" d="M6.17082 6.16984C6.21 6.13055 6.25656 6.09938 6.30781 6.07811C6.35907 6.05685 6.41401 6.0459 6.4695 6.0459C6.525 6.0459 6.57994 6.05685 6.63119 6.07811C6.68245 6.09938 6.729 6.13055 6.76819 6.16984L9.00075 8.40325L11.2333 6.16984C11.2725 6.13062 11.3191 6.0995 11.3704 6.07827C11.4216 6.05705 11.4765 6.04612 11.532 6.04612C11.5875 6.04612 11.6424 6.05705 11.6937 6.07827C11.7449 6.0995 11.7915 6.13062 11.8307 6.16984C11.8699 6.20906 11.901 6.25563 11.9223 6.30688C11.9435 6.35813 11.9544 6.41306 11.9544 6.46853C11.9544 6.524 11.9435 6.57893 11.9223 6.63018C11.901 6.68143 11.8699 6.72799 11.8307 6.76722L9.59729 8.99978L11.8307 11.2323C11.8699 11.2716 11.901 11.3181 11.9223 11.3694C11.9435 11.4206 11.9544 11.4756 11.9544 11.531C11.9544 11.5865 11.9435 11.6414 11.9223 11.6927C11.901 11.7439 11.8699 11.7905 11.8307 11.8297C11.7915 11.8689 11.7449 11.9001 11.6937 11.9213C11.6424 11.9425 11.5875 11.9534 11.532 11.9534C11.4765 11.9534 11.4216 11.9425 11.3704 11.9213C11.3191 11.9001 11.2725 11.8689 11.2333 11.8297L9.00075 9.59631L6.76819 11.8297C6.72897 11.8689 6.6824 11.9001 6.63115 11.9213C6.5799 11.9425 6.52498 11.9534 6.4695 11.9534C6.41403 11.9534 6.3591 11.9425 6.30786 11.9213C6.25661 11.9001 6.21004 11.8689 6.17082 11.8297C6.13159 11.7905 6.10048 11.7439 6.07925 11.6927C6.05802 11.6414 6.0471 11.5865 6.0471 11.531C6.0471 11.4756 6.05802 11.4206 6.07925 11.3694C6.10048 11.3181 6.13159 11.2716 6.17082 11.2323L8.40422 8.99978L6.17082 6.76722C6.13153 6.72803 6.10036 6.68147 6.07909 6.63022C6.05782 6.57896 6.04688 6.52402 6.04688 6.46853C6.04688 6.41304 6.05782 6.35809 6.07909 6.30684C6.10036 6.25558 6.13153 6.20903 6.17082 6.16984Z" fill="white"/>
</svg>
