<svg width="28" height="21" viewBox="0 0 28 21" fill="none" xmlns="http://www.w3.org/2000/svg">
<path d="M19.2747 5.01544C18.2308 5.01544 17.2336 5.21962 16.321 5.58971C16.251 5.33587 16.112 5.05091 15.8568 4.75842C16.1945 4.37557 16.3848 3.94428 16.3848 3.46634C16.3848 1.21495 12.1641 0 8.1929 0C4.22187 0 0.00102075 1.21495 0.00102075 3.46634C0.00102075 3.9437 0.190851 4.3746 0.527817 4.75704C0.103496 5.24317 0 5.70778 0 6.04494C0 6.38232 0.103486 6.84733 0.527409 7.33247C0.103287 7.81781 0 8.28239 0 8.6196C0 8.95718 0.103685 9.42256 0.529195 9.90913C0.10368 10.3937 0 10.8593 0 11.1976C0 11.5352 0.103685 12.0006 0.529195 12.4872C0.10368 12.9717 0 13.4373 0 13.7757C0 16.0267 4.2207 17.2412 8.19188 17.2412C9.69075 17.2412 11.1392 17.0803 12.4129 16.7741C13.7685 19.1638 16.3363 20.78 19.2746 20.78C23.6207 20.7802 27.1566 17.2442 27.1566 12.898C27.1566 8.55164 23.6205 5.01593 19.2746 5.01593L19.2747 5.01544ZM8.19305 1.14348C12.5599 1.14348 15.241 2.49641 15.241 3.46629C15.241 4.43616 12.5597 5.78909 8.19305 5.78909C3.82641 5.78909 1.14511 4.43637 1.14511 3.46629C1.14511 2.49641 3.82641 1.14348 8.19305 1.14348ZM11.3998 13.2414C10.4086 13.4241 9.31044 13.52 8.19202 13.52C5.44651 13.52 2.90518 12.9365 1.71682 12.0324C1.45541 11.8346 1.14358 11.5294 1.14358 11.1977C1.14358 10.9916 1.26342 10.7967 1.41675 10.6318C2.21256 11.12 3.30924 11.5064 4.62408 11.759C5.73934 11.9756 6.93969 12.0855 8.19175 12.0855C9.33712 12.0855 10.4386 11.9935 11.4665 11.8131C11.4174 12.1678 11.3921 12.5299 11.3921 12.8978C11.3921 13.0131 11.3947 13.1275 11.3997 13.2414L11.3998 13.2414ZM8.19202 16.098C3.82498 16.098 1.14358 14.7455 1.14358 13.7758C1.14358 13.5694 1.26382 13.3744 1.41715 13.2093C2.89708 14.1132 5.42744 14.6633 8.19148 14.6633C9.34998 14.6633 10.4919 14.5658 11.5314 14.3794C11.6196 14.8404 11.7478 15.2872 11.9127 15.7162C10.7829 15.9668 9.51071 16.098 8.19168 16.098H8.19202ZM11.7342 10.5988C11.671 10.6118 11.6069 10.6245 11.5415 10.6363C9.48434 11.0357 6.90135 11.0359 4.84072 10.6361C3.48601 10.3757 2.37693 9.95617 1.71675 9.45408C1.45534 9.25647 1.1435 8.95119 1.1435 8.61957C1.1435 8.41459 1.26235 8.22018 1.41449 8.05505C2.2055 8.54099 3.29901 8.92805 4.61406 9.18425C5.72911 9.40079 6.93268 9.51066 8.19168 9.51066C9.42996 9.51066 10.615 9.40438 11.7147 9.19481L11.7735 9.18424C11.9875 9.14237 12.1954 9.09691 12.3976 9.04805C12.1239 9.53519 11.9003 10.0546 11.734 10.5988L11.7342 10.5988ZM11.6077 8.0513L11.5517 8.06187C9.4943 8.46167 6.88896 8.46127 4.83251 8.06207C3.47581 7.79747 2.36892 7.37713 1.7137 6.87642C1.45348 6.67961 1.14361 6.37573 1.14361 6.04493C1.14361 5.83895 1.26405 5.64314 1.41779 5.47684C2.98985 6.43155 5.64287 6.93247 8.19314 6.93247C10.7424 6.93247 13.3942 6.43178 14.967 5.47766C15.1203 5.64375 15.2401 5.83916 15.2401 6.04493C15.2401 6.07464 15.2377 6.10375 15.2332 6.13267C14.61 6.50634 14.0426 6.96375 13.5462 7.48897C12.9907 7.71608 12.3395 7.90511 11.6081 8.05129L11.6077 8.0513ZM19.2749 19.6367C15.5591 19.6367 12.5358 16.6136 12.5358 12.8976C12.5358 9.18162 15.5589 6.15851 19.2749 6.15851C22.9907 6.15851 26.014 9.18162 26.014 12.8976C26.014 16.6136 22.9909 19.6367 19.2749 19.6367Z" fill="black"/>
<path d="M19.2736 12.3318C18.6722 12.3318 18.1829 11.8425 18.1829 11.2413C18.1829 10.6387 18.6722 10.1484 19.2736 10.1484C19.6588 10.1484 20.007 10.3446 20.2054 10.673C20.3687 10.943 20.7189 11.0304 20.9904 10.8668C21.2606 10.7037 21.3475 10.3522 21.1842 10.082C20.8837 9.58451 20.3978 9.22817 19.8463 9.08064L19.8461 8.30995C19.8461 7.9943 19.59 7.73828 19.2744 7.73828C18.9588 7.73828 18.7027 7.99431 18.7027 8.30995V9.07901C17.7464 9.33224 17.0396 10.2056 17.0396 11.2413C17.0396 12.473 18.0417 13.4752 19.2736 13.4752C19.8764 13.4752 20.3665 13.9645 20.3665 14.5657C20.3665 15.1683 19.8764 15.6585 19.2736 15.6585C18.89 15.6585 18.5414 15.4617 18.3405 15.1322C18.176 14.8626 17.8242 14.7768 17.5546 14.9417C17.285 15.106 17.1999 15.4578 17.364 15.7274C17.6721 16.2325 18.151 16.5848 18.7028 16.7292V17.4973C18.7028 17.8129 18.9588 18.0689 19.2744 18.0689C19.5901 18.0689 19.8461 17.8129 19.8461 17.4973V16.7278C20.8026 16.4741 21.5099 15.6012 21.5099 14.5659C21.5099 13.334 20.5067 12.3318 19.2736 12.3318L19.2736 12.3318Z" fill="black"/>
</svg>
