<svg width="59" height="56" viewBox="0 0 59 56" fill="none" xmlns="http://www.w3.org/2000/svg">
<path d="M49.2937 19.1326L32.8113 35.615C31.8428 36.5835 30.8502 37.54 29.8997 38.5266L29.8516 38.5747C30.014 38.4484 30.1764 38.3221 30.3389 38.1958C30.3208 38.2078 30.3028 38.2198 30.2847 38.2258C30.4772 38.1476 30.6697 38.0634 30.8622 37.9852C30.6998 38.0514 30.5133 38.0754 30.3389 38.0995C30.5494 38.0694 30.766 38.0394 30.9765 38.0153C29.5267 38.2018 28.0408 38.1837 26.579 38.1777C27.3791 38.9778 28.1853 39.7839 28.9853 40.584C28.9733 39.1041 28.9492 37.5942 29.1297 36.1264C29.0996 36.337 29.0695 36.5535 29.0455 36.7641C29.0996 36.3911 29.2319 36.0302 29.2319 35.6512C29.1237 36.0543 29.0154 36.4633 28.9011 36.8664C28.9191 36.8423 28.9312 36.8123 28.9492 36.7882C28.8229 36.9506 28.6965 37.113 28.5702 37.2755C29.9478 35.8979 31.3193 34.5263 32.697 33.1487C33.6294 32.2163 34.5558 31.2899 35.4882 30.3575C37.1907 28.655 38.8991 26.9466 40.6015 25.2442C41.4798 24.3659 42.3581 23.4876 43.2363 22.6094C44.7883 21.0574 46.3463 19.4993 47.8984 17.9472C47.9345 17.9112 47.9646 17.8811 48.0007 17.845H44.5959C45.9614 19.2105 47.327 20.5761 48.6866 21.9357C48.8851 22.1342 49.0836 22.3327 49.2821 22.5312C50.1724 23.4215 51.8087 23.4877 52.6869 22.5312C53.5712 21.5687 53.6374 20.0769 52.6869 19.1264C51.3153 17.7548 49.9378 16.3773 48.5662 15.0057C48.3737 14.8132 48.1872 14.6267 47.9947 14.4342C47.0743 13.5138 45.5103 13.5138 44.5899 14.4342C43.2003 15.8238 41.8106 17.2134 40.4211 18.603C39.4827 19.5414 38.5502 20.4738 37.6118 21.4123C35.8974 23.1267 34.189 24.8351 32.4745 26.5496C31.5722 27.4519 30.6698 28.3543 29.7735 29.2506C28.2515 30.7726 26.6995 32.2644 25.2136 33.8105C24.7384 34.3038 24.4075 34.9414 24.4075 35.6453C24.4376 35.4347 24.4677 35.2182 24.4918 35.0076C24.3714 35.3565 24.3474 35.7656 24.3053 36.1205C24.2752 36.3431 24.2571 36.5596 24.2451 36.7822C24.203 37.3477 24.191 37.9192 24.1789 38.4847C24.1669 39.1825 24.1609 39.8803 24.1669 40.5781C24.1789 41.8834 25.2618 42.9783 26.5732 42.9843C27.7703 42.9903 28.9734 42.9723 30.1705 42.8941C31.0548 42.8339 31.9692 42.7858 32.7632 42.3467C33.0459 42.1903 33.2565 41.9677 33.479 41.7451C34.9589 40.2653 36.4387 38.7854 37.9185 37.3056C40.0721 35.152 42.2257 32.9984 44.3733 30.8508C45.5825 29.6417 46.7916 28.4326 48.0008 27.2233C49.5047 25.7194 51.0086 24.2155 52.5185 22.7056C52.5727 22.6515 52.6328 22.5913 52.6869 22.5372C53.5773 21.6469 53.6434 20.0106 52.6869 19.1324C51.7365 18.2481 50.2446 18.1819 49.2941 19.1324L49.2937 19.1326Z" fill="#363C90"/>
<path d="M53.8237 14.6028L49.2939 19.1326H52.6987C51.3272 17.761 49.9496 16.3835 48.578 15.0119C48.3855 14.8194 48.1991 14.6329 48.0066 14.4404V17.8452L51.9769 13.8749C52.1814 13.6704 52.386 13.4538 52.6025 13.2553C52.4401 13.3816 52.2777 13.508 52.1153 13.6343C52.1874 13.5801 52.2536 13.544 52.3378 13.5019C52.1453 13.5801 51.9528 13.6644 51.7603 13.7426C51.8445 13.7125 51.9167 13.6944 52.007 13.6824C51.7964 13.7125 51.5799 13.7426 51.3693 13.7666C51.4235 13.7606 51.4836 13.7606 51.5377 13.7666C51.3272 13.7365 51.1106 13.7065 50.9001 13.6824C50.9963 13.7005 51.0806 13.7185 51.1708 13.7546C50.9783 13.6764 50.7858 13.5922 50.5933 13.514C51.0024 13.7245 51.4355 13.893 51.8987 13.893C51.4956 13.7847 51.0865 13.6764 50.6835 13.5621C50.7136 13.5801 50.7436 13.6102 50.7737 13.6283C50.6113 13.5019 50.4489 13.3756 50.2865 13.2493C50.3045 13.2673 50.3286 13.2854 50.3466 13.3094C50.112 12.744 49.8774 12.1725 49.6428 11.607C49.6428 12.5815 50.1962 13.159 50.8038 13.7666C51.2069 14.1697 51.6159 14.5787 52.019 14.9818C52.6386 15.6014 53.2883 16.1969 53.8718 16.8405C53.7455 16.6781 53.6192 16.5157 53.4929 16.3533C53.541 16.4195 53.5831 16.4856 53.6192 16.5578C53.541 16.3653 53.4568 16.1728 53.3786 15.9803C53.4086 16.0585 53.4267 16.1247 53.4387 16.2089C53.4086 15.9984 53.3786 15.7818 53.3545 15.5712C53.3605 15.6495 53.3605 15.7216 53.3545 15.8059C53.3846 15.5953 53.4147 15.3787 53.4387 15.1682C53.4267 15.2464 53.4026 15.3186 53.3786 15.3968C53.4568 15.2043 53.541 15.0118 53.6192 14.8193C53.5831 14.8975 53.541 14.9576 53.4929 15.0238C53.6192 14.8614 53.7455 14.699 53.8718 14.5366C53.8598 14.5606 53.8418 14.5787 53.8237 14.6027C53.3966 15.0719 53.1199 15.6555 53.1199 16.3052C53.1199 16.8947 53.3846 17.5986 53.8237 18.0077C54.2809 18.4288 54.8825 18.7416 55.5262 18.7115C56.1458 18.6814 56.7955 18.4829 57.2287 18.0077C58.0167 17.1414 58.3235 16.0887 58.0949 14.9397C57.9746 14.3441 57.6257 13.7966 57.2106 13.3636C57.0061 13.147 56.7895 12.9425 56.585 12.738C55.8451 11.998 55.1052 11.2581 54.3652 10.5182C54.1667 10.3196 53.9681 10.1211 53.7636 9.91658C53.9982 10.4821 54.2328 11.0535 54.4674 11.6191C54.4674 10.2776 53.2462 9.09246 51.9048 9.09246C52.3078 9.20075 52.7169 9.30903 53.1199 9.42332C51.7483 8.61723 50.1121 8.95411 49.0173 10.0429C48.6984 10.3618 48.3796 10.6806 48.0608 10.9994C47.1344 11.9258 46.2079 12.8523 45.2815 13.7787C45.059 14.0012 44.8303 14.2298 44.6078 14.4524C43.6874 15.3728 43.6874 16.9308 44.6078 17.8573C45.9733 19.2228 47.3389 20.5883 48.6985 21.9479C48.897 22.1465 49.0955 22.345 49.294 22.5435C50.2144 23.4639 51.7785 23.4639 52.6988 22.5435C54.0163 21.226 55.3397 19.9026 56.6571 18.5852C56.8496 18.3927 57.0361 18.2063 57.2286 18.0138C58.1189 17.1234 58.185 15.4872 57.2286 14.6089C56.2661 13.7186 54.7742 13.6524 53.8237 14.6029L53.8237 14.6028Z" fill="#363C90"/>
<path d="M53.8239 14.6029L49.2941 19.1327H52.6989C51.3273 17.7611 49.9498 16.3836 48.5782 15.012C48.3857 14.8195 48.1992 14.633 48.0067 14.4405V17.8453L51.9771 13.875C52.1816 13.6705 52.3861 13.4539 52.6027 13.2554C52.4403 13.3817 52.2779 13.508 52.1154 13.6344C52.1876 13.5802 52.2538 13.5441 52.338 13.502C52.1455 13.5802 51.953 13.6645 51.7605 13.7427C51.8447 13.7126 51.9169 13.6945 52.0071 13.6825C51.7966 13.7126 51.58 13.7427 51.3695 13.7667C51.4236 13.7607 51.4838 13.7607 51.5379 13.7667C51.3274 13.7366 51.1108 13.7066 50.9003 13.6825C50.9965 13.7005 51.0807 13.7186 51.171 13.7547C50.9785 13.6765 50.786 13.5923 50.5935 13.5141C51.0025 13.7246 51.4356 13.893 51.8988 13.893C51.4958 13.7848 51.0867 13.6765 50.6837 13.5622C50.7137 13.5802 50.7438 13.6103 50.7739 13.6284C50.6115 13.502 50.4491 13.3757 50.2866 13.2494C50.9123 13.8209 51.4898 14.4465 52.0853 15.042C52.6809 15.6376 53.3125 16.2151 53.878 16.8408C53.7517 16.6783 53.6254 16.5159 53.499 16.3535C53.5472 16.4197 53.5893 16.4858 53.6254 16.558C53.5472 16.3655 53.4629 16.173 53.3847 15.9805C53.4148 16.0587 53.4329 16.1249 53.4449 16.2091C53.4148 15.9986 53.3847 15.782 53.3607 15.5715C53.3667 15.6497 53.3667 15.7219 53.3607 15.8061C53.3907 15.5955 53.4208 15.379 53.4449 15.1684C53.4329 15.2466 53.4088 15.3188 53.3847 15.397C53.4629 15.2045 53.5472 15.012 53.6254 14.8195C53.5893 14.8977 53.5472 14.9579 53.499 15.024C53.6254 14.8616 53.7517 14.6992 53.878 14.5368C53.86 14.5608 53.8419 14.5789 53.8239 14.6029C53.3968 15.0722 53.1201 15.6557 53.1201 16.3054C53.1201 16.8949 53.3847 17.5988 53.8239 18.0079C54.2811 18.429 54.8826 18.7418 55.5263 18.7117C56.146 18.6816 56.7956 18.4831 57.2288 18.0079C57.9988 17.1597 58.3958 15.9986 58.077 14.8617C57.9146 14.2842 57.6138 13.7788 57.1927 13.3517C56.9581 13.105 56.7115 12.8704 56.4708 12.6298C55.7008 11.8598 54.9248 11.0838 54.1548 10.3138C53.5231 9.68212 52.8855 9.0866 51.8989 9.0866C52.302 9.19489 52.711 9.30317 53.1141 9.41746C51.7425 8.61137 50.1062 8.94825 49.0114 10.0371C48.6926 10.3559 48.3738 10.6747 48.0549 10.9936C47.1285 11.92 46.2021 12.8464 45.2757 13.7728C45.0531 13.9954 44.8245 14.224 44.6019 14.4466C43.6815 15.367 43.6815 16.925 44.6019 17.8514C45.9675 19.2169 47.333 20.5825 48.6926 21.9421C48.8911 22.1406 49.0896 22.3391 49.2881 22.5376C50.2085 23.458 51.7726 23.458 52.693 22.5376C54.0104 21.2202 55.3339 19.8967 56.6512 18.5794C56.8437 18.3869 57.0302 18.2004 57.2227 18.0079C58.113 17.1176 58.1792 15.4813 57.2227 14.6031C56.2662 13.7188 54.7743 13.6526 53.8239 14.6031L53.8239 14.6029Z" fill="#363C90"/>
<path d="M24.5032 35.0078C24.4972 35.0258 24.4912 35.0499 24.4792 35.0679C24.3769 35.3867 24.3649 35.7056 24.4371 36.0304C24.4491 36.3492 24.5453 36.65 24.7198 36.9267C24.8702 37.2095 25.0747 37.4321 25.3394 37.6005C25.574 37.811 25.8447 37.9554 26.1575 38.0336C26.3681 38.0637 26.5846 38.0938 26.7952 38.1178C27.2283 38.1178 27.6314 38.0096 28.0104 37.787C28.1728 37.6607 28.3352 37.5343 28.4976 37.408C28.7984 37.1072 29.0029 36.7523 29.1172 36.3432C29.1232 36.3252 29.1293 36.3011 29.1413 36.2831C29.2436 35.9642 29.2556 35.6454 29.1834 35.3206C29.1714 35.0017 29.0751 34.701 28.9007 34.4242C28.7503 34.1415 28.5457 33.9189 28.2811 33.7505C28.0465 33.5399 27.7757 33.3956 27.4629 33.3174C27.2524 33.2873 27.0358 33.2572 26.8253 33.2332C26.3922 33.2332 25.9891 33.3414 25.6101 33.564C25.4477 33.6903 25.2853 33.8167 25.1228 33.943C24.8281 34.2498 24.6175 34.6047 24.5032 35.0078Z" fill="#363C90"/>
<path d="M28.9008 36.8603C28.9129 36.8363 28.9249 36.8122 28.9369 36.7941C28.8106 36.9566 28.6843 37.119 28.5579 37.2814C28.564 37.2754 28.564 37.2754 28.57 37.2694H25.1651C25.3817 37.504 25.6404 37.6724 25.9412 37.7687C26.2299 37.9191 26.5367 37.9913 26.8676 37.9732C27.1984 37.9852 27.5052 37.9191 27.794 37.7687C28.0948 37.6724 28.3534 37.504 28.57 37.2694C28.6963 37.1069 28.8227 36.9445 28.949 36.7821C29.1655 36.4091 29.2738 36.0001 29.2798 35.5669C29.2498 35.3564 29.2197 35.1398 29.1956 34.9293C29.0813 34.5202 28.8768 34.1653 28.576 33.8645C28.3594 33.6299 28.1008 33.4615 27.8 33.3652C27.5112 33.2148 27.2044 33.1426 26.8736 33.1607C26.663 33.1908 26.4465 33.2208 26.2359 33.2449C25.8269 33.3592 25.4719 33.5637 25.1712 33.8645C25.0268 34.0269 24.8884 34.1954 24.7741 34.3818C24.7621 34.3999 24.7561 34.4119 24.7501 34.43C24.5756 34.7067 24.4794 35.0015 24.4673 35.3263C24.3951 35.6451 24.4072 35.964 24.5094 36.2888C24.5816 36.6016 24.726 36.8723 24.9426 37.1069C25.111 37.3716 25.3396 37.5761 25.6163 37.7265C25.8088 37.8047 26.0013 37.889 26.1938 37.9672C26.6209 38.0815 27.048 38.0815 27.4751 37.9672C27.6676 37.8889 27.8601 37.8047 28.0526 37.7265C28.4015 37.51 28.6903 37.2272 28.9008 36.8603L28.9008 36.8603Z" fill="#363C90"/>
<path d="M43.9226 6.3194V14.9519V16.167C45.2942 15.6016 46.6597 15.0301 48.0313 14.4646C48.0193 14.4525 48.0133 14.4465 48.0012 14.4345C47.0808 13.5141 45.5168 13.5141 44.5964 14.4345C43.2068 15.8241 41.8171 17.2137 40.4276 18.6033C39.4892 19.5417 38.5567 20.4741 37.6183 21.4126C35.9039 23.127 34.1955 24.8354 32.481 26.5499C31.5787 27.4522 30.6763 28.3545 29.7799 29.2509C28.258 30.7729 26.706 32.2647 25.2201 33.8108C24.7449 34.3041 24.414 34.9417 24.414 35.6456C24.4441 35.435 24.4742 35.2185 24.4982 35.0079C24.3779 35.3568 24.3539 35.7659 24.3118 36.1208C24.2817 36.3434 24.2636 36.5599 24.2516 36.7825C24.2095 37.348 24.1975 37.9195 24.1854 38.485C24.1734 39.1828 24.1674 39.8806 24.1734 40.5784C24.1854 41.8837 25.2682 42.9786 26.5797 42.9846C27.4519 42.9906 28.3241 42.9726 29.1904 42.9425C29.7739 42.9245 30.3514 42.8944 30.9289 42.8282C31.8193 42.7199 32.5712 42.6056 33.263 41.962C34.0511 41.2281 34.797 40.428 35.561 39.664C37.1853 38.0397 38.8095 36.4155 40.4337 34.7913C42.082 33.143 43.7362 31.4888 45.3846 29.8404C46.2508 28.9742 47.1412 28.1199 47.9894 27.2356C48.0014 27.2236 48.0135 27.2115 48.0255 27.1995C46.6539 26.634 45.2884 26.0626 43.9168 25.497V27.9093V33.6843V40.6263V46.5276C43.9168 47.436 43.9228 48.3444 43.9168 49.2587C43.9168 49.4271 43.9047 49.6016 43.8867 49.77C43.9168 49.5595 43.9468 49.3429 43.9709 49.1324C43.9228 49.4813 43.8326 49.8121 43.7002 50.137C43.7784 49.9445 43.8626 49.752 43.9408 49.5595C43.8085 49.8723 43.634 50.167 43.4295 50.4377C43.5558 50.2753 43.6822 50.1129 43.8085 49.9505C43.5979 50.2152 43.3633 50.4558 43.0926 50.6663C43.2551 50.54 43.4175 50.4137 43.5799 50.2874C43.3092 50.4919 43.0144 50.6663 42.7016 50.7987C42.8941 50.7205 43.0866 50.6363 43.2791 50.5581C42.9543 50.6904 42.6174 50.7806 42.2745 50.8288C42.4851 50.7987 42.7016 50.7686 42.9122 50.7445C42.461 50.7987 41.9978 50.7746 41.5406 50.7746H38.9479H30.2432H19.6918H10.6143C9.19464 50.7746 7.76893 50.7866 6.34927 50.7746C6.1688 50.7746 5.99434 50.7626 5.81989 50.7445C6.03044 50.7746 6.247 50.8047 6.45755 50.8288C6.10864 50.7806 5.77778 50.6904 5.45294 50.5581C5.64544 50.6363 5.83794 50.7205 6.03044 50.7987C5.71763 50.6663 5.42287 50.4919 5.15216 50.2874C5.31459 50.4137 5.477 50.54 5.63943 50.6663C5.37474 50.4558 5.13411 50.2212 4.92357 49.9505C5.04989 50.1129 5.17623 50.2753 5.30255 50.4377C5.09802 50.167 4.92357 49.8723 4.79123 49.5595C4.86943 49.752 4.95365 49.9445 5.03185 50.137C4.89951 49.8121 4.80928 49.4753 4.76115 49.1324C4.79123 49.3429 4.82131 49.5595 4.84537 49.77C4.78522 49.2587 4.81529 48.7353 4.81529 48.218V45.132V40.5059V34.8031V28.5709V22.2485V16.3952V11.4685V7.94934V6.36116C4.81529 6.18069 4.82733 6.00023 4.84537 5.81975C4.81529 6.0303 4.78522 6.24686 4.76115 6.45741C4.80928 6.1085 4.89951 5.77764 5.03185 5.4528C4.95365 5.6453 4.86943 5.8378 4.79123 6.0303C4.92357 5.71748 5.09803 5.42273 5.30255 5.15202C5.17623 5.31444 5.04989 5.47686 4.92357 5.63928C5.13412 5.3746 5.36873 5.13397 5.63943 4.92342C5.477 5.04975 5.31459 5.17608 5.15216 5.30241C5.42286 5.09787 5.71763 4.92342 6.03044 4.79108C5.83794 4.86929 5.64544 4.95351 5.45294 5.03171C5.77778 4.89937 6.11466 4.80913 6.45755 4.76101C6.247 4.79109 6.03044 4.82117 5.81989 4.84523C6.27107 4.79109 6.73427 4.81515 7.19148 4.81515H9.78418H18.4888H29.0402H38.1178C39.5374 4.81515 40.9631 4.80312 42.3828 4.81515C42.5633 4.81515 42.7377 4.82718 42.9122 4.84523C42.7016 4.81515 42.4851 4.78507 42.2745 4.76101C42.6234 4.80913 42.9543 4.89937 43.2791 5.03171C43.0866 4.95351 42.8941 4.86928 42.7016 4.79108C43.0144 4.92342 43.3092 5.09788 43.5799 5.30241C43.4175 5.17608 43.2551 5.04975 43.0926 4.92342C43.3573 5.13398 43.598 5.36858 43.8085 5.63928C43.6822 5.47686 43.5558 5.31444 43.4295 5.15202C43.634 5.42271 43.8085 5.71748 43.9408 6.0303C43.8626 5.8378 43.7784 5.6453 43.7002 5.4528C43.8326 5.77764 43.9228 6.11452 43.9709 6.45741C43.9408 6.24686 43.9108 6.0303 43.8867 5.81975C43.9108 5.98818 43.9228 6.15061 43.9228 6.31905C43.9288 6.93866 44.1875 7.58229 44.6266 8.02152C45.0417 8.43659 45.7275 8.75543 46.3291 8.72534C47.6225 8.66519 48.7473 7.66659 48.7353 6.31909C48.7173 4.53841 47.9593 2.70977 46.5637 1.56676C45.3666 0.586213 43.971 0.0147736 42.4009 0.00267364C41.9677 -0.00334204 41.5406 0.00267364 41.1075 0.00267364H33.7082H22.9583H12.7377H6.74019H6.33713C4.77304 0.0147054 3.37747 0.586191 2.17429 1.56676C0.694464 2.78193 0.00267359 4.68284 0.00267359 6.54767V11.4504V20.7806V31.7711V41.8293V48.254C0.00267359 48.5908 -0.00334198 48.9277 0.00267359 49.2646C0.0147054 50.9189 0.66439 52.5251 1.82537 53.7041C3.00446 54.9012 4.64665 55.5689 6.31909 55.5809C7.69662 55.5929 9.07427 55.5809 10.4578 55.5809H19.8723H30.8448H39.5735C41.6549 55.5809 43.9228 55.8155 45.7516 54.6244C46.5817 54.083 47.2555 53.4153 47.7848 52.5791C48.3322 51.7188 48.5789 50.7684 48.6932 49.7637C48.7232 49.493 48.7232 49.2283 48.7232 48.9576V46.2145V36.0902V26.9525V25.4907C48.7232 24.5282 48.1157 23.6619 47.2434 23.2889C46.3591 22.9159 45.3004 23.0964 44.6146 23.7882L31.6445 36.7583C31.055 37.3479 30.4474 37.9314 29.8699 38.5329L29.8398 38.563C30.0022 38.4367 30.1647 38.3104 30.3271 38.184C30.309 38.1961 30.291 38.2081 30.273 38.2141C30.4655 38.1359 30.658 38.0517 30.8505 37.9735C30.688 38.0397 30.5015 38.0637 30.3271 38.0878C30.5376 38.0577 30.7542 38.0276 30.9648 38.0036C29.515 38.1901 28.0291 38.172 26.5673 38.166C27.3674 38.9661 28.1735 39.7722 28.9735 40.5723C28.9615 39.0924 28.9374 37.5825 29.1179 36.1147C29.0878 36.3253 29.0578 36.5418 29.0337 36.7524C29.0878 36.3794 29.2202 36.0185 29.2202 35.6395C29.1119 36.0426 29.0036 36.4516 28.8893 36.8547C28.9074 36.8306 28.9194 36.8005 28.9374 36.7765C28.8111 36.9389 28.6848 37.1013 28.5585 37.2637C29.936 35.8862 31.3076 34.5146 32.6852 33.137C33.6176 32.2046 34.544 31.2782 35.4765 30.3457C37.1789 28.6433 38.8873 26.9349 40.5897 25.2325C41.468 24.3542 42.3463 23.4759 43.2245 22.5977C44.7765 21.0457 46.3346 19.4876 47.8867 17.9355C47.9228 17.8994 47.9528 17.8694 47.9889 17.8333H44.5841C44.5961 17.8453 44.6021 17.8513 44.6142 17.8633C45.3 18.5491 46.3587 18.7356 47.243 18.3626C48.1152 17.9957 48.7228 17.1294 48.7228 16.1609V7.52842V6.31325C48.7228 5.05595 47.616 3.84683 46.3165 3.907C45.0292 3.97317 43.9223 4.97177 43.9223 6.3193L43.9226 6.3194Z" fill="#363C90"/>
<path d="M10.8425 14.9824H13.5255H19.9742H27.8066H34.526C35.6209 14.9824 36.7217 15.0004 37.8166 14.9824H37.8587C39.116 14.9824 40.3251 13.8756 40.2649 12.5761C40.2048 11.2708 39.2062 10.1699 37.8587 10.1699H35.1757H28.7269H20.8946H14.1751C13.0803 10.1699 11.9794 10.1518 10.8846 10.1699H10.8425C9.58519 10.1699 8.37607 11.2767 8.43624 12.5761C8.49639 13.8815 9.49499 14.9824 10.8425 14.9824Z" fill="#363C90"/>
<path d="M28.2387 20.3174H22.3494H12.9771H10.8415C9.58421 20.3174 8.37509 21.4242 8.43526 22.7236C8.49542 24.029 9.49401 25.1299 10.8415 25.1299H16.7308H26.1031H28.2387C29.496 25.1299 30.7051 24.0231 30.6449 22.7236C30.5848 21.4183 29.5862 20.3174 28.2387 20.3174Z" fill="#363C90"/>
<path d="M19.2153 30.4604H11.8822H10.8415C9.58421 30.4604 8.37509 31.5673 8.43526 32.8667C8.49542 34.1721 9.49401 35.2729 10.8415 35.2729H18.1746H19.2153C20.4726 35.2729 21.6817 34.1661 21.6215 32.8667C21.5613 31.5673 20.5628 30.4604 19.2153 30.4604Z" fill="#363C90"/>
<path d="M19.2153 40.6079H11.8822H10.8415C9.58421 40.6079 8.37509 41.7147 8.43526 43.0142C8.49542 44.3195 9.49401 45.4204 10.8415 45.4204H18.1746H19.2153C20.4726 45.4204 21.6817 44.3136 21.6215 43.0142C21.5613 41.7088 20.5628 40.6079 19.2153 40.6079Z" fill="#363C90"/>
</svg>
