<svg width="30" height="30" viewBox="0 0 30 30" fill="none" xmlns="http://www.w3.org/2000/svg">
<circle cx="15" cy="15" r="13.5" stroke="#363C90"/>
<path d="M16.5341 8.36364V20H14.7727V10.125H14.7045L11.9205 11.9432V10.2614L14.8239 8.36364H16.5341Z" fill="#363C90"/>
<rect x="0.75" y="0.75" width="28.5" height="28.5" rx="14.25" fill="#408C60" stroke="#408C60" stroke-width="1.5"/>
<rect width="16" height="16" transform="translate(7 7)" fill="white" fill-opacity="0.01"/>
<path d="M11.4902 15.2156C11.3699 15.0876 11.2038 15.0123 11.0283 15.006C10.8527 14.9998 10.6817 15.0631 10.5525 15.1822C10.4234 15.3014 10.3465 15.4667 10.3386 15.6422C10.3306 15.8178 10.3923 15.9893 10.5102 16.1196L12.9182 18.7323C13.2762 19.0829 13.8096 19.0829 14.1409 18.7523L14.3836 18.5129C15.2599 17.6511 16.1353 16.7882 17.0096 15.9243L17.0362 15.8976C17.8534 15.0923 18.6663 14.2827 19.4749 13.4689C19.5958 13.3424 19.662 13.1734 19.6594 12.9985C19.6568 12.8235 19.5855 12.6566 19.4609 12.5337C19.3363 12.4109 19.1684 12.3419 18.9934 12.3418C18.8184 12.3416 18.6504 12.4103 18.5256 12.5329C17.7207 13.3425 16.9118 14.1481 16.0989 14.9496L16.0722 14.9763C15.2344 15.8045 14.3955 16.6316 13.5556 17.4576L11.4902 15.2156Z" fill="white"/>
</svg>
