<svg width="22" height="21" viewBox="0 0 22 21" fill="none" xmlns="http://www.w3.org/2000/svg">
<path d="M18.2182 9.24451C17.0761 9.24451 16.1416 8.35715 16.1416 7.27265C16.1416 6.18814 17.0761 5.30078 18.2182 5.30078C19.3603 5.30078 20.2949 6.18814 20.2949 7.27265C20.2951 8.35715 19.3606 9.24451 18.2182 9.24451ZM18.2182 5.69485C17.3097 5.69485 16.5828 6.40978 16.5828 7.24775C16.5828 8.08595 17.3357 8.80066 18.2182 8.80066C19.1268 8.80066 19.8536 8.08595 19.8536 7.24775C19.8536 6.38506 19.101 5.69485 18.2182 5.69485Z" fill="#363C90"/>
<path d="M19.3609 7.27216C19.3609 7.66644 19.1533 7.98709 18.8156 8.2089C18.634 8.30748 18.4262 8.38135 18.1925 8.38135C17.7773 8.38135 17.4396 8.1842 17.206 7.88827C17.1022 7.69113 17.0244 7.49398 17.0244 7.2966C17.0244 6.82822 17.3619 6.40924 17.7773 6.26125C17.9072 6.21185 18.037 6.18738 18.1668 6.18738C18.5042 6.18738 18.7899 6.31065 18.9975 6.50779C19.2569 6.70515 19.361 6.9517 19.361 7.27211L19.3609 7.27216Z" fill="#363C90"/>
<path d="M11.1832 20.2379C5.31651 20.2379 0.540039 15.7025 0.540039 10.1316C0.540039 4.5609 5.31639 0.0253906 11.1832 0.0253906C17.0499 0.0253906 21.8264 4.56078 21.8264 10.1316C21.8264 15.7022 17.05 20.2379 11.1832 20.2379ZM11.1832 0.518684C5.60218 0.518684 1.05954 4.83227 1.05954 10.1322C1.05954 15.4317 5.6023 19.7452 11.1832 19.7452C16.7643 19.7452 21.3069 15.4316 21.3069 10.1322C21.3071 4.8325 16.7644 0.518684 11.1832 0.518684Z" fill="#363C90"/>
<path d="M15.0512 5.91651C13.9091 5.91651 12.9746 5.02915 12.9746 3.94464C12.9746 2.86014 13.9091 1.97278 15.0512 1.97278C16.1934 1.97278 17.1279 2.86014 17.1279 3.94464C17.1281 5.02915 16.1676 5.91651 15.0512 5.91651ZM15.0512 2.36707C14.1427 2.36707 13.4158 3.08201 13.4158 3.91998C13.4158 4.75818 14.1687 5.47288 15.0512 5.47288C15.9598 5.47288 16.6866 4.75795 16.6866 3.91998C16.6866 3.05728 15.934 2.36707 15.0512 2.36707Z" fill="#363C90"/>
<path d="M16.1939 3.94415C16.1939 4.33844 15.9863 4.65909 15.6486 4.8809C15.467 4.97947 15.2592 5.05334 15.0255 5.05334C14.6103 5.05334 14.2726 4.8562 14.039 4.56026C13.9352 4.36312 13.8574 4.16598 13.8574 3.9686C13.8574 3.50021 14.1949 3.08124 14.6103 2.93325C14.7402 2.88385 14.87 2.85938 14.9998 2.85938C15.3372 2.85938 15.6229 2.98265 15.8305 3.17979C16.0902 3.37715 16.194 3.62369 16.194 3.94411L16.1939 3.94415Z" fill="#363C90"/>
<path d="M13.182 15.2337L12.9223 14.9627C12.6627 14.6914 6.43276 8.03607 5.7057 5.57131L5.67969 5.47274L5.73171 5.39886C5.78373 5.30029 6.32878 4.4129 8.53522 5.07845L8.58724 5.10315C9.78137 5.71948 15.7259 8.92384 15.051 10.5012C14.999 10.7478 14.6876 12.3253 13.3636 14.9381L13.182 15.2337ZM6.25088 5.54669C7.0038 7.7157 11.858 13.0646 13.0524 14.3462C14.2726 11.8566 14.532 10.3778 14.532 10.3531L14.558 10.2792C14.9474 9.51509 11.6506 7.22258 8.35394 5.49725C6.95218 5.10274 6.40689 5.39846 6.25128 5.54643L6.25088 5.54669Z" fill="#363C90"/>
<path d="M13.9347 15.9984L12.9224 14.9631L13.3119 14.6426L14.1426 15.5053C16.4529 15.2588 18.5297 13.9771 19.1008 13.3608C19.2046 13.2622 19.2306 13.1637 19.2046 13.0651C19.1526 12.7692 18.7893 12.4981 18.6335 12.3749C15.7 11.118 12.5327 6.04011 12.066 5.27625C11.9361 5.25155 11.6507 5.20237 11.3911 5.35012C11.1054 5.52256 10.9238 5.94179 10.8718 6.53323L10.3525 6.50853C10.4046 5.74444 10.6642 5.20216 11.1055 4.93096C11.6765 4.58585 12.2996 4.83239 12.3256 4.83239L12.4037 4.85708L12.4557 4.93096C12.4817 4.98036 15.8823 10.6739 18.8415 11.9066L18.8675 11.9313C18.9453 11.9807 19.6204 12.3996 19.6982 12.9666C19.7242 13.2131 19.6462 13.4597 19.4646 13.6568C18.8415 14.3718 16.609 15.752 14.0651 15.9985L13.9347 15.9984Z" fill="#363C90"/>
<path d="M14.2467 12.5723L14.1689 12.0792C17.3879 11.5616 18.7637 11.882 18.8155 11.9067L18.6857 12.3751C18.6597 12.3749 17.362 12.0545 14.2467 12.5723V12.5723Z" fill="#363C90"/>
<path d="M11.832 18.7836C10.8975 18.7836 9.83319 18.6111 8.71704 18.1428L8.66502 18.1181L8.63901 18.0687C8.63901 18.0687 8.43139 17.8468 8.09372 17.477C6.40654 15.6284 2.40884 10.9947 1.8639 8.03663L1.83789 7.83949L2.04551 7.76561C2.14932 7.71622 4.87505 6.80438 9.57348 10.6989L9.59949 10.7236C9.80711 10.9702 11.6504 13.2872 11.0533 14.6182C10.8456 15.1113 10.3264 15.407 9.5737 15.5056C9.39209 15.5794 8.14591 16.0231 8.37956 17.0091C8.43158 17.0585 8.45736 17.1077 8.50938 17.1571C8.76902 17.4283 8.95063 17.6254 9.00265 17.6993C12.0138 18.981 14.6875 17.7487 15.1545 17.5269C15.2583 17.3297 15.2065 17.2065 15.1805 17.1818L13.8825 15.9246L14.246 15.5795L15.5179 16.8366C15.6737 16.9599 15.8553 17.305 15.5699 17.8473L15.5439 17.9211L15.4661 17.9458C15.3621 17.9703 13.8823 18.7838 11.8316 18.7838L11.832 18.7836ZM2.40899 8.18461C3.03209 10.7234 6.17304 14.5689 7.83443 16.4419C8.01603 15.653 8.87277 15.1847 9.39203 15.0369H9.44405C10.0411 14.9631 10.3786 14.7904 10.5344 14.4453C10.9496 13.5332 9.70368 11.7093 9.18466 11.0438C5.44617 7.98717 3.08382 8.06105 2.40894 8.18432L2.40899 8.18461Z" fill="#363C90"/>
<path d="M6.04369 8.60363L5.52441 8.57894C5.60221 7.46971 6.38111 7.02603 6.77038 6.95215L6.87419 7.44523L6.82217 7.19869L6.87419 7.44523C6.87442 7.42053 6.12175 7.59297 6.0437 8.60361L6.04369 8.60363Z" fill="#363C90"/>
<path d="M2.25443 8.18371L1.91699 7.78942C1.943 7.76472 3.96764 6.23651 6.09628 7.5184L5.81063 7.93739C4.01967 6.85266 2.28042 8.15901 2.25445 8.18371H2.25443Z" fill="#363C90"/>
<path d="M14.973 16.9596C14.947 16.9596 11.5723 16.1464 9.96295 16.8363L9.88515 16.861C9.52171 16.9349 8.74303 16.7378 8.4834 15.6533L9.00267 15.5547C9.18428 16.3682 9.65151 16.3929 9.78133 16.3682C11.5466 15.6041 14.9471 16.442 15.103 16.4667L14.973 16.9596Z" fill="#363C90"/>
</svg>
