<svg width="20" height="18" viewBox="0 0 20 18" fill="none" xmlns="http://www.w3.org/2000/svg">
<path d="M7 12.75L10 15.75L13 12.75" stroke="#363C90" stroke-width="1.5" stroke-linecap="round" stroke-linejoin="round"/>
<path d="M10 9V15.75" stroke="#363C90" stroke-width="1.5" stroke-linecap="round" stroke-linejoin="round"/>
<path d="M16.66 13.5674C17.3121 13.1089 17.801 12.4546 18.056 11.6993C18.3109 10.9441 18.3186 10.1272 18.0778 9.36732C17.8371 8.60742 17.3604 7.94402 16.7171 7.47337C16.0737 7.00272 15.2971 6.74933 14.5 6.74995H13.555C13.3294 5.87085 12.9074 5.05439 12.3206 4.36201C11.7338 3.66963 10.9976 3.11939 10.1674 2.75271C9.33721 2.38604 8.43464 2.21247 7.52766 2.24509C6.62067 2.2777 5.7329 2.51565 4.93118 2.94102C4.12946 3.36639 3.43468 3.96809 2.89915 4.70082C2.36362 5.43356 2.0013 6.27823 1.83946 7.17126C1.67761 8.06429 1.72047 8.9824 1.9648 9.85646C2.20912 10.7305 2.64856 11.5378 3.25001 12.2174" stroke="#363C90" stroke-width="1.5" stroke-linecap="round" stroke-linejoin="round"/>
</svg>
