<svg width="37" height="37" viewBox="0 0 37 37" fill="none" xmlns="http://www.w3.org/2000/svg">
<rect width="37" height="37" rx="18.5" fill="#EEEEFF"/>
<g clip-path="url(#clip0_5820_36811)">
<path d="M21.8335 12.4996C22.0086 12.3245 22.2165 12.1856 22.4452 12.0908C22.674 11.996 22.9192 11.9473 23.1668 11.9473C23.4145 11.9473 23.6597 11.996 23.8884 12.0908C24.1172 12.1856 24.3251 12.3245 24.5002 12.4996C24.6753 12.6746 24.8142 12.8825 24.9089 13.1113C25.0037 13.3401 25.0524 13.5853 25.0524 13.8329C25.0524 14.0805 25.0037 14.3257 24.9089 14.5545C24.8142 14.7833 24.6753 14.9911 24.5002 15.1662L15.5002 24.1662L11.8335 25.1662L12.8335 21.4995L21.8335 12.4996Z" stroke="#363C90" stroke-width="2" stroke-linecap="round" stroke-linejoin="round"/>
</g>
<defs>
<clipPath id="clip0_5820_36811">
<rect width="16" height="16" fill="white" transform="translate(10.5 10.5)"/>
</clipPath>
</defs>
</svg>
