<svg width="38" height="38" viewBox="0 0 38 38" fill="none" xmlns="http://www.w3.org/2000/svg">
<rect width="38" height="38" rx="4" fill="#363C90"/>
<path d="M19 25H25.75" stroke="white" stroke-width="2" stroke-linecap="round" stroke-linejoin="round"/>
<path d="M22.375 12.625C22.6734 12.3267 23.078 12.1591 23.5 12.1591C23.7089 12.1591 23.9158 12.2002 24.1088 12.2802C24.3019 12.3601 24.4773 12.4773 24.625 12.625C24.7727 12.7728 24.8899 12.9482 24.9699 13.1412C25.0498 13.3342 25.091 13.5411 25.091 13.75C25.091 13.959 25.0498 14.1659 24.9699 14.3589C24.8899 14.5519 24.7727 14.7273 24.625 14.875L15.25 24.25L12.25 25L13 22L22.375 12.625Z" stroke="white" stroke-width="2" stroke-linecap="round" stroke-linejoin="round"/>
</svg>
