<svg width="24" height="25" viewBox="0 0 24 25" fill="none" xmlns="http://www.w3.org/2000/svg">
<path d="M10.9999 4.73343H3.99988C3.46945 4.73343 2.96074 4.94148 2.58566 5.3118C2.21059 5.68213 1.99988 6.18439 1.99988 6.70811V20.5309C1.99988 21.0546 2.21059 21.5569 2.58566 21.9272C2.96074 22.2975 3.46945 22.5056 3.99988 22.5056H17.9999C18.5303 22.5056 19.039 22.2975 19.4141 21.9272C19.7892 21.5569 19.9999 21.0546 19.9999 20.5309V13.6195" stroke="#363C90" stroke-width="0.833333" stroke-linecap="round" stroke-linejoin="round"/>
<path d="M18.5001 3.2524C18.8979 2.85961 19.4375 2.63895 20.0001 2.63895C20.5627 2.63895 21.1023 2.85961 21.5001 3.2524C21.8979 3.64519 22.1214 4.17793 22.1214 4.73341C22.1214 5.2889 21.8979 5.82164 21.5001 6.21443L12.0001 15.5942L8.00012 16.5815L9.00012 12.6321L18.5001 3.2524Z" fill="#363C90" stroke="#363C90" stroke-width="1.66667" stroke-linecap="round" stroke-linejoin="round"/>
</svg>
