<svg width="20" height="15" viewBox="0 0 20 15" fill="none" xmlns="http://www.w3.org/2000/svg">
<path d="M17.3653 14.0749C18.0898 13.5655 18.6331 12.8384 18.9163 11.9992C19.1996 11.1601 19.2081 10.2525 18.9406 9.40813C18.6731 8.5638 18.1435 7.82669 17.4287 7.30375C16.7138 6.7808 15.851 6.49925 14.9653 6.49994H13.9153C13.6646 5.52317 13.1957 4.61598 12.5437 3.84668C11.8917 3.07737 11.0737 2.46599 10.1513 2.05857C9.22884 1.65115 8.22598 1.4583 7.21822 1.49454C6.21045 1.53078 5.22404 1.79517 4.33324 2.2678C3.44244 2.74043 2.67046 3.40898 2.07543 4.22314C1.4804 5.03729 1.07782 5.97582 0.897994 6.96807C0.718168 7.96032 0.765785 8.98044 1.03726 9.95163C1.30873 10.9228 1.79699 11.8198 2.46528 12.5749" stroke="#363C90" stroke-width="1.5" stroke-linecap="round" stroke-linejoin="round"/>
</svg>
