<svg width="31" height="31" viewBox="0 0 31 31" fill="none" xmlns="http://www.w3.org/2000/svg">
<rect width="31" height="31" rx="15.5" fill="#DFE1FC"/>
<rect x="1.5" y="1.5" width="28" height="28" rx="14" fill="#DFE1FC"/>
<path d="M15.4996 10.6348C11.3029 10.6348 7.77254 12.6973 6.72656 15.4998C7.77264 18.3022 11.3029 20.3648 15.4996 20.3648C19.6963 20.3648 23.227 18.3023 24.2727 15.4998C23.2269 12.6973 19.6963 10.6348 15.4996 10.6348ZM15.4996 18.7939C13.6805 18.7939 12.2053 17.3191 12.2053 15.4998C12.2053 13.6805 13.6805 12.2057 15.4996 12.2057C17.3192 12.2057 18.7939 13.6805 18.7939 15.4998C18.7939 17.3191 17.3192 18.7939 15.4996 18.7939ZM15.4996 14.2297C14.7982 14.2297 14.2295 14.7983 14.2295 15.4998C14.2295 16.2012 14.7981 16.7699 15.4996 16.7699C16.201 16.7699 16.7698 16.2013 16.7698 15.4998C16.7698 14.7984 16.201 14.2297 15.4996 14.2297V14.2297Z" fill="#363C90"/>
</svg>
