<svg width="32" height="32" viewBox="0 0 32 32" fill="none" xmlns="http://www.w3.org/2000/svg">
<path d="M28.8098 29.1776H9.33466C8.96661 29.1776 8.66797 28.88 8.66797 28.5117C8.66797 22.5417 13.335 17.6846 19.0712 17.6846C24.8079 17.6846 29.4755 22.5417 29.4755 28.5117C29.4762 28.88 29.1782 29.1776 28.8098 29.1776ZM10.0232 27.8458H28.1207C27.7935 22.9196 23.8589 19.0161 19.0711 19.0161C14.2833 19.0168 10.3506 22.9197 10.0232 27.8458Z" fill="#363C90"/>
<path d="M31.3297 31.961H7.03C6.66193 31.961 6.36328 31.6633 6.36328 31.2951C6.36328 30.9268 6.66193 30.6292 7.03 30.6292L31.3297 30.6294C31.6985 30.6294 31.9964 30.927 31.9964 31.2953C31.9964 31.6633 31.6985 31.961 31.3297 31.961V31.961Z" fill="#363C90"/>
<path d="M21.8547 19.0164C21.486 19.0164 21.188 18.7188 21.188 18.3505C21.188 17.1142 20.2354 16.1074 19.0647 16.1074C17.8947 16.1074 16.9428 17.1135 16.9428 18.3505C16.9428 18.7188 16.6448 19.0164 16.2761 19.0164C15.908 19.0164 15.6094 18.7188 15.6094 18.3505C15.6094 16.3796 17.1593 14.7759 19.0645 14.7759C20.9697 14.7759 22.5209 16.3798 22.5209 18.3505C22.5211 18.7181 22.2232 19.0164 21.8547 19.0164Z" fill="#363C90"/>
<path d="M22.1667 13.5086C21.798 13.5086 21.5 13.2103 21.5 12.8427V8.73058C21.5 8.36297 21.798 8.0647 22.1667 8.0647C22.5354 8.0647 22.8334 8.36297 22.8334 8.73058V12.8427C22.8332 13.2101 22.5352 13.5086 22.1667 13.5086Z" fill="#363C90"/>
<path d="M19.069 13.5083C18.7003 13.5083 18.4023 13.2101 18.4023 12.8425V7.23497C18.4023 6.86737 18.7003 6.56909 19.069 6.56909C19.4378 6.56909 19.7357 6.86737 19.7357 7.23497V12.8425C19.7355 13.2098 19.4375 13.5083 19.069 13.5083Z" fill="#363C90"/>
<path d="M15.9753 13.5083C15.6072 13.5083 15.3086 13.21 15.3086 12.8424V8.73033C15.3086 8.36273 15.6072 8.06445 15.9753 8.06445C16.344 8.06445 16.642 8.36273 16.642 8.73033V12.8424C16.642 13.2098 16.344 13.5083 15.9753 13.5083Z" fill="#363C90"/>
<path d="M6.45551 12.8325C2.89572 12.8325 0 9.95431 0 6.41627C0 2.8789 2.89578 0 6.45551 0C10.0152 0 12.911 2.87822 12.911 6.41627C12.911 9.95431 10.0152 12.8325 6.45551 12.8325ZM6.45551 1.33142C3.63092 1.33142 1.33316 3.61264 1.33316 6.41638C1.33316 9.22012 3.63098 11.5011 6.45551 11.5011C9.2801 11.5011 11.5779 9.22012 11.5779 6.41638C11.5776 3.61264 9.27981 1.33142 6.45551 1.33142Z" fill="#363C90"/>
<path d="M8.23551 7.44083H6.45575C6.0877 7.44083 5.78906 7.14255 5.78906 6.77495V2.45665C5.78906 2.08905 6.0877 1.79077 6.45575 1.79077C6.82381 1.79077 7.12245 2.08905 7.12245 2.45665V6.1093H8.23573C8.60379 6.1093 8.90243 6.40757 8.90243 6.77518C8.9022 7.14256 8.60356 7.44083 8.23551 7.44083Z" fill="#363C90"/>
</svg>
