<svg width="16" height="16" viewBox="0 0 16 16" fill="none" xmlns="http://www.w3.org/2000/svg">
<path d="M0.666748 3.00026L15.4001 2.93359" stroke="#667085" stroke-width="1.1826" stroke-miterlimit="10" stroke-linecap="round" stroke-linejoin="round"/>
<path d="M4.60016 5.19996C5.85201 5.19996 6.86683 4.18514 6.86683 2.93329C6.86683 1.68145 5.85201 0.666626 4.60016 0.666626C3.34832 0.666626 2.3335 1.68145 2.3335 2.93329C2.3335 4.18514 3.34832 5.19996 4.60016 5.19996Z" fill="#667085"/>
<path d="M0.666748 8.33351L15.4001 8.26685" stroke="#667085" stroke-width="1.1826" stroke-miterlimit="10" stroke-linecap="round" stroke-linejoin="round"/>
<path d="M9.73297 10.5333C10.9848 10.5333 11.9996 9.51851 11.9996 8.26667C11.9996 7.01482 10.9848 6 9.73297 6C8.48113 6 7.46631 7.01482 7.46631 8.26667C7.46631 9.51851 8.48113 10.5333 9.73297 10.5333Z" fill="#667085"/>
<path d="M0.666748 13.6005L15.4001 13.5338" stroke="#667085" stroke-width="1.1826" stroke-miterlimit="10" stroke-linecap="round" stroke-linejoin="round"/>
<path d="M4.60016 15.8666C5.85201 15.8666 6.86683 14.8518 6.86683 13.5999C6.86683 12.3481 5.85201 11.3333 4.60016 11.3333C3.34832 11.3333 2.3335 12.3481 2.3335 13.5999C2.3335 14.8518 3.34832 15.8666 4.60016 15.8666Z" fill="#667085"/>
</svg>
