<svg width="46" height="35" viewBox="0 0 46 35" fill="none" xmlns="http://www.w3.org/2000/svg">
<path d="M32.2581 8.39385C30.5111 8.39385 28.8422 8.73557 27.3148 9.35495C27.1977 8.93012 26.9651 8.45322 26.5379 7.9637C27.1032 7.32297 27.4216 6.60117 27.4216 5.80128C27.4216 2.03334 20.3579 0 13.7117 0C7.06574 0 0.00170833 2.03334 0.00170833 5.80128C0.00170833 6.60019 0.319409 7.32135 0.883356 7.9614C0.173211 8.77499 0 9.55255 0 10.1168C0 10.6815 0.173194 11.4597 0.882673 12.2716C0.172861 13.0839 0 13.8614 0 14.4258C0 14.9908 0.173527 15.7696 0.885662 16.5839C0.173519 17.3949 0 18.1741 0 18.7404C0 19.3054 0.173527 20.0842 0.885662 20.8985C0.173519 21.7095 0 22.4887 0 23.055C0 26.8223 7.06377 28.855 13.71 28.855C16.2185 28.855 18.6426 28.5857 20.7743 28.0731C23.043 32.0726 27.3405 34.7775 32.258 34.7775C39.5316 34.7778 45.4494 28.86 45.4494 21.5861C45.4494 14.3121 39.5313 8.39468 32.258 8.39468L32.2581 8.39385ZM13.7119 1.91374C21.0203 1.91374 25.5074 4.178 25.5074 5.80119C25.5074 7.42438 21.0199 9.68864 13.7119 9.68864C6.40389 9.68864 1.91646 7.42472 1.91646 5.80119C1.91646 4.178 6.40389 1.91374 13.7119 1.91374V1.91374ZM19.0787 22.1609C17.4198 22.4666 15.582 22.6271 13.7102 22.6271C9.11529 22.6271 4.86211 21.6506 2.87328 20.1375C2.43578 19.8065 1.91389 19.2956 1.91389 18.7406C1.91389 18.3955 2.11446 18.0695 2.37109 17.7935C3.70295 18.6104 5.53835 19.2572 7.73888 19.68C9.60538 20.0424 11.6143 20.2262 13.7097 20.2262C15.6266 20.2262 17.4701 20.0724 19.1903 19.7704C19.1082 20.3641 19.0658 20.9701 19.0658 21.5858C19.0658 21.7787 19.0702 21.9702 19.0785 22.1608L19.0787 22.1609ZM13.7102 26.9417C6.40149 26.9417 1.91389 24.6781 1.91389 23.0553C1.91389 22.7099 2.11513 22.3835 2.37175 22.1071C4.84857 23.6199 9.08338 24.5406 13.7093 24.5406C15.6481 24.5406 17.5593 24.3774 19.299 24.0653C19.4465 24.8369 19.6611 25.5847 19.9371 26.3026C18.0463 26.7221 15.9172 26.9417 13.7096 26.9417H13.7102ZM19.6383 17.7382C19.5326 17.7599 19.4254 17.7813 19.316 17.8009C15.873 18.4694 11.5501 18.4697 8.10145 17.8006C5.8342 17.3648 3.97804 16.6627 2.87316 15.8224C2.43566 15.4917 1.91377 14.9807 1.91377 14.4257C1.91377 14.0827 2.11266 13.7573 2.36729 13.481C3.69113 14.2942 5.52123 14.942 7.7221 15.3708C9.58826 15.7332 11.6026 15.9171 13.7096 15.9171C15.782 15.9171 17.7653 15.7392 19.6057 15.3885L19.7042 15.3708C20.0622 15.3007 20.4103 15.2246 20.7487 15.1428C20.2905 15.9581 19.9164 16.8275 19.6381 17.7382L19.6383 17.7382ZM19.4268 13.4747L19.333 13.4924C15.8897 14.1615 11.5294 14.1608 8.08771 13.4927C5.81712 13.0499 3.96464 12.3464 2.86805 11.5084C2.43254 11.179 1.91395 10.6704 1.91395 10.1168C1.91395 9.77208 2.11552 9.44438 2.37281 9.16605C5.00383 10.7639 9.44393 11.6022 13.7121 11.6022C17.9786 11.6022 22.4166 10.7642 25.0488 9.16742C25.3054 9.4454 25.5059 9.77244 25.5059 10.1168C25.5059 10.1665 25.5019 10.2153 25.4943 10.2637C24.4514 10.889 23.5017 11.6546 22.671 12.5336C21.7413 12.9137 20.6514 13.23 19.4273 13.4747L19.4268 13.4747ZM32.2585 32.8641C26.0397 32.8641 20.9799 27.8046 20.9799 21.5855C20.9799 15.3664 26.0394 10.3069 32.2585 10.3069C38.4773 10.3069 43.5371 15.3664 43.5371 21.5855C43.5371 27.8046 38.4776 32.8641 32.2585 32.8641Z" fill="black"/>
<path d="M32.2555 20.6297C31.249 20.6297 30.4301 19.8107 30.4301 18.8046C30.4301 17.7961 31.249 16.9755 32.2555 16.9755C32.9002 16.9755 33.4829 17.3039 33.8149 17.8535C34.0883 18.3054 34.6743 18.4515 35.1288 18.1779C35.581 17.9049 35.7265 17.3166 35.4532 16.8644C34.9503 16.0318 34.137 15.4354 33.2139 15.1885L33.2136 13.8986C33.2136 13.3704 32.7851 12.9419 32.2569 12.9419C31.7286 12.9419 31.3001 13.3704 31.3001 13.8986V15.1857C29.6996 15.6096 28.5166 17.0712 28.5166 18.8045C28.5166 20.8659 30.1939 22.5431 32.2556 22.5431C33.2644 22.5431 34.0847 23.3621 34.0847 24.3682C34.0847 25.3767 33.2644 26.1973 32.2556 26.1973C31.6135 26.1973 31.0302 25.8679 30.6938 25.3163C30.4185 24.8651 29.8298 24.7216 29.3786 24.9976C28.9274 25.2726 28.7849 25.8612 29.0596 26.3125C29.5752 27.1578 30.3767 27.7475 31.3002 27.9891V29.2745C31.3002 29.8028 31.7287 30.2313 32.2569 30.2313C32.7852 30.2313 33.2136 29.8028 33.2136 29.2745V27.9868C34.8145 27.5623 35.9982 26.1013 35.9982 24.3686C35.9982 22.3069 34.3193 20.6296 32.2555 20.6296L32.2555 20.6297Z" fill="black"/>
</svg>
