<svg width="24" height="23" viewBox="0 0 24 23" fill="none" xmlns="http://www.w3.org/2000/svg">
<mask id="path-1-outside-1_2418_20894" maskUnits="userSpaceOnUse" x="-0.757341" y="-0.942807" width="25.4558" height="25.4558" fill="black">
<rect fill="white" x="-0.757341" y="-0.942807" width="25.4558" height="25.4558"/>
<path fill-rule="evenodd" clip-rule="evenodd" d="M7.25654 6.59967C9.85869 3.99751 14.0825 3.99751 16.6846 6.59967C19.2868 9.20182 19.2868 13.4256 16.6846 16.0278C14.0825 18.6299 9.85869 18.6299 7.25654 16.0278C4.65438 13.4256 4.65438 9.20182 7.25654 6.59967ZM11.9706 10.3709L13.8562 8.48528L14.799 9.42809L12.9134 11.3137L14.799 13.1993L13.8562 14.1421L11.9706 12.2565L10.085 14.1421L9.14215 13.1993L11.0278 11.3137L9.14215 9.42809L10.085 8.48528L11.9706 10.3709Z"/>
</mask>
<path fill-rule="evenodd" clip-rule="evenodd" d="M7.25654 6.59967C9.85869 3.99751 14.0825 3.99751 16.6846 6.59967C19.2868 9.20182 19.2868 13.4256 16.6846 16.0278C14.0825 18.6299 9.85869 18.6299 7.25654 16.0278C4.65438 13.4256 4.65438 9.20182 7.25654 6.59967ZM11.9706 10.3709L13.8562 8.48528L14.799 9.42809L12.9134 11.3137L14.799 13.1993L13.8562 14.1421L11.9706 12.2565L10.085 14.1421L9.14215 13.1993L11.0278 11.3137L9.14215 9.42809L10.085 8.48528L11.9706 10.3709Z" fill="#C4C4C4"/>
<path d="M13.8562 8.48528L15.2704 7.07107L13.8562 5.65686L12.442 7.07107L13.8562 8.48528ZM11.9706 10.3709L10.5564 11.7851L11.9706 13.1993L13.3848 11.7851L11.9706 10.3709ZM14.799 9.42809L16.2132 10.8423L17.6274 9.42809L16.2132 8.01388L14.799 9.42809ZM12.9134 11.3137L11.4992 9.8995L10.085 11.3137L11.4992 12.7279L12.9134 11.3137ZM14.799 13.1993L16.2132 14.6135L17.6274 13.1993L16.2132 11.7851L14.799 13.1993ZM13.8562 14.1421L12.442 15.5564L13.8562 16.9706L15.2704 15.5564L13.8562 14.1421ZM11.9706 12.2565L13.3848 10.8423L11.9706 9.42809L10.5564 10.8423L11.9706 12.2565ZM10.085 14.1421L8.67075 15.5564L10.085 16.9706L11.4992 15.5564L10.085 14.1421ZM9.14215 13.1993L7.72794 11.7851L6.31373 13.1993L7.72794 14.6135L9.14215 13.1993ZM11.0278 11.3137L12.442 12.7279L13.8562 11.3137L12.442 9.8995L11.0278 11.3137ZM9.14215 9.42809L7.72794 8.01388L6.31373 9.42809L7.72794 10.8423L9.14215 9.42809ZM10.085 8.48528L11.4992 7.07107L10.085 5.65686L8.67075 7.07107L10.085 8.48528ZM18.0988 5.18545C14.7156 1.80225 9.22552 1.80225 5.84232 5.18545L8.67075 8.01388C10.4919 6.19277 13.4493 6.19277 15.2704 8.01388L18.0988 5.18545ZM18.0988 17.442C21.482 14.0588 21.482 8.56865 18.0988 5.18545L15.2704 8.01388C17.0915 9.83498 17.0915 12.7924 15.2704 14.6135L18.0988 17.442ZM5.84232 17.442C9.22552 20.8252 14.7156 20.8252 18.0988 17.442L15.2704 14.6135C13.4493 16.4346 10.4919 16.4346 8.67075 14.6135L5.84232 17.442ZM5.84232 5.18545C2.45912 8.56865 2.45912 14.0588 5.84232 17.442L8.67075 14.6135C6.84964 12.7924 6.84964 9.83498 8.67075 8.01388L5.84232 5.18545ZM12.442 7.07107L10.5564 8.95669L13.3848 11.7851L15.2704 9.8995L12.442 7.07107ZM16.2132 8.01388L15.2704 7.07107L12.442 9.8995L13.3848 10.8423L16.2132 8.01388ZM14.3276 12.7279L16.2132 10.8423L13.3848 8.01388L11.4992 9.8995L14.3276 12.7279ZM16.2132 11.7851L14.3276 9.8995L11.4992 12.7279L13.3848 14.6135L16.2132 11.7851ZM15.2704 15.5564L16.2132 14.6135L13.3848 11.7851L12.442 12.7279L15.2704 15.5564ZM10.5564 13.6707L12.442 15.5564L15.2704 12.7279L13.3848 10.8423L10.5564 13.6707ZM11.4992 15.5564L13.3848 13.6707L10.5564 10.8423L8.67075 12.7279L11.4992 15.5564ZM7.72794 14.6135L8.67075 15.5564L11.4992 12.7279L10.5564 11.7851L7.72794 14.6135ZM9.61356 9.8995L7.72794 11.7851L10.5564 14.6135L12.442 12.7279L9.61356 9.8995ZM7.72794 10.8423L9.61356 12.7279L12.442 9.8995L10.5564 8.01388L7.72794 10.8423ZM8.67075 7.07107L7.72794 8.01388L10.5564 10.8423L11.4992 9.8995L8.67075 7.07107ZM13.3848 8.95669L11.4992 7.07107L8.67075 9.8995L10.5564 11.7851L13.3848 8.95669Z" fill="white" mask="url(#path-1-outside-1_2418_20894)"/>
</svg>
