<svg width="31" height="29" viewBox="0 0 31 29" fill="none" xmlns="http://www.w3.org/2000/svg">
<path d="M5.24617 13.68C5.16588 13.68 5.08924 13.652 5.02647 13.6034L3.5859 12.4489C3.43603 12.3268 3.41146 12.1105 3.53019 11.9572C3.64867 11.8074 3.86862 11.7828 4.02189 11.9015L5.18679 12.8329L7.08771 10.4191C7.20619 10.2692 7.42613 10.2412 7.576 10.3597C7.72587 10.4782 7.75385 10.6982 7.63537 10.848L5.5182 13.5372C5.45884 13.6104 5.37514 13.6557 5.28439 13.6698C5.27417 13.68 5.26004 13.68 5.24617 13.68Z" fill="#4A4A5B"/>
<path d="M17.3524 12.937H9.6858C9.49409 12.937 9.33691 12.7801 9.33691 12.5881C9.33691 12.3964 9.49384 12.2393 9.6858 12.2393H17.3486C17.5403 12.2393 17.6975 12.3962 17.6975 12.5881C17.6975 12.7799 17.544 12.937 17.352 12.937H17.3524Z" fill="#4A4A5B"/>
<path d="M5.24617 18.7127C5.16588 18.7127 5.08924 18.6848 5.02647 18.6361L3.5859 17.4817C3.43603 17.3595 3.41146 17.1432 3.53019 16.9899C3.64867 16.8401 3.87202 16.8155 4.02189 16.9342L5.18679 17.869L7.08771 15.4552C7.20619 15.3054 7.42613 15.2774 7.576 15.3959C7.72587 15.5144 7.75385 15.7343 7.63537 15.8842L5.5182 18.5733C5.45884 18.6466 5.37514 18.6918 5.28439 18.7059C5.27417 18.7094 5.26004 18.7127 5.24617 18.7127Z" fill="#4A4A5B"/>
<path d="M13.7596 17.9693H9.6858C9.49409 17.9693 9.33691 17.8123 9.33691 17.6204C9.33691 17.4287 9.49384 17.2715 9.6858 17.2715H13.7596C13.9513 17.2715 14.1085 17.4284 14.1085 17.6204C14.1085 17.8123 13.9515 17.9693 13.7596 17.9693Z" fill="#4A4A5B"/>
<path d="M5.24617 23.742C5.16588 23.742 5.08924 23.714 5.02647 23.6654L3.5859 22.5144C3.43603 22.3959 3.41146 22.1759 3.53019 22.0227C3.64867 21.8728 3.86862 21.8482 4.02189 21.967L5.18679 22.8983L7.08771 20.4845C7.20619 20.3347 7.42613 20.3067 7.576 20.4252C7.72587 20.5437 7.75385 20.7636 7.63537 20.9135L5.5182 23.6026C5.45884 23.6759 5.37514 23.7211 5.28439 23.7352C5.27417 23.7421 5.26004 23.742 5.24617 23.742Z" fill="#4A4A5B"/>
<path d="M12.5423 22.9995H9.68581C9.49409 22.9995 9.33691 22.8426 9.33691 22.6506C9.33691 22.4589 9.49384 22.3018 9.68581 22.3018H12.5423C12.7341 22.3018 12.8912 22.4587 12.8912 22.6506C12.8912 22.8426 12.7341 22.9995 12.5423 22.9995Z" fill="#4A4A5B"/>
<path d="M19.2499 28.6429H2.58454C1.16148 28.6429 0 27.4848 0 26.0583V5.26664C0 5.06446 0.087098 4.8725 0.240622 4.7399L5.50731 0.170796C5.63285 0.0591201 5.79683 0 5.96422 0H19.2494C20.6725 0 21.834 1.15811 21.834 2.58454V11.9951C21.834 12.3787 21.5201 12.6926 21.1365 12.6926C20.7528 12.6926 20.4389 12.3787 20.4389 11.9951V2.58454C20.4389 1.92888 19.9054 1.39504 19.2494 1.39504L6.22519 1.39528L1.39449 5.58415V26.0582C1.39449 26.7139 1.92804 27.2477 2.584 27.2477H19.2494C19.905 27.2477 20.4389 26.7142 20.4389 26.0582V20.7882C20.4389 20.4045 20.7527 20.0906 21.1364 20.0906C21.5201 20.0906 21.8339 20.4045 21.8339 20.7882V26.0619C21.8339 27.4849 20.6724 28.643 19.2494 28.643L19.2499 28.6429Z" fill="#4A4A5B"/>
<path d="M15.0084 23.3027C14.8201 23.3027 14.6386 23.226 14.5062 23.09C14.325 22.9017 14.2656 22.6261 14.3493 22.3784L16.5083 16.1419C16.5431 16.0406 16.5991 15.9501 16.6757 15.8767L24.7396 7.81273C25.4685 7.08381 26.7488 7.2164 27.6522 8.11612L29.6299 10.0973C30.0311 10.4985 30.2961 10.9973 30.3763 11.5065C30.4705 12.089 30.3102 12.6366 29.9369 13.0098L21.7223 21.217C21.642 21.2973 21.541 21.3601 21.4328 21.3915L15.2105 23.2715C15.1406 23.296 15.0744 23.3029 15.0083 23.3029L15.0084 23.3027ZM17.7708 16.7522L16.1139 21.5413L20.8609 20.1044L28.946 12.0193C28.9983 11.967 29.0158 11.8553 28.9949 11.7228C28.9601 11.5065 28.8309 11.2729 28.6392 11.0809L26.6615 9.10314C26.2744 8.71946 25.8348 8.68807 25.7197 8.79975L17.7708 16.7522Z" fill="#4A4A5B"/>
<path d="M21.1887 20.6734C21.0109 20.6734 20.833 20.6036 20.6934 20.4676L17.2089 16.9831C16.9369 16.7111 16.9369 16.2681 17.2089 15.996C17.4809 15.724 17.9239 15.724 18.196 15.996L21.6805 19.4805C21.9525 19.7525 21.9525 20.1955 21.6805 20.4676C21.5481 20.6036 21.3666 20.6734 21.1887 20.6734Z" fill="#4A4A5B"/>
<path d="M19.5704 18.6284C19.4796 18.6284 19.3925 18.5936 19.3227 18.5271C19.1867 18.3911 19.1867 18.1715 19.3227 18.0354L25.3567 12.0014C25.4927 11.8654 25.7124 11.8654 25.8484 12.0014C25.9844 12.1374 25.9844 12.3571 25.8484 12.4931L19.8144 18.5271C19.7482 18.5936 19.6575 18.6284 19.5704 18.6284Z" fill="#4A4A5B"/>
<path d="M27.6133 14.503C27.5226 14.503 27.4355 14.4682 27.3656 14.4018L23.3442 10.3769C23.2082 10.2409 23.2082 10.0212 23.3442 9.88521C23.4802 9.7492 23.6999 9.7492 23.8359 9.88521L27.861 13.9066C27.997 14.0427 27.997 14.2623 27.861 14.3984C27.7946 14.4682 27.7041 14.503 27.6133 14.503Z" fill="#4A4A5B"/>
<path d="M5.96433 7.63828H0.959239C0.575556 7.63828 0.261719 7.32443 0.261719 6.94076C0.261719 6.5571 0.575575 6.24324 0.959239 6.24324H5.26681V0.697521C5.26681 0.313838 5.58067 0 5.96433 0C6.34802 0 6.66186 0.313856 6.66186 0.697521V6.94462C6.66186 7.32806 6.35165 7.63853 5.96433 7.63853V7.63828Z" fill="#4A4A5B"/>
</svg>
