<svg width="21" height="20" viewBox="0 0 21 20" fill="none" xmlns="http://www.w3.org/2000/svg">
<path d="M14.1672 16.9094L14.2972 17.4153C14.335 17.5631 14.4693 17.6666 14.6232 17.6666H16.5461C16.7 17.6666 16.8343 17.5631 16.8721 17.4153L17.0021 16.9094C17.157 16.876 17.2674 16.7403 17.2672 16.5833V16.2083C17.2548 15.9976 17.1834 15.7943 17.0611 15.6214C16.9388 15.4485 16.7704 15.3127 16.5747 15.229C16.8122 14.9735 16.9398 14.6363 16.9303 14.2891C16.9207 13.942 16.7746 13.6122 16.5233 13.3701C16.2721 13.1278 15.9353 12.9923 15.5847 12.9923C15.234 12.9923 14.8972 13.1278 14.646 13.3701C14.3947 13.6122 14.2487 13.942 14.2391 14.2891C14.2296 14.6363 14.3571 14.9735 14.5947 15.229C14.3989 15.3126 14.2305 15.4485 14.1082 15.6214C13.9859 15.7944 13.9146 15.9976 13.9021 16.2083V16.5833C13.9019 16.7403 14.0124 16.876 14.1673 16.9094H14.1672ZM14.9116 14.3333C14.9116 14.1566 14.9825 13.9869 15.1087 13.8619C15.2349 13.7369 15.4062 13.6667 15.5846 13.6667C15.7631 13.6667 15.9344 13.7369 16.0606 13.8619C16.1868 13.9869 16.2577 14.1566 16.2577 14.3333C16.2577 14.5101 16.1868 14.6798 16.0606 14.8048C15.9344 14.9298 15.7631 15 15.5846 15C15.4062 15 15.2349 14.9298 15.1087 14.8048C14.9825 14.6798 14.9116 14.5101 14.9116 14.3333ZM14.5751 16.2083C14.5751 15.9527 15.0069 15.6667 15.5846 15.6667C16.1624 15.6667 16.5942 15.9527 16.5942 16.2083V16.2823C16.5036 16.3249 16.4369 16.4051 16.4121 16.5013L16.2843 17.0013H14.885L14.7571 16.5013C14.7324 16.4051 14.6657 16.3249 14.5751 16.2823L14.5751 16.2083Z" fill="#4A49CB"/>
<path d="M0.368935 5.31294L1.17658 5.49062C1.26973 5.89599 1.43093 6.28288 1.6534 6.63526L1.21023 7.3247C1.1255 7.45639 1.14458 7.62886 1.25606 7.73928L1.71426 8.1933C1.82588 8.30386 1.99985 8.32291 2.13297 8.23898L2.82928 7.80001C3.18488 8.02114 3.57546 8.18127 3.98487 8.27395L4.16424 9.07231C4.19835 9.22483 4.33491 9.33332 4.49265 9.33332H5.14077C5.29852 9.33332 5.43507 9.22483 5.46918 9.07231L5.64856 8.27395C6.05796 8.18124 6.44855 8.02113 6.80415 7.80001L7.50045 8.23898C7.63356 8.32291 7.80753 8.30386 7.91916 8.1933L8.37752 7.73928H8.37737C8.48884 7.62887 8.50792 7.4564 8.42319 7.3247L7.98002 6.63526C8.20297 6.28303 8.36462 5.89599 8.45823 5.49062L9.26422 5.31294C9.41821 5.27916 9.52803 5.1439 9.52803 4.98765V4.34567C9.52803 4.18942 9.41851 4.05416 9.26452 4.02038L8.45853 3.8427C8.36493 3.43718 8.20314 3.05029 7.98006 2.69806L8.42295 2.00835C8.50768 1.87666 8.4886 1.70419 8.37713 1.59361L7.91923 1.13975C7.80761 1.02934 7.63349 1.01044 7.50053 1.09437L6.80422 1.53333C6.44862 1.3125 6.05788 1.15238 5.64863 1.05966L5.46925 0.261308C5.43515 0.10878 5.29859 0 5.14084 0H4.49273C4.33498 0 4.19842 0.108483 4.16432 0.261011L3.98494 1.061C3.57569 1.15326 3.1851 1.31294 2.82935 1.5333L2.13304 1.09434C2.00009 1.01041 1.82597 1.02931 1.71433 1.13972L1.25613 1.59358C1.14466 1.70415 1.12558 1.87662 1.21031 2.00832L1.65348 2.69803C1.43053 3.05026 1.26888 3.4373 1.17527 3.84267L0.369277 4.02034C0.215289 4.05412 0.105469 4.18939 0.105469 4.34564V4.98762C0.105469 5.14387 0.21499 5.27913 0.368977 5.31291L0.368935 5.31294ZM0.778451 4.61295L1.53564 4.44628C1.6701 4.41667 1.77271 4.30893 1.79479 4.17441C1.86961 3.71327 2.05244 3.27591 2.32841 2.89736C2.40894 2.78665 2.41314 2.63873 2.33923 2.5237L1.92264 1.87609L1.99941 1.80005L2.65322 2.21269C2.76935 2.2859 2.91868 2.28174 3.03045 2.20198C3.41264 1.92862 3.85417 1.7475 4.31973 1.67341C4.45553 1.65154 4.5643 1.5499 4.5942 1.41672L4.76246 0.666704H4.87078L5.03904 1.41672H5.03919C5.06908 1.5499 5.17785 1.65154 5.31366 1.67341C5.77921 1.74752 6.22076 1.92862 6.60293 2.20198C6.7147 2.28174 6.86404 2.2859 6.98017 2.21269L7.63398 1.80005L7.7103 1.87564L7.29417 2.52371C7.22025 2.63874 7.22446 2.78665 7.30498 2.89737C7.58096 3.27594 7.7638 3.71328 7.83861 4.17442C7.86069 4.30894 7.9633 4.41668 8.09776 4.44629L8.85495 4.61296V4.72025L8.09776 4.88692V4.88706C7.96345 4.91653 7.86084 5.02412 7.83861 5.15864C7.76349 5.61978 7.58081 6.05714 7.30498 6.436C7.22446 6.54671 7.22025 6.69463 7.29417 6.80965L7.71076 7.45727L7.63444 7.53286L6.98017 7.12052V7.12067C6.86419 7.04761 6.71486 7.05177 6.60323 7.13139C6.22104 7.40475 5.77951 7.58571 5.31407 7.65995C5.17811 7.68183 5.06935 7.78346 5.03945 7.91665L4.87119 8.66666H4.76287L4.59461 7.91665C4.56472 7.78346 4.45595 7.68183 4.31999 7.65995C3.85444 7.5857 3.41304 7.40475 3.03072 7.13139C2.9191 7.05178 2.76992 7.04761 2.65393 7.12067L1.99935 7.53332L1.92259 7.45727L2.33887 6.80966C2.41279 6.69463 2.40843 6.54672 2.32805 6.43601C2.05238 6.05714 1.86969 5.61978 1.79474 5.15865C1.7725 5.02413 1.66989 4.91653 1.53559 4.88707L0.778397 4.72041L0.778451 4.61295Z" fill="#4A49CB"/>
<path d="M2.12451 15.3335C2.12451 15.5986 2.23088 15.8531 2.42017 16.0406C2.60946 16.228 2.86637 16.3334 3.13405 16.3334C3.40173 16.3334 3.65868 16.2281 3.84794 16.0406C4.03719 15.8531 4.14359 15.5986 4.14359 15.3335C4.14359 15.0683 4.03723 14.8138 3.84794 14.6264C3.65864 14.4389 3.40173 14.3335 3.13405 14.3335C2.86637 14.3335 2.60943 14.4389 2.42017 14.6264C2.23091 14.8138 2.12451 15.0683 2.12451 15.3335ZM3.47059 15.3335C3.47059 15.4683 3.38856 15.5899 3.26282 15.6414C3.13708 15.693 2.99241 15.6646 2.8961 15.5692C2.7998 15.4738 2.77111 15.3305 2.82324 15.2059C2.87522 15.0814 2.99796 15.0001 3.13407 15.0001C3.22331 15.0001 3.30894 15.0353 3.37204 15.0978C3.43514 15.1603 3.47059 15.2451 3.47059 15.3335Z" fill="#4A49CB"/>
<path d="M20.0332 4.14385L19.6156 4.05189C19.56 3.84355 19.4763 3.64355 19.3669 3.45726L19.5965 3.09998C19.6812 2.96813 19.6621 2.79581 19.5507 2.68524L19.2687 2.40593C19.1571 2.29536 18.9828 2.27646 18.8497 2.36054L18.489 2.58792C18.3009 2.47959 18.0989 2.3967 17.8887 2.34164L17.7958 1.92797H17.7957C17.7616 1.77559 17.6251 1.66711 17.4676 1.66696H17.0685C16.9108 1.66696 16.7742 1.77544 16.74 1.92797L16.6471 2.34164C16.4368 2.3967 16.2349 2.47959 16.0468 2.58792L15.6864 2.36054C15.5535 2.27661 15.3793 2.29551 15.2677 2.40593L14.9857 2.68524C14.8743 2.7958 14.8553 2.96812 14.9401 3.09998L15.1696 3.45726H15.1695C15.0601 3.64357 14.9764 3.84358 14.9208 4.05189L14.5032 4.14385C14.4006 4.16751 14.3153 4.2379 14.273 4.33358H11.167L11.4913 3.85187L10.9314 3.48194L10.2584 4.48193C10.1829 4.59398 10.1829 4.73981 10.2584 4.85186L10.9314 5.85185L11.4913 5.48192L11.1662 5.00021H14.273C14.3152 5.09604 14.4007 5.16628 14.5035 5.18994L14.9211 5.2819C14.9767 5.49024 15.0604 5.69024 15.1699 5.87653L14.9396 6.23352C14.8549 6.36521 14.8739 6.53768 14.9854 6.64826L15.2674 6.92757C15.379 7.03798 15.553 7.05673 15.6861 6.97281L16.0468 6.74543V6.74557C16.2349 6.85391 16.4368 6.93679 16.6471 6.99185L16.74 7.40552C16.7639 7.50716 16.8349 7.59168 16.9315 7.6335V8.39642L3.06382 11.3407C2.90848 11.3736 2.79761 11.5095 2.79761 11.6668V12.3668C2.70086 12.4086 2.62995 12.4933 2.60606 12.595L2.51322 13.0087C2.30289 13.0638 2.10097 13.1467 1.9129 13.2551L1.5525 13.027C1.41954 12.9431 1.24542 12.962 1.13379 13.0724L0.851804 13.3517C0.740034 13.4623 0.720954 13.6349 0.805684 13.7668L1.03524 14.124C0.925869 14.3104 0.842193 14.5104 0.786608 14.7187L0.368977 14.8106V14.8108C0.21514 14.8446 0.105619 14.9797 0.105469 15.1358V15.5312V15.531C0.105469 15.6873 0.21499 15.8225 0.368977 15.8565L0.786608 15.9484C0.842193 16.1568 0.925873 16.3568 1.03524 16.543L0.805684 16.9C0.720954 17.0317 0.740033 17.2042 0.851504 17.3148L1.13349 17.5941C1.24511 17.7045 1.41908 17.7233 1.5522 17.6393L1.9129 17.4119V17.4121C2.10099 17.5204 2.30292 17.6033 2.51322 17.6584L2.60606 18.072C2.64031 18.2246 2.77687 18.3331 2.93462 18.3331H3.33379H3.33364C3.49138 18.3331 3.62794 18.2246 3.6622 18.072L3.75504 17.6584C3.96537 17.6033 4.16729 17.5204 4.35536 17.4121L4.71606 17.6395V17.6393C4.84917 17.7233 5.02314 17.7045 5.13477 17.5941L5.41675 17.3148C5.52823 17.2042 5.5473 17.0317 5.46257 16.9L5.23302 16.5428C5.34239 16.3564 5.42606 16.1564 5.48165 15.9481L5.89928 15.8562V15.856C6.00174 15.8324 6.08692 15.7623 6.12914 15.6667H10.8743C10.8798 15.8178 10.9871 15.9462 11.1357 15.9797L11.9417 16.1573C12.036 16.5629 12.1986 16.9499 12.4222 17.302L11.9793 17.9913V17.9914C11.8946 18.1231 11.9137 18.2956 12.0252 18.406L12.4835 18.86C12.595 18.9706 12.769 18.9896 12.9021 18.9057L13.5981 18.4667C13.9537 18.6879 14.3443 18.848 14.7537 18.9407L14.9331 19.739C14.9672 19.8916 15.1038 20 15.2615 20H15.9096C16.0674 20 16.2039 19.8916 16.238 19.739L16.4174 18.9407C16.8268 18.848 17.2174 18.6879 17.573 18.4667L18.2693 18.9057C18.4024 18.9896 18.5764 18.9706 18.688 18.86L19.1464 18.406H19.1462C19.2577 18.2956 19.2768 18.1231 19.192 17.9914L18.7489 17.302C18.9718 16.9498 19.1335 16.5627 19.2271 16.1573L20.0331 15.9797C20.1871 15.9459 20.2969 15.8106 20.2969 15.6544V15.0124C20.2969 14.8561 20.1874 14.7209 20.0334 14.6871L19.2274 14.5094C19.1338 14.1039 18.972 13.717 18.7489 13.3648L19.1918 12.6751C19.2765 12.5434 19.2574 12.3709 19.146 12.2603L18.6876 11.8063V11.8065C18.5761 11.6961 18.402 11.6772 18.2691 11.7611L17.573 12.2001C17.2174 11.9792 16.8267 11.8191 16.4174 11.7264L16.2381 10.928C16.204 10.7755 16.0674 10.6667 15.9096 10.6667H15.2615C15.1038 10.6667 14.9672 10.7752 14.9331 10.9277L14.7537 11.7261C14.3443 11.8188 13.9537 11.9791 13.5982 12.2L12.9018 11.7613C12.7689 11.6774 12.5948 11.6963 12.4831 11.8067L12.0248 12.2607H12.0249C11.9135 12.3711 11.8944 12.5436 11.9791 12.6753L12.4223 13.3648C12.1993 13.717 12.0377 14.104 11.9441 14.5094L11.1381 14.6871C10.9893 14.7205 10.8821 14.849 10.8767 15H6.12925C6.08703 14.9042 6.00155 14.8339 5.89879 14.8103L5.48116 14.7183C5.42557 14.51 5.34189 14.31 5.23237 14.1237L5.46193 13.7664C5.54666 13.6346 5.52758 13.4622 5.41611 13.3517L5.13412 13.0724C5.02265 12.9619 4.84853 12.943 4.71557 13.027L4.35486 13.2543H4.35471C4.16677 13.146 3.96485 13.0631 3.7544 13.0081L3.66156 12.5944C3.63782 12.4929 3.56706 12.4085 3.47076 12.3667V11.9364L17.3385 8.99277C17.4938 8.95989 17.6047 8.82402 17.6047 8.66673V7.63341C17.7014 7.59159 17.7723 7.50692 17.7962 7.40514L17.8891 6.99147C18.0994 6.93641 18.3013 6.85352 18.4894 6.74504L18.8501 6.97242C18.9832 7.05635 19.1572 7.03745 19.2688 6.92703L19.5508 6.64772C19.6622 6.53731 19.6813 6.36484 19.5966 6.23313L19.367 5.87585V5.8757C19.4764 5.68954 19.5601 5.48953 19.6157 5.28108L20.0333 5.18911C20.187 5.15533 20.2965 5.02036 20.2968 4.86441V4.46918C20.2968 4.31293 20.1873 4.17766 20.0333 4.14373L20.0332 4.14385ZM11.5471 15.2797L12.3043 15.1131C12.4388 15.0835 12.5414 14.9757 12.5635 14.8412C12.6383 14.3801 12.8211 13.9427 13.0971 13.5642C13.1776 13.4534 13.1818 13.3055 13.1079 13.1905L12.6913 12.5429L12.7676 12.4673L13.4215 12.8796L13.4216 12.8795C13.5377 12.9527 13.6871 12.9485 13.7988 12.8688C14.181 12.5954 14.6226 12.4143 15.088 12.3402C15.224 12.3183 15.3327 12.2167 15.3626 12.0835L15.5309 11.3335H15.6392L15.8075 12.0835C15.8373 12.2167 15.9461 12.3183 16.0821 12.3402C16.5476 12.4143 16.9892 12.5954 17.3714 12.8688C17.483 12.9485 17.6325 12.9527 17.7486 12.8795L18.4027 12.4668L18.479 12.5424L18.0627 13.19L18.0629 13.1902C17.989 13.3052 17.9932 13.4531 18.0737 13.5638C18.3497 13.9424 18.5325 14.3798 18.6073 14.8408C18.6294 14.9755 18.732 15.0832 18.8665 15.1128L19.6237 15.2795V15.3868L18.8665 15.5534C18.7322 15.583 18.6296 15.6906 18.6073 15.8251C18.5322 16.2863 18.3495 16.7237 18.0737 17.1025C17.9932 17.2131 17.989 17.3611 18.0629 17.4762L18.4795 18.1241L18.4032 18.1997L17.7489 17.7873V17.7875C17.6329 17.7144 17.4836 17.7186 17.372 17.7982C16.9898 18.0716 16.5482 18.2525 16.0828 18.3268C15.9468 18.3486 15.8381 18.4503 15.8082 18.5835L15.6399 19.3335H15.5316L15.3633 18.5835C15.3334 18.4503 15.2247 18.3486 15.0887 18.3268C14.6232 18.2525 14.1818 18.0716 13.7994 17.7982C13.6878 17.7186 13.5386 17.7144 13.4227 17.7875L12.7681 18.2001L12.6918 18.1245L13.108 17.4769L13.1079 17.4768C13.1818 17.3617 13.1776 17.2138 13.0971 17.1031C12.8212 16.7244 12.6386 16.2869 12.5635 15.8258C12.5412 15.6914 12.4386 15.5838 12.3043 15.5542L11.5471 15.3875L11.5471 15.2797ZM4.15793 13.9208C4.26955 14.0003 4.41873 14.0045 4.53486 13.9315L4.57557 13.9059L4.54973 13.9463L4.54958 13.9461C4.47597 14.0611 4.48018 14.2089 4.5604 14.3195C4.71875 14.5369 4.82331 14.7881 4.86597 15.0528C4.88806 15.1875 4.99082 15.2954 5.12542 15.3248L5.1726 15.3351L5.12542 15.3454V15.3455C4.99097 15.375 4.88821 15.4826 4.86597 15.6171C4.82346 15.8818 4.71875 16.133 4.5604 16.3504C4.48018 16.461 4.47597 16.6089 4.54958 16.7238L4.57543 16.7641L4.53471 16.7385H4.53486C4.41873 16.6654 4.26955 16.6696 4.15793 16.7491C3.93844 16.9059 3.68484 17.0095 3.41759 17.0517C3.28162 17.0736 3.17271 17.1756 3.14296 17.3087L3.1326 17.3555L3.12223 17.3087H3.12208C3.09233 17.1756 2.98356 17.0736 2.84761 17.0517C2.58034 17.0095 2.32675 16.9059 2.10726 16.7491C1.99549 16.6696 1.84631 16.6654 1.73033 16.7385L1.68962 16.7641L1.71546 16.7238C1.78922 16.6089 1.78502 16.461 1.70464 16.3504C1.5463 16.133 1.44174 15.8818 1.39922 15.6171C1.37699 15.4826 1.27408 15.375 1.13977 15.3455L1.0959 15.3335L1.14308 15.3232C1.27768 15.2936 1.38044 15.1858 1.40253 15.0512C1.44519 14.7864 1.54975 14.5352 1.7081 14.3178C1.78832 14.2073 1.79253 14.0594 1.71891 13.9445L1.69307 13.9042L1.73379 13.9298H1.73364C1.84977 14.0028 1.99895 13.9986 2.11057 13.9192C2.33006 13.7623 2.58366 13.6588 2.85091 13.6165C2.98688 13.5946 3.09579 13.4927 3.12554 13.3595L3.1359 13.3128L3.14627 13.3595H3.14642C3.17617 13.4927 3.28493 13.5946 3.42089 13.6165C3.68726 13.6597 3.93948 13.764 4.15793 13.9208L4.15793 13.9208ZM19.2594 4.6771C19.1249 4.70657 19.0222 4.81416 18.9999 4.94883C18.9574 5.21356 18.8527 5.46475 18.6944 5.68215C18.6142 5.79272 18.6099 5.94048 18.6836 6.05551L18.7094 6.09584L18.6687 6.07024L18.6688 6.0701C18.5527 5.99718 18.4035 6.00135 18.2919 6.08081C18.0724 6.23765 17.8188 6.34122 17.5516 6.38349C17.4156 6.40536 17.3067 6.50714 17.2769 6.64048L17.2666 6.6872L17.2562 6.64048H17.2561C17.2263 6.50714 17.1175 6.40536 16.9816 6.38349C16.7143 6.34122 16.4607 6.23765 16.2412 6.08081C16.1295 6.00135 15.9803 5.99718 15.8643 6.0701L15.8236 6.09569L15.8494 6.05536V6.05551C15.9232 5.94048 15.919 5.79272 15.8386 5.68215C15.6803 5.46474 15.5757 5.21355 15.5332 4.94883C15.511 4.81415 15.408 4.70657 15.2737 4.6771L15.2299 4.66684L15.2771 4.65657C15.4117 4.62696 15.5144 4.51922 15.5365 4.38455C15.5792 4.11982 15.6837 3.86863 15.8421 3.65122C15.9223 3.54066 15.9265 3.39274 15.8529 3.27786L15.827 3.23753L15.8678 3.26313H15.8676C15.9837 3.3362 16.1329 3.33203 16.2445 3.25256C16.464 3.09572 16.7176 2.99215 16.9849 2.94989C17.1208 2.92801 17.2298 2.82608 17.2595 2.6929L17.2682 2.64781L17.2786 2.69454C17.3085 2.82787 17.4173 2.92965 17.5532 2.95153C17.8205 2.99379 18.0741 3.09736 18.2936 3.2542C18.4052 3.33366 18.5545 3.33783 18.6705 3.26492L18.7112 3.23932L18.6854 3.27965V3.2795C18.6116 3.39453 18.6158 3.54229 18.696 3.65286C18.8544 3.87027 18.9589 4.12146 19.0016 4.38619C19.0237 4.52086 19.1266 4.62874 19.2611 4.65821L19.3082 4.66847L19.2594 4.6771Z" fill="#4A49CB"/>
<path d="M17.2676 3.66693C16.9999 3.66693 16.743 3.77229 16.5537 3.95979C16.3645 4.14728 16.2581 4.40176 16.2581 4.6669C16.2581 4.93204 16.3644 5.18655 16.5537 5.37402C16.743 5.56148 16.9999 5.66687 17.2676 5.66687C17.5353 5.66687 17.7922 5.56152 17.9815 5.37402C18.1707 5.18652 18.2771 4.93204 18.2771 4.6669C18.2771 4.40176 18.1708 4.14725 17.9815 3.95979C17.7922 3.77232 17.5353 3.66693 17.2676 3.66693ZM17.2676 5.00025C17.1315 5.00025 17.0087 4.919 16.9568 4.79445C16.9046 4.6699 16.9333 4.5266 17.0296 4.43121C17.1259 4.33582 17.2706 4.3074 17.3963 4.35904C17.5221 4.41053 17.6041 4.5321 17.6041 4.66692C17.6041 4.75531 17.5687 4.84013 17.5056 4.90263C17.4425 4.96513 17.3568 5.00025 17.2676 5.00025Z" fill="#4A49CB"/>
<path d="M3.61587 4.90651L3.44461 5.94654V5.94639C3.42373 6.07243 3.47751 6.19907 3.58297 6.27258C3.68829 6.34609 3.8268 6.35353 3.93962 6.29178L4.81653 5.81171L5.69345 6.29178C5.80627 6.35353 5.94479 6.34609 6.0501 6.27258C6.15556 6.19907 6.20934 6.07243 6.18846 5.94639L6.0172 4.90637L6.74012 4.17304V4.17319C6.82816 4.08375 6.85835 3.95295 6.81839 3.8345C6.77828 3.7159 6.67462 3.62959 6.54993 3.61084L5.56502 3.46189L5.12108 2.52513C5.06565 2.40817 4.94697 2.33362 4.81656 2.33362C4.68616 2.33362 4.56748 2.40817 4.51204 2.52513L4.0681 3.46143L3.0832 3.61039C2.9585 3.62928 2.85484 3.71559 2.81473 3.83405C2.77477 3.95265 2.80497 4.0833 2.893 4.17273L3.61587 4.90651ZM4.34748 4.09387L4.34733 4.09373C4.45835 4.07691 4.55345 4.00637 4.60108 3.90578L4.81651 3.45146L5.03195 3.90578C5.07957 4.00637 5.17466 4.07691 5.28569 4.09373L5.80085 4.1717L5.41686 4.56141C5.34234 4.63716 5.30854 4.7434 5.32567 4.84772L5.4128 5.37644L4.97936 5.13909C4.87811 5.08358 4.75492 5.08358 4.65366 5.13909L4.22022 5.37644L4.30736 4.84772C4.32448 4.7434 4.29068 4.63716 4.21616 4.56141L3.83217 4.1717L4.34748 4.09387Z" fill="#4A49CB"/>
</svg>
