<svg width="22" height="22" viewBox="0 0 22 22" fill="none" xmlns="http://www.w3.org/2000/svg">
<path d="M12.9491 11.3423C13.0711 11.3423 13.1669 11.2465 13.1669 11.1244C13.1669 11.0023 13.0711 10.9065 12.9491 10.9065C11.1671 10.9065 9.71599 9.45566 9.71599 7.67345C9.71599 5.89142 11.1669 4.44036 12.9491 4.44036C13.0711 4.44036 13.1669 4.34455 13.1669 4.2225C13.1669 4.10044 13.0711 4.00464 12.9491 4.00464C10.9274 4.00464 9.28027 5.65171 9.28027 7.67345C9.28027 9.69543 10.9274 11.3423 12.9491 11.3423Z" fill="#363C90"/>
<path d="M14.1046 4.00848C13.9825 4.00848 13.8867 4.10428 13.8867 4.22634C13.8867 4.3484 13.9825 4.4442 14.1046 4.4442C15.3291 4.4442 16.3267 3.44634 16.3267 2.2221C16.3267 0.997608 15.3288 0 14.1046 0C13.9825 0 13.8867 0.095802 13.8867 0.217859C13.8867 0.339916 13.9825 0.435718 14.1046 0.435718C15.0893 0.435718 15.891 1.23738 15.891 2.2221C15.8956 3.20247 15.0937 4.00848 14.1046 4.00848V4.00848Z" fill="#363C90"/>
<path d="M15.786 17.0063C15.786 17.1806 15.5244 17.1806 15.5244 17.0063C15.5244 16.8322 15.786 16.8322 15.786 17.0063Z" fill="#363C90"/>
<path d="M17.085 17.3424C17.085 17.5806 16.7275 17.5806 16.7275 17.3424C16.7275 17.1043 17.085 17.1043 17.085 17.3424Z" fill="#363C90"/>
<path d="M14.7623 17.5807C14.7623 17.6853 14.6055 17.6853 14.6055 17.5807C14.6055 17.4762 14.7623 17.4762 14.7623 17.5807Z" fill="#363C90"/>
<path d="M17.6943 18.1648C17.6595 18.1648 17.6289 18.1952 17.6289 18.2302C17.6289 18.265 17.6593 18.2956 17.6943 18.2956C17.7291 18.2956 17.7597 18.2652 17.7597 18.2302C17.7597 18.1954 17.7337 18.1648 17.6943 18.1648Z" fill="#363C90"/>
<path d="M6.27017 17.0063C6.27017 17.1806 6.00879 17.1806 6.00879 17.0063C6.00879 16.8322 6.27017 16.8322 6.27017 17.0063Z" fill="#363C90"/>
<path d="M7.38965 17.5203C7.48983 17.5203 7.56836 17.4417 7.56836 17.3416C7.56836 17.2414 7.48983 17.1628 7.38965 17.1628C7.28947 17.1628 7.21094 17.2414 7.21094 17.3416C7.21094 17.4417 7.29361 17.5203 7.38965 17.5203Z" fill="#363C90"/>
<path d="M5.24569 17.5807C5.24569 17.6853 5.08887 17.6853 5.08887 17.5807C5.08887 17.4762 5.24569 17.4762 5.24569 17.5807Z" fill="#363C90"/>
<path d="M21.8643 19.4636C21.1237 17.7076 19.6378 16.4355 17.8643 15.9299C18.0124 15.5117 18.0953 15.0673 18.0953 14.6228C18.0953 14.383 17.8993 14.1871 17.6596 14.1871H15.8034L18.8187 11.1718C18.9451 11.0454 19.019 10.8713 19.019 10.6926C19.019 10.5139 18.9492 10.3395 18.8187 10.2134C18.5529 9.9476 18.1216 9.9476 17.8558 10.2134L13.8777 14.1915H8.35707C8.11733 14.1915 7.92136 14.3874 7.92136 14.6272C7.92136 15.0585 7.99989 15.4767 8.13484 15.8777C7.6556 15.76 7.16761 15.6946 6.66647 15.6946C4.17858 15.6946 1.94771 17.1761 0.980225 19.4636C0.927949 19.5857 0.936702 19.7294 1.00211 19.8471C1.06752 19.9647 1.18082 20.043 1.31577 20.0649C2.10865 20.1914 3.74259 20.274 5.67731 20.2959C5.62941 20.3917 5.58588 20.4875 5.54212 20.5836C5.48984 20.7056 5.49859 20.8493 5.564 20.967C5.6294 21.0847 5.74271 21.1674 5.87766 21.1849C6.79702 21.3286 8.89731 21.4246 11.2283 21.4246C13.5594 21.4246 15.6597 21.3332 16.5834 21.1849C16.7142 21.163 16.8316 21.0847 16.897 20.967C16.9624 20.8493 16.9712 20.71 16.9189 20.5836C16.8798 20.4878 16.8319 20.392 16.7837 20.2959C18.8709 20.2828 20.7008 20.1914 21.5418 20.0605C21.6726 20.0387 21.7901 19.9604 21.8555 19.8427C21.9121 19.7294 21.9165 19.5857 21.8642 19.4636L21.8643 19.4636ZM18.1651 10.5183C18.2609 10.4225 18.4177 10.4225 18.5094 10.5183C18.5573 10.5662 18.5835 10.6273 18.5835 10.6927C18.5835 10.7581 18.5573 10.8191 18.5094 10.867L15.1849 14.1915H14.4921L18.1651 10.5183ZM17.1935 15.0627C17.1587 15.3025 17.0846 15.5288 16.9975 15.7555C16.7274 15.7207 16.4573 15.6988 16.1784 15.6988C14.8189 15.6988 13.5378 16.1345 12.4616 16.9493C12.0607 16.8667 11.6469 16.8229 11.2243 16.8229C10.915 16.8229 10.6055 16.8448 10.3093 16.8927C9.99128 16.6617 9.65139 16.4613 9.29416 16.2958C9.05004 15.9211 8.88884 15.507 8.82367 15.0713H17.1938L17.1935 15.0627ZM2.03923 19.2718C2.97167 17.6116 4.72767 16.5661 6.6622 16.5661C7.41157 16.5661 8.13493 16.7185 8.81041 17.0193C8.91934 17.0672 9.0239 17.1282 9.12845 17.1805C7.94336 17.6075 6.91071 18.3875 6.17422 19.4245C4.5099 19.4199 2.989 19.3632 2.03926 19.2718L2.03923 19.2718ZM11.2242 20.5527C9.35046 20.5527 7.64263 20.4917 6.6012 20.3959C7.53364 18.7316 9.28964 17.6901 11.2242 17.6901C13.1587 17.6901 14.919 18.7359 15.8471 20.3959C14.806 20.4961 13.0935 20.5527 11.2242 20.5527ZM16.2655 19.4286C15.5816 18.457 14.6316 17.7077 13.5423 17.2675C14.3396 16.8056 15.2373 16.5617 16.1785 16.5617C18.113 16.5617 19.8734 17.6075 20.8015 19.2674C19.7774 19.3676 18.1043 19.4286 16.2656 19.4286L16.2655 19.4286Z" fill="#363C90"/>
<path d="M10.8317 18.1264C10.8317 18.3007 10.5703 18.3007 10.5703 18.1264C10.5703 17.952 10.8317 17.952 10.8317 18.1264Z" fill="#363C90"/>
<path d="M12.6709 18.4652C12.5707 18.4652 12.4922 18.5437 12.4922 18.6439C12.4922 18.7441 12.5707 18.8226 12.6709 18.8226C12.7711 18.8226 12.8496 18.7441 12.8496 18.6439C12.8494 18.5435 12.7711 18.4652 12.6709 18.4652Z" fill="#363C90"/>
<path d="M9.8082 18.7056C9.8082 18.8102 9.65137 18.8102 9.65137 18.7056C9.65137 18.6011 9.8082 18.6011 9.8082 18.7056Z" fill="#363C90"/>
<path d="M13.3457 19.0538C13.3109 19.0538 13.2803 19.0842 13.2803 19.1192C13.2803 19.154 13.3107 19.1847 13.3457 19.1847C13.3805 19.1847 13.4111 19.1543 13.4111 19.1192C13.4111 19.0842 13.3807 19.0538 13.3457 19.0538Z" fill="#363C90"/>
</svg>
