<svg width="6" height="61" viewBox="0 0 6 61" fill="none" xmlns="http://www.w3.org/2000/svg">
<path d="M3 61L5.88675 56L0.113251 56L3 61ZM2.5 2.18557e-08L2.5 2.54167L3.5 2.54167L3.5 -2.18557e-08L2.5 2.18557e-08ZM2.5 7.625L2.5 12.7083L3.5 12.7083L3.5 7.625L2.5 7.625ZM2.5 17.7917L2.5 22.875L3.5 22.875L3.5 17.7917L2.5 17.7917ZM2.5 27.9583L2.5 33.0417L3.5 33.0417L3.5 27.9583L2.5 27.9583ZM2.5 38.125L2.5 43.2083L3.5 43.2083L3.5 38.125L2.5 38.125ZM2.5 48.2917L2.5 53.375L3.5 53.375L3.5 48.2917L2.5 48.2917Z" fill="#667085"/>
</svg>
