<svg width="720" height="1024" viewBox="0 0 720 1024" fill="none" xmlns="http://www.w3.org/2000/svg">
<g clip-path="url(#clip0_1240_7624)">
<rect width="720" height="1024" fill="#363C90"/>
<path d="M416.5 421C416.5 476.46 407.888 526.646 393.98 562.95C387.026 581.103 378.757 595.759 369.601 605.869C360.445 615.978 350.441 621.5 340 621.5C329.559 621.5 319.555 615.978 310.399 605.869C301.243 595.759 292.974 581.103 286.02 562.95C272.112 526.646 263.5 476.46 263.5 421C263.5 365.541 272.112 315.354 286.02 279.05C292.974 260.897 301.243 246.241 310.399 236.131C319.555 226.022 329.559 220.5 340 220.5C350.441 220.5 360.445 226.022 369.601 236.131C378.757 246.241 387.026 260.897 393.98 279.05C407.888 315.354 416.5 365.541 416.5 421Z" stroke="#EEEEFF" stroke-opacity="0.12"/>
<path d="M387.5 426.5C387.5 461.387 382.078 492.948 373.328 515.77C368.952 527.183 363.754 536.384 358.008 542.723C352.262 549.063 346.006 552.5 339.5 552.5C332.994 552.5 326.738 549.063 320.992 542.723C315.246 536.384 310.048 527.183 305.672 515.77C296.922 492.948 291.5 461.387 291.5 426.5C291.5 391.613 296.922 360.052 305.672 337.23C310.048 325.817 315.246 316.616 320.992 310.277C326.738 303.937 332.994 300.5 339.5 300.5C346.006 300.5 352.262 303.937 358.008 310.277C363.754 316.616 368.952 325.817 373.328 337.23C382.078 360.052 387.5 391.613 387.5 426.5Z" stroke="#EEEEFF" stroke-opacity="0.12"/>
<mask id="path-3-inside-1_1240_7624" fill="white">
<path d="M363 425C363 433.536 362.353 441.988 361.097 449.874C359.841 457.761 357.999 464.926 355.678 470.962C353.356 476.998 350.6 481.786 347.567 485.052C344.534 488.319 341.283 490 338 490L338 425H363Z"/>
</mask>
<path d="M363 425C363 433.536 362.353 441.988 361.097 449.874C359.841 457.761 357.999 464.926 355.678 470.962C353.356 476.998 350.6 481.786 347.567 485.052C344.534 488.319 341.283 490 338 490L338 425H363Z" stroke="#EEEEFF" stroke-opacity="0.12" stroke-width="2" mask="url(#path-3-inside-1_1240_7624)"/>
<mask id="path-4-inside-2_1240_7624" fill="white">
<path d="M313 425C313 416.464 313.647 408.012 314.903 400.126C316.159 392.239 318.001 385.074 320.322 379.038C322.644 373.002 325.4 368.214 328.433 364.948C331.466 361.681 334.717 360 338 360L338 425L313 425Z"/>
</mask>
<path d="M313 425C313 416.464 313.647 408.012 314.903 400.126C316.159 392.239 318.001 385.074 320.322 379.038C322.644 373.002 325.4 368.214 328.433 364.948C331.466 361.681 334.717 360 338 360L338 425L313 425Z" stroke="#EEEEFF" stroke-opacity="0.12" stroke-width="2" mask="url(#path-4-inside-2_1240_7624)"/>
<path d="M458.5 412.5C458.5 488.804 445.747 557.862 425.148 607.824C414.848 632.807 402.596 652.991 389.016 666.922C375.438 680.852 360.564 688.5 345 688.5C329.436 688.5 314.562 680.852 300.984 666.922C287.405 652.991 275.152 632.807 264.852 607.824C244.253 557.862 231.5 488.804 231.5 412.5C231.5 336.196 244.253 267.138 264.852 217.176C275.152 192.193 287.405 172.009 300.984 158.078C314.562 144.148 329.436 136.5 345 136.5C360.564 136.5 375.438 144.148 389.016 158.078C402.596 172.009 414.848 192.193 425.148 217.176C445.747 267.138 458.5 336.196 458.5 412.5Z" stroke="#EEEEFF" stroke-opacity="0.12"/>
<path d="M501.5 405C501.5 507.953 484.494 601.136 457.017 668.562C443.278 702.277 426.932 729.527 408.805 748.341C390.68 767.153 370.809 777.5 350 777.5C329.191 777.5 309.32 767.153 291.195 748.341C273.068 729.527 256.722 702.277 242.983 668.562C215.506 601.136 198.5 507.953 198.5 405C198.5 302.047 215.506 208.864 242.983 141.438C256.722 107.723 273.068 80.473 291.195 61.6591C309.32 42.8466 329.191 32.5 350 32.5C370.809 32.5 390.68 42.8466 408.805 61.6591C426.932 80.473 443.278 107.723 457.017 141.438C484.494 208.864 501.5 302.047 501.5 405Z" stroke="#EEEEFF" stroke-opacity="0.12"/>
<path d="M582.5 412C582.5 528.744 557.608 634.411 517.389 710.873C477.157 787.359 421.664 834.5 360.5 834.5C299.336 834.5 243.843 787.359 203.611 710.873C163.392 634.411 138.5 528.744 138.5 412C138.5 295.256 163.392 189.589 203.611 113.127C243.843 36.6407 299.336 -10.5 360.5 -10.5C421.664 -10.5 477.157 36.6407 517.389 113.127C557.608 189.589 582.5 295.256 582.5 412Z" stroke="#EEEEFF" stroke-opacity="0.12"/>
<path d="M668.5 409.5C668.5 546.255 635.721 670.039 582.752 759.617C529.776 849.206 456.661 904.5 376 904.5C295.339 904.5 222.224 849.206 169.248 759.617C116.279 670.039 83.5 546.255 83.5 409.5C83.5 272.745 116.279 148.961 169.248 59.3831C222.224 -30.2063 295.339 -85.5 376 -85.5C456.661 -85.5 529.776 -30.2063 582.752 59.3831C635.721 148.961 668.5 272.745 668.5 409.5Z" stroke="#EEEEFF" stroke-opacity="0.12"/>
<path d="M668.5 479.5C668.5 635.585 631.076 776.869 570.597 879.114C510.111 981.371 426.621 1044.5 334.5 1044.5C242.379 1044.5 158.889 981.371 98.4031 879.114C37.9235 776.869 0.5 635.585 0.5 479.5C0.5 323.415 37.9235 182.131 98.4031 79.8857C158.889 -22.3712 242.379 -85.5 334.5 -85.5C426.621 -85.5 510.111 -22.3712 570.597 79.8857C631.076 182.131 668.5 323.415 668.5 479.5Z" stroke="#EEEEFF" stroke-opacity="0.12"/>
</g>
<defs>
<clipPath id="clip0_1240_7624">
<rect width="720" height="1024" fill="white"/>
</clipPath>
</defs>
</svg>
