<svg width="22" height="20" viewBox="0 0 22 20" fill="none" xmlns="http://www.w3.org/2000/svg">
<path d="M13.5241 16.5883C13.5434 16.3755 13.7443 16.2313 13.7511 16.2264C13.8673 16.1476 13.8983 15.9894 13.8204 15.8721C13.742 15.7543 13.5833 15.7223 13.4662 15.8009C13.4249 15.8286 13.0607 16.0843 13.0161 16.5344C12.9846 16.8543 13.1228 17.1714 13.4272 17.4768C13.9902 18.0417 13.4856 18.5922 13.4272 18.6521C13.3274 18.7522 13.3274 18.9144 13.4272 19.0145C13.4771 19.0645 13.5425 19.0896 13.6079 19.0896C13.6732 19.0896 13.7386 19.0645 13.7885 19.0145C14.116 18.6859 14.5376 17.8658 13.7885 17.1142C13.5988 16.9242 13.5099 16.7472 13.5241 16.5883L13.5241 16.5883Z" fill="#363C90"/>
<path d="M15.3122 16.5883C15.3314 16.3755 15.5324 16.2313 15.5392 16.2264C15.6554 16.1476 15.6864 15.9894 15.6085 15.8721C15.5301 15.7543 15.3715 15.7223 15.2543 15.8009C15.213 15.8286 14.8487 16.0843 14.8042 16.5344C14.7727 16.8543 14.9109 17.1714 15.2153 17.4768C15.7783 18.0417 15.2737 18.5922 15.2153 18.6521C15.1155 18.7522 15.1155 18.9144 15.2153 19.0145C15.2652 19.0645 15.3305 19.0896 15.3959 19.0896C15.4613 19.0896 15.5267 19.0645 15.5766 19.0145C15.9041 18.6859 16.3257 17.8658 15.5766 17.1142C15.3868 16.9242 15.2979 16.7472 15.3122 16.5883L15.3122 16.5883Z" fill="#363C90"/>
<path d="M17.0993 16.5883C17.1185 16.3755 17.3195 16.2313 17.3263 16.2264C17.4425 16.1476 17.4735 15.9894 17.3956 15.8721C17.3172 15.7543 17.1588 15.7223 17.0414 15.8009C17.0001 15.8286 16.6359 16.0843 16.5913 16.5344C16.5598 16.8543 16.698 17.1714 17.0024 17.4768C17.5654 18.0417 17.0608 18.5922 17.0024 18.6521C16.9026 18.7522 16.9026 18.9144 17.0024 19.0145C17.0523 19.0645 17.1177 19.0896 17.183 19.0896C17.2484 19.0896 17.3138 19.0645 17.3637 19.0145C17.6912 18.6859 18.1128 17.8658 17.3637 17.1142C17.174 16.9242 17.085 16.7472 17.0993 16.5883L17.0993 16.5883Z" fill="#363C90"/>
<path d="M17.0385 0.00010999H1.21889C1.07777 0.00010999 0.963379 0.114885 0.963379 0.256479V13.8296C0.963379 13.9712 1.07777 14.086 1.21889 14.086H12.2581C12.5442 14.763 13.9761 15.1165 15.3959 15.1165C16.8158 15.1165 18.2477 14.7631 18.5338 14.086H21.1433C21.2844 14.086 21.3988 13.9712 21.3988 13.8296V4.37506C21.3988 1.96282 19.4427 0 17.0385 0L17.0385 0.00010999ZM18.078 13.8351C18.078 14.0959 17.1313 14.604 15.3958 14.604C13.6605 14.604 12.7138 14.0959 12.7138 13.8338C12.7143 13.8038 12.7263 13.7714 12.7493 13.7373C12.9109 13.4983 13.6201 13.1792 14.7795 13.0906C15.1303 13.0599 15.5815 13.0594 15.9442 13.0865C15.9674 13.0883 15.9925 13.089 16.0152 13.091C17.3374 13.1918 18.0743 13.5943 18.078 13.8338C18.078 13.8342 18.0782 13.8345 18.0782 13.8349L18.078 13.8351ZM16.0344 8.70914H14.7572C14.6161 8.70914 14.5017 8.82391 14.5017 8.96551V12.6017C14.4791 12.6042 14.4564 12.6076 14.4338 12.6102C14.3814 12.6165 14.3292 12.6226 14.2768 12.6299C14.2433 12.6346 14.21 12.6401 14.1767 12.6453C14.1325 12.6521 14.0883 12.6589 14.0445 12.6667C14.0071 12.6734 13.9702 12.6805 13.9331 12.6878C13.8941 12.6953 13.8551 12.703 13.8164 12.7113C13.776 12.7198 13.736 12.7291 13.696 12.7386C13.6625 12.7465 13.6293 12.7545 13.5964 12.7631C13.5529 12.7742 13.5101 12.7858 13.4677 12.798C13.4406 12.8056 13.4139 12.8137 13.3872 12.8219C13.3408 12.836 13.2954 12.8505 13.2507 12.8659C13.2311 12.8727 13.212 12.8798 13.1926 12.8868C13.1431 12.9047 13.0942 12.9231 13.047 12.9426C13.0376 12.9465 13.0287 12.9508 13.0192 12.9548C12.9098 13.0014 12.8059 13.0515 12.7138 13.1072V8.52458C12.7138 7.04072 13.9171 5.83343 15.396 5.83343C16.1117 5.83343 16.7853 6.11357 17.292 6.622C17.7989 7.13061 18.078 7.80622 18.078 8.52454V13.1072C18.0662 13.1001 18.0527 13.094 18.0405 13.087C17.9987 13.0629 17.9561 13.0391 17.9106 13.0167C17.8894 13.0064 17.8668 12.9967 17.8449 12.9867C17.8048 12.9683 17.7644 12.9499 17.7221 12.9327C17.6968 12.9225 17.6706 12.9129 17.6448 12.9032C17.6035 12.8877 17.5618 12.8723 17.5186 12.8578C17.491 12.8485 17.4629 12.8396 17.4347 12.8308C17.3911 12.8172 17.3469 12.8038 17.302 12.7913C17.2733 12.7833 17.2446 12.7756 17.2156 12.7679C17.1689 12.7557 17.122 12.7443 17.0744 12.7332C17.0459 12.7266 17.0174 12.72 16.9886 12.7137C16.9388 12.703 16.8886 12.6932 16.8382 12.6835C16.8107 12.6783 16.7835 12.6729 16.756 12.6679C16.7024 12.6585 16.6486 12.6501 16.5948 12.6418C16.5698 12.6381 16.5449 12.6338 16.5199 12.6304C16.4588 12.6218 16.3979 12.6143 16.3369 12.6073C16.3213 12.6059 16.3056 12.6034 16.2899 12.6018V8.96564C16.2899 8.82405 16.1755 8.70927 16.0344 8.70927L16.0344 8.70914ZM15.7791 9.22169V12.5618C15.7707 12.5614 15.7613 12.5616 15.7529 12.5612C15.6561 12.5573 15.5567 12.5555 15.4567 12.5548C15.4359 12.5546 15.417 12.5535 15.396 12.5535C15.3792 12.5535 15.3644 12.5544 15.3479 12.5546C15.2427 12.5552 15.1385 12.5571 15.0377 12.5612C15.0296 12.5616 15.0207 12.5614 15.0127 12.5618V9.22169L15.7791 9.22169ZM20.8879 13.5735H18.589V8.52447C18.589 7.66917 18.2567 6.86486 17.6534 6.25955C17.0499 5.65405 16.2482 5.32059 15.3958 5.32059C13.6352 5.32059 12.2028 6.75777 12.2028 8.52429V13.5733L1.47426 13.5735V0.512469H17.0384C19.1609 0.512469 20.8879 2.24517 20.8879 4.3748L20.8879 13.5735Z" fill="#363C90"/>
<path d="M7.34902 2.04688H3.26186C3.12074 2.04688 3.00635 2.16165 3.00635 2.30324V4.8662C3.00635 5.0078 3.12074 5.12257 3.26186 5.12257H7.34902C7.49014 5.12257 7.60454 5.0078 7.60454 4.8662V2.30324C7.60454 2.16165 7.49014 2.04688 7.34902 2.04688ZM7.09351 4.60983H3.51741V2.55942H7.09351V4.60983Z" fill="#363C90"/>
</svg>
