<svg width="56" height="61" viewBox="0 0 56 61" fill="none" xmlns="http://www.w3.org/2000/svg">
<path d="M35.7112 44.3699C35.7112 46.7571 33.7756 48.6927 31.3884 48.6927C29.0012 48.6927 27.0656 46.7571 27.0656 44.3699C27.0656 41.9827 29.0012 40.0471 31.3884 40.0471C33.7756 40.0471 35.7112 41.9827 35.7112 44.3699Z" fill="#363C90"/>
<path d="M15.1786 34.645V54.0976H47.5996V34.645H15.1786ZM31.3891 50.8555C29.6016 50.8559 27.8927 50.1188 26.6669 48.8171C25.4415 47.5159 24.807 45.7661 24.9146 43.982C25.0217 42.1974 25.8611 40.5363 27.2342 39.3914C28.6072 38.2466 30.3918 37.7192 32.1668 37.9344C33.9413 38.1491 35.5489 39.0874 36.6088 40.5271C37.6688 41.9667 38.0871 43.7798 37.7653 45.5383C37.4922 47.0305 36.7048 48.3795 35.5396 49.3511C34.3745 50.3228 32.906 50.855 31.3892 50.8555H31.3891Z" fill="#363C90"/>
<path d="M35.7112 44.3699C35.7112 46.7571 33.7756 48.6927 31.3884 48.6927C29.0012 48.6927 27.0656 46.7571 27.0656 44.3699C27.0656 41.9827 29.0012 40.0471 31.3884 40.0471C33.7756 40.0471 35.7112 41.9827 35.7112 44.3699Z" fill="#363C90"/>
<path d="M15.1786 34.645V54.0976H47.5996V34.645H15.1786ZM31.3891 50.8555C29.6016 50.8559 27.8927 50.1188 26.6669 48.8171C25.4415 47.5159 24.807 45.7661 24.9146 43.982C25.0217 42.1974 25.8611 40.5363 27.2342 39.3914C28.6072 38.2466 30.3918 37.7192 32.1668 37.9344C33.9413 38.1491 35.5489 39.0874 36.6088 40.5271C37.6688 41.9667 38.0871 43.7798 37.7653 45.5383C37.4922 47.0305 36.7048 48.3795 35.5396 49.3511C34.3745 50.3228 32.906 50.855 31.3892 50.8555H31.3891Z" fill="#363C90"/>
<path d="M49.7608 15.1924C49.3719 19.2141 46.9828 22.7694 43.4064 24.6484C41.067 25.7205 38.4945 26.185 35.9278 25.9994H27.7039C25.3958 26.1687 23.0757 25.9275 20.852 25.2863C18.7283 24.512 16.8664 23.1538 15.4804 21.3683C14.0943 19.5822 13.2403 17.4416 13.017 15.1924L49.7608 15.1924Z" fill="#363C90"/>
<path d="M49.7608 15.1924C49.3719 19.2141 46.9828 22.7694 43.4064 24.6484C41.067 25.7205 38.4945 26.185 35.9278 25.9994H27.7039C25.3958 26.1687 23.0757 25.9275 20.852 25.2863C18.7283 24.512 16.8664 23.1538 15.4804 21.3683C14.0943 19.5822 13.2403 17.4416 13.017 15.1924L49.7608 15.1924Z" fill="#363C90"/>
<path d="M28.145 10.8696H34.6292V13.031H28.145V10.8696Z" fill="#363C90"/>
<path d="M28.145 10.8696H34.6292V13.031H28.145V10.8696Z" fill="#363C90"/>
<path d="M23.8223 28.1606H38.952V32.4834H23.8223V28.1606Z" fill="#363C90"/>
<path d="M23.8223 28.1606H38.952V32.4834H23.8223V28.1606Z" fill="#363C90"/>
<path d="M34.6306 5.46498V8.70707H28.1464C28.1464 7.36676 27.5303 4.53583 29.3891 4.38428C30.3617 4.30854 31.3667 4.38428 32.3287 4.38428C33.2903 4.38428 34.6306 4.20046 34.6306 5.46498Z" fill="#363C90"/>
<path d="M30.3066 6.54681H32.468V8.70821H30.3066V6.54681Z" fill="#363C90"/>
<path d="M29.2268 6.5469H3.29008C2.34977 6.5469 -0.394919 6.93576 0.0479818 5.17435C0.415617 3.98558 2.68513 4.38554 3.58193 4.38554H26.9571H28.967H29.2265C30.5557 4.55826 30.6749 6.54694 29.2265 6.54694L29.2268 6.5469Z" fill="#363C90"/>
<path d="M55.1638 58.4207C55.1638 61.1981 51.4138 60.5821 49.6199 60.5821H10.8556C10.1218 60.68 9.37546 60.5792 8.69418 60.2902C6.59738 59.0474 7.87305 56.324 9.99102 56.2592H12.2499H47.5016C49.3171 56.2592 51.1654 56.1512 52.9808 56.2592C53.5578 56.2535 54.1132 56.4788 54.5232 56.8845C54.9333 57.2907 55.1639 57.8436 55.1639 58.4207L55.1638 58.4207Z" fill="#363C90"/>
<path d="M55.1638 58.4207C55.1638 61.1981 51.4138 60.5821 49.6199 60.5821H10.8556C10.1218 60.68 9.37546 60.5792 8.69418 60.2902C6.59738 59.0474 7.87305 56.324 9.99102 56.2592H12.2499H47.5016C49.3171 56.2592 51.1654 56.1512 52.9808 56.2592C53.5578 56.2535 54.1132 56.4788 54.5232 56.8845C54.9333 57.2907 55.1639 57.8436 55.1639 58.4207L55.1638 58.4207Z" fill="#363C90"/>
<path d="M7.61275 6.54664H2.10119C1.20431 6.54664 0.210033 6.64409 0.0478666 5.46594C-0.00616831 4.60235 -0.00616831 3.73584 0.0478666 2.87227C0.0478666 2.10517 -0.222308 0.710869 0.588216 0.213995C1.309 -0.00503482 2.07032 -0.0566612 2.81421 0.0624997H6.20784C6.89969 0.0624997 7.98044 -0.131927 8.46669 0.484169C8.953 1.09978 8.69344 2.80761 8.69344 3.62882C8.69344 4.45002 9.03936 6.5467 7.61274 6.5467L7.61275 6.54664Z" fill="#363C90"/>
<path d="M2.21063 2.22406H6.53342V4.38546H2.21063V2.22406Z" fill="#363C90"/>
<path d="M35.7112 44.3699C35.7112 46.7571 33.7756 48.6927 31.3884 48.6927C29.0012 48.6927 27.0656 46.7571 27.0656 44.3699C27.0656 41.9827 29.0012 40.0471 31.3884 40.0471C33.7756 40.0471 35.7112 41.9827 35.7112 44.3699Z" fill="#363C90"/>
<path d="M35.7112 44.3699C35.7112 46.7571 33.7756 48.6927 31.3884 48.6927C29.0012 48.6927 27.0656 46.7571 27.0656 44.3699C27.0656 41.9827 29.0012 40.0471 31.3884 40.0471C33.7756 40.0471 35.7112 41.9827 35.7112 44.3699Z" fill="#363C90"/>
</svg>
