<svg width="77" height="85" viewBox="0 0 77 85" fill="none" xmlns="http://www.w3.org/2000/svg">
<path d="M49.8447 61.9324C49.8447 65.2644 47.143 67.9661 43.811 67.9661C40.4791 67.9661 37.7773 65.2644 37.7773 61.9324C37.7773 58.6004 40.4791 55.8987 43.811 55.8987C47.143 55.8987 49.8447 58.6004 49.8447 61.9324Z" fill="#EEEEFF"/>
<path d="M21.1855 48.3566V75.5082H66.4382V48.3566H21.1855ZM43.8119 70.983C41.3168 70.9836 38.9316 69.9547 37.2207 68.1378C35.5102 66.3217 34.6246 63.8792 34.7748 61.3891C34.9243 58.8982 36.096 56.5797 38.0125 54.9816C39.9289 53.3836 42.4198 52.6476 44.8974 52.9479C47.3741 53.2476 49.618 54.5574 51.0974 56.5668C52.5769 58.5762 53.1608 61.1069 52.7116 63.5614C52.3305 65.6442 51.2315 67.527 49.6051 68.8832C47.9788 70.2395 45.929 70.9823 43.8119 70.983H43.8119Z" fill="#EEEEFF"/>
<path d="M49.8447 61.9324C49.8447 65.2644 47.143 67.9661 43.811 67.9661C40.4791 67.9661 37.7773 65.2644 37.7773 61.9324C37.7773 58.6004 40.4791 55.8987 43.811 55.8987C47.143 55.8987 49.8447 58.6004 49.8447 61.9324Z" fill="#EEEEFF"/>
<path d="M21.1855 48.3566V75.5082H66.4382V48.3566H21.1855ZM43.8119 70.983C41.3168 70.9836 38.9316 69.9547 37.2207 68.1378C35.5102 66.3217 34.6246 63.8792 34.7748 61.3891C34.9243 58.8982 36.096 56.5797 38.0125 54.9816C39.9289 53.3836 42.4198 52.6476 44.8974 52.9479C47.3741 53.2476 49.618 54.5574 51.0974 56.5668C52.5769 58.5762 53.1608 61.1069 52.7116 63.5614C52.3305 65.6442 51.2315 67.527 49.6051 68.8832C47.9788 70.2395 45.929 70.9823 43.8119 70.983H43.8119Z" fill="#EEEEFF"/>
<path d="M69.4543 21.2051C68.9116 26.8185 65.5769 31.781 60.585 34.4037C57.3197 35.9 53.729 36.5485 50.1465 36.2893H38.6677C35.446 36.5257 32.2077 36.189 29.1039 35.2941C26.1397 34.2133 23.5409 32.3176 21.6063 29.8253C19.6716 27.3324 18.4797 24.3445 18.168 21.2051L69.4543 21.2051Z" fill="#EEEEFF"/>
<path d="M69.4543 21.2051C68.9116 26.8185 65.5769 31.781 60.585 34.4037C57.3197 35.9 53.729 36.5485 50.1465 36.2893H38.6677C35.446 36.5257 32.2077 36.189 29.1039 35.2941C26.1397 34.2133 23.5409 32.3176 21.6063 29.8253C19.6716 27.3324 18.4797 24.3445 18.168 21.2051L69.4543 21.2051Z" fill="#EEEEFF"/>
<path d="M39.2852 15.1714H48.3357V18.1882H39.2852V15.1714Z" fill="#EEEEFF"/>
<path d="M39.2852 15.1714H48.3357V18.1882H39.2852V15.1714Z" fill="#EEEEFF"/>
<path d="M33.25 39.3062H54.3679V45.3398H33.25V39.3062Z" fill="#EEEEFF"/>
<path d="M33.25 39.3062H54.3679V45.3398H33.25V39.3062Z" fill="#EEEEFF"/>
<path d="M48.3376 7.62922V12.1545H39.287C39.287 10.2837 38.4271 6.33232 41.0216 6.1208C42.3792 6.01507 43.782 6.1208 45.1247 6.1208C46.4668 6.1208 48.3376 5.86423 48.3376 7.62922Z" fill="#EEEEFF"/>
<path d="M42.3008 9.13777H45.3176V12.1546H42.3008V9.13777Z" fill="#EEEEFF"/>
<path d="M40.7944 9.1378H4.59224C3.27977 9.1378 -0.551222 9.68056 0.0669722 7.22202C0.580111 5.56275 3.74787 6.12101 4.9996 6.12101H37.6263H40.4316H40.7939C42.6492 6.36208 42.8156 9.13785 40.7939 9.13785L40.7944 9.1378Z" fill="#EEEEFF"/>
<path d="M76.9977 81.542C76.9977 85.4187 71.7634 84.5588 69.2596 84.5588H15.1529C14.1286 84.6955 13.087 84.5548 12.136 84.1514C9.20936 82.4168 10.9899 78.6154 13.9461 78.5251H17.099H66.3029C68.8369 78.5251 71.4167 78.3742 73.9507 78.5251C74.7561 78.517 75.5311 78.8314 76.1035 79.3978C76.6759 79.9648 76.9978 80.7365 76.9978 81.542L76.9977 81.542Z" fill="#EEEEFF"/>
<path d="M76.9977 81.542C76.9977 85.4187 71.7634 84.5588 69.2596 84.5588H15.1529C14.1286 84.6955 13.087 84.5548 12.136 84.1514C9.20936 82.4168 10.9899 78.6154 13.9461 78.5251H17.099H66.3029C68.8369 78.5251 71.4167 78.3742 73.9507 78.5251C74.7561 78.517 75.5311 78.8314 76.1035 79.3978C76.6759 79.9648 76.9978 80.7365 76.9978 81.542L76.9977 81.542Z" fill="#EEEEFF"/>
<path d="M10.6251 9.1377H2.9322C1.68035 9.1377 0.292546 9.27372 0.0661962 7.62928C-0.00922484 6.42388 -0.00922484 5.21442 0.0661962 4.00906C0.0661962 2.93836 -0.310909 0.99222 0.820407 0.298691C1.82646 -0.00702753 2.8891 -0.0790868 3.92741 0.0872361H8.6642C9.62986 0.0872361 11.1384 -0.184142 11.8171 0.675796C12.4958 1.53506 12.1336 3.91882 12.1336 5.06504C12.1336 6.21127 12.6164 9.13778 10.6251 9.13778L10.6251 9.1377Z" fill="#EEEEFF"/>
<path d="M3.08594 3.10406H9.11962V6.1209H3.08594V3.10406Z" fill="#EEEEFF"/>
<path d="M49.8447 61.9324C49.8447 65.2644 47.143 67.9661 43.811 67.9661C40.4791 67.9661 37.7773 65.2644 37.7773 61.9324C37.7773 58.6004 40.4791 55.8987 43.811 55.8987C47.143 55.8987 49.8447 58.6004 49.8447 61.9324Z" fill="#EEEEFF"/>
<path d="M49.8447 61.9324C49.8447 65.2644 47.143 67.9661 43.811 67.9661C40.4791 67.9661 37.7773 65.2644 37.7773 61.9324C37.7773 58.6004 40.4791 55.8987 43.811 55.8987C47.143 55.8987 49.8447 58.6004 49.8447 61.9324Z" fill="#EEEEFF"/>
</svg>
