<svg width="23" height="21" viewBox="0 0 23 21" fill="none" xmlns="http://www.w3.org/2000/svg">
<path d="M5.99547 13.4396C5.99547 15.3645 7.55662 16.931 9.47576 16.931C11.3949 16.931 12.9558 15.3645 12.9558 13.4396C12.9558 11.5143 11.3949 9.94786 9.47576 9.94786C7.55637 9.94786 5.99547 11.5146 5.99547 13.4396ZM6.3344 13.4391C6.3344 11.7008 7.74393 10.287 9.47576 10.287C11.2076 10.287 12.6171 11.7008 12.6171 13.4391C12.6171 15.1773 11.2076 16.5912 9.47576 16.5912C7.74393 16.5912 6.3344 15.1773 6.3344 13.4391Z" fill="#4A49CB" stroke="#4A49CB" stroke-width="0.145298"/>
<path d="M11.1158 13.4388V13.4388C11.1158 12.532 10.3806 11.7941 9.47628 11.7941C8.5719 11.7941 7.83677 12.532 7.83677 13.4388C7.83677 14.3456 8.57196 15.0835 9.47628 15.0835C10.3804 15.0835 11.1155 14.3455 11.1158 13.4388ZM8.17571 13.4389C8.17571 12.719 8.75952 12.1337 9.47628 12.1337C10.1931 12.1337 10.7768 12.719 10.7768 13.4389C10.7768 14.1587 10.1931 14.744 9.47628 14.744C8.75946 14.744 8.17571 14.1587 8.17571 13.4389Z" fill="#4A49CB" stroke="#4A49CB" stroke-width="0.145298"/>
<path d="M17.7357 15.3655C17.7357 16.4459 18.6116 17.3251 19.689 17.3251C20.7664 17.3251 21.6424 16.4459 21.6424 15.3655C21.6424 14.2851 20.7664 13.4059 19.689 13.4059C18.6116 13.4059 17.7357 14.2851 17.7357 15.3655ZM18.0744 15.3654C18.0744 14.4718 18.799 13.7451 19.689 13.7451C20.5791 13.7451 21.3037 14.472 21.3037 15.3654C21.3037 16.2591 20.5791 16.9857 19.689 16.9857C18.799 16.9857 18.0744 16.2591 18.0744 15.3654Z" fill="#4A49CB" stroke="#4A49CB" stroke-width="0.145298"/>
<path d="M19.1237 14.3952H20.2504C20.3238 14.3952 20.3836 14.3355 20.3836 14.2619C20.3836 14.1884 20.3242 14.1285 20.2504 14.1285H19.1237C19.0499 14.1285 18.9906 14.1884 18.9906 14.2619C18.9906 14.3353 19.0499 14.3952 19.1237 14.3952Z" fill="#4A49CB" stroke="#4A49CB" stroke-width="0.145298"/>
<path d="M18.6306 14.9045H20.7484C20.8218 14.9045 20.8815 14.8448 20.8815 14.7711C20.8815 14.6977 20.8222 14.6378 20.7484 14.6378H18.6306C18.5567 14.6378 18.4974 14.6977 18.4974 14.7711C18.4974 14.8446 18.5567 14.9045 18.6306 14.9045Z" fill="#4A49CB" stroke="#4A49CB" stroke-width="0.145298"/>
<path d="M21.0359 15.3449L21.0359 15.3449V15.3444C21.0359 15.2709 20.9766 15.211 20.9028 15.211H18.4765C18.4027 15.211 18.3434 15.2709 18.3434 15.3444C18.3434 15.4179 18.4027 15.4777 18.4765 15.4777H20.9028C20.9767 15.4777 21.0354 15.4177 21.0359 15.3449Z" fill="#4A49CB" stroke="#4A49CB" stroke-width="0.145298"/>
<path d="M18.6076 16.051H20.7713C20.8454 16.051 20.9045 15.9907 20.9045 15.9176C20.9045 15.8441 20.8452 15.7843 20.7713 15.7843H18.6076C18.5338 15.7843 18.4745 15.8441 18.4745 15.9176C18.4745 15.9911 18.5338 16.051 18.6076 16.051Z" fill="#4A49CB" stroke="#4A49CB" stroke-width="0.145298"/>
<path d="M19.1227 16.5749H20.2566C20.3304 16.5749 20.3897 16.515 20.3897 16.4415C20.3897 16.3681 20.3304 16.3082 20.2566 16.3082H19.1227C19.0489 16.3082 18.9896 16.3681 18.9896 16.4415C18.9896 16.515 19.0489 16.5749 19.1227 16.5749Z" fill="#4A49CB" stroke="#4A49CB" stroke-width="0.145298"/>
<mask id="path-9-outside-1_167_5878" maskUnits="userSpaceOnUse" x="-0.0366211" y="-0.371094" width="23" height="21" fill="black">
<rect fill="white" x="-0.0366211" y="-0.371094" width="23" height="21"/>
<path d="M22.3092 15.3664C22.3092 14.8672 22.1698 14.4005 21.9281 14.0025L22.4933 13.4355L21.614 12.5533L21.0489 13.1203C20.6573 12.8809 20.1987 12.7416 19.7084 12.7382L12.2567 9.81783V6.98214L16.7594 2.83348L17.5962 2.0645H17.6552V0.628906L0.963379 0.629146V2.06474H1.02386L1.22086 2.23744L6.69469 6.98437V9.83922C5.62442 10.6735 4.9342 11.9769 4.9342 13.4389C4.9342 14.901 5.62436 16.2042 6.69469 17.0385V18.5801H4.9342V19.9998H12.8829V18.5801H12.2564V17.9953H17.8084V18.5822H17.0695V20.002H22.309V18.5822H21.5701V17.1946C22.0269 16.7209 22.3088 16.0761 22.3088 15.3664L22.3092 15.3664ZM21.6138 12.8279L22.2196 13.4357L21.8191 13.8375C21.6515 13.6034 21.4469 13.3976 21.2133 13.2297L21.6138 12.8279ZM1.15688 1.87013V0.822867H17.4613V1.87013H1.15688ZM1.34789 2.09033L1.31825 2.06418H17.3093L16.6282 2.68996L12.1219 6.84224H6.82728L1.34789 2.09033ZM6.8882 8.07948V7.03633H12.063V8.07948H6.8882ZM12.063 8.27354V9.69568C11.3284 9.18285 10.4364 8.88182 9.47563 8.88182C8.51485 8.88182 7.62291 9.18308 6.88826 9.69593V8.27378L12.063 8.27354ZM12.6896 18.7738V19.8055H5.12764V18.7738H12.6896ZM12.063 17.995V18.5798H6.8882V17.1809C7.62285 17.6937 8.51478 17.995 9.47557 17.995L12.063 17.995ZM10.7876 17.8007C11.2475 17.6611 11.6769 17.4502 12.063 17.1806V17.8007H10.7876ZM12.1596 16.8681C12.1278 16.8932 12.0955 16.9177 12.0628 16.9422C11.3394 17.4814 10.4438 17.8009 9.47539 17.8009C8.50695 17.8009 7.6114 17.4814 6.88801 16.9422C6.8555 16.9179 6.82323 16.8932 6.79119 16.8681C6.75844 16.8421 6.72641 16.816 6.69437 16.7891C5.73738 15.9882 5.12733 14.7836 5.12733 13.4385C5.12733 11.0331 7.07786 9.07608 9.4752 9.07608C11.8726 9.07608 13.8231 11.0331 13.8231 13.4385C13.8231 14.7836 13.213 15.9885 12.256 16.7891C12.2245 16.8158 12.1923 16.8421 12.1596 16.8681ZM12.2564 17.8007V17.0379C13.3267 16.2036 14.0169 14.9003 14.0169 13.4383C14.0169 12.1617 13.4907 11.0063 12.6449 10.1783L19.2644 12.7726C18.4226 12.911 17.7148 13.4531 17.3452 14.1936H16.3459V16.5392H17.3452C17.4659 16.7808 17.6227 17.0014 17.8082 17.1936V17.8007L12.2564 17.8007ZM17.2583 16.3452H16.5395V14.3876H17.2578C17.1364 14.6904 17.0695 15.0207 17.0695 15.3665C17.0695 15.7122 17.1366 16.0425 17.2583 16.3452ZM22.1154 18.776V19.8076L17.2628 19.8074V18.7757L22.1154 18.776ZM19.6891 17.995C20.3314 17.995 20.9203 17.7618 21.3764 17.3754V18.5646H18.0017V17.9949L19.6891 17.995ZM18.0018 17.8007V17.3747C18.21 17.551 18.4455 17.6956 18.7016 17.8007H18.0018ZM19.6891 17.8007C18.3513 17.8007 17.2628 16.7086 17.2628 15.3663C17.2628 14.0239 18.3512 12.9318 19.6891 12.9318C21.0269 12.9318 22.1154 14.0239 22.1154 15.3663C22.1154 16.7086 21.0269 17.8007 19.6891 17.8007Z"/>
</mask>
<path d="M22.3092 15.3664C22.3092 14.8672 22.1698 14.4005 21.9281 14.0025L22.4933 13.4355L21.614 12.5533L21.0489 13.1203C20.6573 12.8809 20.1987 12.7416 19.7084 12.7382L12.2567 9.81783V6.98214L16.7594 2.83348L17.5962 2.0645H17.6552V0.628906L0.963379 0.629146V2.06474H1.02386L1.22086 2.23744L6.69469 6.98437V9.83922C5.62442 10.6735 4.9342 11.9769 4.9342 13.4389C4.9342 14.901 5.62436 16.2042 6.69469 17.0385V18.5801H4.9342V19.9998H12.8829V18.5801H12.2564V17.9953H17.8084V18.5822H17.0695V20.002H22.309V18.5822H21.5701V17.1946C22.0269 16.7209 22.3088 16.0761 22.3088 15.3664L22.3092 15.3664ZM21.6138 12.8279L22.2196 13.4357L21.8191 13.8375C21.6515 13.6034 21.4469 13.3976 21.2133 13.2297L21.6138 12.8279ZM1.15688 1.87013V0.822867H17.4613V1.87013H1.15688ZM1.34789 2.09033L1.31825 2.06418H17.3093L16.6282 2.68996L12.1219 6.84224H6.82728L1.34789 2.09033ZM6.8882 8.07948V7.03633H12.063V8.07948H6.8882ZM12.063 8.27354V9.69568C11.3284 9.18285 10.4364 8.88182 9.47563 8.88182C8.51485 8.88182 7.62291 9.18308 6.88826 9.69593V8.27378L12.063 8.27354ZM12.6896 18.7738V19.8055H5.12764V18.7738H12.6896ZM12.063 17.995V18.5798H6.8882V17.1809C7.62285 17.6937 8.51478 17.995 9.47557 17.995L12.063 17.995ZM10.7876 17.8007C11.2475 17.6611 11.6769 17.4502 12.063 17.1806V17.8007H10.7876ZM12.1596 16.8681C12.1278 16.8932 12.0955 16.9177 12.0628 16.9422C11.3394 17.4814 10.4438 17.8009 9.47539 17.8009C8.50695 17.8009 7.6114 17.4814 6.88801 16.9422C6.8555 16.9179 6.82323 16.8932 6.79119 16.8681C6.75844 16.8421 6.72641 16.816 6.69437 16.7891C5.73738 15.9882 5.12733 14.7836 5.12733 13.4385C5.12733 11.0331 7.07786 9.07608 9.4752 9.07608C11.8726 9.07608 13.8231 11.0331 13.8231 13.4385C13.8231 14.7836 13.213 15.9885 12.256 16.7891C12.2245 16.8158 12.1923 16.8421 12.1596 16.8681ZM12.2564 17.8007V17.0379C13.3267 16.2036 14.0169 14.9003 14.0169 13.4383C14.0169 12.1617 13.4907 11.0063 12.6449 10.1783L19.2644 12.7726C18.4226 12.911 17.7148 13.4531 17.3452 14.1936H16.3459V16.5392H17.3452C17.4659 16.7808 17.6227 17.0014 17.8082 17.1936V17.8007L12.2564 17.8007ZM17.2583 16.3452H16.5395V14.3876H17.2578C17.1364 14.6904 17.0695 15.0207 17.0695 15.3665C17.0695 15.7122 17.1366 16.0425 17.2583 16.3452ZM22.1154 18.776V19.8076L17.2628 19.8074V18.7757L22.1154 18.776ZM19.6891 17.995C20.3314 17.995 20.9203 17.7618 21.3764 17.3754V18.5646H18.0017V17.9949L19.6891 17.995ZM18.0018 17.8007V17.3747C18.21 17.551 18.4455 17.6956 18.7016 17.8007H18.0018ZM19.6891 17.8007C18.3513 17.8007 17.2628 16.7086 17.2628 15.3663C17.2628 14.0239 18.3512 12.9318 19.6891 12.9318C21.0269 12.9318 22.1154 14.0239 22.1154 15.3663C22.1154 16.7086 21.0269 17.8007 19.6891 17.8007Z" fill="#4A49CB"/>
<path d="M22.3092 15.3664C22.3092 14.8672 22.1698 14.4005 21.9281 14.0025L22.4933 13.4355L21.614 12.5533L21.0489 13.1203C20.6573 12.8809 20.1987 12.7416 19.7084 12.7382L12.2567 9.81783V6.98214L16.7594 2.83348L17.5962 2.0645H17.6552V0.628906L0.963379 0.629146V2.06474H1.02386L1.22086 2.23744L6.69469 6.98437V9.83922C5.62442 10.6735 4.9342 11.9769 4.9342 13.4389C4.9342 14.901 5.62436 16.2042 6.69469 17.0385V18.5801H4.9342V19.9998H12.8829V18.5801H12.2564V17.9953H17.8084V18.5822H17.0695V20.002H22.309V18.5822H21.5701V17.1946C22.0269 16.7209 22.3088 16.0761 22.3088 15.3664L22.3092 15.3664ZM21.6138 12.8279L22.2196 13.4357L21.8191 13.8375C21.6515 13.6034 21.4469 13.3976 21.2133 13.2297L21.6138 12.8279ZM1.15688 1.87013V0.822867H17.4613V1.87013H1.15688ZM1.34789 2.09033L1.31825 2.06418H17.3093L16.6282 2.68996L12.1219 6.84224H6.82728L1.34789 2.09033ZM6.8882 8.07948V7.03633H12.063V8.07948H6.8882ZM12.063 8.27354V9.69568C11.3284 9.18285 10.4364 8.88182 9.47563 8.88182C8.51485 8.88182 7.62291 9.18308 6.88826 9.69593V8.27378L12.063 8.27354ZM12.6896 18.7738V19.8055H5.12764V18.7738H12.6896ZM12.063 17.995V18.5798H6.8882V17.1809C7.62285 17.6937 8.51478 17.995 9.47557 17.995L12.063 17.995ZM10.7876 17.8007C11.2475 17.6611 11.6769 17.4502 12.063 17.1806V17.8007H10.7876ZM12.1596 16.8681C12.1278 16.8932 12.0955 16.9177 12.0628 16.9422C11.3394 17.4814 10.4438 17.8009 9.47539 17.8009C8.50695 17.8009 7.6114 17.4814 6.88801 16.9422C6.8555 16.9179 6.82323 16.8932 6.79119 16.8681C6.75844 16.8421 6.72641 16.816 6.69437 16.7891C5.73738 15.9882 5.12733 14.7836 5.12733 13.4385C5.12733 11.0331 7.07786 9.07608 9.4752 9.07608C11.8726 9.07608 13.8231 11.0331 13.8231 13.4385C13.8231 14.7836 13.213 15.9885 12.256 16.7891C12.2245 16.8158 12.1923 16.8421 12.1596 16.8681ZM12.2564 17.8007V17.0379C13.3267 16.2036 14.0169 14.9003 14.0169 13.4383C14.0169 12.1617 13.4907 11.0063 12.6449 10.1783L19.2644 12.7726C18.4226 12.911 17.7148 13.4531 17.3452 14.1936H16.3459V16.5392H17.3452C17.4659 16.7808 17.6227 17.0014 17.8082 17.1936V17.8007L12.2564 17.8007ZM17.2583 16.3452H16.5395V14.3876H17.2578C17.1364 14.6904 17.0695 15.0207 17.0695 15.3665C17.0695 15.7122 17.1366 16.0425 17.2583 16.3452ZM22.1154 18.776V19.8076L17.2628 19.8074V18.7757L22.1154 18.776ZM19.6891 17.995C20.3314 17.995 20.9203 17.7618 21.3764 17.3754V18.5646H18.0017V17.9949L19.6891 17.995ZM18.0018 17.8007V17.3747C18.21 17.551 18.4455 17.6956 18.7016 17.8007H18.0018ZM19.6891 17.8007C18.3513 17.8007 17.2628 16.7086 17.2628 15.3663C17.2628 14.0239 18.3512 12.9318 19.6891 12.9318C21.0269 12.9318 22.1154 14.0239 22.1154 15.3663C22.1154 16.7086 21.0269 17.8007 19.6891 17.8007Z" stroke="#4A49CB" stroke-width="0.290596" mask="url(#path-9-outside-1_167_5878)"/>
</svg>
