<svg width="21" height="22" viewBox="0 0 21 22" fill="none" xmlns="http://www.w3.org/2000/svg">
<path d="M15.1888 19.5735C12.3324 19.5735 10.0087 17.25 10.0087 14.3934C10.0088 11.5371 12.3323 9.2137 15.1888 9.2137C18.0452 9.2137 20.3689 11.5372 20.3689 14.3938C20.3689 17.25 18.0454 19.5735 15.1888 19.5735ZM15.1888 9.68897C12.5964 9.68897 10.4889 11.7965 10.4889 14.3888C10.4889 16.9811 12.5965 19.0886 15.1888 19.0886C17.781 19.0886 19.8886 16.981 19.8886 14.3888C19.8886 11.7965 17.7812 9.68897 15.1888 9.68897Z" fill="#363C90"/>
<path d="M14.0467 21.2305H0.240052C0.105635 21.2305 0 21.1248 0 20.9904V17.049C0 14.0822 2.37641 11.6579 5.32399 11.5811V10.3378C5.32399 10.2034 5.42962 10.0978 5.56404 10.0978C5.69845 10.0978 5.80409 10.2034 5.80409 10.3378V11.8164C5.80409 11.9508 5.69845 12.0564 5.56404 12.0564L5.46805 12.0563C2.71717 12.0563 0.480065 14.2934 0.480065 17.0489V20.7502H13.8068V19.1996C13.8068 19.0651 13.9124 18.9595 14.0469 18.9595C14.1813 18.9595 14.2869 19.0651 14.2869 19.1996V20.9902C14.2869 21.1248 14.1813 21.2304 14.0469 21.2304L14.0467 21.2305ZM10.7678 12.4404C10.739 12.4404 10.7054 12.4355 10.6766 12.4212C10.0861 12.1812 9.45727 12.0612 8.81879 12.0612H8.72762C8.5932 12.0612 8.48757 11.9556 8.48757 11.8212V10.3426C8.48757 10.2082 8.5932 10.1025 8.72762 10.1025C8.86204 10.1025 8.96767 10.2082 8.96767 10.3426V11.5859C9.62062 11.6051 10.2543 11.7348 10.8591 11.9795C10.9839 12.0276 11.0416 12.1715 10.9935 12.2916C10.9503 12.3828 10.864 12.4403 10.7678 12.4403L10.7678 12.4404Z" fill="#363C90"/>
<path d="M7.14329 14.033C5.82307 14.033 4.61334 13.2553 4.07084 12.0504C4.01809 11.9304 4.07084 11.7863 4.19079 11.7335C4.31074 11.6807 4.4548 11.7335 4.50769 11.8534C4.97813 12.8855 6.01021 13.5529 7.14325 13.5529C8.27614 13.5529 9.3132 12.8856 9.77882 11.8534C9.83156 11.7335 9.97563 11.6806 10.0957 11.7335C10.2157 11.7862 10.2686 11.9303 10.2157 12.0504C9.67321 13.2504 8.46344 14.033 7.14322 14.033H7.14329Z" fill="#363C90"/>
<path d="M7.1436 10.8877C4.77683 10.8877 2.85193 8.96263 2.85193 6.59602V4.29167C2.85193 1.92491 4.77699 0 7.1436 0C9.51036 0 11.4353 1.92506 11.4353 4.29167V6.59119C11.4353 8.95796 9.51021 10.8879 7.1436 10.8879V10.8877ZM7.1436 0.475035C5.04085 0.475035 3.33186 2.18403 3.33186 4.28677V6.58629C3.33186 8.68904 5.04085 10.398 7.1436 10.398C9.24634 10.398 10.9553 8.68904 10.9553 6.58629V4.29159C10.9553 2.18885 9.24619 0.475035 7.1436 0.475035Z" fill="#363C90"/>
<path d="M9.84593 4.81364C9.1642 4.81364 8.29534 4.63597 7.36872 4.00233C5.54929 2.75418 3.25952 4.47277 3.2356 4.49191C3.12997 4.57358 2.98123 4.5543 2.89956 4.44866C2.81789 4.34303 2.83718 4.19429 2.94281 4.11262C2.97144 4.08866 3.59079 3.61822 4.47412 3.31578C5.66954 2.90289 6.764 3.0037 7.64255 3.60857C9.48127 4.86637 11.027 4.12226 11.0895 4.08866C11.2094 4.03109 11.3535 4.07901 11.411 4.19429C11.4686 4.31424 11.4255 4.4583 11.3054 4.51586C11.2623 4.53515 10.6957 4.81363 9.84612 4.81363L9.84593 4.81364Z" fill="#363C90"/>
<path d="M3.1684 21.2079C3.03398 21.2079 2.92834 21.1023 2.92834 20.9678V16.7576C2.92834 16.6232 3.03398 16.5175 3.1684 16.5175C3.30281 16.5175 3.40845 16.6232 3.40845 16.7576V20.9678C3.4083 21.1023 3.29799 21.2079 3.1684 21.2079Z" fill="#363C90"/>
<path d="M11.1182 21.2138C10.9838 21.2138 10.8782 21.1081 10.8782 20.9737V17.1716C10.8782 17.0372 10.9838 16.9316 11.1182 16.9316C11.2526 16.9316 11.3583 17.0372 11.3583 17.1716V20.9737C11.3583 21.1081 11.2526 21.2138 11.1182 21.2138Z" fill="#363C90"/>
<path d="M14.2237 16.6785C13.9549 16.6785 13.6909 16.5777 13.4844 16.3712L12.5531 15.44C12.2268 15.1136 12.2268 14.5806 12.5531 14.2542C12.8795 13.9278 13.4125 13.9278 13.7389 14.2542L14.2238 14.7391L16.6433 12.3196C16.9697 11.9932 17.5027 11.9932 17.8291 12.3196C18.1555 12.646 18.1555 13.179 17.8291 13.5054L14.9631 16.3714C14.7565 16.5728 14.4925 16.6785 14.2237 16.6785L14.2237 16.6785ZM13.8253 16.0304C14.0461 16.2511 14.4014 16.2511 14.6221 16.0304L17.4881 13.1644C17.6274 13.0251 17.6274 12.7996 17.4881 12.6603C17.3489 12.5211 17.1233 12.5211 16.9841 12.6603L14.3966 15.2478C14.3533 15.2911 14.2909 15.3199 14.2286 15.3199C14.1662 15.3199 14.1038 15.2959 14.0605 15.2478L13.4076 14.5949C13.2683 14.4556 13.0428 14.4556 12.9035 14.5949C12.8363 14.6621 12.7979 14.7533 12.7979 14.8493C12.7979 14.9452 12.8363 15.0364 12.9035 15.1036L13.8253 16.0304Z" fill="#363C90"/>
</svg>
