<svg width="29" height="20" viewBox="0 0 29 20" fill="none" xmlns="http://www.w3.org/2000/svg">
<path d="M21.6892 13.7397C21.5891 13.7397 21.491 13.7027 21.415 13.6249L18.6443 10.8541C18.4924 10.7023 18.4924 10.456 18.6443 10.304C18.7961 10.1522 19.0424 10.1522 19.1944 10.304L21.9652 13.0747C22.117 13.2266 22.117 13.4729 21.9652 13.6249C21.8892 13.7009 21.7893 13.7397 21.6892 13.7397H21.6892Z" fill="#363C90"/>
<path d="M18.3387 20C16.9886 20 15.679 19.7352 14.4454 19.2147C13.2543 18.7109 12.1857 17.9905 11.2671 17.0716C10.3485 16.153 9.62781 15.0841 9.12406 13.8934C8.60177 12.6598 8.33875 11.3504 8.33875 10C8.33875 8.64981 8.60357 7.34022 9.12406 6.10662C9.62784 4.9156 10.3483 3.84698 11.2671 2.92836C12.1857 2.00975 13.2546 1.28907 14.4454 0.785318C15.679 0.263029 16.9884 0 18.3387 0C19.6889 0 20.9985 0.264822 22.2321 0.785318C23.4231 1.2891 24.4918 2.00955 25.4104 2.92836C26.329 3.84698 27.0497 4.91585 27.5534 6.10662C28.0757 7.34022 28.3387 8.64961 28.3387 10C28.3387 11.3502 28.0739 12.6598 27.5534 13.8934C27.0497 15.0844 26.3292 16.153 25.4104 17.0716C24.4918 17.9903 23.4229 18.7109 22.2321 19.2147C20.9985 19.7352 19.6889 20 18.3387 20ZM18.3387 0.778085C13.2546 0.778085 9.11693 4.91397 9.11693 9.9999C9.11693 15.084 13.2528 19.2217 18.3387 19.2217C23.4229 19.2217 27.5606 15.0858 27.5606 9.9999C27.5606 4.91575 23.4247 0.778085 18.3387 0.778085Z" fill="#363C90"/>
<path d="M11.3464 3.79619H5.60809C5.39321 3.79619 5.21912 3.62209 5.21912 3.40721C5.21912 3.19233 5.39321 3.01823 5.60809 3.01823H11.3464C11.5613 3.01823 11.7354 3.19233 11.7354 3.40721C11.7354 3.62189 11.5613 3.79619 11.3464 3.79619Z" fill="#363C90"/>
<path d="M9.309 7.09306H3.10968C2.89479 7.09306 2.7207 6.91897 2.7207 6.70409C2.7207 6.48921 2.8948 6.31511 3.10968 6.31511H9.309C9.52389 6.31511 9.69798 6.48921 9.69798 6.70409C9.69798 6.91897 9.52388 7.09306 9.309 7.09306Z" fill="#363C90"/>
<path d="M8.72727 10.3899H3.71332C3.49843 10.3899 3.32434 10.2158 3.32434 10.001C3.32434 9.78608 3.49844 9.61198 3.71332 9.61198H8.72905C8.94394 9.61198 9.11803 9.78608 9.11803 10.001C9.11803 10.2158 8.94215 10.3899 8.72726 10.3899H8.72727Z" fill="#363C90"/>
<path d="M1.76341 10.3899H0.388977C0.174092 10.3899 0 10.2158 0 10.001C0 9.78608 0.174097 9.61198 0.388977 9.61198H1.76321C1.97809 9.61198 2.15218 9.78608 2.15218 10.001C2.15238 10.2158 1.97829 10.3899 1.76341 10.3899H1.76341Z" fill="#363C90"/>
<path d="M9.309 13.6868H3.10968C2.89479 13.6868 2.7207 13.5127 2.7207 13.2978C2.7207 13.083 2.8948 12.9089 3.10968 12.9089H9.309C9.52389 12.9089 9.69798 13.083 9.69798 13.2978C9.69798 13.5127 9.52388 13.6868 9.309 13.6868Z" fill="#363C90"/>
<path d="M11.3464 16.9837H5.60809C5.39321 16.9837 5.21912 16.8096 5.21912 16.5947C5.21912 16.3798 5.39321 16.2057 5.60809 16.2057H11.3464C11.5613 16.2057 11.7354 16.3798 11.7354 16.5947C11.7354 16.8096 11.5613 16.9837 11.3464 16.9837Z" fill="#363C90"/>
<path d="M18.3387 18.2962C17.2182 18.2962 16.1328 18.0777 15.1085 17.6442C14.1213 17.2256 13.2323 16.6273 12.4711 15.866C11.7098 15.1048 11.1116 14.2176 10.6929 13.2286C10.2596 12.2061 10.0409 11.1189 10.0409 9.99836C10.0409 8.87779 10.2594 7.79241 10.6929 6.76816C11.1115 5.78088 11.7098 4.89191 12.4711 4.13068C13.2323 3.36946 14.1195 2.77117 15.1085 2.35254C16.131 1.91919 17.2182 1.70052 18.3387 1.70052C19.4593 1.70052 20.5447 1.91898 21.5689 2.35254C22.5562 2.77116 23.4452 3.36946 24.2064 4.13068C24.9676 4.89191 25.5659 5.7791 25.9846 6.76816C26.4179 7.79063 26.6366 8.87779 26.6366 9.99836C26.6366 11.1189 26.4181 12.2043 25.9846 13.2286C25.5659 14.2158 24.9676 15.1048 24.2064 15.866C23.4452 16.6273 22.558 17.2256 21.5689 17.6442C20.5465 18.0758 19.4593 18.2962 18.3387 18.2962ZM18.3387 2.4783C14.1935 2.4783 10.8187 5.85117 10.8187 9.99836C10.8187 14.1456 14.1915 17.5184 18.3387 17.5184C22.4859 17.5184 25.8588 14.1456 25.8588 9.99836C25.8588 5.85117 22.4859 2.4783 18.3387 2.4783Z" fill="#363C90"/>
<path d="M18.3388 11.1952C17.6794 11.1952 17.1422 10.658 17.1422 9.99865C17.1422 9.33929 17.6794 8.80208 18.3388 8.80208C18.9981 8.80208 19.5353 9.33929 19.5353 9.99865C19.5371 10.658 18.9999 11.1952 18.3388 11.1952ZM18.3388 9.58001C18.1072 9.58001 17.9202 9.76903 17.9202 9.99864C17.9202 10.2282 18.1092 10.4173 18.3388 10.4173C18.5684 10.4173 18.7574 10.2282 18.7574 9.99864C18.7574 9.76903 18.5702 9.58001 18.3388 9.58001Z" fill="#363C90"/>
<path d="M18.3387 9.58763C18.1238 9.58763 17.9497 9.41353 17.9497 9.19865V6.13898C17.9497 5.92409 18.1238 5.75 18.3387 5.75C18.5536 5.75 18.7277 5.9241 18.7277 6.13898V9.19886C18.7277 9.41354 18.5536 9.58764 18.3387 9.58764V9.58763Z" fill="#363C90"/>
<path d="M18.3387 3.68121C18.1238 3.68121 17.9497 3.50712 17.9497 3.29224V2.0921C17.9497 1.87722 18.1238 1.70312 18.3387 1.70312C18.5536 1.70312 18.7277 1.87722 18.7277 2.0921V3.29224C18.7277 3.50712 18.5536 3.68121 18.3387 3.68121Z" fill="#363C90"/>
<path d="M13.5952 5.64542C13.4951 5.64542 13.397 5.60842 13.321 5.53062L12.4726 4.68224C12.3208 4.53043 12.3208 4.28411 12.4726 4.13209C12.6244 3.98028 12.8708 3.98028 13.0228 4.13209L13.8712 4.98047C14.023 5.13228 14.023 5.3786 13.8712 5.53062C13.7953 5.60841 13.6953 5.64542 13.5952 5.64542H13.5952Z" fill="#363C90"/>
<path d="M11.6316 10.3899H10.4315C10.2166 10.3899 10.0425 10.2158 10.0425 10.001C10.0425 9.78608 10.2166 9.61198 10.4315 9.61198H11.6316C11.8465 9.61198 12.0206 9.78608 12.0206 10.001C12.0204 10.2158 11.8463 10.3899 11.6316 10.3899Z" fill="#363C90"/>
<path d="M12.7466 15.9814C12.6465 15.9814 12.5484 15.9444 12.4724 15.8666C12.3206 15.7147 12.3206 15.4684 12.4724 15.3164L13.3208 14.468C13.4726 14.3162 13.7189 14.3162 13.8709 14.468C14.0227 14.6198 14.0227 14.8662 13.8709 15.0182L13.0225 15.8666C12.9465 15.9444 12.8464 15.9814 12.7466 15.9814H12.7466Z" fill="#363C90"/>
<path d="M18.3387 18.2984C18.1238 18.2984 17.9497 18.1243 17.9497 17.9094V16.7093C17.9497 16.4944 18.1238 16.3203 18.3387 16.3203C18.5536 16.3203 18.7277 16.4944 18.7277 16.7093V17.9094C18.7277 18.1243 18.5536 18.2984 18.3387 18.2984Z" fill="#363C90"/>
<path d="M23.9304 15.9814C23.8303 15.9814 23.7322 15.9444 23.6562 15.8666L22.8078 15.0182C22.656 14.8664 22.656 14.6201 22.8078 14.468C22.9596 14.3162 23.206 14.3162 23.358 14.468L24.2064 15.3164C24.3582 15.4682 24.3582 15.7145 24.2064 15.8666C24.1304 15.9444 24.0305 15.9814 23.9304 15.9814H23.9304Z" fill="#363C90"/>
<path d="M26.2474 10.3899H25.0473C24.8324 10.3899 24.6583 10.2158 24.6583 10.001C24.6583 9.78608 24.8324 9.61198 25.0473 9.61198H26.2474C26.4623 9.61198 26.6364 9.78608 26.6364 10.001C26.6362 10.2158 26.4621 10.3899 26.2474 10.3899Z" fill="#363C90"/>
<path d="M23.0819 5.64542C22.9818 5.64542 22.8837 5.60662 22.8077 5.53062C22.6559 5.37881 22.6559 5.13249 22.8077 4.98047L23.6561 4.13209C23.8079 3.98028 24.0542 3.98028 24.2062 4.13209C24.358 4.28391 24.358 4.53022 24.2062 4.68224L23.3579 5.53062C23.282 5.60841 23.182 5.64542 23.0819 5.64542H23.0819Z" fill="#363C90"/>
</svg>
