<svg width="24" height="24" viewBox="0 0 24 24" fill="none" xmlns="http://www.w3.org/2000/svg">
<path d="M8.0625 12.875C7.28374 12.875 6.52246 12.6441 5.87494 12.2114C5.22742 11.7788 4.72274 11.1638 4.42472 10.4443C4.1267 9.72483 4.04873 8.93313 4.20066 8.16933C4.35259 7.40553 4.7276 6.70394 5.27827 6.15327C5.82894 5.6026 6.53053 5.22759 7.29433 5.07566C8.05813 4.92373 8.84983 5.00171 9.56932 5.29973C10.2888 5.59775 10.9038 6.10243 11.3364 6.74994C11.7691 7.39746 12 8.15874 12 8.9375C11.9988 9.98144 11.5836 10.9823 10.8455 11.7205C10.1073 12.4586 9.10643 12.8738 8.0625 12.875ZM8.0625 6.75C7.62985 6.75 7.20692 6.8783 6.84719 7.11866C6.48746 7.35903 6.20708 7.70067 6.04151 8.10038C5.87595 8.5001 5.83263 8.93993 5.91703 9.36426C6.00144 9.7886 6.20978 10.1784 6.5157 10.4843C6.82163 10.7902 7.21141 10.9986 7.63574 11.083C8.06007 11.1674 8.49991 11.1241 8.89962 10.9585C9.29933 10.7929 9.64097 10.5125 9.88134 10.1528C10.1217 9.79308 10.25 9.37015 10.25 8.9375C10.25 8.35734 10.0195 7.80094 9.6093 7.39071C9.19906 6.98047 8.64266 6.75 8.0625 6.75ZM14.625 21.625V21.1875C14.625 19.447 13.9336 17.7778 12.7029 16.5471C11.4722 15.3164 9.80298 14.625 8.0625 14.625C6.32202 14.625 4.65282 15.3164 3.42211 16.5471C2.1914 17.7778 1.5 19.447 1.5 21.1875L1.5 21.625C1.5 21.8571 1.59219 22.0796 1.75628 22.2437C1.92038 22.4078 2.14294 22.5 2.375 22.5C2.60706 22.5 2.82962 22.4078 2.99372 22.2437C3.15781 22.0796 3.25 21.8571 3.25 21.625V21.1875C3.25 19.9111 3.75703 18.6871 4.65955 17.7846C5.56207 16.882 6.78615 16.375 8.0625 16.375C9.33885 16.375 10.5629 16.882 11.4655 17.7846C12.368 18.6871 12.875 19.9111 12.875 21.1875V21.625C12.875 21.8571 12.9672 22.0796 13.1313 22.2437C13.2954 22.4078 13.5179 22.5 13.75 22.5C13.9821 22.5 14.2046 22.4078 14.3687 22.2437C14.5328 22.0796 14.625 21.8571 14.625 21.625ZM22.5 17.25C22.5 16.0676 22.1577 14.9105 21.5145 13.9183C20.8713 12.9262 19.9547 12.1414 18.8753 11.6587C17.7959 11.1761 16.5998 11.0161 15.4315 11.1983C14.2632 11.3804 13.1726 11.8968 12.2914 12.6851C12.2045 12.7614 12.1337 12.8542 12.0829 12.958C12.0321 13.0618 12.0024 13.1747 11.9955 13.2901C11.9886 13.4055 12.0046 13.5211 12.0427 13.6302C12.0807 13.7394 12.14 13.8399 12.2171 13.9261C12.2942 14.0122 12.3876 14.0822 12.4919 14.132C12.5962 14.1818 12.7093 14.2105 12.8247 14.2163C12.9402 14.2221 13.0556 14.205 13.1644 14.166C13.2732 14.127 13.3732 14.0668 13.4586 13.9889C14.0881 13.4259 14.8671 13.0572 15.7016 12.9272C16.5361 12.7972 17.3903 12.9115 18.1612 13.2563C18.9322 13.6011 19.5868 14.1617 20.0462 14.8704C20.5055 15.579 20.75 16.4055 20.75 17.25C20.75 17.4821 20.8422 17.7046 21.0063 17.8687C21.1704 18.0328 21.3929 18.125 21.625 18.125C21.8571 18.125 22.0796 18.0328 22.2437 17.8687C22.4078 17.7046 22.5 17.4821 22.5 17.25ZM16.8125 9.375C16.0337 9.375 15.2725 9.14407 14.6249 8.71141C13.9774 8.27876 13.4727 7.6638 13.1747 6.94432C12.8767 6.22483 12.7987 5.43313 12.9507 4.66933C13.1026 3.90553 13.4776 3.20394 14.0283 2.65327C14.5789 2.1026 15.2805 1.72759 16.0443 1.57566C16.8081 1.42373 17.5998 1.50171 18.3193 1.79973C19.0388 2.09775 19.6538 2.60243 20.0864 3.24994C20.5191 3.89746 20.75 4.65874 20.75 5.4375C20.7488 6.48144 20.3336 7.48228 19.5955 8.22046C18.8573 8.95863 17.8564 9.37384 16.8125 9.375ZM16.8125 3.25C16.3799 3.25 15.9569 3.3783 15.5972 3.61866C15.2375 3.85903 14.9571 4.20067 14.7915 4.60038C14.6259 5.0001 14.5826 5.43993 14.667 5.86426C14.7514 6.2886 14.9598 6.67837 15.2657 6.9843C15.5716 7.29023 15.9614 7.49856 16.3857 7.58297C16.8101 7.66738 17.2499 7.62406 17.6496 7.45849C18.0493 7.29292 18.391 7.01254 18.6313 6.65281C18.8717 6.29308 19 5.87015 19 5.4375C19 4.85734 18.7695 4.30094 18.3593 3.89071C17.9491 3.48047 17.3927 3.25 16.8125 3.25Z" fill="#667085"/>
</svg>
