<svg width="16" height="16" viewBox="0 0 16 16" fill="none" xmlns="http://www.w3.org/2000/svg">
<path d="M5.375 8.58333C4.85582 8.58333 4.34831 8.42938 3.91663 8.14094C3.48495 7.8525 3.1485 7.44253 2.94982 6.96288C2.75114 6.48322 2.69915 5.95542 2.80044 5.44622C2.90172 4.93702 3.15173 4.46929 3.51884 4.10218C3.88596 3.73507 4.35369 3.48506 4.86289 3.38377C5.37209 3.28249 5.89989 3.33447 6.37954 3.53315C6.8592 3.73183 7.26917 4.06828 7.55761 4.49996C7.84605 4.93164 8 5.43916 8 5.95833C7.99923 6.65429 7.72242 7.32152 7.2303 7.81364C6.73819 8.30575 6.07096 8.58256 5.375 8.58333ZM5.375 4.5C5.08657 4.5 4.80462 4.58553 4.56479 4.74577C4.32497 4.90602 4.13805 5.13378 4.02768 5.40025C3.9173 5.66673 3.88842 5.95995 3.94469 6.24284C4.00096 6.52573 4.13985 6.78558 4.3438 6.98953C4.54775 7.19348 4.8076 7.33238 5.09049 7.38865C5.37338 7.44492 5.6666 7.41604 5.93308 7.30566C6.19956 7.19528 6.42732 7.00836 6.58756 6.76854C6.7478 6.52872 6.83333 6.24677 6.83333 5.95833C6.83333 5.57156 6.67969 5.20063 6.4062 4.92714C6.13271 4.65365 5.76177 4.5 5.375 4.5ZM9.75 14.4167V14.125C9.75 12.9647 9.28906 11.8519 8.46859 11.0314C7.64812 10.2109 6.53532 9.75 5.375 9.75C4.21468 9.75 3.10188 10.2109 2.28141 11.0314C1.46094 11.8519 1 12.9647 1 14.125L1 14.4167C1 14.5714 1.06146 14.7198 1.17085 14.8291C1.28025 14.9385 1.42862 15 1.58333 15C1.73804 15 1.88642 14.9385 1.99581 14.8291C2.10521 14.7198 2.16667 14.5714 2.16667 14.4167V14.125C2.16667 13.2741 2.50469 12.458 3.10637 11.8564C3.70805 11.2547 4.5241 10.9167 5.375 10.9167C6.2259 10.9167 7.04195 11.2547 7.64363 11.8564C8.24531 12.458 8.58333 13.2741 8.58333 14.125V14.4167C8.58333 14.5714 8.64479 14.7198 8.75419 14.8291C8.86358 14.9385 9.01196 15 9.16667 15C9.32138 15 9.46975 14.9385 9.57915 14.8291C9.68854 14.7198 9.75 14.5714 9.75 14.4167ZM15 11.5C15 10.7117 14.7718 9.94032 14.343 9.27888C13.9142 8.61744 13.3031 8.09426 12.5835 7.77248C11.8639 7.45071 11.0665 7.34409 10.2877 7.46551C9.50883 7.58694 8.78176 7.9312 8.19425 8.45675C8.13636 8.50762 8.08913 8.56945 8.05528 8.63867C8.02142 8.7079 8.00162 8.78315 7.99701 8.86007C7.99241 8.93699 8.00309 9.01406 8.02843 9.08683C8.05378 9.1596 8.0933 9.22663 8.1447 9.28404C8.1961 9.34146 8.25837 9.38811 8.3279 9.42132C8.39744 9.45453 8.47287 9.47364 8.54983 9.47753C8.62679 9.48143 8.70376 9.47003 8.77629 9.44401C8.84883 9.41799 8.91548 9.37785 8.97242 9.32592C9.3921 8.95061 9.91143 8.7048 10.4677 8.61814C11.024 8.53148 11.5935 8.60768 12.1075 8.83755C12.6214 9.06742 13.0579 9.44113 13.3641 9.91357C13.6704 10.386 13.8333 10.937 13.8333 11.5C13.8333 11.6547 13.8948 11.8031 14.0042 11.9125C14.1136 12.0219 14.262 12.0833 14.4167 12.0833C14.5714 12.0833 14.7197 12.0219 14.8291 11.9125C14.9385 11.8031 15 11.6547 15 11.5ZM11.2083 6.25C10.6892 6.25 10.1816 6.09605 9.74996 5.80761C9.31828 5.51917 8.98183 5.1092 8.78315 4.62955C8.58447 4.14989 8.53249 3.62209 8.63377 3.11289C8.73506 2.60369 8.98506 2.13596 9.35218 1.76885C9.71929 1.40173 10.187 1.15173 10.6962 1.05044C11.2054 0.949154 11.7332 1.00114 12.2129 1.19982C12.6925 1.3985 13.1025 1.73495 13.3909 2.16663C13.6794 2.59831 13.8333 3.10583 13.8333 3.625C13.8326 4.32096 13.5558 4.98819 13.0636 5.4803C12.5715 5.97242 11.9043 6.24923 11.2083 6.25ZM11.2083 2.16667C10.9199 2.16667 10.6379 2.2522 10.3981 2.41244C10.1583 2.57269 9.97139 2.80045 9.86101 3.06692C9.75063 3.3334 9.72175 3.62662 9.77802 3.90951C9.83429 4.1924 9.97318 4.45225 10.1771 4.6562C10.3811 4.86015 10.6409 4.99904 10.9238 5.05531C11.2067 5.11158 11.4999 5.0827 11.7664 4.97233C12.0329 4.86195 12.2606 4.67503 12.4209 4.43521C12.5811 4.19539 12.6667 3.91343 12.6667 3.625C12.6667 3.23823 12.513 2.86729 12.2395 2.5938C11.966 2.32031 11.5951 2.16667 11.2083 2.16667Z" fill="#363C90"/>
</svg>
