<svg width="28" height="16" viewBox="0 0 28 16" fill="none" xmlns="http://www.w3.org/2000/svg">
<path fill-rule="evenodd" clip-rule="evenodd" d="M13.5723 0.853621C11.7324 0.853621 10.2751 2.27251 10.2751 3.98159C10.2751 5.6905 11.7324 7.10939 13.5723 7.10939C15.4123 7.10939 16.8694 5.6905 16.8694 3.98159C16.8694 2.27251 15.4123 0.853621 13.5723 0.853621ZM9.42135 3.98159C9.42135 1.76416 11.2988 0 13.5723 0C15.8458 0 17.7229 1.76416 17.7229 3.98159C17.7229 6.19901 15.8457 7.96302 13.5723 7.96302C11.2989 7.96302 9.42135 6.19901 9.42135 3.98159ZM11.0768 10.0645C8.91193 11.0852 7.39736 13.3515 7.39736 16H6.54373C6.54373 11.9466 9.71357 8.63289 13.6567 8.63289C17.5999 8.63289 20.7697 11.9464 20.7697 16H19.9161C19.9161 13.3548 18.4054 11.091 16.2447 10.0685L13.7859 12.4986L11.0768 10.0645ZM11.9756 9.72466L13.758 11.3259L15.3692 9.73382C14.8245 9.57278 14.2498 9.48658 13.6569 9.48658C13.0751 9.48658 12.511 9.56953 11.9756 9.72466ZM20.425 4.33964C20.425 3.27614 21.334 2.38065 22.4976 2.38065C23.6611 2.38065 24.5701 3.2761 24.5701 4.33964C24.5701 5.40298 23.6611 6.29847 22.4976 6.29847C21.334 6.29847 20.425 5.40302 20.425 4.33964ZM22.4976 1.52707C20.9005 1.52707 19.5716 2.76779 19.5716 4.33964C19.5716 5.91133 20.9005 7.15205 22.4976 7.15205C24.0948 7.15205 25.4237 5.91133 25.4237 4.33964C25.4237 2.76779 24.0948 1.52707 22.4976 1.52707ZM22.5544 8.1744C22.5138 8.1744 22.4731 8.17502 22.4327 8.17627L22.8091 8.49571L23.1109 8.21392C22.9287 8.18794 22.743 8.1744 22.5544 8.1744ZM19.7869 9.30932C20.2257 8.88331 20.7539 8.55811 21.3385 8.36735L22.8361 9.63795L24.075 8.48171C25.5586 9.10689 26.615 10.6199 26.615 12.4054H27.4686C27.4686 9.61245 25.2833 7.32074 22.5544 7.32074C21.2519 7.32074 20.0694 7.84542 19.1925 8.69685L19.7869 9.30932ZM7.04351 4.33936C7.04351 3.27586 6.13452 2.38037 4.97096 2.38037C3.8074 2.38037 2.89841 3.27582 2.89841 4.33936C2.89841 5.4027 3.8074 6.29819 4.97096 6.29819C6.13452 6.29819 7.04351 5.40274 7.04351 4.33936ZM4.97096 1.52679C6.56802 1.52679 7.89697 2.76751 7.89697 4.33936C7.89697 5.91105 6.56802 7.15177 4.97096 7.15177C3.37374 7.15177 2.04479 5.91105 2.04479 4.33936C2.04479 2.76751 3.37374 1.52679 4.97096 1.52679ZM6.23442 8.40276C6.77763 8.59711 7.26917 8.90844 7.68164 9.30896L8.27634 8.69653C7.39922 7.8451 6.2167 7.32042 4.9142 7.32042C2.18532 7.32042 0 9.61205 0 12.4051H0.853621C0.853621 10.5778 1.96006 9.03579 3.49861 8.43893L4.91145 9.63767L6.23442 8.40276ZM5.21621 8.18555C5.11647 8.17793 5.0158 8.17404 4.9142 8.17404C4.78396 8.17404 4.65528 8.18042 4.52801 8.19302L4.88432 8.49534L5.21621 8.18555Z" fill="#363C90"/>
</svg>
