<svg width="23" height="23" viewBox="0 0 23 23" fill="none" xmlns="http://www.w3.org/2000/svg">
<path d="M3.08358 4.40005C0.505452 7.48064 -0.0965577 11.6835 1.51297 15.3681C1.58302 15.528 1.50982 15.7144 1.35001 15.7841C1.30894 15.8021 1.26588 15.8106 1.22365 15.8106C1.10193 15.8106 0.985678 15.7399 0.934011 15.6209C0.116253 13.7486 -0.172415 11.6868 0.09921 9.65851C0.37842 7.57369 1.24303 5.61508 2.5992 3.99453C4.51029 1.71084 7.19652 0.308154 10.1629 0.044669C13.0819 -0.214505 15.9282 0.660245 18.1946 2.50956L18.0474 0.852846C18.032 0.678958 18.1604 0.525607 18.3343 0.510044C18.5081 0.494642 18.6615 0.622988 18.6771 0.796872L18.8912 3.20809C18.9066 3.38198 18.7782 3.53533 18.6044 3.55089L16.193 3.76502C16.0189 3.78042 15.8657 3.65208 15.8502 3.47819C15.8348 3.30431 15.9631 3.15095 16.137 3.13539L17.7829 2.98916C15.6471 1.25164 12.9673 0.43007 10.2188 0.674308C7.42057 0.922717 4.88679 2.24606 3.08372 4.40028L3.08358 4.40005ZM21.3643 6.67895C21.2946 6.51898 21.1081 6.44594 20.9483 6.51599C20.7884 6.58571 20.7153 6.77219 20.7854 6.93199C22.3949 10.6164 21.7931 14.8192 19.2148 17.9C17.1374 20.3823 14.1494 21.6627 11.141 21.6627C8.78846 21.6626 6.4229 20.8796 4.47188 19.2757L6.19087 19.1232C6.36476 19.1078 6.4931 18.9543 6.4777 18.7804C6.4623 18.6065 6.30878 18.4785 6.1349 18.4935L3.72368 18.7077C3.64005 18.7151 3.5632 18.7554 3.50922 18.8196C3.45556 18.8839 3.4294 18.967 3.43668 19.0503L3.65081 21.4617C3.66621 21.6356 3.8194 21.7636 3.99362 21.7485C4.1675 21.7331 4.29585 21.5796 4.28044 21.4057L4.13968 19.8202C6.13822 21.4374 8.58311 22.3 11.1298 22.3C11.4635 22.3 11.7986 22.2851 12.135 22.2553C15.1015 21.992 17.7875 20.5891 19.6991 18.3053C21.0553 16.6846 21.9199 14.726 22.1991 12.6413C22.4711 10.6133 22.1824 8.55147 21.3646 6.67926L21.3643 6.67895ZM16.1048 13.2027C15.969 13.5306 15.9599 14.0172 16.3418 14.3989C16.6286 14.6857 16.6286 15.1524 16.3418 15.4392L15.4381 16.3426C15.2991 16.4815 15.1143 16.5581 14.9181 16.5581C14.7215 16.5581 14.5367 16.4817 14.398 16.3426C14.0162 15.9607 13.5298 15.97 13.2019 16.1056C12.874 16.2414 12.5237 16.5789 12.5237 17.1191C12.5237 17.5247 12.1938 17.8549 11.788 17.8549H10.5101C10.1046 17.8549 9.77436 17.525 9.77436 17.1191C9.77436 16.5782 9.4241 16.2404 9.09655 16.1046C8.76881 15.9688 8.28244 15.9602 7.89986 16.3426C7.76092 16.4815 7.5761 16.558 7.37984 16.558C7.18327 16.558 6.99845 16.4817 6.85983 16.3426L5.95643 15.4392C5.6696 15.1524 5.6696 14.6857 5.95643 14.3989C6.33832 14.017 6.32904 13.5306 6.19341 13.2027C6.05761 12.8748 5.72011 12.5245 5.17991 12.5245C4.77435 12.5245 4.44415 12.1946 4.44415 11.7888V10.5111C4.44415 10.1055 4.77403 9.77534 5.17991 9.77534C5.71994 9.77534 6.05728 9.42492 6.19341 9.09719C6.32921 8.76929 6.33832 8.28273 5.95643 7.90101C5.81749 7.76207 5.74098 7.57725 5.74098 7.38099C5.74098 7.18442 5.81732 6.9996 5.95643 6.86097L6.86012 5.95758C6.99906 5.81864 7.18388 5.74213 7.38014 5.74213C7.57671 5.74213 7.76153 5.81847 7.90016 5.95758C8.28204 6.33946 8.76841 6.33019 9.09633 6.19456C9.42424 6.05876 9.77449 5.72126 9.77449 5.18106C9.77449 4.77549 10.1044 4.4453 10.5103 4.4453H11.7881C12.1937 4.4453 12.5238 4.77518 12.5238 5.18106C12.5238 5.72109 12.8743 6.05843 13.202 6.19456C13.5299 6.33035 14.0165 6.33946 14.3982 5.95758C14.5371 5.81864 14.7219 5.74213 14.9182 5.74213C15.1148 5.74213 15.2996 5.81847 15.4382 5.95758L16.3416 6.86097C16.4805 6.99992 16.5571 7.18473 16.5571 7.38099C16.5571 7.57757 16.4807 7.76238 16.3416 7.90101C15.9597 8.2829 15.969 8.76926 16.1046 9.09719C16.2404 9.42509 16.5779 9.77534 17.1181 9.77534C17.5237 9.77534 17.8539 10.1052 17.8539 10.5111V11.7888C17.8539 12.1943 17.524 12.5245 17.1181 12.5245C16.5781 12.5245 16.2406 12.8749 16.1048 13.2027V13.2027ZM15.5212 12.9608C15.7943 12.3016 16.406 11.8924 17.1183 11.8924C17.1754 11.8924 17.222 11.8459 17.222 11.7888V10.5111C17.222 10.454 17.1754 10.4074 17.1183 10.4074C16.406 10.4074 15.794 9.99823 15.5212 9.33913C15.2481 8.68001 15.3915 7.95798 15.8951 7.4542C15.9216 7.42771 15.9256 7.3969 15.9256 7.38067C15.9256 7.36461 15.9216 7.33364 15.8951 7.30714L14.9914 6.40375C14.9649 6.37725 14.9341 6.37328 14.9179 6.37328C14.9018 6.37328 14.8709 6.37725 14.8444 6.40375C14.3406 6.90719 13.6186 7.05078 12.9594 6.77769C12.3003 6.5046 11.8911 5.89286 11.8911 5.18058C11.8911 5.12344 11.8446 5.07691 11.7875 5.07691H10.5096C10.4525 5.07691 10.406 5.12345 10.406 5.18058C10.406 5.89286 9.99676 6.50492 9.33765 6.77769C8.67854 7.05077 7.95651 6.90735 7.45273 6.40375C7.42623 6.37725 7.39542 6.37328 7.3792 6.37328C7.36313 6.37328 7.33216 6.37725 7.306 6.40375L6.4023 7.30744C6.37581 7.33394 6.37183 7.36474 6.37183 7.38097C6.37183 7.39703 6.37581 7.428 6.4023 7.45417C6.90608 7.95795 7.04934 8.67998 6.77624 9.3391C6.50316 9.99821 5.89141 10.4074 5.17913 10.4074C5.122 10.4074 5.07547 10.4539 5.07547 10.5111V11.7887C5.07547 11.8459 5.122 11.8924 5.17913 11.8924C5.89141 11.8924 6.50347 12.3016 6.77624 12.9607C7.04932 13.6198 6.90591 14.3419 6.4023 14.8456C6.36173 14.8862 6.36173 14.952 6.4023 14.9924L7.306 15.8958C7.33249 15.9223 7.3633 15.9262 7.37953 15.9262C7.39559 15.9262 7.42656 15.9223 7.45273 15.8958C7.78774 15.5607 8.21965 15.3845 8.66497 15.3845C8.88953 15.3845 9.11724 15.4291 9.33782 15.5205C9.9966 15.7932 10.4057 16.4058 10.4057 17.1187C10.4057 17.1759 10.4522 17.2224 10.5093 17.2224H11.7872C11.8443 17.2224 11.8908 17.1759 11.8908 17.1187C11.8908 16.4065 12.3 15.7944 12.9591 15.5216C13.6179 15.2485 14.3403 15.392 14.8441 15.8956C14.8706 15.9221 14.9014 15.926 14.9176 15.926C14.9337 15.926 14.9646 15.9221 14.9908 15.8956L15.8945 14.9919C15.9351 14.9513 15.9351 14.8856 15.8945 14.8451C15.3914 14.3422 15.2481 13.6198 15.5212 12.9607L15.5212 12.9608ZM14.5348 11.15C14.5348 13.0169 13.0159 14.5358 11.149 14.5358C9.28216 14.5358 7.76323 13.0169 7.76323 11.15C7.76323 9.28315 9.28216 7.76422 11.149 7.76422C13.0159 7.76422 14.5348 9.28315 14.5348 11.15ZM13.9027 11.15C13.9027 9.6316 12.6674 8.39633 11.149 8.39633C9.63061 8.39633 8.39534 9.6316 8.39534 11.15C8.39534 12.6684 9.63061 13.9037 11.149 13.9037C12.6674 13.9037 13.9027 12.6684 13.9027 11.15ZM11.149 10.8476C10.8682 10.8476 10.6396 10.6587 10.6396 10.4267C10.6396 10.1945 10.8681 10.0055 11.149 10.0055C11.2934 10.0055 11.5675 10.1302 11.6172 10.2036C11.7129 10.3495 11.909 10.3897 12.0547 10.2942C12.2006 10.1983 12.2412 10.0024 12.1453 9.85665C12.0044 9.64219 11.7162 9.49381 11.4597 9.42244L11.455 9.22786C11.4509 9.05347 11.3045 8.9142 11.1316 8.9195C10.9571 8.92364 10.819 9.06838 10.8233 9.24293L10.8274 9.41632C10.3543 9.54466 10.0077 9.94905 10.0077 10.4268C10.0077 11.0074 10.5195 11.4799 11.149 11.4799C11.4299 11.4799 11.6584 11.6689 11.6584 11.9009C11.6584 12.1331 11.4299 12.3219 11.149 12.3219C10.9529 12.3219 10.8587 12.2642 10.6754 12.0914C10.5485 11.9716 10.3485 11.9774 10.2287 12.1044C10.109 12.2313 10.1148 12.4313 10.2418 12.5511C10.4016 12.7016 10.5787 12.8498 10.8393 12.9169L10.843 13.0729C10.8471 13.2448 10.9877 13.3812 11.1588 13.3812H11.1667C11.3411 13.3771 11.4791 13.2322 11.4749 13.0578L11.4715 12.9114C11.9442 12.7827 12.2905 12.3787 12.2905 11.9012C12.2904 11.32 11.7785 10.8476 11.149 10.8476L11.149 10.8476Z" fill="#363C90"/>
</svg>
