<svg width="18" height="18" viewBox="0 0 18 18" fill="none" xmlns="http://www.w3.org/2000/svg">
<mask id="path-1-outside-1_2423_21872" maskUnits="userSpaceOnUse" x="0.333344" y="0.333374" width="18" height="18" fill="black">
<rect fill="white" x="0.333344" y="0.333374" width="18" height="18"/>
<path fill-rule="evenodd" clip-rule="evenodd" d="M2.33334 9.00004C2.33334 5.32004 5.32001 2.33337 9.00001 2.33337C12.68 2.33337 15.6667 5.32004 15.6667 9.00004C15.6667 12.68 12.68 15.6667 9.00001 15.6667C5.32001 15.6667 2.33334 12.68 2.33334 9.00004ZM7.66668 10.4467L12.06 6.05337L13 7.00004L7.66668 12.3334L5.00001 9.66671L5.94001 8.72671L7.66668 10.4467Z"/>
</mask>
<path fill-rule="evenodd" clip-rule="evenodd" d="M2.33334 9.00004C2.33334 5.32004 5.32001 2.33337 9.00001 2.33337C12.68 2.33337 15.6667 5.32004 15.6667 9.00004C15.6667 12.68 12.68 15.6667 9.00001 15.6667C5.32001 15.6667 2.33334 12.68 2.33334 9.00004ZM7.66668 10.4467L12.06 6.05337L13 7.00004L7.66668 12.3334L5.00001 9.66671L5.94001 8.72671L7.66668 10.4467Z" fill="#9CC262"/>
<path d="M12.06 6.05337L13.4792 4.64417L12.065 3.21994L10.6458 4.63916L12.06 6.05337ZM7.66668 10.4467L6.2552 11.8637L7.66941 13.2724L9.08089 11.8609L7.66668 10.4467ZM13 7.00004L14.4142 8.41425L15.8235 7.00503L14.4192 5.59083L13 7.00004ZM7.66668 12.3334L6.25246 13.7476L7.66668 15.1618L9.08089 13.7476L7.66668 12.3334ZM5.00001 9.66671L3.5858 8.25249L2.17158 9.66671L3.5858 11.0809L5.00001 9.66671ZM5.94001 8.72671L7.35149 7.30976L5.93728 5.90101L4.5258 7.31249L5.94001 8.72671ZM9.00001 0.333374C4.21544 0.333374 0.333344 4.21547 0.333344 9.00004H4.33334C4.33334 6.42461 6.42458 4.33337 9.00001 4.33337V0.333374ZM17.6667 9.00004C17.6667 4.21547 13.7846 0.333374 9.00001 0.333374V4.33337C11.5754 4.33337 13.6667 6.42461 13.6667 9.00004H17.6667ZM9.00001 17.6667C13.7846 17.6667 17.6667 13.7846 17.6667 9.00004H13.6667C13.6667 11.5755 11.5754 13.6667 9.00001 13.6667V17.6667ZM0.333344 9.00004C0.333344 13.7846 4.21544 17.6667 9.00001 17.6667V13.6667C6.42458 13.6667 4.33334 11.5755 4.33334 9.00004H0.333344ZM10.6458 4.63916L6.25246 9.03249L9.08089 11.8609L13.4742 7.46759L10.6458 4.63916ZM14.4192 5.59083L13.4792 4.64417L10.6408 7.46258L11.5808 8.40925L14.4192 5.59083ZM9.08089 13.7476L14.4142 8.41425L11.5858 5.58583L6.25246 10.9192L9.08089 13.7476ZM3.5858 11.0809L6.25246 13.7476L9.08089 10.9192L6.41422 8.25249L3.5858 11.0809ZM4.5258 7.31249L3.5858 8.25249L6.41422 11.0809L7.35422 10.1409L4.5258 7.31249ZM9.07815 9.02976L7.35149 7.30976L4.52853 10.1437L6.2552 11.8637L9.07815 9.02976Z" fill="white" mask="url(#path-1-outside-1_2423_21872)"/>
</svg>
