<svg width="19" height="21" viewBox="0 0 19 21" fill="none" xmlns="http://www.w3.org/2000/svg">
<path d="M0.542442 10.6152V12.6157C0.542442 12.8542 0.637303 13.0828 0.805857 13.2515C0.97441 13.4201 1.20317 13.5148 1.44166 13.5148H1.98118L1.98102 19.2916C1.98102 19.6493 2.12323 19.9923 2.37614 20.2453C2.62905 20.4982 2.97213 20.6402 3.32978 20.6402H15.6927C16.0504 20.6402 16.3934 20.4982 16.6463 20.2453C16.8992 19.9923 17.0415 19.6493 17.0415 19.2916V13.5372H17.581H17.5808C17.8193 13.5372 18.0481 13.4424 18.2166 13.2738C18.3852 13.1053 18.48 12.8765 18.48 12.638V10.6151C18.4797 9.56206 18.108 8.54289 17.4301 7.73697C16.7525 6.93121 15.8121 6.39025 14.7747 6.20946C13.7373 6.02868 12.6694 6.21966 11.7591 6.74886C11.0772 6.34982 10.3014 6.13954 9.51125 6.13954C8.72115 6.13954 7.94534 6.3498 7.26345 6.74886C6.35233 6.21215 5.28048 6.01551 4.23811 6.19413C3.19573 6.37256 2.2504 6.91459 1.56976 7.72396C0.889118 8.53333 0.517186 9.55753 0.520036 10.6151L0.542442 10.6152ZM14.0068 7.04119C14.9529 7.04699 15.8585 7.42549 16.5274 8.09436C17.1965 8.76341 17.575 9.66903 17.5808 10.6152V12.6157H17.0414C16.8029 12.6157 16.5741 12.7104 16.4056 12.879C16.2368 13.0477 16.1421 13.2763 16.1421 13.5148V19.2916C16.1421 19.4108 16.0948 19.5251 16.0104 19.6094C15.9262 19.6938 15.8118 19.7412 15.6926 19.7412H12.4783C12.5337 19.5975 12.5641 19.4454 12.5682 19.2916V13.5373H13.1077C13.346 13.5373 13.5748 13.4424 13.7433 13.2738C13.9121 13.1053 14.0068 12.8765 14.0068 12.638V10.6151C13.9992 9.37627 13.4784 8.19605 12.5682 7.35581C13.0207 7.15214 13.5105 7.04489 14.0068 7.04113L14.0068 7.04119ZM9.51118 7.04119C10.4573 7.04699 11.3629 7.42549 12.0318 8.09436C12.7009 8.76341 13.0794 9.66903 13.0852 10.6152V12.6157H12.5458C12.3073 12.6157 12.0785 12.7104 11.91 12.879C11.7412 13.0477 11.6465 13.2763 11.6465 13.5148V19.2916C11.6465 19.4108 11.5992 19.5251 11.5148 19.6094C11.4306 19.6938 11.3162 19.7412 11.197 19.7412H9.96068V14.4813H9.06163V19.7412H7.8253C7.57694 19.7412 7.37578 19.5398 7.37578 19.2916V13.5373C7.37578 13.2988 7.28108 13.07 7.11237 12.9014C6.94381 12.7327 6.71505 12.638 6.47656 12.638H5.93717V10.6151C5.94297 9.669 6.32147 8.76334 6.9905 8.0943C7.65939 7.42541 8.56505 7.0469 9.51113 7.04112L9.51118 7.04119ZM5.01557 7.04119C5.51182 7.04495 6.00164 7.1522 6.45417 7.35587C5.53835 8.20145 5.01682 9.39106 5.01557 10.6376V12.6381C5.01557 12.8766 5.11028 13.1054 5.27899 13.2739C5.44754 13.4425 5.6763 13.5374 5.91463 13.5374H6.45415V19.2917C6.45823 19.4455 6.48864 19.5976 6.54399 19.7413H3.32971C3.08135 19.7413 2.88019 19.5399 2.88019 19.2917V13.5374C2.88019 13.2989 2.78549 13.0701 2.61678 12.9015C2.44822 12.7328 2.21946 12.6381 1.98097 12.6381H1.44158V10.6152C1.44738 9.6691 1.82588 8.76344 2.49491 8.0944C3.1638 7.42551 4.06946 7.047 5.01554 7.04122L5.01557 7.04119Z" fill="#363C90"/>
<path d="M7.2635 3.87038C7.52786 4.44739 8.00404 4.90052 8.59328 5.13618C9.18269 5.37184 9.83997 5.37184 10.4293 5.13618C11.0186 4.90052 11.4948 4.44739 11.7591 3.87038C12.0758 4.55841 12.6906 5.06329 13.4271 5.24046C14.1636 5.41748 14.9406 5.2472 15.5355 4.77838C16.1305 4.30955 16.4777 3.59378 16.4777 2.83631C16.4777 2.07884 16.1306 1.36324 15.5355 0.894252C14.9406 0.425424 14.1635 0.255153 13.4271 0.432328C12.6906 0.60935 12.0759 1.11422 11.7591 1.8024C11.4948 1.2254 11.0186 0.772108 10.4293 0.53661C9.83993 0.300948 9.18265 0.300948 8.59328 0.53661C8.00404 0.772116 7.52786 1.2254 7.2635 1.8024C6.94678 1.11422 6.33199 0.609342 5.59551 0.432328C4.85904 0.255149 4.08198 0.425429 3.48711 0.894252C2.89209 1.36324 2.54492 2.07884 2.54492 2.83631C2.54492 3.59378 2.89206 4.30955 3.48711 4.77838C4.08198 5.24721 4.85908 5.41748 5.59551 5.24046C6.33199 5.06328 6.94676 4.55841 7.2635 3.87038ZM14.0069 1.26289C14.4243 1.26289 14.8244 1.42862 15.1195 1.72369C15.4146 2.01878 15.5803 2.41907 15.5803 2.83631C15.5803 3.25368 15.4146 3.65383 15.1195 3.94894C14.8245 4.24403 14.4243 4.40974 14.0069 4.40974C13.5895 4.40974 13.1894 4.24401 12.8943 3.94894C12.5992 3.65385 12.4335 3.25372 12.4335 2.83631C12.4335 2.41907 12.5992 2.0188 12.8943 1.72369C13.1894 1.4286 13.5895 1.26289 14.0069 1.26289ZM9.51131 1.26289C9.92868 1.26289 10.3288 1.42862 10.6239 1.72369C10.919 2.01878 11.0847 2.41907 11.0847 2.83631C11.0847 3.25368 10.919 3.65383 10.6239 3.94894C10.3288 4.24403 9.92872 4.40974 9.51131 4.40974C9.0939 4.40974 8.69379 4.24401 8.39869 3.94894C8.1036 3.65385 7.93789 3.25372 7.93789 2.83631C7.93789 2.41907 8.10362 2.0188 8.39869 1.72369C8.69378 1.4286 9.0939 1.26289 9.51131 1.26289ZM3.44224 2.83631C3.44224 2.41907 3.60797 2.0188 3.90304 1.72369C4.19813 1.4286 4.59825 1.26289 5.01566 1.26289C5.43307 1.26289 5.83318 1.42862 6.12828 1.72369C6.42337 2.01878 6.58908 2.41907 6.58908 2.83631C6.58908 3.25368 6.42335 3.65383 6.12828 3.94894C5.83319 4.24403 5.43307 4.40974 5.01566 4.40974C4.59825 4.40974 4.19814 4.24401 3.90304 3.94894C3.60795 3.65385 3.44224 3.25372 3.44224 2.83631Z" fill="#363C90"/>
</svg>
