<svg width="38" height="38" viewBox="0 0 38 38" fill="none" xmlns="http://www.w3.org/2000/svg">
<circle cx="19" cy="19" r="19" fill="#E19E02"/>
<path d="M19.7437 23.0967L17.7118 24.6181L17.3221 26.3442L20.0221 24.3254L19.7437 23.0967Z" fill="white"/>
<path d="M18.4329 21.4291L17.9039 23.7112L19.6019 22.4532L19.3792 21.4585L20.0751 20.6102C20.1028 20.581 20.1028 20.5516 20.1028 20.5224L19.6574 19.4106C19.6574 19.3814 19.6017 19.352 19.5739 19.352L18.2101 19.3518C18.1823 19.3518 18.1544 19.381 18.1266 19.4104L17.7092 20.5222C17.7092 20.5514 17.7092 20.61 17.7369 20.61L18.4329 21.4291Z" fill="white"/>
<path d="M27.7863 28.4799V23.74C27.7863 21.2825 25.8937 19.3223 23.5833 19.3223H23.4441L20.7998 28.4798L27.7863 28.4799Z" fill="white"/>
<path d="M16.932 28.48L14.399 19.3225H14.204C11.8659 19.3225 10.001 21.3119 10.001 23.7403V28.4799L16.932 28.48Z" fill="white"/>
<path d="M18.9078 8C16.2355 8 14.0645 10.2821 14.0645 13.0908C14.0645 15.8995 16.2356 18.1816 18.9078 18.1816C21.58 18.1816 23.7511 15.8995 23.7511 13.0908C23.7511 10.2821 21.58 8 18.9078 8ZM18.9078 17.0405C16.848 17.0405 15.15 15.2558 15.15 13.0906C15.15 12.7688 15.2057 12.447 15.2612 12.1252C15.7066 12.3592 16.5138 12.6811 17.4046 12.6811C18.0447 12.6811 18.7685 12.5056 19.4365 12.0082C19.52 11.9497 21.1622 10.7209 22.4704 11.9497C22.5817 12.3007 22.6374 12.6811 22.6374 13.0907C22.6656 15.2558 20.9954 17.0405 18.9078 17.0405Z" fill="white"/>
</svg>
