<svg width="16" height="16" viewBox="0 0 16 16" fill="none" xmlns="http://www.w3.org/2000/svg">
<mask id="mask0_9993_43687" style="mask-type:alpha" maskUnits="userSpaceOnUse" x="0" y="0" width="16" height="16">
<rect width="16" height="16" fill="#D9D9D9"/>
</mask>
<g mask="url(#mask0_9993_43687)">
<path d="M7.99922 7.98318C7.26588 7.98318 6.65762 7.74158 6.17442 7.25838C5.69095 6.77491 5.44922 6.16651 5.44922 5.43318C5.44922 4.69985 5.69095 4.09158 6.17442 3.60838C6.65762 3.12491 7.26588 2.88318 7.99922 2.88318C8.73255 2.88318 9.34082 3.12491 9.82402 3.60838C10.3075 4.09158 10.5492 4.69985 10.5492 5.43318C10.5492 6.16651 10.3075 6.77491 9.82402 7.25838C9.34082 7.74158 8.73255 7.98318 7.99922 7.98318ZM12.216 13.3332H3.78242C3.47148 13.3332 3.20762 13.2249 2.99082 13.0084C2.77428 12.7916 2.66602 12.5277 2.66602 12.2168V11.6668C2.66602 11.2556 2.76868 10.8972 2.97402 10.5916C3.17962 10.286 3.44908 10.0554 3.78242 9.89998C4.50482 9.56665 5.21322 9.31385 5.90762 9.14158C6.60202 8.96931 7.29922 8.88318 7.99922 8.88318C8.69922 8.88318 9.39362 8.96931 10.0824 9.14158C10.7715 9.31385 11.4827 9.56665 12.216 9.89998C12.5493 10.0666 12.8187 10.3 13.024 10.6C13.2296 10.9 13.3324 11.2556 13.3324 11.6668V12.2168C13.3324 12.5277 13.2241 12.7916 13.0076 13.0084C12.7908 13.2249 12.5269 13.3332 12.216 13.3332ZM3.78242 12.2168H12.216V11.6668C12.216 11.511 12.1715 11.361 12.0824 11.2168C11.9936 11.0722 11.8826 10.9666 11.7492 10.9C11.0714 10.5666 10.4352 10.3333 9.84082 10.2C9.24642 10.0666 8.63255 9.99998 7.99922 9.99998C7.36588 9.99998 6.74922 10.0666 6.14922 10.2C5.54922 10.3333 4.91588 10.5666 4.24922 10.9C4.10468 10.9666 3.99082 11.0722 3.90762 11.2168C3.82415 11.361 3.78242 11.511 3.78242 11.6668V12.2168ZM7.99922 6.88318C8.41042 6.88318 8.75482 6.74438 9.03242 6.46678C9.31028 6.18891 9.44922 5.84438 9.44922 5.43318C9.44922 5.02225 9.31028 4.67785 9.03242 4.39998C8.75482 4.12211 8.41042 3.98318 7.99922 3.98318C7.58802 3.98318 7.24362 4.12211 6.96602 4.39998C6.68815 4.67785 6.54922 5.02225 6.54922 5.43318C6.54922 5.84438 6.68815 6.18891 6.96602 6.46678C7.24362 6.74438 7.58802 6.88318 7.99922 6.88318Z" fill="#4A4A5B"/>
</g>
</svg>
