<svg width="16" height="16" viewBox="0 0 16 16" fill="none" xmlns="http://www.w3.org/2000/svg">
<path d="M6.77777 6.83334C6.29154 6.83334 5.82523 7.01772 5.48141 7.34591C5.1376 7.67409 4.94444 8.11921 4.94444 8.58334C4.94444 9.04747 5.1376 9.49259 5.48141 9.82078C5.82523 10.149 6.29154 10.3333 6.77777 10.3333H9.22221C9.70844 10.3333 10.1748 10.149 10.5186 9.82078C10.8624 9.49259 11.0555 9.04747 11.0555 8.58334C11.0555 8.11921 10.8624 7.67409 10.5186 7.34591C10.1748 7.01772 9.70844 6.83334 9.22221 6.83334H6.77777ZM9.83332 8.58334C9.83332 8.73805 9.76894 8.88643 9.65433 8.99582C9.53973 9.10522 9.38429 9.16668 9.22221 9.16668H6.77777C6.6157 9.16668 6.46026 9.10522 6.34565 8.99582C6.23105 8.88643 6.16666 8.73805 6.16666 8.58334C6.16666 8.42863 6.23105 8.28026 6.34565 8.17086C6.46026 8.06147 6.6157 8.00001 6.77777 8.00001H9.22221C9.38429 8.00001 9.53973 8.06147 9.65433 8.17086C9.76894 8.28026 9.83332 8.42863 9.83332 8.58334ZM11.0555 12.0833C11.0555 12.2381 10.9912 12.3864 10.8766 12.4958C10.762 12.6052 10.6065 12.6667 10.4444 12.6667H5.55555C5.39348 12.6667 5.23804 12.6052 5.12343 12.4958C5.00883 12.3864 4.94444 12.2381 4.94444 12.0833C4.94444 11.9286 5.00883 11.7803 5.12343 11.6709C5.23804 11.5615 5.39348 11.5 5.55555 11.5H10.4444C10.6065 11.5 10.762 11.5615 10.8766 11.6709C10.9912 11.7803 11.0555 11.9286 11.0555 12.0833ZM12.6053 2.82059L11.5921 1.85459C11.3091 1.58291 10.9724 1.36749 10.6016 1.2208C10.2308 1.07411 9.83321 0.999068 9.43183 1.00001H5.55555C4.74547 1.00093 3.96884 1.30852 3.39602 1.8553C2.82321 2.40208 2.50097 3.14341 2.5 3.91668V12.0833C2.50097 12.8566 2.82321 13.5979 3.39602 14.1447C3.96884 14.6915 4.74547 14.9991 5.55555 15H10.4444C11.2545 14.9991 12.0311 14.6915 12.604 14.1447C13.1768 13.5979 13.499 12.8566 13.5 12.0833V4.88326C13.5011 4.50006 13.4227 4.12045 13.2691 3.76639C13.1155 3.41234 12.8899 3.09087 12.6053 2.82059ZM11.7412 3.64543C11.8272 3.72851 11.9046 3.81935 11.9722 3.91668H10.4444V2.45834C10.5466 2.52223 10.6416 2.59592 10.728 2.67826L11.7412 3.64543ZM12.2778 12.0833C12.2778 12.5475 12.0846 12.9926 11.7408 13.3208C11.397 13.649 10.9307 13.8333 10.4444 13.8333H5.55555C5.06932 13.8333 4.60301 13.649 4.25919 13.3208C3.91537 12.9926 3.72222 12.5475 3.72222 12.0833V3.91668C3.72222 3.45255 3.91537 3.00743 4.25919 2.67924C4.60301 2.35105 5.06932 2.16668 5.55555 2.16668H9.22221V3.91668C9.22221 4.22609 9.35098 4.52284 9.58019 4.74163C9.80941 4.96043 10.1203 5.08334 10.4444 5.08334H12.2778V12.0833Z" fill="#363C90"/>
</svg>
