<svg width="32" height="32" viewBox="0 0 32 32" fill="none" xmlns="http://www.w3.org/2000/svg">
<path d="M28.8098 29.1776H9.33466C8.96661 29.1776 8.66797 28.88 8.66797 28.5117C8.66797 22.5417 13.335 17.6846 19.0712 17.6846C24.8079 17.6846 29.4755 22.5417 29.4755 28.5117C29.4762 28.88 29.1782 29.1776 28.8098 29.1776ZM10.0232 27.8458H28.1207C27.7935 22.9196 23.8589 19.0161 19.0711 19.0161C14.2833 19.0168 10.3506 22.9197 10.0232 27.8458Z" fill="#363C90"/>
<path d="M31.3297 31.9611H7.03C6.66193 31.9611 6.36328 31.6635 6.36328 31.2952C6.36328 30.9269 6.66193 30.6293 7.03 30.6293L31.3297 30.6295C31.6985 30.6295 31.9964 30.9271 31.9964 31.2954C31.9964 31.6635 31.6985 31.9611 31.3297 31.9611V31.9611Z" fill="#363C90"/>
<path d="M21.8547 19.0166C21.486 19.0166 21.188 18.719 21.188 18.3508C21.188 17.1144 20.2354 16.1077 19.0647 16.1077C17.8947 16.1077 16.9428 17.1137 16.9428 18.3508C16.9428 18.719 16.6448 19.0166 16.2761 19.0166C15.908 19.0166 15.6094 18.719 15.6094 18.3508C15.6094 16.3799 17.1593 14.7761 19.0645 14.7761C20.9697 14.7761 22.5209 16.38 22.5209 18.3508C22.5211 18.7184 22.2232 19.0166 21.8547 19.0166Z" fill="#363C90"/>
<path d="M22.1667 13.5086C21.798 13.5086 21.5 13.2103 21.5 12.8427V8.73058C21.5 8.36297 21.798 8.0647 22.1667 8.0647C22.5354 8.0647 22.8334 8.36297 22.8334 8.73058V12.8427C22.8332 13.2101 22.5352 13.5086 22.1667 13.5086Z" fill="#363C90"/>
<path d="M19.069 13.5085C18.7003 13.5085 18.4023 13.2102 18.4023 12.8426V7.23509C18.4023 6.86749 18.7003 6.56921 19.069 6.56921C19.4378 6.56921 19.7357 6.86749 19.7357 7.23509V12.8426C19.7355 13.21 19.4375 13.5085 19.069 13.5085Z" fill="#363C90"/>
<path d="M15.9753 13.5086C15.6072 13.5086 15.3086 13.2103 15.3086 12.8427V8.73058C15.3086 8.36297 15.6072 8.0647 15.9753 8.0647C16.344 8.0647 16.642 8.36297 16.642 8.73058V12.8427C16.642 13.2101 16.344 13.5086 15.9753 13.5086Z" fill="#363C90"/>
<path d="M6.45551 12.8327C2.89572 12.8327 0 9.95444 0 6.41639C0 2.87902 2.89578 0.00012207 6.45551 0.00012207C10.0152 0.00012207 12.911 2.87834 12.911 6.41639C12.911 9.95444 10.0152 12.8327 6.45551 12.8327ZM6.45551 1.33154C3.63092 1.33154 1.33316 3.61276 1.33316 6.4165C1.33316 9.22024 3.63098 11.5012 6.45551 11.5012C9.2801 11.5012 11.5779 9.22024 11.5779 6.4165C11.5776 3.61276 9.27981 1.33154 6.45551 1.33154Z" fill="#363C90"/>
<path d="M8.23551 7.44095H6.45575C6.0877 7.44095 5.78906 7.14267 5.78906 6.77507V2.45677C5.78906 2.08917 6.0877 1.79089 6.45575 1.79089C6.82381 1.79089 7.12245 2.08917 7.12245 2.45677V6.10942H8.23573C8.60379 6.10942 8.90243 6.40769 8.90243 6.7753C8.9022 7.14268 8.60356 7.44095 8.23551 7.44095Z" fill="#363C90"/>
</svg>
