<svg width="21" height="20" viewBox="0 0 21 20" fill="none" xmlns="http://www.w3.org/2000/svg">
<path d="M14.167 16.9094L14.2969 17.4153C14.3348 17.5631 14.4691 17.6666 14.6229 17.6666H16.5459C16.6997 17.6666 16.834 17.5631 16.8719 17.4153L17.0018 16.9094C17.1567 16.876 17.2671 16.7403 17.267 16.5833V16.2083C17.2545 15.9976 17.1832 15.7943 17.0609 15.6214C16.9386 15.4485 16.7702 15.3127 16.5744 15.229C16.812 14.9735 16.9395 14.6363 16.93 14.2891C16.9204 13.942 16.7744 13.6122 16.5231 13.3701C16.2719 13.1278 15.9351 12.9923 15.5844 12.9923C15.2338 12.9923 14.897 13.1278 14.6458 13.3701C14.3944 13.6122 14.2484 13.942 14.2388 14.2891C14.2293 14.6363 14.3569 14.9735 14.5944 15.229C14.3987 15.3126 14.2302 15.4485 14.108 15.6214C13.9857 15.7944 13.9143 15.9976 13.9019 16.2083V16.5833C13.9017 16.7403 14.0121 16.876 14.167 16.9094H14.167ZM14.9113 14.3333C14.9113 14.1566 14.9823 13.9869 15.1084 13.8619C15.2346 13.7369 15.4059 13.6667 15.5844 13.6667C15.7629 13.6667 15.9341 13.7369 16.0603 13.8619C16.1865 13.9869 16.2574 14.1566 16.2574 14.3333C16.2574 14.5101 16.1865 14.6798 16.0603 14.8048C15.9341 14.9298 15.7629 15 15.5844 15C15.4059 15 15.2346 14.9298 15.1084 14.8048C14.9823 14.6798 14.9113 14.5101 14.9113 14.3333ZM14.5748 16.2083C14.5748 15.9527 15.0066 15.6667 15.5844 15.6667C16.1622 15.6667 16.5939 15.9527 16.5939 16.2083V16.2823C16.5034 16.3249 16.4366 16.4051 16.4119 16.5013L16.284 17.0013H14.8847L14.7569 16.5013C14.7321 16.4051 14.6654 16.3249 14.5748 16.2823L14.5748 16.2083Z" fill="#4A49CB"/>
<path d="M0.368691 5.31294L1.17634 5.49062C1.26948 5.89599 1.43068 6.28288 1.65316 6.63526L1.20999 7.3247C1.12526 7.45639 1.14434 7.62886 1.25581 7.73928L1.71402 8.1933C1.82564 8.30386 1.99961 8.32291 2.13272 8.23898L2.82903 7.80001C3.18463 8.02114 3.57522 8.18127 3.98462 8.27395L4.164 9.07231C4.1981 9.22483 4.33466 9.33332 4.49241 9.33332H5.14053C5.29827 9.33332 5.43483 9.22483 5.46893 9.07231L5.64831 8.27395C6.05771 8.18124 6.44831 8.02113 6.8039 7.80001L7.50021 8.23898C7.63331 8.32291 7.80729 8.30386 7.91892 8.1933L8.37728 7.73928H8.37713C8.4886 7.62887 8.50768 7.4564 8.42295 7.3247L7.97978 6.63526C8.20272 6.28303 8.36437 5.89599 8.45798 5.49062L9.26398 5.31294C9.41797 5.27916 9.52779 5.1439 9.52779 4.98765V4.34567C9.52779 4.18942 9.41827 4.05416 9.26428 4.02038L8.45828 3.8427C8.36469 3.43718 8.20289 3.05029 7.97981 2.69806L8.42271 2.00835C8.50744 1.87666 8.48836 1.70419 8.37689 1.59361L7.91899 1.13975C7.80737 1.02934 7.63325 1.01044 7.50028 1.09437L6.80398 1.53333C6.44838 1.3125 6.05763 1.15238 5.64839 1.05966L5.46901 0.261308C5.4349 0.10878 5.29834 0 5.1406 0H4.49248C4.33474 0 4.19818 0.108483 4.16407 0.261011L3.98469 1.061C3.57545 1.15326 3.18485 1.31294 2.8291 1.5333L2.1328 1.09434C1.99984 1.01041 1.82572 1.02931 1.71409 1.13972L1.25588 1.59358C1.14441 1.70415 1.12533 1.87662 1.21006 2.00832L1.65323 2.69803C1.43029 3.05026 1.26864 3.4373 1.17503 3.84267L0.369033 4.02034C0.215045 4.05412 0.105225 4.18939 0.105225 4.34564V4.98762C0.105225 5.14387 0.214745 5.27913 0.368733 5.31291L0.368691 5.31294ZM0.778207 4.61295L1.5354 4.44628C1.66985 4.41667 1.77246 4.30893 1.79455 4.17441C1.86936 3.71327 2.05219 3.27591 2.32817 2.89736C2.4087 2.78665 2.4129 2.63873 2.33899 2.5237L1.9224 1.87609L1.99916 1.80005L2.65297 2.21269C2.7691 2.2859 2.91843 2.28174 3.03021 2.20198C3.4124 1.92862 3.85393 1.7475 4.31948 1.67341C4.45529 1.65154 4.56406 1.5499 4.59395 1.41672L4.76221 0.666704H4.87053L5.03879 1.41672H5.03894C5.06884 1.5499 5.17761 1.65154 5.31341 1.67341C5.77897 1.74752 6.22052 1.92862 6.60269 2.20198C6.71446 2.28174 6.86379 2.2859 6.97992 2.21269L7.63373 1.80005L7.71005 1.87564L7.29392 2.52371C7.22001 2.63874 7.22421 2.78665 7.30474 2.89737C7.58071 3.27594 7.76356 3.71328 7.83836 4.17442C7.86045 4.30894 7.96305 4.41668 8.09751 4.44629L8.8547 4.61296V4.72025L8.09751 4.88692V4.88706C7.9632 4.91653 7.8606 5.02412 7.83836 5.15864C7.76325 5.61978 7.58056 6.05714 7.30474 6.436C7.22421 6.54671 7.22001 6.69463 7.29392 6.80965L7.71051 7.45727L7.63419 7.53286L6.97992 7.12052V7.12067C6.86394 7.04761 6.71461 7.05177 6.60299 7.13139C6.2208 7.40475 5.77927 7.58571 5.31383 7.65995C5.17787 7.68183 5.0691 7.78346 5.03921 7.91665L4.87095 8.66666H4.76263L4.59437 7.91665C4.56447 7.78346 4.4557 7.68183 4.31975 7.65995C3.8542 7.5857 3.4128 7.40475 3.03047 7.13139C2.91885 7.05178 2.76967 7.04761 2.65369 7.12067L1.99911 7.53332L1.92234 7.45728L2.33863 6.80966C2.41254 6.69464 2.40818 6.54672 2.32781 6.43601C2.05213 6.05714 1.86945 5.61978 1.79449 5.15865C1.77226 5.02413 1.66965 4.91653 1.53534 4.88707L0.778153 4.72041L0.778207 4.61295Z" fill="#4A49CB"/>
<path d="M2.12433 15.3335C2.12433 15.5986 2.23069 15.8531 2.41999 16.0406C2.60928 16.228 2.86619 16.3334 3.13387 16.3334C3.40155 16.3334 3.65849 16.2281 3.84775 16.0406C4.03701 15.8531 4.14341 15.5986 4.14341 15.3335C4.14341 15.0683 4.03705 14.8138 3.84775 14.6264C3.65846 14.4389 3.40155 14.3335 3.13387 14.3335C2.86619 14.3335 2.60924 14.4389 2.41999 14.6264C2.23073 14.8138 2.12433 15.0683 2.12433 15.3335ZM3.47041 15.3335C3.47041 15.4683 3.38838 15.5899 3.26264 15.6414C3.1369 15.693 2.99222 15.6646 2.89592 15.5692C2.79962 15.4738 2.77093 15.3305 2.82306 15.2059C2.87504 15.0814 2.99778 15.0001 3.13389 15.0001C3.22313 15.0001 3.30876 15.0353 3.37186 15.0978C3.43495 15.1603 3.47041 15.2451 3.47041 15.3335Z" fill="#4A49CB"/>
<path d="M20.0331 4.14385L19.6154 4.05189C19.5599 3.84355 19.4762 3.64355 19.3668 3.45726L19.5964 3.09998C19.6811 2.96813 19.662 2.79581 19.5506 2.68524L19.2686 2.40593C19.1569 2.29536 18.9827 2.27646 18.8496 2.36054L18.4888 2.58792C18.3008 2.47959 18.0988 2.3967 17.8885 2.34164L17.7957 1.92797H17.7955C17.7614 1.77559 17.625 1.66711 17.4674 1.66696H17.0684C16.9107 1.66696 16.7741 1.77544 16.7399 1.92797L16.647 2.34164C16.4367 2.3967 16.2348 2.47959 16.0467 2.58792L15.6863 2.36054C15.5533 2.27661 15.3792 2.29551 15.2676 2.40593L14.9856 2.68524C14.8741 2.7958 14.8552 2.96812 14.9399 3.09998L15.1695 3.45726H15.1693C15.06 3.64357 14.9763 3.84358 14.9207 4.05189L14.5031 4.14385C14.4005 4.16751 14.3151 4.2379 14.2729 4.33358H11.1669L11.4912 3.85187L10.9313 3.48194L10.2582 4.48193C10.1828 4.59398 10.1828 4.73981 10.2582 4.85186L10.9313 5.85185L11.4912 5.48192L11.1661 5.00021H14.2729C14.3151 5.09604 14.4006 5.16628 14.5034 5.18994L14.921 5.28191C14.9766 5.49024 15.0603 5.69024 15.1698 5.87653L14.9395 6.23352C14.8547 6.36521 14.8738 6.53768 14.9853 6.64826L15.2673 6.92757C15.3789 7.03798 15.5529 7.05673 15.686 6.97281L16.0467 6.74543V6.74557C16.2348 6.85391 16.4367 6.93679 16.647 6.99185L16.7398 7.40552C16.7637 7.50716 16.8348 7.59168 16.9314 7.6335V8.39642L3.0637 11.3407C2.90836 11.3736 2.79749 11.5095 2.79749 11.6668V12.3668C2.70074 12.4086 2.62983 12.4933 2.60594 12.595L2.51309 13.0087C2.30277 13.0638 2.10085 13.1467 1.91278 13.2551L1.55237 13.027C1.41942 12.9431 1.2453 12.962 1.13367 13.0724L0.851682 13.3517C0.739911 13.4623 0.720832 13.6349 0.805561 13.7668L1.03512 14.124C0.925747 14.3104 0.842071 14.5104 0.786486 14.7187L0.368855 14.8106V14.8108C0.215018 14.8446 0.105497 14.9797 0.105347 15.1358V15.5312V15.531C0.105347 15.6873 0.214868 15.8225 0.368855 15.8565L0.786486 15.9484C0.842071 16.1568 0.925751 16.3568 1.03512 16.543L0.805561 16.9C0.720832 17.0317 0.739911 17.2042 0.851382 17.3148L1.13337 17.5941C1.24499 17.7045 1.41896 17.7233 1.55207 17.6393L1.91278 17.4119V17.4121C2.10087 17.5204 2.3028 17.6033 2.51309 17.6584L2.60594 18.072C2.64019 18.2246 2.77675 18.3331 2.9345 18.3331H3.33367H3.33352C3.49126 18.3331 3.62782 18.2246 3.66208 18.072L3.75492 17.6584C3.96525 17.6033 4.16717 17.5204 4.35523 17.4121L4.71594 17.6395V17.6393C4.84904 17.7233 5.02302 17.7045 5.13465 17.5941L5.41663 17.3148C5.5281 17.2042 5.54718 17.0317 5.46245 16.9L5.2329 16.5428C5.34227 16.3564 5.42594 16.1564 5.48153 15.9481L5.89916 15.8562V15.856C6.00162 15.8324 6.0868 15.7623 6.12902 15.6667H10.8741C10.8797 15.8178 10.987 15.9462 11.1355 15.9797L11.9415 16.1573C12.0359 16.5629 12.1984 16.9499 12.4221 17.302L11.9792 17.9913V17.9914C11.8945 18.1231 11.9136 18.2956 12.025 18.406L12.4834 18.86C12.5949 18.9706 12.7688 18.9896 12.902 18.9057L13.598 18.4667C13.9536 18.6879 14.3442 18.848 14.7536 18.9407L14.933 19.739C14.9671 19.8916 15.1036 20 15.2614 20H15.9095C16.0672 20 16.2038 19.8916 16.2379 19.739L16.4173 18.9407C16.8267 18.848 17.2173 18.6879 17.5729 18.4667L18.2692 18.9057C18.4023 18.9896 18.5763 18.9706 18.6879 18.86L19.1462 18.406H19.1461C19.2576 18.2956 19.2766 18.1231 19.1919 17.9914L18.7487 17.302C18.9717 16.9498 19.1333 16.5627 19.2269 16.1573L20.0329 15.9797C20.1869 15.9459 20.2968 15.8106 20.2968 15.6544V15.0124C20.2968 14.8561 20.1872 14.7209 20.0332 14.6871L19.2272 14.5094C19.1337 14.1039 18.9719 13.717 18.7488 13.3648L19.1917 12.6751C19.2764 12.5434 19.2573 12.3709 19.1459 12.2603L18.6875 11.8063V11.8065C18.576 11.6961 18.4019 11.6772 18.2689 11.7611L17.5729 12.2001C17.2173 11.9792 16.8266 11.8191 16.4173 11.7264L16.2379 10.928C16.2038 10.7755 16.0673 10.6667 15.9095 10.6667H15.2614C15.1037 10.6667 14.9671 10.7752 14.933 10.9277L14.7536 11.7261C14.3442 11.8188 13.9536 11.9791 13.598 12.2L12.9017 11.7613C12.7688 11.6774 12.5946 11.6963 12.483 11.8067L12.0247 12.2607H12.0248C11.9133 12.3711 11.8943 12.5436 11.979 12.6753L12.4222 13.3648C12.1992 13.717 12.0376 14.104 11.944 14.5094L11.138 14.6871C10.9892 14.7205 10.882 14.849 10.8766 15H6.12912C6.08691 14.9042 6.00143 14.8339 5.89867 14.8103L5.48104 14.7183C5.42545 14.51 5.34177 14.31 5.23225 14.1237L5.46181 13.7664C5.54654 13.6346 5.52746 13.4622 5.41599 13.3517L5.134 13.0724C5.02253 12.9619 4.84841 12.943 4.71545 13.027L4.35474 13.2543H4.35459C4.16665 13.146 3.96473 13.0631 3.75428 13.0081L3.66143 12.5944C3.6377 12.4929 3.56694 12.4085 3.47064 12.3667V11.9364L17.3383 8.99277C17.4937 8.95989 17.6045 8.82402 17.6045 8.66673V7.63341C17.7013 7.59159 17.7722 7.50692 17.7961 7.40514L17.8889 6.99147C18.0993 6.93641 18.3012 6.85352 18.4892 6.74504L18.85 6.97242C18.9831 7.05635 19.157 7.03745 19.2687 6.92703L19.5506 6.64772C19.6621 6.53731 19.6812 6.36484 19.5965 6.23313L19.3669 5.87585V5.8757C19.4763 5.68954 19.56 5.48953 19.6155 5.28107L20.0332 5.18911C20.1869 5.15533 20.2964 5.02036 20.2967 4.86441V4.46918C20.2967 4.31293 20.1872 4.17766 20.0332 4.14373L20.0331 4.14385ZM11.547 15.2797L12.3042 15.1131C12.4387 15.0835 12.5413 14.9757 12.5634 14.8412C12.6382 14.3801 12.821 13.9427 13.097 13.5642C13.1775 13.4534 13.1817 13.3055 13.1078 13.1905L12.6912 12.5429L12.7675 12.4673L13.4213 12.8796L13.4215 12.8795C13.5376 12.9527 13.6869 12.9485 13.7987 12.8688C14.1809 12.5954 14.6224 12.4143 15.0879 12.3402C15.2238 12.3183 15.3326 12.2167 15.3625 12.0835L15.5308 11.3335H15.6391L15.8073 12.0835C15.8372 12.2167 15.946 12.3183 16.082 12.3402C16.5475 12.4143 16.9891 12.5954 17.3712 12.8688C17.4828 12.9485 17.6323 12.9527 17.7485 12.8795L18.4026 12.4668L18.4789 12.5424L18.0626 13.19L18.0628 13.1902C17.9888 13.3052 17.9931 13.4531 18.0736 13.5638C18.3496 13.9424 18.5324 14.3798 18.6072 14.8408C18.6293 14.9755 18.7319 15.0832 18.8664 15.1128L19.6235 15.2795V15.3868L18.8664 15.5534C18.732 15.583 18.6294 15.6906 18.6072 15.8251C18.5321 16.2863 18.3494 16.7237 18.0736 17.1025C17.9931 17.2131 17.9888 17.3611 18.0628 17.4762L18.4794 18.1241L18.403 18.1997L17.7488 17.7873V17.7875C17.6328 17.7144 17.4835 17.7186 17.3718 17.7982C16.9896 18.0716 16.5481 18.2525 16.0827 18.3268C15.9467 18.3486 15.8379 18.4503 15.808 18.5835L15.6398 19.3335H15.5315L15.3632 18.5835C15.3333 18.4503 15.2245 18.3486 15.0886 18.3268C14.623 18.2525 14.1816 18.0716 13.7993 17.7982C13.6877 17.7186 13.5385 17.7144 13.4225 17.7875L12.768 18.2001L12.6916 18.1245L13.1079 17.4769L13.1078 17.4768C13.1817 17.3617 13.1775 17.2138 13.097 17.1031C12.8211 16.7244 12.6384 16.2869 12.5633 15.8258C12.5411 15.6914 12.4385 15.5838 12.3042 15.5542L11.547 15.3875L11.547 15.2797ZM4.15781 13.9208C4.26943 14.0003 4.41861 14.0045 4.53474 13.9315L4.57545 13.9059L4.54961 13.9463L4.54946 13.9461C4.47585 14.0611 4.48005 14.2089 4.56028 14.3195C4.71862 14.5369 4.82318 14.7881 4.86585 15.0528C4.88793 15.1875 4.99069 15.2954 5.1253 15.3248L5.17248 15.3351L5.1253 15.3454V15.3455C4.99084 15.375 4.88808 15.4826 4.86585 15.6171C4.82333 15.8818 4.71862 16.133 4.56028 16.3504C4.48006 16.461 4.47585 16.6089 4.54946 16.7238L4.5753 16.7641L4.53459 16.7385H4.53474C4.41861 16.6654 4.26943 16.6696 4.15781 16.7491C3.93832 16.9059 3.68472 17.0095 3.41746 17.0517C3.2815 17.0736 3.17258 17.1756 3.14284 17.3087L3.13247 17.3555L3.12211 17.3087H3.12196C3.09221 17.1756 2.98344 17.0736 2.84748 17.0517C2.58022 17.0095 2.32663 16.9059 2.10714 16.7491C1.99537 16.6696 1.84619 16.6654 1.73021 16.7385L1.6895 16.7641L1.71534 16.7238C1.7891 16.6089 1.78489 16.461 1.70452 16.3504C1.54617 16.133 1.44161 15.8818 1.3991 15.6171C1.37686 15.4826 1.27395 15.375 1.13965 15.3455L1.09578 15.3335L1.14295 15.3232C1.27756 15.2936 1.38032 15.1858 1.4024 15.0512C1.44507 14.7864 1.54963 14.5352 1.70798 14.3178C1.7882 14.2073 1.79241 14.0594 1.71879 13.9445L1.69295 13.9042L1.73367 13.9298H1.73352C1.84964 14.0028 1.99882 13.9986 2.11045 13.9192C2.32994 13.7623 2.58354 13.6588 2.85079 13.6165C2.98675 13.5946 3.09567 13.4927 3.12542 13.3595L3.13578 13.3128L3.14615 13.3595H3.1463C3.17604 13.4927 3.28481 13.5946 3.42077 13.6165C3.68713 13.6597 3.93936 13.764 4.15781 13.9208L4.15781 13.9208ZM19.2593 4.6771C19.1248 4.70657 19.0221 4.81416 18.9998 4.94883C18.9573 5.21356 18.8526 5.46475 18.6943 5.68215C18.614 5.79272 18.6098 5.94048 18.6834 6.05551L18.7093 6.09584L18.6686 6.07024L18.6687 6.0701C18.5526 5.99718 18.4034 6.00135 18.2918 6.08081C18.0723 6.23765 17.8187 6.34122 17.5514 6.38349C17.4155 6.40536 17.3066 6.50714 17.2768 6.64048L17.2664 6.6872L17.2561 6.64048H17.2559C17.2262 6.50714 17.1174 6.40536 16.9815 6.38349C16.7142 6.34122 16.4606 6.23765 16.2411 6.08081C16.1293 6.00135 15.9802 5.99718 15.8642 6.0701L15.8235 6.09569L15.8493 6.05536V6.05551C15.9231 5.94048 15.9189 5.79272 15.8385 5.68215C15.6801 5.46474 15.5756 5.21355 15.5331 4.94883C15.5108 4.81415 15.4079 4.70657 15.2736 4.6771L15.2298 4.66684L15.2769 4.65657C15.4115 4.62695 15.5143 4.51922 15.5364 4.38455C15.579 4.11982 15.6836 3.86863 15.8419 3.65122C15.9222 3.54066 15.9264 3.39274 15.8528 3.27786L15.8269 3.23753L15.8676 3.26313H15.8675C15.9836 3.3362 16.1328 3.33203 16.2444 3.25256C16.4639 3.09572 16.7175 2.99215 16.9848 2.94989C17.1207 2.92801 17.2296 2.82608 17.2594 2.6929L17.2681 2.64781L17.2785 2.69454C17.3084 2.82787 17.4171 2.92965 17.5531 2.95153C17.8204 2.99379 18.0739 3.09736 18.2934 3.2542C18.4051 3.33366 18.5544 3.33783 18.6704 3.26492L18.7111 3.23932L18.6852 3.27965V3.2795C18.6115 3.39453 18.6157 3.54229 18.6959 3.65286C18.8543 3.87027 18.9588 4.12146 19.0015 4.38619C19.0236 4.52086 19.1265 4.62874 19.2609 4.65821L19.3081 4.66847L19.2593 4.6771Z" fill="#4A49CB"/>
<path d="M17.2675 3.66693C16.9998 3.66693 16.7429 3.77229 16.5537 3.95979C16.3644 4.14728 16.258 4.40176 16.258 4.6669C16.258 4.93204 16.3644 5.18655 16.5537 5.37402C16.7429 5.56148 16.9999 5.66687 17.2675 5.66687C17.5352 5.66687 17.7922 5.56152 17.9814 5.37402C18.1707 5.18652 18.2771 4.93204 18.2771 4.6669C18.2771 4.40176 18.1707 4.14725 17.9814 3.95979C17.7921 3.77232 17.5352 3.66693 17.2675 3.66693V3.66693ZM17.2675 5.00025C17.1314 5.00025 17.0087 4.919 16.9567 4.79445C16.9046 4.6699 16.9333 4.5266 17.0296 4.43121C17.1259 4.33582 17.2705 4.3074 17.3963 4.35904C17.522 4.41053 17.6041 4.5321 17.6041 4.66692C17.6041 4.75531 17.5686 4.84013 17.5055 4.90263C17.4424 4.96513 17.3568 5.00025 17.2675 5.00025Z" fill="#4A49CB"/>
<path d="M3.61569 4.90651L3.44442 5.94654V5.94639C3.42354 6.07243 3.47733 6.19907 3.58279 6.27258C3.6881 6.34609 3.82661 6.35353 3.93944 6.29178L4.81635 5.81171L5.69327 6.29178C5.80609 6.35353 5.9446 6.34609 6.04991 6.27258C6.15538 6.19907 6.20916 6.07243 6.18828 5.94639L6.01702 4.90637L6.73994 4.17304V4.17319C6.82798 4.08375 6.85817 3.95295 6.81821 3.8345C6.7781 3.7159 6.67444 3.62959 6.54974 3.61084L5.56484 3.46189L5.1209 2.52513C5.06546 2.40817 4.94678 2.33362 4.81638 2.33362C4.68597 2.33362 4.56729 2.40817 4.51186 2.52513L4.06792 3.46143L3.08301 3.61039C2.95832 3.62929 2.85466 3.71559 2.81455 3.83405C2.77458 3.95265 2.80478 4.0833 2.89282 4.17273L3.61569 4.90651ZM4.3473 4.09387L4.34715 4.09373C4.45817 4.07691 4.55327 4.00637 4.60089 3.90578L4.81633 3.45146L5.03176 3.90578C5.07939 4.00637 5.17448 4.07691 5.28551 4.09373L5.80067 4.1717L5.41668 4.56141C5.34216 4.63716 5.30836 4.7434 5.32549 4.84772L5.41262 5.37644L4.97918 5.13909C4.87793 5.08358 4.75474 5.08358 4.65348 5.13909L4.22004 5.37644L4.30717 4.84772C4.3243 4.7434 4.2905 4.63716 4.21598 4.56141L3.83199 4.1717L4.3473 4.09387Z" fill="#4A49CB"/>
</svg>
