<svg width="16" height="16" viewBox="0 0 16 16" fill="none" xmlns="http://www.w3.org/2000/svg">
<path d="M14.4167 13.8333H2.75C2.59529 13.8333 2.44692 13.7719 2.33752 13.6625C2.22812 13.5531 2.16667 13.4047 2.16667 13.25V1.58333C2.16667 1.42862 2.10521 1.28025 1.99581 1.17085C1.88642 1.06146 1.73804 1 1.58333 1C1.42862 1 1.28025 1.06146 1.17085 1.17085C1.06146 1.28025 1 1.42862 1 1.58333L1 13.25C1 13.7141 1.18437 14.1592 1.51256 14.4874C1.84075 14.8156 2.28587 15 2.75 15H14.4167C14.5714 15 14.7197 14.9385 14.8291 14.8291C14.9385 14.7197 15 14.5714 15 14.4167C15 14.262 14.9385 14.1136 14.8291 14.0042C14.7197 13.8948 14.5714 13.8333 14.4167 13.8333Z" fill="#667085"/>
<path d="M9.75033 12.6667C9.90504 12.6667 10.0534 12.6053 10.1628 12.4959C10.2722 12.3865 10.3337 12.2381 10.3337 12.0834V8.00008C10.3337 7.84537 10.2722 7.697 10.1628 7.5876C10.0534 7.47821 9.90504 7.41675 9.75033 7.41675C9.59562 7.41675 9.44724 7.47821 9.33785 7.5876C9.22845 7.697 9.16699 7.84537 9.16699 8.00008V12.0834C9.16699 12.2381 9.22845 12.3865 9.33785 12.4959C9.44724 12.6053 9.59562 12.6667 9.75033 12.6667Z" fill="#667085"/>
<path d="M5.08333 12.6667C5.23804 12.6667 5.38642 12.6053 5.49581 12.4959C5.60521 12.3865 5.66667 12.2381 5.66667 12.0834V8.00008C5.66667 7.84537 5.60521 7.697 5.49581 7.5876C5.38642 7.47821 5.23804 7.41675 5.08333 7.41675C4.92862 7.41675 4.78025 7.47821 4.67085 7.5876C4.56146 7.697 4.5 7.84537 4.5 8.00008V12.0834C4.5 12.2381 4.56146 12.3865 4.67085 12.4959C4.78025 12.6053 4.92862 12.6667 5.08333 12.6667Z" fill="#667085"/>
<path d="M12.0833 12.6667C12.238 12.6667 12.3864 12.6052 12.4958 12.4958C12.6052 12.3864 12.6667 12.238 12.6667 12.0833V5.08333C12.6667 4.92862 12.6052 4.78025 12.4958 4.67085C12.3864 4.56146 12.238 4.5 12.0833 4.5C11.9286 4.5 11.7803 4.56146 11.6709 4.67085C11.5615 4.78025 11.5 4.92862 11.5 5.08333V12.0833C11.5 12.238 11.5615 12.3864 11.6709 12.4958C11.7803 12.6052 11.9286 12.6667 12.0833 12.6667Z" fill="#667085"/>
<path d="M7.41634 12.6667C7.57105 12.6667 7.71942 12.6052 7.82882 12.4958C7.93822 12.3864 7.99967 12.238 7.99967 12.0833V5.08333C7.99967 4.92862 7.93822 4.78025 7.82882 4.67085C7.71942 4.56146 7.57105 4.5 7.41634 4.5C7.26163 4.5 7.11326 4.56146 7.00386 4.67085C6.89447 4.78025 6.83301 4.92862 6.83301 5.08333V12.0833C6.83301 12.238 6.89447 12.3864 7.00386 12.4958C7.11326 12.6052 7.26163 12.6667 7.41634 12.6667Z" fill="#667085"/>
</svg>
