<svg width="33" height="40" viewBox="0 0 33 40" fill="none" xmlns="http://www.w3.org/2000/svg">
<path d="M6.03859 40H12.4129C12.7688 40 13.0583 39.7111 13.0583 39.3545C13.0583 38.998 12.7694 38.7091 12.4129 38.7091L6.03859 38.7094C3.41986 38.7094 1.29002 36.5792 1.29002 33.9608V6.03857C1.29002 3.42048 3.41986 1.29 6.03859 1.29H26.2188C28.8375 1.29 30.9673 3.42016 30.9673 6.03857V20.206C30.9673 20.5626 31.2563 20.8515 31.6128 20.8515C31.9687 20.8515 32.2582 20.5626 32.2582 20.206L32.2579 6.03857C32.2573 2.70897 29.549 0 26.2187 0H6.03857C2.70833 0 0 2.70897 0 6.03857V33.9608C0 37.2907 2.70833 39.9997 6.03857 39.9997L6.03859 40Z" fill="#363C90"/>
<path d="M6.03859 40H12.4129C12.7688 40 13.0583 39.7111 13.0583 39.3545C13.0583 38.998 12.7694 38.7091 12.4129 38.7091L6.03859 38.7094C3.41986 38.7094 1.29002 36.5792 1.29002 33.9608V6.03857C1.29002 3.42048 3.41986 1.29 6.03859 1.29H26.2188C28.8375 1.29 30.9673 3.42016 30.9673 6.03857V20.206C30.9673 20.5626 31.2563 20.8515 31.6128 20.8515C31.9687 20.8515 32.2582 20.5626 32.2582 20.206L32.2579 6.03857C32.2573 2.70897 29.549 0 26.2187 0H6.03857C2.70833 0 0 2.70897 0 6.03857V33.9608C0 37.2907 2.70833 39.9997 6.03857 39.9997L6.03859 40Z" stroke="black"/>
<path d="M24.5077 16.1276C24.5077 15.7711 24.2187 15.4822 23.8622 15.4822L8.37886 15.4825C8.02295 15.4825 7.7334 15.7714 7.7334 16.128C7.7334 16.4845 8.02234 16.7734 8.37886 16.7734L23.863 16.7731C24.2189 16.7731 24.5078 16.4842 24.5078 16.1276H24.5077Z" fill="#363C90"/>
<path d="M24.5077 16.1276C24.5077 15.7711 24.2187 15.4822 23.8622 15.4822L8.37886 15.4825C8.02295 15.4825 7.7334 15.7714 7.7334 16.128C7.7334 16.4845 8.02234 16.7734 8.37886 16.7734L23.863 16.7731C24.2189 16.7731 24.5078 16.4842 24.5078 16.1276H24.5077Z" stroke="black"/>
<path d="M11.5873 23.8967C11.5873 23.5402 11.2984 23.2512 10.9418 23.2512H8.38667C8.03077 23.2512 7.74121 23.5402 7.74121 23.8967C7.74121 24.2532 8.03015 24.5421 8.38667 24.5421H10.9418C11.2984 24.5415 11.5873 24.2532 11.5873 23.8967Z" fill="#363C90"/>
<path d="M11.5873 23.8967C11.5873 23.5402 11.2984 23.2512 10.9418 23.2512H8.38667C8.03077 23.2512 7.74121 23.5402 7.74121 23.8967C7.74121 24.2532 8.03015 24.5421 8.38667 24.5421H10.9418C11.2984 24.5415 11.5873 24.2532 11.5873 23.8967Z" stroke="black"/>
<path d="M8.37886 9.01095H23.863C24.2189 9.01095 24.5085 8.72202 24.5085 8.36549C24.5085 8.00897 24.2195 7.72003 23.863 7.72003L8.37886 7.72034C8.02295 7.72034 7.7334 8.00928 7.7334 8.3658C7.73371 8.72202 8.02264 9.01095 8.37886 9.01095V9.01095Z" fill="#363C90"/>
<path d="M8.37886 9.01095H23.863C24.2189 9.01095 24.5085 8.72202 24.5085 8.36549C24.5085 8.00897 24.2195 7.72003 23.863 7.72003L8.37886 7.72034C8.02295 7.72034 7.7334 8.00928 7.7334 8.3658C7.73371 8.72202 8.02264 9.01095 8.37886 9.01095V9.01095Z" stroke="black"/>
<path d="M8.38667 31.0198C8.03077 31.0198 7.74121 31.3087 7.74121 31.6652C7.74121 32.0218 8.03015 32.3107 8.38667 32.3107H9.23858C9.59448 32.3107 9.88404 32.0218 9.88404 31.6652C9.88404 31.3087 9.5951 31.0198 9.23858 31.0198H8.38667Z" fill="#363C90"/>
<path d="M8.38667 31.0198C8.03077 31.0198 7.74121 31.3087 7.74121 31.6652C7.74121 32.0218 8.03015 32.3107 8.38667 32.3107H9.23858C9.59448 32.3107 9.88404 32.0218 9.88404 31.6652C9.88404 31.3087 9.5951 31.0198 9.23858 31.0198H8.38667Z" stroke="black"/>
<path d="M22.7989 37.8571C24.5843 37.8571 26.2203 37.2126 27.4917 36.1464L31.1559 39.8109C31.282 39.9364 31.447 39.9997 31.6122 39.9997C31.7771 39.9997 31.9424 39.9364 32.0683 39.8109C32.3203 39.5588 32.3203 39.1505 32.0683 38.8985L28.4041 35.2341C29.4703 33.9624 30.1148 32.3264 30.1148 30.5413C30.1148 26.5076 26.8329 23.2254 22.7993 23.2254C18.7656 23.2254 15.4834 26.5073 15.4834 30.5413C15.4834 34.5752 18.7653 37.8571 22.7989 37.8571ZM22.7989 24.5159C26.1211 24.5159 28.8242 27.219 28.8242 30.5411C28.8242 33.8633 26.1214 36.5664 22.7989 36.5664C19.4762 36.5664 16.7731 33.8633 16.7731 30.5411C16.7737 27.219 19.4767 24.5159 22.7989 24.5159Z" fill="#363C90"/>
<path d="M22.7989 37.8571C24.5843 37.8571 26.2203 37.2126 27.4917 36.1464L31.1559 39.8109C31.282 39.9364 31.447 39.9997 31.6122 39.9997C31.7771 39.9997 31.9424 39.9364 32.0683 39.8109C32.3203 39.5588 32.3203 39.1505 32.0683 38.8985L28.4041 35.2341C29.4703 33.9624 30.1148 32.3264 30.1148 30.5413C30.1148 26.5076 26.8329 23.2254 22.7993 23.2254C18.7656 23.2254 15.4834 26.5073 15.4834 30.5413C15.4834 34.5752 18.7653 37.8571 22.7989 37.8571ZM22.7989 24.5159C26.1211 24.5159 28.8242 27.219 28.8242 30.5411C28.8242 33.8633 26.1214 36.5664 22.7989 36.5664C19.4762 36.5664 16.7731 33.8633 16.7731 30.5411C16.7737 27.219 19.4767 24.5159 22.7989 24.5159Z" stroke="black"/>
</svg>
