<svg width="28" height="20" viewBox="0 0 28 20" fill="none" xmlns="http://www.w3.org/2000/svg">
<path d="M4.28553 5.23438H0.476169C0.213215 5.23438 0 5.44759 0 5.71054V17.1386C0 17.2649 0.0501681 17.386 0.13945 17.4753C0.228731 17.5646 0.3499 17.6148 0.476169 17.6148H4.28553C4.41179 17.6148 4.53297 17.5646 4.62225 17.4753C4.71153 17.386 4.76169 17.2649 4.76169 17.1386V5.71054C4.76169 5.58428 4.71153 5.46311 4.62225 5.37382C4.53296 5.28454 4.41179 5.23438 4.28553 5.23438ZM3.80936 16.6624H0.952339V6.18671H3.80936V16.6624Z" fill="#363C90"/>
<path d="M10.952 2.375H7.14267C6.87972 2.375 6.6665 2.58822 6.6665 2.85117V17.1362C6.6665 17.2625 6.71667 17.3837 6.80595 17.473C6.89524 17.5623 7.0164 17.6124 7.14267 17.6124H10.952C11.0783 17.6124 11.1995 17.5623 11.2887 17.473C11.378 17.3837 11.4282 17.2625 11.4282 17.1362V2.85117C11.4282 2.7249 11.378 2.60373 11.2887 2.51445C11.1995 2.42517 11.0783 2.375 10.952 2.375ZM10.4759 16.6601H7.61884V3.32734H10.4759V16.6601Z" fill="#363C90"/>
<path d="M18.0942 9.50585V7.60117C18.0942 7.4749 18.044 7.35373 17.9548 7.26445C17.8655 7.17517 17.7443 7.125 17.618 7.125H13.8087C13.5457 7.125 13.3325 7.33822 13.3325 7.60117V17.1246C13.3325 17.2508 13.3827 17.372 13.472 17.4613C13.5613 17.5506 13.6824 17.6007 13.8087 17.6007H16.7848V16.6484H14.2849V8.07734H17.1419V9.50585H18.0942Z" fill="#363C90"/>
<path d="M20.9514 0.952339H23.8084V8.85675H24.7607V0.476169C24.7607 0.3499 24.7106 0.22873 24.6213 0.13945C24.532 0.0501692 24.4108 0 24.2845 0H20.4752C20.2122 0 19.999 0.213215 19.999 0.476169V8.17596H20.9514V0.952339Z" fill="#363C90"/>
<path d="M22.8559 10.4766C21.593 10.4766 20.382 10.9782 19.489 11.8713C18.5959 12.7643 18.0942 13.9753 18.0942 15.2383C18.0942 16.5012 18.5959 17.7122 19.489 18.6052C20.382 19.4983 21.593 20 22.8559 20C24.1188 20 25.3299 19.4983 26.2229 18.6052C27.1159 17.7122 27.6176 16.5012 27.6176 15.2383C27.6176 13.9753 27.1159 12.7643 26.2229 11.8713C25.3299 10.9783 24.1188 10.4766 22.8559 10.4766ZM22.8559 19.0476C21.8456 19.0476 20.8766 18.6463 20.1624 17.9318C19.4479 17.2175 19.0466 16.2486 19.0466 15.2383C19.0466 14.2279 19.4479 13.259 20.1624 12.5447C20.8766 11.8302 21.8456 11.4289 22.8559 11.4289C23.8663 11.4289 24.8352 11.8302 25.5495 12.5447C26.2639 13.259 26.6653 14.2279 26.6653 15.2383C26.6653 16.2486 26.2639 17.2175 25.5495 17.9318C24.8352 18.6463 23.8663 19.0476 22.8559 19.0476Z" fill="#363C90"/>
<path d="M23.3322 12.375H22.3799V15.232C22.3793 15.3585 22.4288 15.4803 22.5181 15.57L24.4227 17.4747L25.0941 16.8034L23.3322 15.0369L23.3322 12.375Z" fill="#363C90"/>
</svg>
