<svg width="32" height="33" viewBox="0 0 32 33" fill="none" xmlns="http://www.w3.org/2000/svg">
<path d="M17.6052 20.3517C18.1504 18.3136 17.1728 17.2244 17.1311 17.1793C17.0186 17.0566 16.8315 17.0097 16.6623 17.0595L16.5236 17.0997C16.5761 16.8542 16.6164 16.5716 16.608 16.3034C16.5746 15.2669 16.0563 14.1996 16.0339 14.155C15.9542 13.9927 15.7579 13.9014 15.5577 13.9358C15.5323 13.9403 15.3673 13.9695 15.1716 14.0287C15.1987 13.7328 15.1966 13.3822 15.1238 13.006C14.9517 12.1177 14.3188 11.3762 14.2922 11.3449C14.1749 11.2077 13.9664 11.1602 13.7864 11.2244C13.7444 11.2398 13.4427 11.3514 13.1566 11.5035C13.1109 11.1252 12.9957 10.6408 12.7475 10.0433C12.544 9.55391 12.0812 9.11718 12.029 9.06889C11.9478 8.99428 11.8356 8.95201 11.718 8.95201C11.6751 8.95201 11.3012 8.95854 10.9058 9.17482C10.7521 8.84087 10.5045 8.38377 10.1285 7.88759C9.68182 7.29798 8.62048 6.62174 8.57541 6.59303C8.39876 6.4798 8.15319 6.50327 8.00549 6.64573C7.98968 6.6619 7.87778 6.77357 7.72471 6.98906C7.57194 6.72686 7.36635 6.45371 7.09422 6.22727C6.16383 5.45372 5.41493 5.23819 5.38354 5.22938C5.23345 5.18763 5.06844 5.22051 4.95625 5.31704C4.90373 5.36087 4.43944 5.76421 4.33262 6.23825C4.33053 6.24765 4.32844 6.2573 4.32665 6.26591C3.96112 6.07024 3.46432 5.86256 2.87324 5.76395C1.57405 5.54637 0.259969 6.24086 0.204207 6.27008C0.00488328 6.37757 -0.0592671 6.60455 0.0597894 6.77987C0.118571 6.86597 0.644622 7.63376 1.06535 7.99249C1.32166 8.21033 1.5911 8.38696 1.83998 8.52654C1.22053 8.81796 0.967799 9.2518 0.938543 9.30449C0.897067 9.38041 0.886027 9.46599 0.906317 9.54764C0.923326 9.61417 1.10295 10.2169 2.19955 10.7989C2.56597 10.9932 2.9482 11.1093 3.28745 11.1787C3.26626 11.2072 3.25283 11.2278 3.24806 11.2343C3.16361 11.3629 3.17406 11.5228 3.27432 11.6426C3.29908 11.671 3.88452 12.3564 5.00494 12.8224C5.05477 12.8435 5.10311 12.8633 5.15085 12.8824C5.0118 12.9656 4.90349 13.0402 4.8826 13.0548C4.75191 13.1461 4.69372 13.2951 4.73401 13.4368C4.74415 13.4725 4.9954 14.3191 6.28886 14.9189C6.37241 14.9583 6.4667 14.9948 6.56547 15.03C6.53503 15.0475 6.51206 15.0608 6.49833 15.0686C6.31572 15.1738 6.25365 15.3827 6.35421 15.5528C6.3748 15.5873 6.86146 16.3929 7.88195 16.9583C7.99891 17.0232 8.12424 17.0809 8.24986 17.1315C8.04278 17.2688 7.9461 17.3815 7.92283 17.4107C7.81809 17.543 7.82138 17.7183 7.93089 17.8469C7.95804 17.879 8.59957 18.6285 9.37208 19.0486C9.40311 19.0653 9.43354 19.0814 9.46427 19.0968C9.28554 19.1772 9.19274 19.3582 9.24884 19.5307C9.26257 19.5737 9.60272 20.5956 10.7255 21.4073C11.8546 22.2247 12.8882 22.4431 13.6706 22.4431C14.1269 22.4431 14.4871 22.3687 14.7416 22.2957C14.7953 22.4167 14.8627 22.5618 14.9499 22.7475C15.7209 24.3966 17.5276 28.2574 17.3277 32.3277C17.3226 32.4308 17.4145 32.5185 17.5324 32.5229L17.9603 32.5391H17.9695C18.0229 32.5391 18.0749 32.5216 18.114 32.49C18.1557 32.4561 18.1808 32.4094 18.1835 32.3598C18.4076 27.7725 16.2869 23.4949 15.347 22.1545C16.1511 22.005 17.2952 21.5114 17.6052 20.352L17.6052 20.3517ZM6.62995 10.0342C6.621 10.0209 5.92874 9.00578 4.50548 8.66035C4.83251 8.55469 5.03094 8.40833 5.04615 8.39581C5.0745 8.37154 5.07898 8.33658 5.08882 8.30371C5.71424 9.49576 6.88452 9.91733 6.94953 9.93924C6.97489 9.94811 7.00175 9.95228 7.028 9.95228C7.08231 9.95228 7.13542 9.93402 7.176 9.90036C7.19271 9.88627 7.3783 9.71904 7.53765 9.42997C7.58718 10.0629 7.82231 10.5369 8.11233 10.8889C7.6576 10.64 7.05094 10.4488 6.27905 10.4644C6.47658 10.3582 6.58281 10.2714 6.59474 10.2614C6.66427 10.2014 6.67889 10.108 6.62995 10.0342L6.62995 10.0342ZM9.19189 11.8336C9.1892 11.8294 9.13639 11.7464 9.03195 11.6246C9.25693 11.7399 9.41806 11.7882 9.42432 11.7897C9.44551 11.7955 9.46789 11.7986 9.48997 11.7986C9.51742 11.7986 9.54457 11.7942 9.57053 11.7848C9.57441 11.7835 9.69078 11.7357 9.84236 11.6395C9.82745 11.7297 9.80477 11.8223 9.7997 11.9097C9.77105 12.4125 9.87877 12.8461 10.0268 13.1946C9.8176 13.0219 9.5598 12.8617 9.2325 12.749C8.98484 12.664 8.68407 12.6413 8.36391 12.6402C8.91741 12.3796 9.17911 12.0282 9.18445 12.0214C9.22533 11.9642 9.22832 11.8925 9.19191 11.8335L9.19189 11.8336ZM10.6827 14.4529C10.7629 14.4099 10.8014 14.3251 10.7769 14.2455C10.7752 14.2398 10.768 14.2174 10.7549 14.1827C10.7772 14.1894 10.7948 14.2069 10.8187 14.2069C10.8333 14.2069 10.848 14.2054 10.8623 14.2033C10.8996 14.1962 11.4847 14.0731 12.0164 13.5281C11.8762 13.8036 11.7634 14.0619 11.7109 14.2896C11.6205 14.6797 11.6219 14.9993 11.6715 15.2659C11.431 15.0684 11.1219 14.8863 10.7017 14.771C10.5329 14.7243 10.3341 14.7023 10.1187 14.695C10.4457 14.5753 10.6603 14.4649 10.6826 14.4529L10.6827 14.4529ZM12.3724 16.4553C12.3933 16.4187 12.3999 16.3778 12.3912 16.3376C12.3909 16.3363 12.3882 16.3261 12.3873 16.3233C12.4709 16.3728 12.5365 16.4026 12.5479 16.407C12.5676 16.4143 12.6785 16.4508 12.8468 16.4508C12.9787 16.4508 13.1455 16.4281 13.3314 16.3514C13.4272 16.3118 13.5152 16.2476 13.6044 16.1863C13.4902 16.4881 13.4024 16.8028 13.3708 17.1432C13.3269 17.6115 13.3795 18.042 13.4463 18.3681C13.3073 18.0512 12.9778 17.5573 12.2017 17.252C11.9615 17.1571 11.7371 17.0799 11.4546 17.0305C12.1367 16.8336 12.3581 16.4806 12.3724 16.4553L12.3724 16.4553ZM13.4961 18.8135C13.5239 18.7851 13.526 18.7467 13.5304 18.7102C13.5731 18.8566 13.6083 18.9518 13.6128 18.9627C13.6423 19.0374 13.7232 19.0877 13.8133 19.0885H13.8136C13.8285 19.0885 14.2293 19.0843 14.6911 18.8965C14.4321 19.4209 14.3823 19.9915 14.4751 20.5427C14.169 19.9359 13.5892 19.3762 12.3667 19.2054C13.1586 19.1268 13.4543 18.8566 13.4961 18.8135L13.4961 18.8135ZM16.6095 17.8639C16.8058 18.2137 17.092 18.9844 16.7721 20.1811C16.5415 21.0441 15.6615 21.3256 15.1921 21.4159C14.9096 20.8252 14.2549 19.0256 16.127 18.0044L16.6095 17.8639ZM15.268 14.8007C15.3035 14.7853 15.3414 14.7707 15.3805 14.7577C15.5237 15.1177 15.7335 15.7387 15.7523 16.3238C15.7666 16.7579 15.6108 17.2649 15.5434 17.4631C15.5422 17.4658 15.5386 17.4665 15.5377 17.4694C15.1973 18.4572 14.3275 18.6609 13.9703 18.7032C13.8888 18.4423 13.7346 17.8404 13.7969 17.1743C13.8748 16.3408 14.2296 15.6361 14.8425 15.0744C14.8577 15.0637 14.8753 15.0569 14.8888 15.0442C14.8905 15.0426 15.0508 14.8949 15.268 14.8008L15.268 14.8007ZM13.441 12.2359C13.5388 12.1709 13.6719 12.1036 13.797 12.0467C13.9644 12.2935 14.1959 12.6953 14.2803 13.1307C14.4415 13.9627 14.175 14.6591 14.172 14.6663C14.1714 14.6676 14.1717 14.6689 14.1714 14.6705C13.834 15.5497 13.441 15.8868 13.1638 16.0068C12.9045 16.12 12.718 16.0632 12.7168 16.0632C12.6801 16.0486 11.8238 15.6877 12.1302 14.364C12.2346 13.9121 12.5903 13.3105 13.0161 12.6309C13.0257 12.6205 13.0388 12.6137 13.0472 12.6022C13.0484 12.5998 13.1949 12.4018 13.441 12.2359L13.441 12.2359ZM11.3329 9.82394C11.4101 9.77803 11.4871 9.74881 11.5513 9.73055C11.6858 9.87874 11.8592 10.0974 11.9431 10.2988C12.3957 11.388 12.3378 12.0032 12.3002 12.1988C11.9687 13.3452 11.1902 13.7071 10.8921 13.8047C10.6871 13.5725 10.1727 12.8886 10.227 11.9288C10.2592 11.3609 10.5525 10.6805 11.03 10.0561C11.0309 10.0553 11.0324 10.0551 11.0333 10.0543C11.0342 10.0525 11.1532 9.93116 11.3329 9.82394L11.3329 9.82394ZM8.30099 7.61551C8.34246 7.5461 8.38155 7.48558 8.41826 7.43131C8.75752 7.67316 9.20328 8.02093 9.41549 8.30064C9.82308 8.83782 10.0615 9.32571 10.1839 9.61892C10.1845 9.62596 10.1779 9.6317 10.1794 9.63874C10.456 10.8287 9.71599 11.2918 9.47877 11.4073C9.08729 11.2664 7.43184 10.514 8.11397 8.12164C8.11457 8.11981 8.11278 8.11851 8.11308 8.11668C8.11367 8.11485 8.11516 8.11329 8.11546 8.11146C8.14858 7.98441 8.22796 7.7376 8.30106 7.6155L8.30099 7.61551ZM5.17272 6.38252C5.19808 6.26929 5.28431 6.14302 5.37085 6.03996C5.61911 6.15241 6.02969 6.37391 6.50504 6.7689C6.9371 7.12841 7.15373 7.68671 7.23668 7.95126C7.23698 7.95204 7.23609 7.95282 7.23638 7.95361C7.51866 8.77905 7.15463 9.32772 6.97202 9.5367C6.54145 9.34364 5.24048 8.61942 5.13606 6.88599C5.13188 6.78007 5.13039 6.56978 5.17276 6.38246L5.17272 6.38252ZM1.66313 7.45635C1.47723 7.29851 1.23076 6.99248 1.0404 6.73837C1.44442 6.58496 2.09966 6.3966 2.71342 6.49887C3.49219 6.62879 4.07464 7.0024 4.30318 7.16856C4.57084 7.49102 4.65469 7.97684 4.67587 8.17741C4.49087 8.29272 3.95407 8.54344 3.14187 8.27159C3.14068 8.27107 3.13918 8.27211 3.13799 8.27159C3.12247 8.26507 3.10994 8.25516 3.09353 8.2502C3.08607 8.24811 2.3153 8.01226 1.66303 7.45628L1.66313 7.45635ZM2.64332 10.1592C2.14025 9.89259 1.90899 9.64135 1.80964 9.50099C1.9099 9.39141 2.08923 9.23801 2.36911 9.13287C2.6845 9.01521 3.00915 8.97503 3.01243 8.97424C3.04376 8.97059 3.07151 8.95937 3.10015 8.95024C4.86782 8.76005 5.85397 9.72172 6.15799 10.0875C5.87691 10.257 5.16764 10.5886 4.00129 10.5192C4.0001 10.519 3.9992 10.5203 3.99801 10.52C3.6671 10.496 3.1285 10.4167 2.64336 10.1592L2.64332 10.1592ZM5.37262 12.1477C4.8042 11.9111 4.40022 11.6051 4.17457 11.4055C4.19128 11.3917 4.20889 11.3784 4.22649 11.3674C4.33809 11.2972 4.4655 11.2599 4.4649 11.2599C4.50489 11.2487 4.5386 11.2294 4.57172 11.2098C7.19034 10.191 8.44659 11.5179 8.74496 11.9108C8.52804 12.1344 7.84291 12.6943 6.56374 12.5041C6.54046 12.4963 6.51749 12.4924 6.49302 12.4887C6.32861 12.4613 6.15853 12.4266 5.97472 12.3724H5.97412C5.82254 12.3231 5.63694 12.2573 5.37258 12.1477L5.37262 12.1477ZM6.68938 14.2589C6.10962 13.9901 5.81842 13.6765 5.67962 13.4728C5.76227 13.4245 5.84672 13.3799 5.90938 13.3559C5.99113 13.3248 6.14987 13.288 6.29698 13.2583C7.4091 13.0645 8.45758 12.8837 9.07677 13.0965C9.83735 13.3587 10.1856 13.9418 10.3082 14.2069C9.92209 14.3817 8.84524 14.7939 7.76681 14.5769C7.50931 14.5213 6.98354 14.395 6.68938 14.2588V14.2589ZM8.33949 16.3275C7.86356 16.0637 7.52788 15.7301 7.32889 15.4963C7.40945 15.4541 7.48047 15.4196 7.52224 15.4042C7.59385 15.3776 7.65144 15.3627 7.69829 15.352C8.71072 15.1728 9.94719 14.9589 10.5736 15.1274C11.5681 15.4006 11.8751 16.1063 11.9503 16.3356C11.7996 16.4966 11.1891 16.9678 9.50354 16.7061C9.49339 16.7037 9.48504 16.6983 9.4743 16.6964C9.2878 16.6651 8.71998 16.5381 8.33957 16.3275L8.33949 16.3275ZM8.86763 17.6667C8.91866 17.6383 8.97803 17.6075 9.04696 17.5769C9.29045 17.4689 9.4847 17.4293 9.4847 17.4293C9.48768 17.4288 9.48977 17.4272 9.49246 17.4264C11.0706 17.26 11.4863 17.3802 12.0261 17.5929C12.7881 17.8931 13.0269 18.4081 13.0958 18.6213C12.9039 18.7329 12.3253 18.9675 11.0405 18.7864C11.0393 18.7862 11.0387 18.7872 11.0375 18.7869C10.8406 18.7635 10.3175 18.6818 9.82367 18.4131C9.4474 18.2085 9.09352 17.8916 8.86761 17.6666L8.86763 17.6667ZM11.2708 20.8319C10.7203 20.433 10.3977 19.9683 10.2283 19.6623C10.2462 19.6578 10.2647 19.6529 10.2835 19.6484C10.456 19.6064 10.5873 19.5843 10.6971 19.5691C10.6989 19.5691 10.7001 19.5704 10.7019 19.5704C13.7708 19.2657 14.153 20.5269 14.3767 21.6143C13.8292 21.7458 12.6625 21.8392 11.2709 20.8319H11.2708ZM31.9732 0.730445C32.0546 0.538427 31.9442 0.325017 31.7264 0.251182C31.6661 0.231354 30.23 -0.242688 28.9965 0.174482C28.4355 0.364416 27.9897 0.646438 27.6705 0.896869C27.6669 0.88826 27.6628 0.878868 27.6589 0.869998C27.4563 0.420736 26.9162 0.0977853 26.8556 0.062788C26.7243 -0.0139123 26.5557 -0.0204376 26.4173 0.0437424C26.388 0.0575697 25.6958 0.387077 24.9406 1.29496C24.7194 1.56004 24.5738 1.86111 24.4772 2.14312C24.2826 1.95527 24.1495 1.86344 24.1304 1.85013C23.958 1.73169 23.7106 1.74787 23.5584 1.88744C23.5199 1.9224 22.6155 2.75516 22.298 3.40609C22.0304 3.9524 21.8806 4.44131 21.7985 4.79483C21.3659 4.64351 20.9968 4.69542 20.9547 4.70273C20.8386 4.72178 20.7366 4.781 20.6727 4.86709C20.6312 4.92266 20.2657 5.42436 20.1664 5.93885C20.0452 6.565 20.0315 7.06017 20.0643 7.43926C19.7519 7.3349 19.4317 7.27333 19.3873 7.26472C19.1951 7.23029 19.0021 7.31064 18.9152 7.46353C18.8952 7.49796 18.4256 8.32711 18.4393 9.22769C18.4453 9.60911 18.5154 9.95455 18.6031 10.241C18.3987 10.2139 18.2301 10.211 18.2039 10.211C18.0022 10.2337 17.8261 10.33 17.7817 10.5016C17.7691 10.5491 17.4788 11.6806 17.6596 12.7049C17.7065 12.9699 17.804 13.2418 17.907 13.4747L17.762 13.4565C17.5865 13.4374 17.4108 13.5105 17.3254 13.6485C17.2938 13.6996 16.5571 14.9253 17.5131 16.8445C18.0666 17.9551 19.3294 18.2465 20.1472 18.2598C19.3676 20.2655 17.5659 27.9001 18.7364 32.393C18.749 32.4412 18.7833 32.4835 18.8307 32.5099C18.8653 32.5289 18.9047 32.5383 18.9447 32.5383C18.9605 32.5383 18.9763 32.5367 18.9925 32.5339L19.4099 32.4506C19.5251 32.4272 19.597 32.3272 19.5707 32.2263C18.5398 28.2698 19.9279 21.9895 20.5202 19.308C20.6232 18.8418 20.6909 18.5316 20.7336 18.3067C20.8574 18.321 21.0024 18.3328 21.1704 18.3328C21.9853 18.3328 23.2672 18.0815 24.4986 16.798C25.4361 15.822 25.5597 14.7635 25.5641 14.7189C25.5838 14.5399 25.4546 14.3771 25.2624 14.326C25.2896 14.3056 25.3167 14.285 25.3436 14.2639C26.0165 13.7291 26.4936 12.8913 26.5135 12.8561C26.595 12.7121 26.5619 12.5391 26.4321 12.4259C26.4028 12.4003 26.2847 12.3038 26.0522 12.2023C26.1653 12.1329 26.2766 12.0562 26.3784 11.9743C27.2661 11.2576 27.5782 10.387 27.591 10.3505C27.6555 10.1679 27.551 9.97144 27.3496 9.89683C27.3347 9.89109 27.3087 9.88143 27.2747 9.86917C27.3648 9.8196 27.4499 9.76769 27.5245 9.71655C28.6729 8.92316 28.746 8.05097 28.7484 8.0145C28.7585 7.86918 28.6708 7.73117 28.5237 7.6623C28.4998 7.65134 28.3778 7.59446 28.2241 7.53445C28.2668 7.5081 28.3101 7.48123 28.3545 7.45253C29.361 6.81778 29.7957 6.04997 29.8142 6.01791C29.8885 5.88433 29.8655 5.72493 29.7554 5.61248C29.7495 5.60596 29.7327 5.589 29.7062 5.56421C30.0258 5.4429 30.3776 5.26758 30.6975 5.0192C31.6562 4.27484 31.7087 3.65317 31.7113 3.58458C31.7152 3.50135 31.6863 3.41943 31.6299 3.3516C31.5905 3.30412 31.2527 2.91695 30.5835 2.72702C30.7995 2.55013 31.0281 2.33411 31.2342 2.07974C31.5741 1.66153 31.9334 0.824578 31.973 0.730139L31.9732 0.730445ZM27.4019 3.10459C27.4198 3.11476 27.6334 3.23164 27.9754 3.2846C27.4168 3.5241 27.0101 3.85857 26.7275 4.16695C26.971 3.87501 27.205 3.49672 27.3431 3.02266C27.3592 3.05266 27.37 3.08606 27.4019 3.10458L27.4019 3.10459ZM26.2641 5.18446C26.2775 5.19255 26.4011 5.26064 26.6144 5.33343C25.8535 5.43935 25.2971 5.72216 24.9017 6.03812C25.1135 5.64678 25.2463 5.14402 25.1651 4.51527C25.3815 4.77433 25.5984 4.90948 25.6178 4.9207C25.6536 4.94105 25.6948 4.95148 25.7357 4.95148C25.7751 4.95148 25.8141 4.94209 25.8488 4.92304C25.8825 4.90478 26.2429 4.70233 26.6153 4.29768C26.3133 4.66111 26.1853 4.95904 26.1823 4.9669C26.1492 5.04726 26.1829 5.13701 26.2641 5.18449L26.2641 5.18446ZM20.6312 16.5386C20.6088 15.9802 20.4408 15.4256 20.0759 14.9497C20.3125 15.0035 20.5292 15.0217 20.6897 15.0217C20.8669 15.0217 20.9782 15.0042 20.9824 15.0035C21.0713 14.9889 21.14 14.9268 21.1537 14.8485C21.1558 14.8373 21.171 14.7379 21.1826 14.5873C21.1946 14.6226 21.2047 14.6596 21.2375 14.6833C21.2826 14.7162 21.5666 14.9004 22.207 14.9004C22.2768 14.9004 22.3558 14.8952 22.4343 14.8905C21.2629 15.2513 20.8075 15.8934 20.6312 16.5386L20.6312 16.5386ZM21.1951 14.2396C21.194 13.9082 21.157 13.4756 21.017 13.0217C20.9156 12.6917 20.7643 12.3961 20.5897 12.1169C20.69 12.1631 20.7899 12.2124 20.892 12.2364C21.0048 12.2628 21.108 12.273 21.1999 12.273C21.4768 12.273 21.6514 12.1809 21.6791 12.1655C21.6884 12.16 21.7451 12.1214 21.8152 12.0611C21.8152 12.0637 21.8146 12.0736 21.8146 12.0749C21.8143 12.1159 21.8295 12.1553 21.8576 12.1882C21.8766 12.2101 22.1622 12.5245 22.8724 12.6113C22.6077 12.7034 22.4045 12.8138 22.189 12.9437C21.4881 13.3674 21.2664 13.9059 21.1951 14.2395L21.1951 14.2396ZM22.3018 10.9071C22.2956 10.6371 22.2308 10.3222 22.0616 9.95278C21.9623 9.73598 21.8011 9.50222 21.6072 9.2541C22.2413 9.70415 22.8402 9.73258 22.8784 9.73363H22.8834C22.9171 9.73363 22.9491 9.72528 22.978 9.71249C22.9744 9.7365 22.9718 9.75815 22.9715 9.76285C22.964 9.84477 23.0192 9.92199 23.1069 9.95199C23.1314 9.96008 23.3629 10.0355 23.7105 10.1015C23.5005 10.1427 23.3098 10.1954 23.1538 10.2674C22.7641 10.4472 22.4976 10.6749 22.3019 10.9071H22.3018ZM23.4506 7.31041C23.4276 7.22537 23.3865 7.13797 23.3531 7.05161C23.5219 7.12231 23.6461 7.15101 23.6502 7.15179C23.6646 7.15388 23.6792 7.15544 23.6938 7.15544C23.729 7.15544 23.7636 7.14814 23.795 7.13353C23.8009 7.13066 23.9492 7.05813 24.1468 6.90916C24.0692 7.04561 24.0346 7.13535 24.0328 7.14005C24.0095 7.2037 24.0268 7.27362 24.079 7.32345C24.0853 7.32972 24.4186 7.63287 25.0168 7.80168C24.7008 7.85333 24.4081 7.92325 24.1808 8.04666C23.8821 8.2092 23.6616 8.40747 23.4918 8.61045C23.5655 8.24415 23.5819 7.80037 23.4506 7.3104L23.4506 7.31041ZM25.6324 1.73508C26.0188 1.27121 26.3772 0.988384 26.5974 0.839445C26.7036 0.927105 26.8146 1.03746 26.8626 1.14469C26.9429 1.32209 26.9844 1.5269 27.0026 1.63204C27.2589 3.35366 26.1286 4.27154 25.744 4.52981C25.5223 4.35292 25.0502 3.86714 25.1573 3.01557C25.1576 3.01427 25.1561 3.01348 25.1561 3.01218C25.1842 2.73903 25.2833 2.15461 25.6324 1.73511L25.6324 1.73508ZM23.8866 2.68836C23.9334 2.73506 23.9847 2.78906 24.0393 2.84986C24.1366 2.95865 24.2652 3.18954 24.3237 3.30851C24.3246 3.31059 24.3267 3.3119 24.3276 3.31399C24.3285 3.31555 24.327 3.31712 24.3279 3.31868C25.4916 5.56499 24.0185 6.56495 23.6628 6.76585C23.4038 6.68915 22.5821 6.34947 22.6083 5.13681C22.6086 5.1295 22.6008 5.12533 22.5999 5.11828C22.6602 4.81043 22.7945 4.29284 23.0845 3.70009C23.2355 3.39197 23.6022 2.97924 23.8865 2.68837L23.8866 2.68836ZM21.0104 6.06327C21.051 5.8522 21.1766 5.61036 21.2787 5.44391C21.3458 5.45121 21.427 5.46791 21.5123 5.50078C21.7111 5.57827 21.8537 5.67897 21.8537 5.67897C21.8555 5.68028 21.8585 5.68028 21.8603 5.68158C22.4576 6.22111 22.8861 6.84358 23.0347 7.39645C23.2844 8.32629 22.9198 9.08314 22.7662 9.34609C22.452 9.29704 21.6156 9.06354 21.0537 7.99388C20.974 7.80577 20.789 7.20911 21.0104 6.06328L21.0104 6.06327ZM19.548 8.07581C19.682 8.11156 19.8261 8.15617 19.9362 8.20574C20.2128 8.32914 20.3969 8.50081 20.3975 8.50159C20.4089 8.51281 20.4244 8.51829 20.4369 8.52768C20.9961 9.13008 21.4702 9.6657 21.6651 10.0912C22.2392 11.3448 21.4711 11.8363 21.4478 11.851C21.4398 11.8554 21.2679 11.9423 20.9871 11.8708C20.689 11.7962 20.2331 11.5261 19.7199 10.714C19.7193 10.7132 19.7193 10.7122 19.719 10.7114C19.7148 10.7049 19.3093 10.0605 19.2959 9.21753C19.2884 8.77871 19.434 8.34614 19.548 8.07584L19.548 8.07581ZM18.5487 10.9913C18.5893 10.9978 18.6293 11.0059 18.6666 11.0153C18.9005 11.0745 19.0894 11.1943 19.0897 11.1943C19.1061 11.205 19.1252 11.2094 19.1428 11.2177C19.8613 11.6733 20.3552 12.3103 20.6043 13.1191C20.8028 13.7641 20.7753 14.3801 20.7484 14.6495C20.3975 14.6634 19.492 14.6013 18.9524 13.6837C18.9512 13.6816 18.9483 13.6816 18.9471 13.6795C18.8403 13.4964 18.5812 13.0205 18.5052 12.5908C18.4028 12.0119 18.4819 11.3675 18.5487 10.9913L18.5487 10.9913ZM18.2978 16.546C17.7359 15.4174 17.8592 14.6138 17.9794 14.2397L18.4834 14.3031C20.5339 15.0106 20.263 16.8823 20.1069 17.5092C19.6283 17.4933 18.7015 17.3553 18.2978 16.546L18.2978 16.546ZM23.8433 16.3182C22.6808 17.5298 21.5171 17.6227 20.9492 17.578C20.9454 16.4737 21.0588 15.1708 24.1431 14.9879C24.147 14.9876 24.1491 14.9843 24.1527 14.9837C24.264 14.9824 24.3956 14.9845 24.5698 14.9989C24.5898 15.0004 24.6095 15.0017 24.6286 15.0041C24.5269 15.3297 24.3069 15.8353 23.8433 16.3182L23.8433 16.3182ZM24.7677 13.7111C24.3366 14.0542 23.8377 14.2175 23.6497 14.2707C23.6491 14.271 23.6485 14.2705 23.6479 14.2707C22.4179 14.6527 21.8005 14.511 21.5926 14.433C21.6159 14.2118 21.7451 13.6675 22.4326 13.2516C22.9201 12.9574 23.3038 12.7726 24.888 12.6892C24.8907 12.6894 24.8931 12.6907 24.8961 12.6907C24.8982 12.6907 25.0975 12.6988 25.361 12.7674C25.435 12.7865 25.4991 12.8068 25.5549 12.8266C25.3792 13.0828 25.0972 13.4494 24.7677 13.7111L24.7677 13.7111ZM25.7977 11.4259C25.4018 11.7453 24.7638 11.9657 24.7573 11.9681C24.748 11.9712 24.7412 11.9777 24.7322 11.9814C23.1234 12.5084 22.4254 12.135 22.2479 12.0038C22.2741 11.7664 22.4305 11.0233 23.3531 10.5976C23.9317 10.3309 25.1858 10.3455 26.2161 10.3649C26.2656 10.3677 26.3301 10.3732 26.4101 10.3886C26.4548 10.3975 26.5324 10.4207 26.6213 10.4491C26.4763 10.7092 26.2155 11.0886 25.7978 11.4259L25.7977 11.4259ZM26.9943 9.13006C26.7338 9.31034 26.2438 9.51801 26.0009 9.6135C24.9882 9.99832 23.8418 9.76142 23.4241 9.65029C23.4906 9.36983 23.7123 8.74236 24.4067 8.3638C24.9775 8.05386 26.0546 8.07003 27.1939 8.08542H27.1971C27.2013 8.08542 27.204 8.08177 27.2082 8.08151C27.3452 8.08855 27.4949 8.10316 27.5755 8.11986C27.6414 8.13369 27.7331 8.16369 27.8252 8.19865C27.7304 8.42224 27.5084 8.77497 26.9942 9.13002L26.9943 9.13006ZM27.8539 6.84722C27.6161 6.99749 27.4487 7.09063 27.3118 7.16316C27.3106 7.16369 27.3091 7.1629 27.3079 7.16369C27.1372 7.24613 26.9764 7.30718 26.8197 7.3604C26.8126 7.36275 26.8063 7.36588 26.7994 7.36849C25.5489 7.78487 24.7495 7.33692 24.4872 7.14621C24.6967 6.7139 25.6497 5.20466 28.4482 5.79814C28.4846 5.81249 28.5216 5.82632 28.5628 5.83127C28.564 5.83127 28.6962 5.84745 28.8194 5.89858C28.8394 5.90745 28.8594 5.91685 28.8797 5.92859C28.6986 6.16052 28.3644 6.52499 27.8538 6.8472L27.8539 6.84722ZM30.8127 3.6813C30.7429 3.83836 30.5671 4.12116 30.1294 4.46086C29.7048 4.79089 29.194 4.9542 28.8737 5.03012C28.8717 5.03038 28.8699 5.02882 28.8678 5.02934C27.7387 5.28136 26.9715 5.06743 26.6597 4.94533C26.8865 4.54121 27.6689 3.44466 29.4189 3.34527C29.4529 3.35075 29.4866 3.35675 29.5233 3.35414C29.5266 3.35336 29.8534 3.34162 30.1884 3.40815C30.4847 3.46711 30.6924 3.58999 30.8127 3.6813L30.8127 3.6813ZM30.5367 1.64818C30.0148 2.29102 29.299 2.65108 29.2918 2.65468C29.2772 2.66199 29.267 2.67347 29.2536 2.68182C29.2524 2.68234 29.2509 2.68182 29.25 2.68234C28.5032 3.07968 27.9276 2.9161 27.7214 2.83131C27.7005 2.6299 27.682 2.13657 27.8816 1.77732C28.072 1.57721 28.5622 1.12378 29.3055 0.87126C29.888 0.674026 30.5722 0.755161 31.0013 0.843606C30.8661 1.1238 30.6865 1.46349 30.5367 1.64821L30.5367 1.64818Z" fill="#4A49CB"/>
</svg>
