<svg width="22" height="22" viewBox="0 0 22 22" fill="none" xmlns="http://www.w3.org/2000/svg">
<path d="M18.6051 16.521C18.6007 16.5032 18.5918 16.4854 18.5829 16.472C19.518 16.138 20.1414 15.2519 20.1414 14.2588C20.1414 14.1609 20.0613 14.0807 19.9633 14.0807C18.9703 14.0807 18.0841 14.7041 17.7502 15.6393C17.7323 15.6304 17.7145 15.6259 17.7012 15.617C18.0975 14.7531 17.9105 13.7334 17.2425 13.0654C17.1712 12.9942 17.0599 12.9942 16.9887 13.0654C16.3162 13.7378 16.1337 14.7531 16.53 15.617C16.5122 15.6215 16.4944 15.6304 16.481 15.6393C16.2583 15.0114 15.7774 14.5082 15.1584 14.2588V12.7136C15.1584 12.4465 15.0917 12.1793 14.9625 11.9432H14.9803H19.2553C19.3532 11.9432 19.4334 11.8631 19.4334 11.7651V5.70895C19.4334 5.65996 19.4156 5.61543 19.38 5.58426L17.9327 4.13701C18.1108 3.66945 18.2355 3.17958 18.3023 2.68084H18.8946V2.32459H18.3379C18.3513 2.14647 18.3602 1.96835 18.3602 1.79022C18.3602 1.73233 18.3557 1.66999 18.3468 1.6121H20.0702L19.8342 2.32459H19.2508V2.68084H19.8208L20.4487 5.34376C20.9519 7.46341 20.9875 9.66309 20.5556 11.8006L20.1726 13.7154L20.5199 13.7866L20.9029 11.8718C21.3438 9.68536 21.3037 7.43198 20.7916 5.26356L20.1459 2.51155L20.4843 1.49179C20.5155 1.39828 20.4665 1.29586 20.373 1.26469C20.3552 1.26023 20.3374 1.25578 20.3151 1.25578H18.2355C17.9461 0.63237 17.2024 0.369603 16.579 0.663516C16.3207 0.788202 16.1114 0.997495 15.9867 1.25578H10.3446C10.2466 1.25578 10.1665 1.33594 10.1665 1.4339C10.1665 1.45171 10.1709 1.47398 10.1754 1.49179L10.5138 2.51155L10.309 3.38881C10.2689 3.29975 10.2199 3.21514 10.162 3.13944C10.1041 3.05928 9.9928 3.04147 9.91264 3.09936L9.81022 3.17061C9.91709 2.76983 9.86366 2.34681 9.65881 1.98608L9.94826 1.77679L9.73897 1.48734L9.20904 1.8703C9.31591 1.46952 9.26248 1.0465 9.05763 0.685775L9.60536 0.289451L9.39606 0L7.12053 1.64765C6.91123 1.79905 6.74201 1.99944 6.62622 2.23099C6.48372 1.49623 6.39466 0.752595 6.36794 0.00443777L6.01169 0.0177968C6.03396 0.667956 6.10521 1.31811 6.21208 1.95936C5.86029 1.4339 5.47732 0.930682 5.05874 0.454208L4.79156 0.690222C5.28586 1.25578 5.73115 1.85692 6.12746 2.49372C5.85582 2.39576 5.5619 2.37794 5.27691 2.43583L3.48676 2.79653C3.44668 2.13745 3.45559 1.47398 3.50458 0.819386L3.14833 0.792668C3.09489 1.4651 3.08599 2.13749 3.12606 2.80991C2.84107 2.24436 2.51601 1.70112 2.15528 1.1801L1.86138 1.38494C2.28887 1.99947 2.66295 2.64959 2.98801 3.32202C2.72973 3.19734 2.44029 3.1439 2.15085 3.17061L0.191501 3.34874C0.0935358 3.35764 0.0222867 3.44225 0.0311908 3.54022C0.0668154 3.9588 0.271655 4.34623 0.592268 4.61339C0.632346 4.64902 0.676875 4.68019 0.721408 4.71136L0 4.7737L0.0311712 5.12995L0.467583 5.08987C0.538832 5.44166 0.730313 5.75782 1.00195 5.98492C1.04203 6.02055 1.08656 6.05172 1.13109 6.08289L0.169228 6.17195L0.200399 6.52819L0.872828 6.46585C1.02423 7.20061 1.66992 7.7305 2.42248 7.7305C2.47146 7.7305 2.52044 7.7305 2.56943 7.72605L4.26158 7.57464C4.30611 7.90417 4.33728 8.23816 4.35954 8.57657L4.71579 8.55431C4.69352 8.21587 4.66235 7.87744 4.61782 7.54346L5.69548 6.93341C5.76227 6.94231 5.82462 6.94677 5.89141 6.94677C5.99829 6.94677 6.10516 6.93786 6.21203 6.91559L7.87747 6.57271C7.98435 7.00464 8.07341 7.43661 8.1402 7.8819L8.2827 8.81706L8.63449 8.76362L8.49199 7.82846C8.4252 7.3787 8.33614 6.93785 8.22481 6.50144L9.80565 5.35701L9.85908 5.31694C9.51175 6.80425 9.38705 8.34059 9.48948 9.86345L9.21784 9.64524C9.0798 9.53392 8.92839 9.44485 8.76364 9.37361L7.04922 8.62993C6.65735 8.46071 6.2165 8.42509 5.80236 8.53196L3.90982 9.004C3.63818 9.07079 3.37989 9.19993 3.1617 9.3736L2.0529 10.2642C1.79017 10.478 1.58534 10.754 1.4562 11.0658L0.939624 12.3572C0.70361 12.3884 0.498774 12.5353 0.391901 12.7491L0.387447 12.758C0.0356554 13.4615 0.1737 14.3121 0.730335 14.8687L0.886191 15.0246L0.810488 15.2873C0.40526 16.7034 0.503225 18.2175 1.08213 19.5757L1.24689 19.9542L1.06877 20.306C0.917362 20.6133 1.0376 20.9873 1.34486 21.1387C1.42946 21.1833 1.52743 21.2055 1.62095 21.2055H14.7532C14.9536 21.2055 15.1406 21.0897 15.2297 20.9116L15.3722 20.6266C15.4746 20.4218 15.4345 20.1724 15.2742 20.0077L15.2074 19.9409C15.7997 19.6826 16.2583 19.1883 16.4765 18.5827C16.4943 18.5916 16.5122 18.596 16.5255 18.6049C16.1292 19.4689 16.3162 20.4886 16.9842 21.1566C17.0554 21.2278 17.1668 21.2278 17.238 21.1566C17.9104 20.4841 18.093 19.4689 17.6967 18.6049C17.7145 18.6005 17.7323 18.5916 17.7457 18.5827C18.0797 19.5178 18.9658 20.1412 19.9588 20.1412C20.0568 20.1412 20.137 20.0611 20.137 19.9631C20.137 18.9701 19.5136 18.0839 18.5784 17.75C18.5873 17.7322 18.5918 17.7143 18.6007 17.701C19.4646 18.0973 20.4843 17.9147 21.1523 17.2423C21.2235 17.1711 21.2235 17.0597 21.1523 16.9885C20.4888 16.3116 19.469 16.1246 18.6051 16.5209L18.6051 16.521ZM17.1133 13.4528C17.5943 14.0362 17.6878 14.8466 17.3494 15.5235C17.1935 15.5012 17.0332 15.5012 16.8729 15.5235C16.5389 14.8466 16.6324 14.0362 17.1133 13.4528H17.1133ZM16.1604 15.8219C16.0313 15.9154 15.9199 16.0312 15.822 16.1603C15.0605 15.9154 14.5216 15.243 14.446 14.4503C15.243 14.5216 15.9155 15.0604 16.1604 15.8219L16.1604 15.8219ZM10.1665 18.3557V17.2869H13.1233C13.5464 17.6833 14.0986 17.9015 14.6775 17.9015C14.7176 17.9015 14.7576 17.9015 14.7977 17.897V18.2711C14.771 18.2978 14.7443 18.3245 14.7175 18.3557L10.1665 18.3557ZM14.4415 18.7119C14.2411 19.0325 14.1208 19.4021 14.0897 19.7807H10.1665V18.7119H14.4415ZM11.9477 9.74796V9.44961H13.0165V9.74796C13.0165 10.1755 13.1857 10.5807 13.484 10.8835L14.4325 11.832C14.5661 11.9656 14.6641 12.1259 14.7264 12.2996H10.2377C10.3001 12.1215 10.4025 11.9611 10.5317 11.832L11.4802 10.8835C11.7785 10.5852 11.9477 10.1755 11.9477 9.74796H11.9477ZM11.5915 8.91525V8.20275C11.5915 8.10479 11.6716 8.02463 11.7696 8.02463H13.1946C13.2926 8.02463 13.3727 8.10479 13.3727 8.20275V8.91525C13.3727 9.01321 13.2926 9.09337 13.1946 9.09337H11.7696C11.6716 9.09337 11.5915 9.01321 11.5915 8.91525ZM14.7977 12.6558V12.7137V14.1431C14.624 14.1031 14.4415 14.0808 14.2633 14.0808C14.1654 14.0808 14.0852 14.161 14.0852 14.2589C14.0852 14.6998 14.2099 15.1317 14.4415 15.5058H10.1665V12.7137V12.6558L14.7977 12.6558ZM14.7175 15.862C14.7443 15.8888 14.771 15.9199 14.7977 15.9466V16.3207C14.1787 16.2895 13.5731 16.5077 13.1233 16.9308H10.1665V15.862L14.7175 15.862ZM13.4573 17.1089C14.0407 16.628 14.8511 16.5345 15.528 16.8729C15.5057 17.0287 15.5057 17.1891 15.528 17.3494C14.8511 17.6833 14.0407 17.5898 13.4573 17.1089V17.1089ZM15.154 17.8526C15.3143 17.817 15.4701 17.768 15.6215 17.6967C15.6304 17.7145 15.6349 17.7323 15.6438 17.7457C15.4701 17.808 15.3098 17.8882 15.1539 17.9862L15.154 17.8526ZM15.6215 16.5211C15.4701 16.4543 15.3142 16.4009 15.154 16.3653V16.2272C15.3054 16.3252 15.4701 16.4098 15.6438 16.4677C15.6349 16.4899 15.6304 16.5033 15.6215 16.5211H15.6215ZM19.0727 5.78488V11.5874H15.154V5.78488L16.4454 4.49348C16.5522 4.73395 16.6725 4.96552 16.8105 5.19262L16.9619 5.44644L17.2692 5.26387L17.1178 5.01004C16.9664 4.75622 16.8328 4.49347 16.7214 4.2263L17.1178 3.82998L19.0727 5.78488ZM17.1133 0.900041C17.3939 0.900041 17.6566 1.03363 17.8258 1.25629H16.4008C16.57 1.03363 16.8327 0.900041 17.1133 0.900041ZM16.2405 1.61253H17.9861C17.9994 1.67042 18.0039 1.73276 18.0039 1.79066C18.0039 2.49423 17.8837 3.19337 17.6521 3.85688L17.238 3.44274C17.1667 3.37149 17.0554 3.37149 16.9841 3.44274L16.57 3.85688C16.3429 3.19337 16.2227 2.49423 16.2227 1.79066C16.2227 1.73276 16.2271 1.67042 16.2405 1.61253H16.2405ZM7.33434 1.93315L8.77268 0.891125C9.05322 1.42993 8.89736 2.09344 8.40307 2.45417L7.07161 3.41603C6.99145 3.26018 6.9113 3.10877 6.82669 2.95291C6.81778 2.55213 7.00927 2.16917 7.33435 1.93315H7.33434ZM7.32098 4.88108L5.57981 5.23732C4.98311 5.35755 4.38641 5.02358 4.18154 4.45358L5.9227 4.09734C6.51497 3.9771 7.11167 4.31108 7.32098 4.88108ZM5.36163 2.77923C5.81139 2.68571 6.27451 2.85048 6.56395 3.21116C6.62629 3.32694 6.69309 3.44717 6.75098 3.56741L5.02317 3.92365C4.42646 4.04388 3.82976 3.71436 3.62489 3.13991L5.36163 2.77923ZM3.90546 4.03944C3.94999 4.07061 3.99897 4.09733 4.0435 4.1196L3.92327 4.14632C3.85647 4.15968 3.80749 4.20866 3.78968 4.27546C3.72288 4.10179 3.65609 3.93257 3.58039 3.75888V3.75443C3.6739 3.8613 3.78078 3.95927 3.90546 4.03942L3.90546 4.03944ZM0.414248 3.6832L2.18656 3.52734C2.64076 3.48281 3.08161 3.69655 3.32655 4.08398C3.37998 4.20866 3.42897 4.33335 3.4735 4.46249L1.71898 4.6228C1.11336 4.67624 0.556722 4.27546 0.414223 3.68321L0.414248 3.6832ZM0.82391 5.0592L2.59178 4.89889C3.1974 4.84545 3.75404 5.24178 3.89654 5.83404L2.12867 5.99436C1.51861 6.04779 0.966409 5.65147 0.82391 5.0592ZM2.53389 7.37036C1.92827 7.4238 1.37163 7.02747 1.22913 6.4352L2.99701 6.27489C3.45121 6.23036 3.89206 6.44856 4.137 6.83153L4.20379 7.21895L2.53389 7.37036ZM4.33739 5.67373C4.35075 5.74053 4.36856 5.80287 4.39083 5.86522C4.36411 5.90529 4.34184 5.94537 4.31958 5.9899C4.23052 5.62475 4.1281 5.26406 4.00786 4.90781C4.15482 5.13047 4.35966 5.31304 4.59569 5.43774L4.471 5.46446C4.38194 5.48227 4.3196 5.58024 4.33741 5.67375L4.33739 5.67373ZM4.59567 7.13878C4.4888 6.85824 4.4888 6.54208 4.59567 6.26152C4.75598 6.48863 4.96973 6.67118 5.21908 6.78697L4.59567 7.13878ZM6.13644 6.55987C5.53974 6.6801 4.94304 6.34612 4.73817 5.77613L6.47934 5.41988C6.9291 5.32637 7.38774 5.49113 7.67722 5.84738C7.71729 5.97206 7.75292 6.09675 7.78855 6.22144L6.13644 6.55987ZM7.65938 4.72522C7.58368 4.53374 7.50798 4.34671 7.42337 4.15967C7.44118 3.79007 7.62821 3.45162 7.92655 3.23787L9.36489 2.19584C9.64543 2.73465 9.48958 3.39816 8.99529 3.75888L7.65938 4.72522ZM9.59647 5.0592L8.15813 6.10123C7.87759 5.56243 8.03344 4.89443 8.52773 4.53819L9.96607 3.49616C10.2466 4.03945 10.0908 4.70296 9.59647 5.0592ZM10.2154 5.3442L10.8433 2.68127H11.7696V2.32503H10.83L10.594 1.61254H15.8798C15.8709 1.67043 15.8665 1.73277 15.8665 1.79066C15.8665 2.59223 16.0134 3.38485 16.2984 4.13744L14.8512 5.5847C14.8155 5.62032 14.7977 5.66485 14.7977 5.70938V11.7033C14.7621 11.6587 14.7265 11.6187 14.6864 11.5786L13.7379 10.6301C13.5019 10.3985 13.3727 10.0779 13.3727 9.74838V9.41885C13.5865 9.34314 13.729 9.14276 13.729 8.91566V8.20317C13.729 7.90927 13.4885 7.6688 13.1946 7.6688H11.7696C11.4757 7.6688 11.2352 7.90927 11.2352 8.20317V8.91566C11.2352 9.14277 11.3777 9.34316 11.5915 9.41885V9.74838C11.5915 10.0779 11.4624 10.3985 11.2263 10.6301L10.7988 11.0576C10.6786 10.8572 10.5228 10.6835 10.3446 10.5366L9.87261 10.158C9.72565 8.54602 9.84589 6.92064 10.2155 5.34445L10.2154 5.3442ZM9.81021 19.8835L9.68552 20.0082C9.52076 20.173 9.48068 20.4179 9.58756 20.6272L9.69889 20.8543H1.62086C1.47391 20.8543 1.35367 20.734 1.35367 20.5871C1.35367 20.547 1.36258 20.5069 1.38039 20.4669L1.59414 20.0394C1.61641 19.9904 1.62086 19.9369 1.59859 19.888L1.40266 19.4293C0.859373 18.1512 0.770332 16.7218 1.14883 15.3814L1.22008 15.1276L1.88359 15.0163C2.76977 14.8693 3.67374 14.856 4.56435 14.9851C5.32582 15.092 6.09621 15.1053 6.86216 15.0207L7.70823 14.9272C8.40737 14.8515 9.11539 14.856 9.81452 14.9495V19.8836L9.81021 19.8835ZM9.81021 14.5932C9.09772 14.5041 8.38079 14.4996 7.6683 14.5753L6.82222 14.6689C6.08746 14.749 5.34826 14.7401 4.6135 14.6332C3.68726 14.4996 2.74767 14.513 1.82587 14.6644L1.14456 14.7802L0.979795 14.6154C0.53003 14.1657 0.418718 13.4844 0.703707 12.9144L0.70816 12.9055C0.779409 12.763 0.930816 12.6828 1.09112 12.7051L1.92828 12.8253C2.78327 12.9455 3.65161 12.9455 4.5066 12.8253L4.61348 12.8119C5.3438 12.7095 6.08744 12.6962 6.8222 12.7763L7.77071 12.8832C8.44758 12.9589 9.13336 12.9589 9.81023 12.8787L9.81021 14.5932ZM7.8108 12.5314L6.86228 12.4245C6.09638 12.3399 5.32599 12.3532 4.56448 12.4601L4.45761 12.4735C3.6338 12.5893 2.80104 12.5893 1.97724 12.4735L1.30929 12.38L1.78132 11.1954C1.88374 10.9372 2.05296 10.71 2.26671 10.5408L3.37551 9.65022C3.55364 9.50772 3.76293 9.40085 3.99005 9.34741L5.88259 8.87538C6.22102 8.79077 6.58173 8.81749 6.90235 8.95554L8.62124 9.69474C8.75484 9.75263 8.87953 9.82833 8.99085 9.91739L10.113 10.8169C10.2867 10.955 10.4247 11.1286 10.5316 11.3201L10.2733 11.5784C10.0195 11.8322 9.85472 12.1662 9.81462 12.5225C9.15554 12.6026 8.47872 12.6071 7.81073 12.5314L7.8108 12.5314ZM15.0558 20.4669L14.9133 20.7519C14.8821 20.8142 14.8198 20.8499 14.753 20.8499H10.2065C10.1397 20.8499 10.0774 20.8098 10.0462 20.7519L9.90369 20.4669C9.86806 20.4001 9.88142 20.3155 9.93486 20.2621L10.0595 20.1374H14.9L15.0247 20.2621C15.0781 20.3155 15.0915 20.3956 15.0559 20.4669H15.0558ZM14.4502 19.7722C14.5259 18.9796 15.0647 18.3027 15.8262 18.0623C15.9197 18.1914 16.0355 18.3027 16.1646 18.4007C15.9153 19.1577 15.2428 19.6965 14.4502 19.7723L14.4502 19.7722ZM17.1131 20.7653C16.6322 20.1819 16.5387 19.3715 16.8771 18.6946C17.033 18.7169 17.1933 18.7169 17.3536 18.6946C17.6876 19.3715 17.5941 20.1819 17.1131 20.7653H17.1131ZM17.1131 18.3562C16.4229 18.3562 15.8663 17.7995 15.8663 17.1093C15.8663 16.4191 16.4229 15.8624 17.1131 15.8624C17.8033 15.8624 18.36 16.4191 18.36 17.1093C18.36 17.7995 17.8033 18.3562 17.1131 18.3562ZM19.7761 19.7722C18.9834 19.6965 18.3065 19.1577 18.0661 18.3962C18.1952 18.3027 18.3065 18.1869 18.4045 18.0578C19.1615 18.3072 19.7003 18.9796 19.7761 19.7722L19.7761 19.7722ZM18.4 16.1564C18.3065 16.0272 18.1908 15.9159 18.0616 15.8179C18.3065 15.0565 18.9789 14.5176 19.7716 14.4419C19.7003 15.239 19.1615 15.9114 18.4 16.1563L18.4 16.1564ZM18.6984 17.3453C18.7207 17.1895 18.7207 17.0292 18.6984 16.8689C19.3753 16.5349 20.1857 16.6284 20.7691 17.1049C20.1857 17.5903 19.3753 17.6838 18.6984 17.3453V17.3453Z" fill="#363C90"/>
</svg>
