<svg width="16" height="16" viewBox="0 0 16 16" fill="none" xmlns="http://www.w3.org/2000/svg">
<path d="M2.20586 1.50192L2.55152 1.87171L5.38747 4.90563C5.39426 4.91144 5.40193 4.9161 5.41017 4.91944L2.20586 1.50192ZM2.20586 1.50192C2.23073 1.50386 2.25555 1.50728 2.28019 1.51218C2.40136 1.53629 2.51292 1.59532 2.60117 1.68207L5.48379 4.76709L5.49095 4.77476L5.49843 4.78212C5.5062 4.78977 5.51243 4.79891 5.51673 4.80905C5.52103 4.8192 5.52331 4.83012 5.5234 4.84119C5.5235 4.85226 5.52142 4.86323 5.5173 4.87345C5.51318 4.88367 5.5071 4.89293 5.49946 4.90072C5.49183 4.9085 5.48278 4.91466 5.47285 4.91888L5.66853 5.379L5.47285 4.91888C5.46293 4.9231 5.4523 4.92531 5.44156 4.92541C5.43083 4.9255 5.42017 4.92348 5.41017 4.91944L2.20586 1.50192ZM11.1384 10.7866L11.1384 10.7866C11.1131 10.7589 11.0816 10.7377 11.0465 10.7248C11.0119 10.7121 10.9748 10.7078 10.9383 10.7122C10.1927 10.8122 9.43433 10.7488 8.71569 10.5263M11.1384 10.7866L8.8591 10.0473M11.1384 10.7866L11.1428 10.7913M11.1384 10.7866L11.1428 10.7913M8.71569 10.5263C8.71405 10.5258 8.7124 10.5253 8.71076 10.5248L8.8591 10.0473M8.71569 10.5263C8.71626 10.5265 8.71682 10.5266 8.71738 10.5268L8.8591 10.0473M8.71569 10.5263C8.7035 10.523 8.69068 10.523 8.67844 10.5262C8.67528 10.527 8.67219 10.528 8.66918 10.5292M8.8591 10.0473C8.75939 10.0178 8.65357 10.0161 8.55293 10.0422C8.4523 10.0683 8.36063 10.1213 8.28774 10.1955M8.66918 10.5292C8.67139 10.5253 8.6737 10.5213 8.67612 10.5172C8.68439 10.5031 8.6939 10.4878 8.70481 10.4712L8.6558 10.4388L8.28774 10.1955M8.66918 10.5292C8.63986 10.5812 8.62812 10.6157 8.62345 10.6344M8.66918 10.5292C8.65998 10.533 8.65156 10.5386 8.64447 10.5458L8.28774 10.1955M8.28774 10.1955L8.62345 10.6344M8.62345 10.6344C8.61878 10.6302 8.61504 10.6263 8.61217 10.6229C8.61163 10.6222 8.61139 10.6219 8.61138 10.6219C8.61136 10.6219 8.61417 10.6259 8.61686 10.6336C8.62024 10.6433 8.62039 10.6504 8.6204 10.6511C8.62041 10.6511 8.62041 10.6511 8.62041 10.6511C8.62047 10.6499 8.62095 10.6444 8.62345 10.6344ZM8.62345 10.6344C8.66957 10.676 8.80656 10.7523 9.0949 10.8139C9.68704 10.9404 10.4721 10.919 10.7832 10.9091L11.0093 10.9019L11.1639 11.0668L14.3571 14.4727L13.9926 14.8149L14.3573 14.4729L14.3572 14.4728L8.62345 10.6344ZM11.1428 10.7913L14.4766 14.3566L14.4772 14.3574C14.4847 14.3654 14.4906 14.3748 14.4945 14.3851L14.9622 14.2083L11.1428 10.7913ZM4.60263 8.22597C4.5823 8.22637 4.56247 8.21931 4.54686 8.20604C3.62948 7.2523 2.85387 6.17126 2.2439 4.99616C2.00527 4.51234 1.66342 3.69693 1.54315 2.94507C1.4827 2.5672 1.48526 2.24633 1.55403 2.00499C1.58208 1.90656 1.62033 1.82248 1.67147 1.75128L1.6865 2.22887C1.76203 4.63008 3.18045 6.39908 4.63014 8.04923L4.64393 8.06493L4.65899 8.07942C4.67514 8.09498 4.68462 8.11649 4.68507 8.13929C4.68552 8.16208 4.6769 8.18397 4.66134 8.20017C4.64582 8.21635 4.62468 8.22554 4.60263 8.22597ZM13.2161 3.10509L12.7532 3.29417C12.7575 3.30447 12.7596 3.31553 12.7595 3.32671C12.7594 3.33788 12.7571 3.3489 12.7527 3.35912C12.7483 3.36935 12.7419 3.37854 12.734 3.38619L12.734 3.38614L12.7279 3.39228L8.65612 7.47037L8.15745 7.96981L8.79401 8.27461C9.21198 8.47475 9.68156 8.54067 10.1384 8.46328C10.5953 8.3859 11.0171 8.16902 11.346 7.84247L11.3475 7.84089L14.359 4.82417C14.3667 4.81645 14.3758 4.81036 14.3858 4.80623C14.3958 4.80209 14.4065 4.79998 14.4172 4.79999C14.428 4.8 14.4387 4.80212 14.4486 4.80627C14.4586 4.81042 14.4677 4.81652 14.4755 4.82425C14.4832 4.832 14.4893 4.84122 14.4935 4.85143C14.4978 4.86164 14.4999 4.87261 14.4999 4.8837C14.4999 4.8948 14.4977 4.90576 14.4935 4.91597L14.9554 5.10738L14.4935 4.91597C14.4893 4.92617 14.4831 4.93539 14.4754 4.94312L14.4751 4.9434L11.4634 7.9604L11.4634 7.96041C11.2395 8.18472 10.9736 8.36252 10.6811 8.48367C10.3885 8.60481 10.075 8.66693 9.75849 8.66648H9.75781C9.28501 8.66645 8.82259 8.52721 8.42806 8.26599L8.08712 8.04025L7.7982 8.32962L1.66623 14.4712C1.65085 14.4852 1.63085 14.4928 1.61027 14.4926C1.58891 14.4925 1.56832 14.4839 1.55297 14.4685C1.53761 14.4531 1.52875 14.4321 1.52856 14.41C1.52837 14.3888 1.53625 14.3683 1.55034 14.3529L7.68231 8.21134L7.96989 7.92331L7.7462 7.58327C7.44017 7.11807 7.30352 6.56134 7.35938 6.00688C7.41523 5.45259 7.66004 4.93464 8.05241 4.54017C8.05252 4.54005 8.05263 4.53994 8.05275 4.53982L11.06 1.52849C11.0754 1.51443 11.0954 1.5068 11.116 1.50698C11.1373 1.50717 11.1579 1.51575 11.1733 1.53111C11.1886 1.5465 11.1975 1.56748 11.1977 1.58958C11.1979 1.61086 11.19 1.63125 11.1759 1.64672L8.16698 4.6586L8.16698 4.65859L8.16533 4.66025C7.8393 4.98966 7.62296 5.41183 7.54578 5.86894C7.4686 6.32604 7.53432 6.79588 7.734 7.2142L8.03888 7.8529L8.53901 7.35214L12.6119 3.27406L12.612 3.27411L12.618 3.2678C12.6257 3.25988 12.6348 3.2536 12.6448 3.2493C12.6548 3.245 12.6655 3.24274 12.6764 3.24265C12.6872 3.24255 12.6979 3.24462 12.708 3.24875C12.7181 3.25287 12.7273 3.25899 12.7351 3.26678C12.7428 3.27457 12.749 3.28387 12.7532 3.29417L13.2161 3.10509Z" fill="#667085" stroke="#667085"/>
</svg>
