<svg width="16" height="16" viewBox="0 0 16 16" fill="none" xmlns="http://www.w3.org/2000/svg">
<path d="M13.5263 10.3359C13.1446 11.2388 12.5476 12.0344 11.7874 12.6532C11.0273 13.272 10.1272 13.6951 9.16575 13.8856C8.20435 14.076 7.21093 14.028 6.27236 13.7457C5.33379 13.4635 4.47863 12.9555 3.78167 12.2663C3.0847 11.5771 2.56713 10.7276 2.27422 9.7921C1.98132 8.85661 1.92198 7.86358 2.1014 6.89985C2.28082 5.93611 2.69354 5.03101 3.30348 4.26367C3.91341 3.49634 4.70199 2.89013 5.60027 2.49805" stroke="#363C90" stroke-width="1.5" stroke-linecap="round" stroke-linejoin="round"/>
<path d="M14 8.00139C14 7.21328 13.8448 6.43288 13.5433 5.70476C13.2418 4.97663 12.7998 4.31505 12.2427 3.75777C11.6855 3.20049 11.0241 2.75843 10.2961 2.45683C9.56816 2.15523 8.78794 2 8 2V8.00139H14Z" stroke="#363C90" stroke-width="1.5" stroke-linecap="round" stroke-linejoin="round"/>
</svg>
