<svg width="64" height="64" viewBox="0 0 64 64" fill="none" xmlns="http://www.w3.org/2000/svg">
<circle cx="32" cy="32" r="32" fill="#F3FAFF"/>
<g clip-path="url(#clip0_2755_20904)">
<path d="M35 20V26H41L35 20ZM36.5 32H27.5V35H36.5V32ZM33.5 26V20H25.25C24.0073 20 23 21.0073 23 22.25V41.75C23 42.9922 24.0073 44 25.25 44H38.75C39.9927 44 41 42.9927 41 41.75V27.5H35.0422C34.1703 27.5 33.5 26.8297 33.5 26ZM26 23.375C26 23.1702 26.1702 23 26.375 23H30.125C30.3313 23 30.5 23.1702 30.5 23.375V24.125C30.5 24.3303 30.3313 24.5 30.125 24.5H26.375C26.1702 24.5 26 24.3303 26 24.125V23.375ZM26 26.375C26 26.1687 26.1702 26 26.375 26H30.125C30.3313 26 30.5 26.1687 30.5 26.375V27.125C30.5 27.3313 30.3313 27.5 30.125 27.5H26.375C26.1702 27.5 26 27.3313 26 27.125V26.375ZM38 40.625C38 40.8301 37.8301 41 37.625 41H33.875C33.6687 41 33.5 40.8312 33.5 40.625V39.875C33.5 39.6699 33.6699 39.5 33.875 39.5H37.625C37.8301 39.5 38 39.6699 38 39.875V40.625ZM38 31.25V35.75C38 36.166 37.666 36.5 37.25 36.5H26.75C26.3342 36.5 26 36.1672 26 35.75V31.25C26 30.8328 26.3342 30.5 26.75 30.5H37.25C37.6672 30.5 38 30.8328 38 31.25Z" fill="#0059FF"/>
</g>
<defs>
<clipPath id="clip0_2755_20904">
<rect width="18" height="24" fill="white" transform="translate(23 20)"/>
</clipPath>
</defs>
</svg>
