<svg width="18" height="17" viewBox="0 0 18 17" fill="none" xmlns="http://www.w3.org/2000/svg">
<path fill-rule="evenodd" clip-rule="evenodd" d="M2.09779 0.175672L2.38016 0.456699L8.24972 6.29837L8.53439 6.58168L8.24992 6.8652L5.8837 9.22353L5.60133 8.94021L5.3193 9.22387L1.81596 5.74053L1.81471 5.73929C0.35523 4.27535 0.353931 1.91371 1.81562 0.4569L2.09779 0.175672ZM5.60099 8.37581L7.40072 6.58208L2.11721 1.32369C1.24131 2.47113 1.32789 4.11729 2.38066 5.17387C2.38086 5.17407 2.38106 5.17427 2.38126 5.17447L5.60099 8.37581ZM13.8873 0.0696759C14.9074 -0.0645794 15.9191 0.183856 16.6362 0.898566C17.3576 1.61751 17.6076 2.62885 17.4715 3.64736C17.3355 4.66512 16.8141 5.71287 15.959 6.5652C14.6283 7.89139 12.8023 8.41382 11.365 7.90213L10.6078 8.65688L16.076 14.1069L16.3603 14.3902L16.076 14.6735L14.8971 15.8485L14.6147 16.13L14.3323 15.8485L8.86179 10.3962L3.38329 15.8406L3.10092 16.1212L2.81896 15.8402L1.64003 14.6652L1.35577 14.3819L1.64003 14.0986L9.61192 6.15325C9.09908 4.71934 9.62444 2.89911 10.9544 1.57357L10.9552 1.57283C11.8146 0.720705 12.8674 0.203909 13.8873 0.0696759ZM11.5188 2.1405C10.2733 3.38207 9.94208 4.99836 10.4456 6.07971L10.5639 6.33391L10.3653 6.53186L2.48903 14.3819L3.10174 14.9925L8.58024 9.54816L8.86261 9.26755L9.14457 9.54857L14.6147 15.0005L15.227 14.3902L9.75876 8.94019L9.4745 8.65688L9.75876 8.37357L10.9879 7.14857L11.1852 6.95186L11.4381 7.06883C12.5251 7.57157 14.1485 7.24012 15.3942 5.99857C16.136 5.25923 16.5679 4.36948 16.6785 3.5414C16.7891 2.71407 16.5792 1.97125 16.0715 1.4652C15.5678 0.963239 14.8237 0.753341 13.9917 0.862836C13.1598 0.972331 12.2647 1.40122 11.5188 2.1405Z" fill="#667085"/>
</svg>
