<svg width="16" height="16" viewBox="0 0 16 16" fill="none" xmlns="http://www.w3.org/2000/svg">
<path d="M13.7626 0H2.2209C0.992619 0 0 1.17775 0 2.63512V15.3712C0 15.5908 0.100929 15.7904 0.25232 15.9102C0.420614 16.01 0.605696 16.01 0.773852 15.9102L2.43951 14.7524L4.10518 15.9102C4.27347 16.0299 4.45855 16.0299 4.62671 15.9102L6.29237 14.7524L7.95803 15.9102C8.04218 15.9701 8.12633 15.99 8.21035 15.99C8.2945 15.99 8.39543 15.9701 8.46267 15.9102L10.1283 14.7524L11.794 15.9102C11.9454 16.0299 12.1474 16.0299 12.3155 15.9102C12.4838 15.8103 12.5678 15.5908 12.5678 15.3712V8.00502H15.4785C15.7645 8.00502 16 7.72555 16 7.38622V2.63515C15.9832 1.17779 14.9906 3.56277e-05 13.7623 3.56277e-05L13.7626 0ZM11.525 2.63512V14.2932L10.381 13.4948C10.2127 13.375 10.0276 13.375 9.85944 13.4948L8.19377 14.6526L6.52811 13.4948C6.35982 13.375 6.17474 13.375 6.00658 13.4948L4.34092 14.6526L2.67526 13.4948C2.59111 13.4349 2.50696 13.415 2.42294 13.415C2.33879 13.415 2.23786 13.4349 2.17062 13.4948L1.0266 14.2932L1.02649 2.63512C1.02649 1.85658 1.56493 1.21771 2.22109 1.21771H11.8784C11.6595 1.61692 11.525 2.11598 11.525 2.63512H11.525ZM14.9572 6.78731H12.5681V2.63512C12.5681 1.85658 13.1065 1.21771 13.7627 1.21771C14.4189 1.21771 14.9573 1.85658 14.9573 2.63512L14.9572 6.78731Z" fill="#363C90"/>
<path d="M8.95898 5.55469L8.68945 6.48047H3.25195L3.52148 5.55469H8.95898ZM6.52148 12L3.42188 8.37891L3.41602 7.65234H4.8457C5.25977 7.65234 5.60156 7.58398 5.87109 7.44727C6.14453 7.30664 6.34961 7.11719 6.48633 6.87891C6.62305 6.64062 6.69141 6.37305 6.69141 6.07617C6.69141 5.74414 6.62695 5.45312 6.49805 5.20312C6.36914 4.94922 6.16602 4.75195 5.88867 4.61133C5.61523 4.4668 5.25586 4.39453 4.81055 4.39453H3.26367L3.53906 3.46875H4.81055C5.49023 3.46875 6.05078 3.57227 6.49219 3.7793C6.9375 3.98242 7.26953 4.2793 7.48828 4.66992C7.70703 5.06055 7.81641 5.5332 7.81641 6.08789C7.81641 6.56445 7.72461 6.99219 7.54102 7.37109C7.36133 7.74609 7.0625 8.04102 6.64453 8.25586C6.23047 8.4707 5.67188 8.57812 4.96875 8.57812L7.85156 11.9297V12H6.52148ZM8.95898 3.46875L8.68945 4.39453H4.30664L4.57617 3.46875H8.95898Z" fill="#363C90"/>
</svg>
