<svg width="17" height="21" viewBox="0 0 17 21" fill="none" xmlns="http://www.w3.org/2000/svg">
<path d="M16.367 2.2754C16.5643 2.2754 16.7246 2.11512 16.7246 1.91781V0.487469C16.7246 0.290159 16.5643 0.129883 16.367 0.129883H0.633221C0.435911 0.129883 0.275635 0.290159 0.275635 0.487469V1.91781C0.275635 2.11512 0.435911 2.2754 0.633221 2.2754H0.990807V10.8575H0.633221C0.435911 10.8575 0.275635 11.0177 0.275635 11.2151V12.6454C0.275635 12.8427 0.435911 13.003 0.633221 13.003H0.990807V20.5123C0.990807 20.7096 1.15108 20.8699 1.34839 20.8699H15.6518C15.8492 20.8699 16.0094 20.7096 16.0094 20.5123V13.003H16.367C16.5643 13.003 16.7246 12.8427 16.7246 12.6454V11.2151C16.7246 11.0177 16.5643 10.8575 16.367 10.8575H16.0094V2.2754H16.367ZM0.990807 0.845055H16.0094V1.56023H0.990807V0.845055ZM2.76517 20.1547V15.8637H4.91069V20.1547H2.76517ZM15.2942 20.1547H5.62586V15.5061C5.62586 15.3088 5.46558 15.1485 5.26827 15.1485H2.40758C2.21027 15.1485 2.05 15.3088 2.05 15.5061V20.1547H1.70598V13.003H15.2943L15.2942 20.1547ZM16.0093 12.2878H0.990725V11.5726H16.0093V12.2878ZM15.2942 10.8575H1.7059V2.2754H15.2942V10.8575Z" fill="#363C90"/>
</svg>
