<svg width="14" height="14" viewBox="0 0 14 14" fill="none" xmlns="http://www.w3.org/2000/svg">
<path d="M1.20586 0.501922L1.55152 0.87171L4.38747 3.90563C4.39426 3.91144 4.40193 3.9161 4.41017 3.91944L1.20586 0.501922ZM1.20586 0.501922C1.23073 0.503863 1.25555 0.507279 1.28019 0.512182C1.40136 0.536295 1.51292 0.595324 1.60117 0.682074L4.48379 3.76709L4.49095 3.77476L4.49843 3.78212C4.5062 3.78977 4.51243 3.79891 4.51673 3.80905C4.52103 3.8192 4.52331 3.83012 4.5234 3.84119C4.5235 3.85226 4.52142 3.86323 4.5173 3.87345C4.51318 3.88367 4.5071 3.89293 4.49946 3.90072C4.49183 3.9085 4.48278 3.91466 4.47285 3.91888L4.66853 4.379L4.47285 3.91888C4.46293 3.9231 4.4523 3.92531 4.44156 3.92541C4.43083 3.9255 4.42017 3.92348 4.41017 3.91944L1.20586 0.501922ZM10.1384 9.78664L10.1384 9.78661C10.1131 9.75885 10.0816 9.73767 10.0465 9.72478C10.0119 9.71206 9.97482 9.70777 9.93828 9.71222C9.1927 9.81224 8.43433 9.7488 7.71569 9.52633M10.1384 9.78664L7.8591 9.04731M10.1384 9.78664L10.1428 9.79131M10.1384 9.78664L10.1428 9.79131M7.71569 9.52633C7.71405 9.52582 7.7124 9.52531 7.71076 9.5248L7.8591 9.04731M7.71569 9.52633C7.71626 9.52648 7.71682 9.52664 7.71738 9.52681L7.8591 9.04731M7.71569 9.52633C7.7035 9.52305 7.69068 9.52298 7.67844 9.52615C7.67528 9.52697 7.67219 9.528 7.66918 9.52923M7.8591 9.04731C7.75939 9.01785 7.65357 9.01607 7.55293 9.04216C7.4523 9.06826 7.36063 9.12125 7.28774 9.19548M7.66918 9.52923C7.67139 9.52531 7.6737 9.52129 7.67612 9.51717C7.68439 9.50305 7.6939 9.48775 7.70481 9.47125L7.6558 9.43885L7.28774 9.19548M7.66918 9.52923C7.63986 9.5812 7.62812 9.61569 7.62345 9.6344M7.66918 9.52923C7.65998 9.53299 7.65156 9.53861 7.64447 9.54582L7.28774 9.19548M7.28774 9.19548L7.62345 9.6344M7.62345 9.6344C7.61878 9.63019 7.61504 9.62634 7.61217 9.6229C7.61163 9.62224 7.61139 9.62191 7.61138 9.62192C7.61136 9.62193 7.61417 9.62589 7.61686 9.6336C7.62024 9.64334 7.62039 9.65036 7.6204 9.65107C7.62041 9.65113 7.62041 9.65114 7.62041 9.65113C7.62047 9.64986 7.62095 9.64437 7.62345 9.6344ZM7.62345 9.6344C7.66957 9.67597 7.80656 9.75229 8.0949 9.8139C8.68704 9.94042 9.47211 9.91897 9.78324 9.90907L10.0093 9.90187L10.1639 10.0668L13.3571 13.4727L12.9926 13.8149L13.3573 13.4729L13.3572 13.4728L7.62345 9.6344ZM10.1428 9.79131L13.4766 13.3566L13.4772 13.3574C13.4847 13.3654 13.4906 13.3748 13.4945 13.3851L13.9622 13.2083L10.1428 9.79131ZM3.60263 7.22597C3.5823 7.22637 3.56247 7.21931 3.54686 7.20604C2.62948 6.2523 1.85387 5.17126 1.2439 3.99616C1.00527 3.51234 0.663423 2.69693 0.543151 1.94507C0.482704 1.5672 0.485257 1.24633 0.554029 1.00499C0.582077 0.906564 0.620335 0.822481 0.671473 0.751278L0.686497 1.22887C0.762033 3.63008 2.18045 5.39908 3.63014 7.04923L3.64393 7.06493L3.65899 7.07942C3.67514 7.09498 3.68462 7.11649 3.68507 7.13929C3.68552 7.16208 3.6769 7.18397 3.66134 7.20017C3.64582 7.21635 3.62468 7.22554 3.60263 7.22597ZM12.2161 2.10509L11.7532 2.29417C11.7575 2.30447 11.7596 2.31553 11.7595 2.32671C11.7594 2.33788 11.7571 2.3489 11.7527 2.35912C11.7483 2.36935 11.7419 2.37854 11.734 2.38619L11.734 2.38614L11.7279 2.39228L7.65612 6.47037L7.15745 6.96981L7.79401 7.27461C8.21198 7.47475 8.68156 7.54067 9.13844 7.46328C9.59532 7.3859 10.0171 7.16902 10.346 6.84247L10.3475 6.84089L13.359 3.82417C13.3667 3.81645 13.3758 3.81036 13.3858 3.80623C13.3958 3.80209 13.4065 3.79998 13.4172 3.79999C13.428 3.8 13.4387 3.80212 13.4486 3.80627C13.4586 3.81042 13.4677 3.81652 13.4755 3.82425C13.4832 3.832 13.4893 3.84122 13.4935 3.85143C13.4978 3.86164 13.4999 3.87261 13.4999 3.8837C13.4999 3.8948 13.4977 3.90576 13.4935 3.91597L13.9554 4.10738L13.4935 3.91597C13.4893 3.92617 13.4831 3.93539 13.4754 3.94312L13.4751 3.9434L10.4634 6.9604L10.4634 6.96041C10.2395 7.18472 9.97361 7.36252 9.68107 7.48367C9.38852 7.60481 9.07501 7.66693 8.75849 7.66648H8.75781C8.28501 7.66645 7.82259 7.52721 7.42806 7.26599L7.08712 7.04025L6.7982 7.32962L0.666227 13.4712C0.650845 13.4852 0.630853 13.4928 0.610273 13.4926C0.588908 13.4925 0.568315 13.4839 0.552974 13.4685C0.537605 13.4531 0.528751 13.4321 0.528559 13.41C0.528374 13.3888 0.536249 13.3683 0.550336 13.3529L6.68231 7.21134L6.96989 6.92331L6.7462 6.58327C6.44017 6.11807 6.30352 5.56134 6.35938 5.00688C6.41523 4.45259 6.66004 3.93464 7.05241 3.54017C7.05252 3.54005 7.05263 3.53994 7.05275 3.53982L10.06 0.528487C10.0754 0.514429 10.0954 0.506804 10.116 0.506983C10.1373 0.507169 10.1579 0.515746 10.1733 0.531111C10.1886 0.546502 10.1975 0.567485 10.1977 0.589581C10.1979 0.610859 10.19 0.631251 10.1759 0.64672L7.16698 3.6586L7.16698 3.65859L7.16533 3.66025C6.8393 3.98966 6.62296 4.41183 6.54578 4.86894C6.4686 5.32604 6.53432 5.79588 6.734 6.2142L7.03888 6.8529L7.53901 6.35214L11.6119 2.27406L11.612 2.27411L11.618 2.2678C11.6257 2.25988 11.6348 2.2536 11.6448 2.2493C11.6548 2.245 11.6655 2.24274 11.6764 2.24265C11.6872 2.24255 11.6979 2.24462 11.708 2.24875C11.7181 2.25287 11.7273 2.25899 11.7351 2.26678C11.7428 2.27457 11.749 2.28387 11.7532 2.29417L12.2161 2.10509Z" fill="#363C90" stroke="#363C90"/>
</svg>
