<svg width="21" height="21" viewBox="0 0 21 21" fill="none" xmlns="http://www.w3.org/2000/svg">
<path fill-rule="evenodd" clip-rule="evenodd" d="M5.14646 3.72355C4.61534 4.13704 4.13704 4.61534 3.72355 5.14646L3.94646 6.2864C4.11029 7.1242 3.75622 7.97877 3.04808 8.45538L2.08367 9.10431C2.04305 9.43317 2.02189 9.76863 2.02189 10.11C2.02189 10.4514 2.04305 10.7869 2.08367 11.1157L3.04808 11.7646C3.75624 12.2413 4.11032 13.0957 3.94646 13.9336L3.72355 15.0736C4.13704 15.6047 4.61534 16.083 5.14646 16.4967L6.2864 16.2736C7.12437 16.1097 7.97877 16.4638 8.45538 17.172L9.10431 18.1364C9.43317 18.177 9.76863 18.1981 10.11 18.1981C10.4514 18.1981 10.7869 18.177 11.1157 18.1364L11.7646 17.172C12.2413 16.4638 13.0957 16.1097 13.9336 16.2736L15.0736 16.4967C15.6047 16.083 16.083 15.6047 16.4967 15.0736L16.2736 13.9336C16.1097 13.0957 16.4638 12.2413 17.172 11.7646L18.1364 11.1157C18.177 10.7869 18.1981 10.4514 18.1981 10.11C18.1981 9.76863 18.177 9.43318 18.1364 9.10431L17.172 8.45538C16.4638 7.97877 16.1097 7.12437 16.2736 6.2864L16.4967 5.14646C16.083 4.61534 15.6047 4.13704 15.0736 3.72355L13.9336 3.94646C13.0957 4.11029 12.2413 3.75622 11.7646 3.04808L11.1157 2.08367C10.7869 2.04305 10.4514 2.02189 10.11 2.02189C9.76863 2.02189 9.43318 2.04305 9.10431 2.08367L8.45538 3.04808C7.97877 3.75624 7.1242 4.11032 6.2864 3.94646L5.14646 3.72355ZM4.65616 1.59573C4.67799 1.58168 4.70439 1.57677 4.72978 1.58168L6.6745 1.96199C6.71444 1.96977 6.75506 1.95302 6.77774 1.91917L7.88466 0.274021C7.89921 0.252527 7.92139 0.237463 7.9466 0.231877C8.64359 0.0800583 9.36748 0 10.11 0C10.8525 0 11.5764 0.0800583 12.2734 0.231877C12.2986 0.237463 12.3208 0.252526 12.3353 0.274021L13.4423 1.91917C13.4649 1.95302 13.5057 1.96977 13.5455 1.96199L15.4902 1.58168C15.5156 1.57677 15.542 1.58168 15.5638 1.59573C16.7911 2.38344 17.8366 3.42905 18.6243 4.65616C18.6383 4.67799 18.6432 4.70439 18.6383 4.72978L18.258 6.6745C18.2502 6.71444 18.2672 6.75506 18.3008 6.77774L19.9458 7.88466C19.9675 7.89921 19.9825 7.92139 19.988 7.9466C20.1399 8.64359 20.22 9.36748 20.22 10.11C20.22 10.8525 20.1399 11.5764 19.988 12.2734C19.9825 12.2986 19.9675 12.3208 19.9458 12.3353L18.3008 13.4423C18.2672 13.4649 18.2502 13.5057 18.258 13.5455L18.6383 15.4902C18.6432 15.5156 18.6383 15.542 18.6243 15.5638C17.8366 16.7911 16.7911 17.8366 15.5638 18.6243C15.542 18.6383 15.5156 18.6432 15.4902 18.6383L13.5455 18.258C13.5057 18.2502 13.4649 18.2672 13.4423 18.3008L12.3353 19.9458C12.3208 19.9675 12.2986 19.9825 12.2734 19.988C11.5764 20.1399 10.8525 20.22 10.11 20.22C9.36748 20.22 8.64359 20.1399 7.9466 19.988C7.92139 19.9825 7.89921 19.9675 7.88466 19.9458L6.77774 18.3008C6.75506 18.2672 6.71444 18.2502 6.6745 18.258L4.72978 18.6383C4.70439 18.6432 4.67799 18.6383 4.65616 18.6243C3.42909 17.8366 2.38344 16.7911 1.59573 15.5638C1.58168 15.542 1.57677 15.5156 1.58168 15.4902L1.96199 13.5455C1.96977 13.5057 1.95302 13.4649 1.91917 13.4423L0.274022 12.3353C0.252527 12.3208 0.237463 12.2986 0.231877 12.2734C0.0800583 11.5764 0 10.8525 0 10.11C0 9.36748 0.0800583 8.64359 0.231877 7.9466C0.237463 7.92139 0.252526 7.89921 0.274022 7.88466L1.91917 6.77774C1.95302 6.75506 1.96977 6.71444 1.96199 6.6745L1.58168 4.72978C1.57677 4.70439 1.58168 4.67799 1.59573 4.65616C2.38344 3.42909 3.42905 2.38344 4.65616 1.59573Z" fill="white"/>
<path fill-rule="evenodd" clip-rule="evenodd" d="M10.1108 12.1317C11.2275 12.1317 12.1329 11.2263 12.1329 10.1096C12.1329 8.99291 11.2275 8.08756 10.1108 8.08756C8.99413 8.08756 8.08878 8.99291 8.08878 10.1096C8.08878 11.2263 8.99413 12.1317 10.1108 12.1317ZM10.1108 14.1536C12.3443 14.1536 14.1548 12.3431 14.1548 10.1096C14.1548 7.87616 12.3443 6.06567 10.1108 6.06567C7.87738 6.06567 6.06689 7.87616 6.06689 10.1096C6.06689 12.3431 7.87738 14.1536 10.1108 14.1536Z" fill="white"/>
</svg>
