<svg width="14" height="21" viewBox="0 0 14 21" fill="none" xmlns="http://www.w3.org/2000/svg">
<path d="M10.2124 8.48634C10.2124 8.7165 10.0109 8.91776 9.78099 8.91776H8.77403C8.74534 9.72325 8.31371 10.9314 6.27132 10.9314H5.66711L8.37129 13.6356C8.54386 13.8082 8.54386 14.067 8.37129 14.2398C8.285 14.3261 8.16982 14.3548 8.05484 14.3548C7.93986 14.3548 7.82467 14.3261 7.73839 14.2398L4.28636 10.7878C4.17137 10.6728 4.11378 10.4713 4.20007 10.3275C4.25766 10.1549 4.43023 10.0686 4.6028 10.0686H6.27131C7.62337 10.0686 7.88223 9.52198 7.91115 8.91802L4.6028 8.91782C4.37264 8.91782 4.17137 8.71635 4.17137 8.48639C4.17137 8.25623 4.37284 8.05497 4.6028 8.05497H7.76731C7.56584 7.70982 7.1631 7.47967 6.27136 7.47967L4.60285 7.47947C4.37269 7.47947 4.17142 7.278 4.17142 7.04804C4.17142 6.81788 4.37289 6.61661 4.60285 6.61661H6.27136L9.78098 6.61641C10.0111 6.61641 10.2124 6.81788 10.2124 7.04784C10.2124 7.27801 10.0109 7.47927 9.78098 7.47927H8.4002C8.54407 7.65184 8.63036 7.8533 8.68795 8.05456L9.78095 8.05476C10.0111 8.05476 10.2124 8.25623 10.2124 8.48639L10.2124 8.48634ZM13.8083 4.74653V20.5686C13.8083 20.7411 13.7221 20.885 13.5495 20.9713C13.4919 21 13.4345 21 13.3769 21C13.2619 21 13.1754 20.9713 13.0891 20.885L12.0824 19.9933L11.0754 20.885C10.9029 21.0289 10.6727 21.0289 10.5001 20.885L9.49318 19.9933L8.48622 20.885C8.31365 21.0289 8.08349 21.0289 7.91092 20.885L6.90417 19.9933L5.89721 20.885C5.72464 21.0289 5.49448 21.0289 5.32191 20.885L4.31516 19.9933L3.3082 20.885C3.13563 21.0289 2.90547 21.0289 2.7329 20.885L1.72594 19.9933L0.718984 20.885C0.604002 21 0.402532 21.0289 0.25866 20.9426C0.0862867 20.885 0 20.7411 0 20.5686V0.431428C0 0.201264 0.201469 0 0.431428 0H9.06163H9.14792C9.17661 0 9.17661 -1.99024e-07 9.20551 0.0286947H9.23421C9.2629 0.0286947 9.2629 0.0573898 9.2918 0.0573898H9.32049C9.34919 0.0860847 9.37808 0.0860844 9.37808 0.114981L11.5356 2.27253C12.7725 3.50942 13.3192 4.05606 13.5782 4.34378C13.6932 4.40137 13.7797 4.51635 13.8084 4.66023C13.8082 4.68893 13.8082 4.71782 13.8082 4.74652L13.8083 4.74653ZM9.49323 1.46705V4.31507H12.3413C11.5358 3.50959 10.2987 2.27249 9.49323 1.46705ZM12.9455 19.6192V5.17804H9.06178C8.83161 5.17804 8.63035 4.97657 8.63035 4.74661V0.862918H0.863165V19.6192L1.43846 19.1015C1.52475 19.0152 1.61103 18.9865 1.72622 18.9865C1.8412 18.9865 1.92768 19.0152 2.01397 19.1015L3.02093 19.9933L4.02789 19.1015C4.20046 18.9576 4.43062 18.9576 4.60319 19.1015L5.61015 19.9933L6.61711 19.1015C6.78968 18.9576 7.01984 18.9576 7.1924 19.1015L8.19936 19.9933L9.20632 19.1015C9.37889 18.9576 9.60905 18.9576 9.78162 19.1015L10.7886 19.9933L11.7955 19.1015C11.9681 18.9576 12.1983 18.9576 12.3708 19.1015L12.9455 19.6192ZM11.2193 16.6849H2.58912C2.35896 16.6849 2.1577 16.8864 2.1577 17.1164C2.1577 17.3465 2.35916 17.5478 2.58912 17.5478H11.2193C11.4495 17.5478 11.6508 17.3463 11.6508 17.1164C11.6508 16.8864 11.4495 16.6849 11.2193 16.6849Z" fill="#363C90"/>
</svg>
