<svg width="20" height="21" viewBox="0 0 20 21" fill="none" xmlns="http://www.w3.org/2000/svg">
<path d="M16.7401 15.215C16.5979 15.215 16.4827 15.3303 16.4827 15.4725C16.4827 15.6147 16.5979 15.7299 16.7401 15.7299H18.9951H18.995C19.1283 15.7291 19.2389 15.6268 19.2501 15.4941C19.2611 15.3612 19.1692 15.2419 19.0379 15.2189V13.5563C19.0371 12.8057 18.7385 12.0858 18.2075 11.555C17.6768 11.0242 16.957 10.7256 16.2062 10.7247H15.7197V10.0656C15.7197 9.92343 15.6045 9.80821 15.4623 9.80821H14.7758V8.58729H15.1405V8.7589C15.1405 8.9011 15.2559 9.01633 15.3979 9.01633H16.685C16.9304 9.01633 17.157 8.88547 17.2796 8.6731C17.4021 8.46072 17.4021 8.19901 17.2796 7.98664C17.157 7.77426 16.9303 7.64341 16.685 7.64341H15.3979C15.2559 7.64341 15.1405 7.75863 15.1405 7.90083V8.07244H13.2098V7.90083C13.2098 7.75863 13.0946 7.64341 12.9524 7.64341H11.6653C11.4202 7.64341 11.1936 7.77426 11.071 7.98664C10.9482 8.19901 10.9482 8.46073 11.071 8.6731C11.1936 8.88547 11.4202 9.01633 11.6653 9.01633H12.9524C13.0946 9.01633 13.2098 8.9011 13.2098 8.7589V8.58729H13.5745V9.80821H12.8881C12.746 9.80821 12.6306 9.92343 12.6306 10.0656V10.7247H10.8005V6.29994C10.8002 6.00452 10.6827 5.7212 10.4737 5.5122C10.2648 5.30335 9.98149 5.18583 9.68592 5.18537H8.65776V4.2608L10.9795 4.29773C11.0484 4.29896 11.1151 4.2723 11.1643 4.22388C11.2135 4.17546 11.2412 4.10941 11.2412 4.04031V1.54881C11.2407 1.13815 11.0772 0.744515 10.7869 0.454162C10.4965 0.163809 10.1029 0.000470716 9.69223 0H3.6859C3.27693 0.000459693 2.88466 0.163189 2.59537 0.452318C2.30607 0.741612 2.14336 1.13372 2.14289 1.54285V5.18536H1.11458C0.818998 5.18567 0.535831 5.3032 0.326834 5.5122C0.117832 5.72105 0.000305965 6.00437 0 6.29994V19.8856C0.000306475 20.181 0.117832 20.4643 0.326834 20.6732C0.535835 20.8822 0.819006 20.9997 1.11458 21H9.68592C9.98149 20.9997 10.2648 20.8822 10.4737 20.6732C10.6827 20.4643 10.8002 20.181 10.8005 19.8856V13.0414H12.3867C12.4949 13.575 12.8439 14.0286 13.3323 14.2696C13.8206 14.5106 14.3931 14.5119 14.8825 14.273C15.3718 14.0341 15.723 13.5819 15.8333 13.0487C16.0832 13.0792 16.3132 13.1999 16.4802 13.3883C16.6472 13.5766 16.7396 13.8194 16.7399 14.071L16.7401 15.215ZM15.6556 8.15822H16.6852H16.6851C16.7799 8.15822 16.8567 8.23499 16.8567 8.32984C16.8567 8.42453 16.7799 8.50145 16.6851 8.50145H15.6554L15.6556 8.15822ZM12.6952 8.50145H11.6653C11.5706 8.50145 11.4937 8.42453 11.4937 8.32984C11.4937 8.23499 11.5706 8.15822 11.6653 8.15822H12.695L12.6952 8.50145ZM8.65801 6.98587H9.00033V9.0425H8.65801V6.98587ZM10.7264 1.54871L10.7263 3.7788L8.65786 3.74586V1.54872C8.65786 1.17913 8.85506 0.837739 9.17502 0.6531C9.49496 0.468309 9.88921 0.468309 10.2091 0.6531C10.5291 0.837739 10.7263 1.17913 10.7263 1.54872L10.7264 1.54871ZM2.65796 1.54273C2.65827 1.27014 2.7666 1.00875 2.95936 0.815988C3.15212 0.623226 3.41352 0.514894 3.6861 0.514588H8.53997C8.28423 0.798214 8.1428 1.16657 8.14311 1.54855V9.04235H2.6581L2.65796 1.54273ZM1.80079 9.04241V6.98593H2.1431V9.04257L1.80079 9.04241ZM10.2858 19.8853C10.2857 20.0442 10.2224 20.1967 10.1101 20.3092C9.9976 20.4217 9.84514 20.4848 9.68608 20.4849H1.11474C0.955686 20.4848 0.803225 20.4217 0.690897 20.3092C0.578427 20.1967 0.515144 20.0443 0.514991 19.8853V6.29971C0.515144 6.14066 0.578427 5.98835 0.690897 5.87587C0.803214 5.7634 0.955674 5.70027 1.11474 5.69996H2.14305V6.47099H1.54332C1.40113 6.47099 1.2859 6.58622 1.2859 6.72842V9.2999C1.2859 9.44194 1.40113 9.55732 1.54332 9.55732H9.25757C9.39976 9.55732 9.51499 9.44194 9.51499 9.2999V6.72842C9.51499 6.58622 9.39976 6.47099 9.25757 6.47099H8.65799V5.69996H9.68631H9.68616C9.84521 5.70027 9.99767 5.7634 10.11 5.87587C10.2225 5.98834 10.2858 6.14064 10.2859 6.29971L10.2858 19.8853ZM14.0896 8.58699H14.2612V9.80791H14.0896V8.58699ZM13.1457 10.3228H15.2051V10.7244H13.1457V10.3228ZM15.7104 12.5263H15.6096C15.4735 12.5263 15.3609 12.6324 15.3528 12.7683C15.3255 13.193 15.0831 13.5743 14.71 13.7791C14.337 13.984 13.8852 13.984 13.5121 13.7791C13.1391 13.5743 12.8967 13.1931 12.8694 12.7683C12.8611 12.6324 12.7485 12.5263 12.6125 12.5263H10.8007V11.2392H16.2064C16.8207 11.24 17.4096 11.4843 17.844 11.9186C18.2782 12.3529 18.5226 12.9419 18.5232 13.556V15.2147H17.255V14.0709C17.2545 13.6614 17.0916 13.2689 16.802 12.9793C16.5124 12.6897 16.1198 12.5268 15.7104 12.5263Z" fill="#363C90"/>
</svg>
