<svg width="31" height="31" viewBox="0 0 31 31" fill="none" xmlns="http://www.w3.org/2000/svg">
<rect width="31" height="31" rx="15.5" fill="#DFE1FC"/>
<rect x="1.5" y="1.5" width="28" height="28" rx="14" fill="#DFE1FC"/>
<path fill-rule="evenodd" clip-rule="evenodd" d="M20.968 10.5797L23.6416 13.2373L15.4136 21.4165L12.7399 18.7588L20.968 10.5797ZM12.1636 19.431L14.8373 22.0887L11.75 22.5L12.1636 19.431ZM22.9048 8.65965C23.1074 8.45817 23.4082 8.43324 23.6429 8.66667C24.3893 9.40869 25.3579 10.3714 25.5899 10.6019C25.8218 10.8326 25.7875 11.1095 25.5785 11.3174C25.3695 11.5252 24.1637 12.7238 24.1637 12.7238L21.49 10.066L22.9048 8.65965Z" fill="#363C90"/>
<path fill-rule="evenodd" clip-rule="evenodd" d="M19.25 11.0801C17.7253 10.1558 15.7313 9.2913 13.4026 9.25H13.3822C10.0604 9.30894 7.41614 11.0439 5.84769 12.2376C5.77265 12.2944 5.25881 12.6629 5.25017 13.1337C5.24397 13.4654 5.40937 13.7103 5.64753 13.9155C6.84938 15.0026 9.38378 16.8826 12.7097 17.125L19.25 11.0801ZM16.6266 13.5047C16.6372 13.4044 16.6426 13.3025 16.6426 13.1996C16.6426 11.5168 15.1944 10.1514 13.3926 10.1408C11.5953 10.1514 10.1419 11.5168 10.1419 13.1996C10.1419 14.8823 11.5953 16.2479 13.3926 16.259C13.4823 16.2584 13.5712 16.2545 13.6591 16.2473L16.6266 13.5047ZM13.4027 12.0107C13.3994 12.0101 13.396 12.0101 13.3926 12.0101H13.3823V12.0107C12.6946 12.0265 12.1414 12.5528 12.1414 13.1996C12.1414 13.8465 12.6939 14.3732 13.3823 14.3886V14.3897C13.3857 14.3897 13.3891 14.3886 13.3926 14.3886C13.3953 14.3886 13.3988 14.3897 13.4027 14.3897V14.3886C14.0956 14.3732 14.6435 13.8465 14.6435 13.1996C14.6435 12.5528 14.0956 12.0265 13.4027 12.0107Z" fill="#363C90"/>
</svg>
