<svg width="18" height="18" viewBox="0 0 18 18" fill="none" xmlns="http://www.w3.org/2000/svg">
<mask id="path-1-outside-1_9748_46464" maskUnits="userSpaceOnUse" x="0.333008" y="0.333374" width="18" height="18" fill="black">
<rect fill="white" x="0.333008" y="0.333374" width="18" height="18"/>
<path fill-rule="evenodd" clip-rule="evenodd" d="M2.33301 9.00004C2.33301 5.33337 5.33301 2.33337 8.99967 2.33337C12.6663 2.33337 15.6663 5.33337 15.6663 9.00004C15.6663 12.6667 12.6663 15.6667 8.99967 15.6667C5.33301 15.6667 2.33301 12.6667 2.33301 9.00004ZM8.33301 5.66671H9.33301V9.13337L12.333 10.9334L11.7997 11.8L8.33301 9.66671V5.66671Z"/>
</mask>
<path fill-rule="evenodd" clip-rule="evenodd" d="M2.33301 9.00004C2.33301 5.33337 5.33301 2.33337 8.99967 2.33337C12.6663 2.33337 15.6663 5.33337 15.6663 9.00004C15.6663 12.6667 12.6663 15.6667 8.99967 15.6667C5.33301 15.6667 2.33301 12.6667 2.33301 9.00004ZM8.33301 5.66671H9.33301V9.13337L12.333 10.9334L11.7997 11.8L8.33301 9.66671V5.66671Z" fill="#CC293F"/>
<path d="M9.33301 5.66671H11.333V3.66671H9.33301V5.66671ZM8.33301 5.66671V3.66671H6.33301V5.66671H8.33301ZM9.33301 9.13337H7.33301V10.2658L8.30402 10.8484L9.33301 9.13337ZM12.333 10.9334L14.0363 11.9816L15.0964 10.259L13.362 9.21839L12.333 10.9334ZM11.7997 11.8L10.7515 13.5034L12.4548 14.5516L13.503 12.8482L11.7997 11.8ZM8.33301 9.66671H6.33301V10.7843L7.28481 11.37L8.33301 9.66671ZM8.99967 0.333374C4.22844 0.333374 0.333008 4.2288 0.333008 9.00004H4.33301C4.33301 6.43794 6.43758 4.33337 8.99967 4.33337V0.333374ZM17.6663 9.00004C17.6663 4.2288 13.7709 0.333374 8.99967 0.333374V4.33337C11.5618 4.33337 13.6663 6.43794 13.6663 9.00004H17.6663ZM8.99967 17.6667C13.7709 17.6667 17.6663 13.7713 17.6663 9.00004H13.6663C13.6663 11.5621 11.5618 13.6667 8.99967 13.6667V17.6667ZM0.333008 9.00004C0.333008 13.7713 4.22844 17.6667 8.99967 17.6667V13.6667C6.43758 13.6667 4.33301 11.5621 4.33301 9.00004H0.333008ZM9.33301 3.66671H8.33301V7.66671H9.33301V3.66671ZM11.333 9.13337V5.66671H7.33301V9.13337H11.333ZM13.362 9.21839L10.362 7.41839L8.30402 10.8484L11.304 12.6484L13.362 9.21839ZM13.503 12.8482L14.0363 11.9816L10.6297 9.88518L10.0964 10.7518L13.503 12.8482ZM7.28481 11.37L10.7515 13.5034L12.8479 10.0967L9.3812 7.96339L7.28481 11.37ZM6.33301 5.66671V9.66671H10.333V5.66671H6.33301Z" fill="white" mask="url(#path-1-outside-1_9748_46464)"/>
</svg>
