<svg width="18" height="18" viewBox="0 0 18 18" fill="none" xmlns="http://www.w3.org/2000/svg">
<mask id="path-1-outside-1_2418_20849" maskUnits="userSpaceOnUse" x="0.333344" y="0.333374" width="18" height="18" fill="black">
<rect fill="white" x="0.333344" y="0.333374" width="18" height="18"/>
<path fill-rule="evenodd" clip-rule="evenodd" d="M2.33334 9.00004C2.33334 5.33337 5.33334 2.33337 9.00001 2.33337C12.6667 2.33337 15.6667 5.33337 15.6667 9.00004C15.6667 12.6667 12.6667 15.6667 9.00001 15.6667C5.33334 15.6667 2.33334 12.6667 2.33334 9.00004ZM8.33334 5.66671H9.33334V9.13337L12.3333 10.9334L11.8 11.8L8.33334 9.66671V5.66671Z"/>
</mask>
<path fill-rule="evenodd" clip-rule="evenodd" d="M2.33334 9.00004C2.33334 5.33337 5.33334 2.33337 9.00001 2.33337C12.6667 2.33337 15.6667 5.33337 15.6667 9.00004C15.6667 12.6667 12.6667 15.6667 9.00001 15.6667C5.33334 15.6667 2.33334 12.6667 2.33334 9.00004ZM8.33334 5.66671H9.33334V9.13337L12.3333 10.9334L11.8 11.8L8.33334 9.66671V5.66671Z" fill="#CC293F"/>
<path d="M9.33334 5.66671H11.3333V3.66671H9.33334V5.66671ZM8.33334 5.66671V3.66671H6.33334V5.66671H8.33334ZM9.33334 9.13337H7.33334V10.2658L8.30435 10.8484L9.33334 9.13337ZM12.3333 10.9334L14.0367 11.9816L15.0967 10.259L13.3623 9.21839L12.3333 10.9334ZM11.8 11.8L10.7518 13.5034L12.4551 14.5516L13.5033 12.8482L11.8 11.8ZM8.33334 9.66671H6.33334V10.7843L7.28515 11.37L8.33334 9.66671ZM9.00001 0.333374C4.22877 0.333374 0.333344 4.2288 0.333344 9.00004H4.33334C4.33334 6.43794 6.43791 4.33337 9.00001 4.33337V0.333374ZM17.6667 9.00004C17.6667 4.2288 13.7712 0.333374 9.00001 0.333374V4.33337C11.5621 4.33337 13.6667 6.43794 13.6667 9.00004H17.6667ZM9.00001 17.6667C13.7712 17.6667 17.6667 13.7713 17.6667 9.00004H13.6667C13.6667 11.5621 11.5621 13.6667 9.00001 13.6667V17.6667ZM0.333344 9.00004C0.333344 13.7713 4.22877 17.6667 9.00001 17.6667V13.6667C6.43791 13.6667 4.33334 11.5621 4.33334 9.00004H0.333344ZM9.33334 3.66671H8.33334V7.66671H9.33334V3.66671ZM11.3333 9.13337V5.66671H7.33334V9.13337H11.3333ZM13.3623 9.21839L10.3623 7.41839L8.30435 10.8484L11.3044 12.6484L13.3623 9.21839ZM13.5033 12.8482L14.0367 11.9816L10.63 9.88518L10.0967 10.7518L13.5033 12.8482ZM7.28515 11.37L10.7518 13.5034L12.8482 10.0967L9.38154 7.96339L7.28515 11.37ZM6.33334 5.66671V9.66671H10.3333V5.66671H6.33334Z" fill="white" mask="url(#path-1-outside-1_2418_20849)"/>
</svg>
