<svg width="40" height="40" viewBox="0 0 40 40" fill="none" xmlns="http://www.w3.org/2000/svg">
<g clip-path="url(#clip0_12618_51369)">
<path d="M0 4.46374V20.5374C-1.88538e-08 22.0427 0.296122 23.5332 0.871456 24.9239C1.44679 26.3145 2.29007 27.5781 3.35313 28.6424C4.41619 29.7067 5.67821 30.5509 7.06713 31.1268C8.45604 31.7026 9.94464 31.9989 11.4479 31.9987H13.1447C9.72359 25.6182 8.89367 18.1618 10.8279 11.1837C7.76777 8.11889 4.07083 5.76689 0 4.29492C0 4.34938 0 4.40565 0 4.46374Z" fill="#5078F2"/>
<path d="M11.2086 20.0018C11.2044 23.7267 11.9441 27.4147 13.3843 30.8491C14.8245 34.2835 16.936 37.3948 19.5947 40C21.9485 37.689 23.8767 34.9803 25.2906 31.9985H27.6219C29.1251 31.9988 30.6137 31.7025 32.0027 31.1266C33.3916 30.5508 34.6536 29.7066 35.7167 28.6423C36.7797 27.578 37.623 26.3144 38.1983 24.9238C38.7737 23.5331 39.0698 22.0426 39.0698 20.5373V4.4636C39.0698 4.40552 39.0698 4.34925 39.0698 4.29479C33.377 6.35364 28.4546 10.1164 24.9706 15.0724C21.4866 20.0285 19.6098 25.9378 19.5947 31.9985C18.8406 22.1056 21.6432 15.3258 26.4417 10.806C25.0214 6.7238 22.6781 3.02558 19.5947 0C16.9358 2.60583 14.8242 5.71775 13.384 9.15274C11.9439 12.5877 11.2042 16.2764 11.2086 20.0018Z" fill="#5078F2"/>
</g>
<defs>
<clipPath id="clip0_12618_51369">
<rect width="39.0698" height="40" fill="white"/>
</clipPath>
</defs>
</svg>
