<svg width="18" height="18" viewBox="0 0 18 18" fill="none" xmlns="http://www.w3.org/2000/svg">
<g clip-path="url(#clip0_1646_19042)">
<rect width="18" height="18" fill="#363C90"/>
<path d="M6 12.75L9 15.75L12 12.75" stroke="white" stroke-width="1.5" stroke-linecap="round" stroke-linejoin="round"/>
<path d="M9 9V15.75" stroke="white" stroke-width="1.5" stroke-linecap="round" stroke-linejoin="round"/>
<path d="M15.6609 13.5674C16.3129 13.1089 16.8019 12.4546 17.0568 11.6993C17.3118 10.9441 17.3194 10.1272 17.0787 9.36732C16.8379 8.60742 16.3613 7.94402 15.7179 7.47337C15.0746 7.00272 14.298 6.74933 13.5009 6.74995H12.5559C12.3303 5.87085 11.9082 5.05439 11.3215 4.36201C10.7347 3.66963 9.99848 3.11939 9.16827 2.75271C8.33807 2.38604 7.4355 2.21247 6.52851 2.24509C5.62152 2.2777 4.73375 2.51565 3.93203 2.94102C3.13031 3.36639 2.43553 3.96809 1.90001 4.70082C1.36448 5.43356 1.00215 6.27823 0.840311 7.17126C0.678468 8.06429 0.721323 8.9824 0.96565 9.85646C1.20998 10.7305 1.64941 11.5378 2.25087 12.2174" stroke="white" stroke-width="1.5" stroke-linecap="round" stroke-linejoin="round"/>
</g>
<defs>
<clipPath id="clip0_1646_19042">
<rect width="18" height="18" fill="white"/>
</clipPath>
</defs>
</svg>
