<svg width="18" height="18" viewBox="0 0 18 18" fill="none" xmlns="http://www.w3.org/2000/svg">
<path fill-rule="evenodd" clip-rule="evenodd" d="M5.22776 5.22678C5.28001 5.17439 5.34208 5.13283 5.41042 5.10448C5.47876 5.07612 5.55202 5.06152 5.62601 5.06152C5.69999 5.06152 5.77325 5.07612 5.84159 5.10448C5.90993 5.13283 5.972 5.17439 6.02426 5.22678L9.00101 8.20465L11.9778 5.22678C12.0301 5.17448 12.0921 5.13299 12.1605 5.10469C12.2288 5.07639 12.302 5.06182 12.376 5.06182C12.45 5.06182 12.5232 5.07639 12.5915 5.10469C12.6599 5.13299 12.722 5.17448 12.7743 5.22678C12.8266 5.27908 12.868 5.34117 12.8963 5.4095C12.9246 5.47783 12.9392 5.55107 12.9392 5.62503C12.9392 5.69899 12.9246 5.77223 12.8963 5.84056C12.868 5.90889 12.8266 5.97098 12.7743 6.02328L9.79638 9.00003L12.7743 11.9768C12.8266 12.0291 12.868 12.0912 12.8963 12.1595C12.9246 12.2278 12.9392 12.3011 12.9392 12.375C12.9392 12.449 12.9246 12.5222 12.8963 12.5906C12.868 12.6589 12.8266 12.721 12.7743 12.7733C12.722 12.8256 12.6599 12.8671 12.5915 12.8954C12.5232 12.9237 12.45 12.9382 12.376 12.9382C12.302 12.9382 12.2288 12.9237 12.1605 12.8954C12.0921 12.8671 12.0301 12.8256 11.9778 12.7733L9.00101 9.7954L6.02426 12.7733C5.97196 12.8256 5.90987 12.8671 5.84154 12.8954C5.77321 12.9237 5.69997 12.9382 5.62601 12.9382C5.55204 12.9382 5.47881 12.9237 5.41047 12.8954C5.34214 12.8671 5.28005 12.8256 5.22776 12.7733C5.17546 12.721 5.13397 12.6589 5.10567 12.5906C5.07736 12.5222 5.06279 12.449 5.06279 12.375C5.06279 12.3011 5.07736 12.2278 5.10567 12.1595C5.13397 12.0912 5.17546 12.0291 5.22776 11.9768L8.20563 9.00003L5.22776 6.02328C5.17537 5.97103 5.13381 5.90895 5.10545 5.84062C5.0771 5.77228 5.0625 5.69902 5.0625 5.62503C5.0625 5.55104 5.0771 5.47778 5.10545 5.40944C5.13381 5.3411 5.17537 5.27903 5.22776 5.22678Z" fill="white"/>
</svg>
